<svg xmlns="http://www.w3.org/2000/svg" width="120" height="120" viewBox="0 0 120 120">
  <path fill="#FFFFFF" fill-rule="evenodd" d="M119.991679,60.9891446 C119.448531,92.0650377 93.3275337,117.195056 61.026155,117.717023 L119.991679,60.9891446 Z M26.2609452,107.729315 L120,17.546438 L120,39.481873 L41.5621159,114.943794 C36.0746638,113.238705 30.9314068,110.793029 26.2609452,107.729315 Z M5.53510978,84.2347902 L93.9213647,-0.797265352 L116.670764,-0.748851107 L14.4667814,97.5774533 C10.8886661,93.5689052 7.87261002,89.0837793 5.53510978,84.2347902 Z M0.0242071222,46.1032774 L48.8756926,-0.894850313 L71.6250922,-0.845679596 L0.512131929,67.568943 C0.173988691,65.0922518 8.17124146e-14,62.5663899 8.17124146e-14,60.0019479 L0.0242071222,46.1032774 Z M26.5786637,-0.942508085 L0.0620307506,24.5680163 L0.107419105,-1 L26.5786637,-0.942508085 Z"/>
</svg>
