<svg width="1440" height="858" viewBox="0 0 1440 858" fill="none" xmlns="http://www.w3.org/2000/svg">
<path d="M293.21 910.51H315.29V980.78H293.21V910.51ZM293.21 910.51H271.13V840.24H293.21V910.51ZM212.9 910.51H271.12V980.78H212.9V910.51ZM212.9 910.51H172.75V840.24H212.9V910.51ZM150.66 910.51H172.74V980.78H150.66V910.51Z" fill="#F268E5"/>
<path d="M293.87 910.51H315.95V980.78H293.87V910.51ZM338.04 910.51H315.96V840.24H338.04V910.51ZM338.04 910.51H396.26V980.78H338.04V910.51ZM436.42 910.51H396.27V840.24H436.42V910.51ZM436.42 910.51H458.5V980.78H436.42V910.51Z" fill="#F268E5"/>
<path d="M436.41 910.51H458.49V980.78H436.41V910.51ZM480.58 910.51H458.5V840.24H480.58V910.51ZM480.58 910.51H569.92V980.78H480.58V910.51ZM610.07 910.51H569.92V840.24H610.07V910.51ZM610.07 910.51H632.15V980.78H610.07V910.51Z" fill="#F268E5"/>
<path d="M-23 980.78H-0.92V910.51H-23V980.78ZM39.24 980.78H128.58V910.51H39.24V980.78ZM150.67 980.78H172.75V910.51H150.67V980.78ZM-0.92 910.51H39.24V840.24H-0.92V910.51ZM128.57 910.51H150.66V840.24H128.57V910.51Z" fill="#F268E5"/>
<path d="M293.21 629.43H315.29V699.7H293.21V629.43ZM293.21 629.43H271.13V559.16H293.21V629.43ZM212.9 629.43H271.12V699.7H212.9V629.43ZM212.9 629.43H172.75V559.16H212.9V629.43ZM150.66 629.43H172.74V699.7H150.66V629.43Z" fill="#F268E5"/>
<path d="M293.21 769.97H315.29V840.24H293.21V769.97ZM293.21 769.97H271.13V699.7H293.21V769.97ZM212.9 769.97H271.12V840.24H212.9V769.97ZM212.9 769.97H172.75V699.7H212.9V769.97ZM150.66 769.97H172.74V840.24H150.66V769.97Z" fill="#F268E5"/>
<path d="M293.87 629.43H315.95V699.7H293.87V629.43ZM338.04 629.43H315.96V559.16H338.04V629.43ZM338.04 629.43H396.26V699.7H338.04V629.43ZM436.42 629.43H396.27V559.16H436.42V629.43ZM436.42 629.43H458.5V699.7H436.42V629.43Z" fill="#F268E5"/>
<path d="M293.87 769.97H315.95V840.24H293.87V769.97ZM338.04 769.97H315.96V699.7H338.04V769.97ZM338.04 769.97H396.26V840.24H338.04V769.97ZM436.42 769.97H396.27V699.7H436.42V769.97ZM436.42 769.97H458.5V840.24H436.42V769.97Z" fill="#F268E5"/>
<path d="M436.41 629.43H458.49V699.7H436.41V629.43ZM480.58 629.43H458.5V559.16H480.58V629.43ZM480.58 629.43H569.92V699.7H480.58V629.43ZM610.07 629.43H569.92V559.16H610.07V629.43ZM610.07 629.43H632.15V699.7H610.07V629.43Z" fill="#F268E5"/>
<path d="M436.41 769.97H458.49V840.24H436.41V769.97ZM480.58 769.97H458.5V699.7H480.58V769.97ZM480.58 769.97H569.92V840.24H480.58V769.97ZM610.07 769.97H569.92V699.7H610.07V769.97ZM610.07 769.97H632.15V840.24H610.07V769.97Z" fill="#F268E5"/>
<path d="M-23 699.7H-0.92V629.43H-23V699.7ZM39.24 699.7H128.58V629.43H39.24V699.7ZM150.67 699.7H172.75V629.43H150.67V699.7ZM-0.92 629.43H39.24V559.16H-0.92V629.43ZM128.57 629.43H150.66V559.16H128.57V629.43Z" fill="#F268E5"/>
<path d="M-23 840.24H-0.92V769.97H-23V840.24ZM39.24 840.24H128.58V769.97H39.24V840.24ZM150.67 840.24H172.75V769.97H150.67V840.24ZM-0.92 769.97H39.24V699.7H-0.92V769.97ZM128.57 769.97H150.66V699.7H128.57V769.97Z" fill="#F268E5"/>
<path d="M293.21 348.35H315.29V418.62H293.21V348.35ZM293.21 348.35H271.13V278.08H293.21V348.35ZM212.9 348.35H271.12V418.62H212.9V348.35ZM212.9 348.35H172.75V278.08H212.9V348.35ZM150.66 348.35H172.74V418.62H150.66V348.35Z" fill="#F268E5"/>
<path d="M293.21 488.89H315.29V559.16H293.21V488.89ZM293.21 488.89H271.13V418.62H293.21V488.89ZM212.9 488.89H271.12V559.16H212.9V488.89ZM212.9 488.89H172.75V418.62H212.9V488.89ZM150.66 488.89H172.74V559.16H150.66V488.89Z" fill="#F268E5"/>
<path d="M293.87 348.35H315.95V418.62H293.87V348.35ZM338.04 348.35H315.96V278.08H338.04V348.35ZM338.04 348.35H396.26V418.62H338.04V348.35ZM436.42 348.35H396.27V278.08H436.42V348.35ZM436.42 348.35H458.5V418.62H436.42V348.35Z" fill="#F268E5"/>
<path d="M293.87 488.89H315.95V559.16H293.87V488.89ZM338.04 488.89H315.96V418.62H338.04V488.89ZM338.04 488.89H396.26V559.16H338.04V488.89ZM436.42 488.89H396.27V418.62H436.42V488.89ZM436.42 488.89H458.5V559.16H436.42V488.89Z" fill="#F268E5"/>
<path d="M436.41 348.35H458.49V418.62H436.41V348.35ZM480.58 348.35H458.5V278.08H480.58V348.35ZM480.58 348.35H569.92V418.62H480.58V348.35ZM610.07 348.35H569.92V278.08H610.07V348.35ZM610.07 348.35H632.15V418.62H610.07V348.35Z" fill="#F268E5"/>
<path d="M436.41 488.89H458.49V559.16H436.41V488.89ZM480.58 488.89H458.5V418.62H480.58V488.89ZM480.58 488.89H569.92V559.16H480.58V488.89ZM610.07 488.89H569.92V418.62H610.07V488.89ZM610.07 488.89H632.15V559.16H610.07V488.89Z" fill="#F268E5"/>
<path d="M-23 418.62H-0.92V348.35H-23V418.62ZM39.24 418.62H128.58V348.35H39.24V418.62ZM150.67 418.62H172.75V348.35H150.67V418.62ZM-0.92 348.35H39.24V278.08H-0.92V348.35ZM128.57 348.35H150.66V278.08H128.57V348.35Z" fill="#F268E5"/>
<path d="M-23 559.16H-0.92V488.89H-23V559.16ZM39.24 559.16H128.58V488.89H39.24V559.16ZM150.67 559.16H172.75V488.89H150.67V559.16ZM-0.92 488.89H39.24V418.62H-0.92V488.89ZM128.57 488.89H150.66V418.62H128.57V488.89Z" fill="#F268E5"/>
<path d="M150.66 137.54H172.74V67.27H150.66V137.54ZM212.9 137.54H271.12V67.27H212.9V137.54ZM293.21 137.54H315.29V67.27H293.21V137.54ZM172.75 67.27H212.9V-3H172.75V67.27ZM271.13 67.27H293.21V-3H271.13V67.27Z" fill="#F268E5"/>
<path d="M293.21 207.81H315.29V278.08H293.21V207.81ZM293.21 207.81H271.13V137.54H293.21V207.81ZM212.9 207.81H271.12V278.08H212.9V207.81ZM212.9 207.81H172.75V137.54H212.9V207.81ZM150.66 207.81H172.74V278.08H150.66V207.81Z" fill="#F268E5"/>
<path d="M436.41 137.54H458.49V67.27H436.41V137.54ZM315.95 -3V67.27H293.87V137.54H315.95V67.27H338.03V-3H315.95ZM396.26 -3V67.27H338.04V137.54H396.26V67.27H436.41V-3H396.26Z" fill="#F268E5"/>
<path d="M293.87 207.81H315.95V278.08H293.87V207.81ZM338.04 207.81H315.96V137.54H338.04V207.81ZM338.04 207.81H396.26V278.08H338.04V207.81ZM436.42 207.81H396.27V137.54H436.42V207.81ZM436.42 207.81H458.5V278.08H436.42V207.81Z" fill="#F268E5"/>
<path d="M610.07 137.54H632.15V67.27H610.07V137.54ZM458.49 -3V67.27H436.41V137.54H458.49V67.27H480.58V-3H458.49ZM569.92 -3V67.27H480.58V137.54H569.92V67.27H610.07V-3H569.92Z" fill="#F268E5"/>
<path d="M436.41 207.81H458.49V278.08H436.41V207.81ZM480.58 207.81H458.5V137.54H480.58V207.81ZM480.58 207.81H569.92V278.08H480.58V207.81ZM610.07 207.81H569.92V137.54H610.07V207.81ZM610.07 207.81H632.15V278.08H610.07V207.81Z" fill="#F268E5"/>
<path d="M-23 137.54H-0.92V67.27H-23V137.54ZM39.24 137.54H128.58V67.27H39.24V137.54ZM150.67 137.54H172.75V67.27H150.67V137.54ZM-0.92 67.27H39.24V-3H-0.92V67.27ZM128.57 67.27H150.66V-3H128.57V67.27Z" fill="#F268E5"/>
<path d="M-23 278.08H-0.92V207.81H-23V278.08ZM39.24 278.08H128.58V207.81H39.24V278.08ZM150.67 278.08H172.75V207.81H150.67V278.08ZM-0.92 207.81H39.24V137.54H-0.92V207.81ZM128.57 207.81H150.66V137.54H128.57V207.81Z" fill="#F268E5"/>
<path d="M926.72 910.51H948.8V980.78H926.72V910.51ZM926.72 910.51H904.64V840.24H926.72V910.51ZM846.41 910.51H904.63V980.78H846.41V910.51ZM846.41 910.51H806.26V840.24H846.41V910.51ZM784.17 910.51H806.25V980.78H784.17V910.51Z" fill="#F268E5"/>
<path d="M927.38 910.51H949.46V980.78H927.38V910.51ZM971.55 910.51H949.47V840.24H971.55V910.51ZM971.55 910.51H1029.77V980.78H971.55V910.51ZM1069.93 910.51H1029.78V840.24H1069.93V910.51ZM1069.93 910.51H1092.01V980.78H1069.93V910.51Z" fill="#F268E5"/>
<path d="M1069.92 910.51H1092V980.78H1069.92V910.51ZM1114.09 910.51H1092.01V840.24H1114.09V910.51ZM1114.09 910.51H1203.43V980.78H1114.09V910.51ZM1243.58 910.51H1203.43V840.24H1243.58V910.51ZM1243.58 910.51H1265.66V980.78H1243.58V910.51Z" fill="#F268E5"/>
<path d="M784.18 910.51H806.26V980.78H784.18V910.51ZM784.18 910.51H762.1V840.24H784.18V910.51ZM672.75 910.51H762.09V980.78H672.75V910.51ZM672.75 910.51H632.6V840.24H672.75V910.51ZM610.51 910.51H632.59V980.78H610.51V910.51Z" fill="#F268E5"/>
<path d="M926.72 629.43H948.8V699.7H926.72V629.43ZM926.72 629.43H904.64V559.16H926.72V629.43ZM846.41 629.43H904.63V699.7H846.41V629.43ZM846.41 629.43H806.26V559.16H846.41V629.43ZM784.17 629.43H806.25V699.7H784.17V629.43Z" fill="#F268E5"/>
<path d="M926.72 769.97H948.8V840.24H926.72V769.97ZM926.72 769.97H904.64V699.7H926.72V769.97ZM846.41 769.97H904.63V840.24H846.41V769.97ZM846.41 769.97H806.26V699.7H846.41V769.97ZM784.17 769.97H806.25V840.24H784.17V769.97Z" fill="#F268E5"/>
<path d="M927.38 629.43H949.46V699.7H927.38V629.43ZM971.55 629.43H949.47V559.16H971.55V629.43ZM971.55 629.43H1029.77V699.7H971.55V629.43ZM1069.93 629.43H1029.78V559.16H1069.93V629.43ZM1069.93 629.43H1092.01V699.7H1069.93V629.43Z" fill="#F268E5"/>
<path d="M927.38 769.97H949.46V840.24H927.38V769.97ZM971.55 769.97H949.47V699.7H971.55V769.97ZM971.55 769.97H1029.77V840.24H971.55V769.97ZM1069.93 769.97H1029.78V699.7H1069.93V769.97ZM1069.93 769.97H1092.01V840.24H1069.93V769.97Z" fill="#F268E5"/>
<path d="M1069.92 629.43H1092V699.7H1069.92V629.43ZM1114.09 629.43H1092.01V559.16H1114.09V629.43ZM1114.09 629.43H1203.43V699.7H1114.09V629.43ZM1243.58 629.43H1203.43V559.16H1243.58V629.43ZM1243.58 629.43H1265.66V699.7H1243.58V629.43Z" fill="#F268E5"/>
<path d="M1069.92 769.97H1092V840.24H1069.92V769.97ZM1114.09 769.97H1092.01V699.7H1114.09V769.97ZM1114.09 769.97H1203.43V840.24H1114.09V769.97ZM1243.58 769.97H1203.43V699.7H1243.58V769.97ZM1243.58 769.97H1265.66V840.24H1243.58V769.97Z" fill="#F268E5"/>
<path d="M784.18 629.43H806.26V699.7H784.18V629.43ZM784.18 629.43H762.1V559.16H784.18V629.43ZM672.75 629.43H762.09V699.7H672.75V629.43ZM672.75 629.43H632.6V559.16H672.75V629.43ZM610.51 629.43H632.59V699.7H610.51V629.43Z" fill="#F268E5"/>
<path d="M784.18 769.97H806.26V840.24H784.18V769.97ZM784.18 769.97H762.1V699.7H784.18V769.97ZM672.75 769.97H762.09V840.24H672.75V769.97ZM672.75 769.97H632.6V699.7H672.75V769.97ZM610.51 769.97H632.59V840.24H610.51V769.97Z" fill="#F268E5"/>
<path d="M926.72 348.35H948.8V418.62H926.72V348.35ZM926.72 348.35H904.64V278.08H926.72V348.35ZM846.41 348.35H904.63V418.62H846.41V348.35ZM846.41 348.35H806.26V278.08H846.41V348.35ZM784.17 348.35H806.25V418.62H784.17V348.35Z" fill="#F268E5"/>
<path d="M926.72 488.89H948.8V559.16H926.72V488.89ZM926.72 488.89H904.64V418.62H926.72V488.89ZM846.41 488.89H904.63V559.16H846.41V488.89ZM846.41 488.89H806.26V418.62H846.41V488.89ZM784.17 488.89H806.25V559.16H784.17V488.89Z" fill="#F268E5"/>
<path d="M927.38 348.35H949.46V418.62H927.38V348.35ZM971.55 348.35H949.47V278.08H971.55V348.35ZM971.55 348.35H1029.77V418.62H971.55V348.35ZM1069.93 348.35H1029.78V278.08H1069.93V348.35ZM1069.93 348.35H1092.01V418.62H1069.93V348.35Z" fill="#F268E5"/>
<path d="M927.38 488.89H949.46V559.16H927.38V488.89ZM971.55 488.89H949.47V418.62H971.55V488.89ZM971.55 488.89H1029.77V559.16H971.55V488.89ZM1069.93 488.89H1029.78V418.62H1069.93V488.89ZM1069.93 488.89H1092.01V559.16H1069.93V488.89Z" fill="#F268E5"/>
<path d="M1069.92 348.35H1092V418.62H1069.92V348.35ZM1114.09 348.35H1092.01V278.08H1114.09V348.35ZM1114.09 348.35H1203.43V418.62H1114.09V348.35ZM1243.58 348.35H1203.43V278.08H1243.58V348.35ZM1243.58 348.35H1265.66V418.62H1243.58V348.35Z" fill="#F268E5"/>
<path d="M1069.92 488.89H1092V559.16H1069.92V488.89ZM1114.09 488.89H1092.01V418.62H1114.09V488.89ZM1114.09 488.89H1203.43V559.16H1114.09V488.89ZM1243.58 488.89H1203.43V418.62H1243.58V488.89ZM1243.58 488.89H1265.66V559.16H1243.58V488.89Z" fill="#F268E5"/>
<path d="M784.18 348.35H806.26V418.62H784.18V348.35ZM784.18 348.35H762.1V278.08H784.18V348.35ZM672.75 348.35H762.09V418.62H672.75V348.35ZM672.75 348.35H632.6V278.08H672.75V348.35ZM610.51 348.35H632.59V418.62H610.51V348.35Z" fill="#F268E5"/>
<path d="M784.18 488.89H806.26V559.16H784.18V488.89ZM784.18 488.89H762.1V418.62H784.18V488.89ZM672.75 488.89H762.09V559.16H672.75V488.89ZM672.75 488.89H632.6V418.62H672.75V488.89ZM610.51 488.89H632.59V559.16H610.51V488.89Z" fill="#F268E5"/>
<path d="M784.18 137.54H806.26V67.27H784.18V137.54ZM846.42 137.54H904.64V67.27H846.42V137.54ZM926.73 137.54H948.81V67.27H926.73V137.54ZM806.27 67.27H846.42V-3H806.27V67.27ZM904.65 67.27H926.73V-3H904.65V67.27Z" fill="#F268E5"/>
<path d="M926.72 207.81H948.8V278.08H926.72V207.81ZM926.72 207.81H904.64V137.54H926.72V207.81ZM846.41 207.81H904.63V278.08H846.41V207.81ZM846.41 207.81H806.26V137.54H846.41V207.81ZM784.17 207.81H806.25V278.08H784.17V207.81Z" fill="#F268E5"/>
<path d="M1069.92 137.54H1092V67.27H1069.92V137.54ZM949.46 -3V67.27H927.38V137.54H949.46V67.27H971.54V-3H949.46ZM1029.77 -3V67.27H971.55V137.54H1029.77V67.27H1069.92V-3H1029.77Z" fill="#F268E5"/>
<path d="M927.38 207.81H949.46V278.08H927.38V207.81ZM971.55 207.81H949.47V137.54H971.55V207.81ZM971.55 207.81H1029.77V278.08H971.55V207.81ZM1069.93 207.81H1029.78V137.54H1069.93V207.81ZM1069.93 207.81H1092.01V278.08H1069.93V207.81Z" fill="#F268E5"/>
<path d="M1243.58 137.54H1265.66V67.27H1243.58V137.54ZM1092.01 -3V67.27H1069.93V137.54H1092.01V67.27H1114.09V-3H1092.01ZM1203.44 -3V67.27H1114.1V137.54H1203.44V67.27H1243.59V-3H1203.44Z" fill="#F268E5"/>
<path d="M1069.92 207.81H1092V278.08H1069.92V207.81ZM1114.09 207.81H1092.01V137.54H1114.09V207.81ZM1114.09 207.81H1203.43V278.08H1114.09V207.81ZM1243.58 207.81H1203.43V137.54H1243.58V207.81ZM1243.58 207.81H1265.66V278.08H1243.58V207.81Z" fill="#F268E5"/>
<path d="M610.51 137.54H632.59V67.27H610.51V137.54ZM672.75 137.54H762.09V67.27H672.75V137.54ZM784.18 137.54H806.26V67.27H784.18V137.54ZM632.6 67.27H672.75V-3H632.6V67.27ZM762.1 67.27H784.18V-3H762.1V67.27Z" fill="#F268E5"/>
<path d="M784.18 207.81H806.26V278.08H784.18V207.81ZM784.18 207.81H762.1V137.54H784.18V207.81ZM672.75 207.81H762.09V278.08H672.75V207.81ZM672.75 207.81H632.6V137.54H672.75V207.81ZM610.51 207.81H632.59V278.08H610.51V207.81Z" fill="#F268E5"/>
<path d="M1560.23 910.51H1582.31V980.78H1560.23V910.51ZM1560.23 910.51H1538.15V840.24H1560.23V910.51ZM1479.92 910.51H1538.14V980.78H1479.92V910.51ZM1479.92 910.51H1439.77V840.24H1479.92V910.51ZM1417.68 910.51H1439.76V980.78H1417.68V910.51Z" fill="#F268E5"/>
<path d="M1417.69 910.51H1439.77V980.78H1417.69V910.51ZM1417.69 910.51H1395.61V840.24H1417.69V910.51ZM1306.26 910.51H1395.6V980.78H1306.26V910.51ZM1306.26 910.51H1266.11V840.24H1306.26V910.51ZM1244.02 910.51H1266.1V980.78H1244.02V910.51Z" fill="#F268E5"/>
<path d="M1560.23 629.43H1582.31V699.7H1560.23V629.43ZM1560.23 629.43H1538.15V559.16H1560.23V629.43ZM1479.92 629.43H1538.14V699.7H1479.92V629.43ZM1479.92 629.43H1439.77V559.16H1479.92V629.43ZM1417.68 629.43H1439.76V699.7H1417.68V629.43Z" fill="#F268E5"/>
<path d="M1560.23 769.97H1582.31V840.24H1560.23V769.97ZM1560.23 769.97H1538.15V699.7H1560.23V769.97ZM1479.92 769.97H1538.14V840.24H1479.92V769.97ZM1479.92 769.97H1439.77V699.7H1479.92V769.97ZM1417.68 769.97H1439.76V840.24H1417.68V769.97Z" fill="#F268E5"/>
<path d="M1417.69 629.43H1439.77V699.7H1417.69V629.43ZM1417.69 629.43H1395.61V559.16H1417.69V629.43ZM1306.26 629.43H1395.6V699.7H1306.26V629.43ZM1306.26 629.43H1266.11V559.16H1306.26V629.43ZM1244.02 629.43H1266.1V699.7H1244.02V629.43Z" fill="#F268E5"/>
<path d="M1417.69 769.97H1439.77V840.24H1417.69V769.97ZM1417.69 769.97H1395.61V699.7H1417.69V769.97ZM1306.26 769.97H1395.6V840.24H1306.26V769.97ZM1306.26 769.97H1266.11V699.7H1306.26V769.97ZM1244.02 769.97H1266.1V840.24H1244.02V769.97Z" fill="#F268E5"/>
<path d="M1560.23 348.35H1582.31V418.62H1560.23V348.35ZM1560.23 348.35H1538.15V278.08H1560.23V348.35ZM1479.92 348.35H1538.14V418.62H1479.92V348.35ZM1479.92 348.35H1439.77V278.08H1479.92V348.35ZM1417.68 348.35H1439.76V418.62H1417.68V348.35Z" fill="#F268E5"/>
<path d="M1560.23 488.89H1582.31V559.16H1560.23V488.89ZM1560.23 488.89H1538.15V418.62H1560.23V488.89ZM1479.92 488.89H1538.14V559.16H1479.92V488.89ZM1479.92 488.89H1439.77V418.62H1479.92V488.89ZM1417.68 488.89H1439.76V559.16H1417.68V488.89Z" fill="#F268E5"/>
<path d="M1417.69 348.35H1439.77V418.62H1417.69V348.35ZM1417.69 348.35H1395.61V278.08H1417.69V348.35ZM1306.26 348.35H1395.6V418.62H1306.26V348.35ZM1306.26 348.35H1266.11V278.08H1306.26V348.35ZM1244.02 348.35H1266.1V418.62H1244.02V348.35Z" fill="#F268E5"/>
<path d="M1417.69 488.89H1439.77V559.16H1417.69V488.89ZM1417.69 488.89H1395.61V418.62H1417.69V488.89ZM1306.26 488.89H1395.6V559.16H1306.26V488.89ZM1306.26 488.89H1266.11V418.62H1306.26V488.89ZM1244.02 488.89H1266.1V559.16H1244.02V488.89Z" fill="#F268E5"/>
<path d="M1417.69 137.54H1439.77V67.27H1417.69V137.54ZM1479.93 137.54H1538.15V67.27H1479.93V137.54ZM1560.23 137.54H1582.31V67.27H1560.23V137.54ZM1439.77 67.27H1479.92V-3H1439.77V67.27ZM1538.15 67.27H1560.23V-3H1538.15V67.27Z" fill="#F268E5"/>
<path d="M1560.23 207.81H1582.31V278.08H1560.23V207.81ZM1560.23 207.81H1538.15V137.54H1560.23V207.81ZM1479.92 207.81H1538.14V278.08H1479.92V207.81ZM1479.92 207.81H1439.77V137.54H1479.92V207.81ZM1417.68 207.81H1439.76V278.08H1417.68V207.81Z" fill="#F268E5"/>
<path d="M1244.02 137.54H1266.1V67.27H1244.02V137.54ZM1306.26 137.54H1395.6V67.27H1306.26V137.54ZM1417.69 137.54H1439.77V67.27H1417.69V137.54ZM1266.11 67.27H1306.26V-3H1266.11V67.27ZM1395.6 67.27H1417.68V-3H1395.6V67.27Z" fill="#F268E5"/>
<path d="M1417.69 207.81H1439.77V278.08H1417.69V207.81ZM1417.69 207.81H1395.61V137.54H1417.69V207.81ZM1306.26 207.81H1395.6V278.08H1306.26V207.81ZM1306.26 207.81H1266.11V137.54H1306.26V207.81ZM1244.02 207.81H1266.1V278.08H1244.02V207.81Z" fill="#F268E5"/>
</svg>
