<svg xmlns="http://www.w3.org/2000/svg" width="440" height="410" viewBox="0 0 440 410">
  <g fill="none" fill-rule="evenodd" transform="rotate(90 184.895 224.605)">
    <path fill="#857500" d="M68.3195089,308.684027 L58.9940661,296.104869 C58.0570748,294.836678 57.2216595,293.4968 56.4955731,292.09767 C50.3341251,280.251158 52.9009775,263.818393 56.5969489,247.8162 C61.5358156,226.40916 69.0310534,202.398808 86.8943032,187.25218 L96.2197459,199.831338 C78.3528566,214.985754 70.8758168,238.957164 65.9223917,260.395358 C62.2420306,276.404814 59.6559282,292.838104 65.8132107,304.673196 C66.5419131,306.073675 67.3799327,307.414758 68.3195089,308.684027 Z M327.524503,118.2932 L336.849945,130.872358 C332.615182,125.308301 327.285603,120.666493 321.188308,117.231819 C316.920078,114.770008 312.381518,112.8077 307.662612,111.3838 C289.811607,106.268238 270.757825,107.266873 253.542083,114.220332 C240.176099,120.15415 227.479647,127.488057 215.666451,136.098598 C211.996656,138.563103 208.176016,141.14706 204.374585,143.588242 C184.586489,156.41353 163.703908,167.473199 141.969316,176.638832 C139.238223,177.785946 136.47227,178.926322 133.721402,180.054752 C120.275257,184.680239 107.632697,191.366332 96.2478529,199.872862 L86.9224101,187.293704 C98.3073295,178.787293 110.94987,172.10121 124.395959,167.475594 C127.154633,166.350796 129.916946,165.218209 132.643873,164.059674 C154.378484,154.894081 175.261069,143.83441 195.049142,131.009085 C198.865132,128.536749 202.648849,126.011468 206.341009,123.51944 C218.154169,114.908844 230.850627,107.574934 244.21664,101.641175 C261.432382,94.6877154 280.486164,93.68908 298.337169,98.8046419 C303.053148,100.228163 307.58903,102.189227 311.85506,104.64903 C317.955794,108.083502 323.288192,112.726688 327.524503,118.2932 Z" transform="rotate(155 194.817 202.133)"/>
    <path fill="#857500" d="M97.7879403,356.538651 L84.0086681,349.070754 C79.7427503,346.766728 75.7796677,343.943645 72.2101662,340.666148 C54.9085675,324.733489 50.0083138,302.381361 45.2630769,280.768289 C43.2996525,270.275973 40.4179327,259.975681 36.6510318,249.985774 C33.98265,244.481563 30.4209388,239.455285 26.1098885,235.110136 C20.7770299,229.525344 16.2679026,223.211569 12.7181583,216.358755 C5.84299661,201.384642 2.65124786,184.988548 3.40853746,168.534998 C5.44648722,138.613764 13.9362894,109.484653 28.297348,83.1397286 C58.1725326,22.6145319 91.1652776,5.32407389 113.556595,1.49989207 C114.245559,1.37958073 114.943134,1.26786306 115.623486,1.17333273 C119.107315,0.841986852 135.749172,0.113946781 151.730229,2.91816999 C193.569266,10.2597368 254.713762,24.1174572 266.247727,29.259304 L166.835548,18.6761648 C154.513322,15.7696929 142.007382,7.44194038 129.402758,8.64122935 C128.713794,8.73575969 128.024831,8.84747736 127.335867,8.9677887 C104.94455,12.8005642 71.969029,30.0910222 42.0766202,90.6076253 C27.7155616,116.952549 19.2257595,146.081661 17.1878097,176.002894 C16.4305201,192.456445 19.6222689,208.852539 26.4974305,223.826651 C30.0467745,230.67971 34.5559405,236.993539 39.8891607,242.578033 C44.2003324,246.92308 47.7620587,251.94938 50.430304,257.45367 C54.1980475,267.443302 57.0797882,277.743669 59.0423492,288.236185 C63.7875861,309.849258 68.6964518,332.192792 85.9894385,348.134044 C89.558828,351.411679 93.5219284,354.234775 97.7879403,356.538651 Z"/>
    <path fill="#DFC400" fill-rule="nonzero" d="M322.975697,93.8989997 C326.024581,107.269664 327.703944,120.914886 327.987907,134.624388 C328.306979,149.793408 325.260201,164.84512 319.065829,178.701306 C311.122616,194.105545 300.740898,208.130131 288.320827,220.234498 C286.357281,222.34854 284.410959,224.453989 282.490473,226.576625 C267.844595,242.757515 254.657273,260.195729 243.081754,278.688621 C240.799562,282.332336 238.500146,286.139331 236.278239,289.860388 C228.152839,304.464217 218.471362,318.150135 207.402051,330.680307 C190.769931,348.497268 168.63678,360.242135 144.534121,364.040922 C138.131522,364.961068 131.643813,365.139856 125.20008,364.573729 C110.673135,363.593074 96.884004,357.825605 85.9980505,348.177013 C68.6964518,332.244354 63.7961981,309.892226 59.0509612,288.279154 C57.0884867,277.786618 54.2067439,267.486243 50.4389161,257.496639 C47.7706708,251.992348 44.2089445,246.966048 39.8977728,242.621001 C34.5644621,237.036581 30.0552864,230.722739 26.5060426,223.86962 C19.6308809,208.895507 16.4391322,192.499413 17.1964218,176.045863 C19.2341031,146.124582 27.7239216,116.995414 42.0852323,90.6505936 C71.9604169,30.1168032 104.953162,12.8349389 127.344479,9.01075704 C128.033443,8.8904457 128.731019,8.77872803 129.41137,8.68419769 C142.015994,7.48490871 154.732394,8.35582589 167.05462,11.2622978 L260.460861,28.3636951 C273.444263,29.7467428 285.900521,34.239823 296.769244,41.4604437 C312.529286,53.4743901 318.678287,73.7640379 322.975697,93.8989997 Z M298.861971,170.081858 C308.636642,148.803938 305.26072,123.933866 300.6705,102.415324 C297.225682,86.3537601 292.609626,70.3695395 282.01681,62.2399305 C273.467824,56.9736483 263.827488,53.7229737 253.829587,52.7353348 L160.431957,35.6339374 C150.22919,33.1973413 139.704144,32.3881115 129.247741,33.2363043 L127.930098,33.4425523 C96.3669529,38.8565626 73.0024744,77.4679084 61.875712,100.000503 C49.3875904,122.694609 41.9196812,147.7963 39.9752812,173.613855 C39.3734629,186.196633 41.7885279,198.741134 47.0199341,210.205689 C49.7986109,215.350392 53.2763114,220.087323 57.3543883,224.282116 C63.1888027,230.311969 67.9557459,237.285854 71.4523062,244.906916 C75.7589932,256.164771 79.0503638,267.783651 81.2872618,279.625331 C85.4899398,298.763428 89.4600927,316.835909 102.033679,328.411579 C109.838255,335.219764 119.684314,339.25435 130.031437,339.884124 C134.939557,340.314331 139.881007,340.178804 144.758035,339.480222 C163.103093,336.588434 179.94874,327.648071 192.606558,314.085936 C202.207252,303.071497 210.608082,291.070406 217.667609,278.284719 C219.949801,274.503506 222.318113,270.550419 224.729486,266.734831 C237.231762,246.766183 251.473797,227.936189 267.290213,210.463499 C269.279596,208.26352 271.303426,206.072135 273.318645,203.889344 C283.545995,194.026769 292.172337,182.635536 298.887807,170.124826 L298.861971,170.081858 Z"/>
  </g>
</svg>
