<svg xmlns="http://www.w3.org/2000/svg" xmlns:xlink="http://www.w3.org/1999/xlink" width="500" height="405" viewBox="0 0 500 405">
  <defs>
    <rect id="b" width="278.12" height="46.105" x="170.058" y="115.311" rx="2"/>
    <filter id="a" width="110.4%" height="162.9%" x="-5.2%" y="-22.8%" filterUnits="objectBoundingBox">
      <feOffset in="SourceAlpha" result="shadowOffsetOuter1"/>
      <feGaussianBlur in="shadowOffsetOuter1" result="shadowBlurOuter1" stdDeviation="2.5"/>
      <feColorMatrix in="shadowBlurOuter1" result="shadowMatrixOuter1" values="0 0 0 0 0.125490196 0 0 0 0 0.133333333 0 0 0 0 0.149019608 0 0 0 0.1 0"/>
      <feOffset dy="4" in="SourceAlpha" result="shadowOffsetOuter2"/>
      <feGaussianBlur in="shadowOffsetOuter2" result="shadowBlurOuter2" stdDeviation="2.5"/>
      <feColorMatrix in="shadowBlurOuter2" result="shadowMatrixOuter2" values="0 0 0 0 0 0 0 0 0 0 0 0 0 0 0 0 0 0 0.1 0"/>
      <feMerge>
        <feMergeNode in="shadowMatrixOuter1"/>
        <feMergeNode in="shadowMatrixOuter2"/>
      </feMerge>
    </filter>
    <path id="c" d="M172.058431,115.310547 L257.941406,115.310547 L257.941406,161.416016 L172.058431,161.416016 C170.953861,161.416016 170.058431,160.520585 170.058431,159.416016 L170.058431,117.310547 C170.058431,116.205977 170.953861,115.310547 172.058431,115.310547 Z"/>
    <rect id="e" width="247.361" height="46.105" x="38.894" y="171.5" rx="2"/>
    <filter id="d" width="111.7%" height="162.9%" x="-5.9%" y="-22.8%" filterUnits="objectBoundingBox">
      <feOffset in="SourceAlpha" result="shadowOffsetOuter1"/>
      <feGaussianBlur in="shadowOffsetOuter1" result="shadowBlurOuter1" stdDeviation="2.5"/>
      <feColorMatrix in="shadowBlurOuter1" result="shadowMatrixOuter1" values="0 0 0 0 0.125490196 0 0 0 0 0.133333333 0 0 0 0 0.149019608 0 0 0 0.1 0"/>
      <feOffset dy="4" in="SourceAlpha" result="shadowOffsetOuter2"/>
      <feGaussianBlur in="shadowOffsetOuter2" result="shadowBlurOuter2" stdDeviation="2.5"/>
      <feColorMatrix in="shadowBlurOuter2" result="shadowMatrixOuter2" values="0 0 0 0 0 0 0 0 0 0 0 0 0 0 0 0 0 0 0.1 0"/>
      <feMerge>
        <feMergeNode in="shadowMatrixOuter1"/>
        <feMergeNode in="shadowMatrixOuter2"/>
      </feMerge>
    </filter>
    <path id="f" d="M40.894061,171.5 L126.777036,171.5 L126.777036,217.605469 L40.894061,217.605469 C39.7894915,217.605469 38.894061,216.710038 38.894061,215.605469 L38.894061,173.5 C38.894061,172.395431 39.7894915,171.5 40.894061,171.5 Z"/>
    <rect id="h" width="261.583" height="46.105" x="177.894" y="228.5" rx="2"/>
    <filter id="g" width="111.1%" height="162.9%" x="-5.5%" y="-22.8%" filterUnits="objectBoundingBox">
      <feOffset in="SourceAlpha" result="shadowOffsetOuter1"/>
      <feGaussianBlur in="shadowOffsetOuter1" result="shadowBlurOuter1" stdDeviation="2.5"/>
      <feColorMatrix in="shadowBlurOuter1" result="shadowMatrixOuter1" values="0 0 0 0 0.125490196 0 0 0 0 0.133333333 0 0 0 0 0.149019608 0 0 0 0.1 0"/>
      <feOffset dy="4" in="SourceAlpha" result="shadowOffsetOuter2"/>
      <feGaussianBlur in="shadowOffsetOuter2" result="shadowBlurOuter2" stdDeviation="2.5"/>
      <feColorMatrix in="shadowBlurOuter2" result="shadowMatrixOuter2" values="0 0 0 0 0 0 0 0 0 0 0 0 0 0 0 0 0 0 0.1 0"/>
      <feMerge>
        <feMergeNode in="shadowMatrixOuter1"/>
        <feMergeNode in="shadowMatrixOuter2"/>
      </feMerge>
    </filter>
    <path id="i" d="M179.894061,228.5 L265.777036,228.5 L265.777036,274.605469 L179.894061,274.605469 C178.789491,274.605469 177.894061,273.710038 177.894061,272.605469 L177.894061,230.5 C177.894061,229.395431 178.789491,228.5 179.894061,228.5 Z"/>
  </defs>
  <g fill="none" fill-rule="evenodd">
    <polygon fill="#EBEDF2" points="353.187 19.61 311.58 121.077 315.519 125.015 353.187 108.373 390.855 125.015 394.794 121.077" transform="rotate(-45 353.187 72.313)"/>
    <path fill="#EBEDF2" d="M137.941406,137.348772 C147.322443,137.348772 154.838575,129.776126 154.838575,120.395089 C154.838575,111.014052 147.322443,103.441406 137.941406,103.441406 C128.560369,103.441406 120.987723,111.014052 120.987723,120.395089 C120.987723,129.776126 128.560369,137.348772 137.941406,137.348772 Z M92.7315848,137.348772 C102.112622,137.348772 109.628754,129.776126 109.628754,120.395089 C109.628754,111.014052 102.112622,103.441406 92.7315848,103.441406 C83.3505477,103.441406 75.7779018,111.014052 75.7779018,120.395089 C75.7779018,129.776126 83.3505477,137.348772 92.7315848,137.348772 Z M92.7315848,148.651228 C79.5642247,148.651228 53.1729911,155.263164 53.1729911,168.430525 L53.1729911,182.558594 L132.290179,182.558594 L132.290179,168.430525 C132.290179,155.263164 105.898945,148.651228 92.7315848,148.651228 Z M137.941406,148.651228 C136.30255,148.651228 134.437646,148.764254 132.459714,148.93379 C139.015142,153.680822 143.592634,160.06671 143.592634,168.430525 L143.592634,182.558594 L177.5,182.558594 L177.5,168.430525 C177.5,155.263164 151.108766,148.651228 137.941406,148.651228 Z"/>
    <use fill="black" filter="url(#a)" xlink:href="#b"/>
    <use fill="#FFFFFF" xlink:href="#b"/>
    <use fill="#8F9092" xlink:href="#c"/>
    <path stroke="#8F9092" d="M257.441406,160.916016 L257.441406,115.810547 L172.058431,115.810547 C171.230004,115.810547 170.558431,116.48212 170.558431,117.310547 L170.558431,159.416016 C170.558431,160.244443 171.230004,160.916016 172.058431,160.916016 L257.441406,160.916016 Z"/>
    <path fill="#FFFFFF" d="M197.869059,133.703613 L201.011149,133.703613 C203.727946,133.703613 205.333903,135.398438 205.333903,138.280273 C205.333903,141.168457 203.734294,142.863281 201.011149,142.863281 L197.869059,142.863281 L197.869059,133.703613 Z M199.011637,134.731934 L199.011637,141.834961 L200.934977,141.834961 C202.978922,141.834961 204.165934,140.527344 204.165934,138.292969 C204.165934,136.052246 202.966227,134.731934 200.934977,134.731934 L199.011637,134.731934 Z M209.897868,136.864746 C208.806071,136.864746 208.044352,137.664551 207.961833,138.876953 L211.73234,138.876953 C211.70695,137.664551 210.983317,136.864746 209.897868,136.864746 Z M211.700602,141.092285 L212.792399,141.092285 C212.462321,142.266602 211.40861,142.983887 209.910563,142.983887 C208.012614,142.983887 206.825602,141.612793 206.825602,139.448242 C206.825602,137.296387 208.031657,135.899902 209.910563,135.899902 C211.757731,135.899902 212.881266,137.213867 212.881266,139.340332 L212.881266,139.759277 L207.961833,139.759277 L207.961833,139.810059 C208.018962,141.162109 208.774333,142.019043 209.935954,142.019043 C210.818278,142.019043 211.414958,141.695312 211.700602,141.092285 Z M217.324626,136.864746 C216.232829,136.864746 215.47111,137.664551 215.38859,138.876953 L219.159098,138.876953 C219.133708,137.664551 218.410075,136.864746 217.324626,136.864746 Z M219.12736,141.092285 L220.219157,141.092285 C219.889079,142.266602 218.835368,142.983887 217.337321,142.983887 C215.439372,142.983887 214.25236,141.612793 214.25236,139.448242 C214.25236,137.296387 215.458415,135.899902 217.337321,135.899902 C219.184489,135.899902 220.308024,137.213867 220.308024,139.340332 L220.308024,139.759277 L215.38859,139.759277 L215.38859,139.810059 C215.445719,141.162109 216.20109,142.019043 217.362712,142.019043 C218.245036,142.019043 218.841715,141.695312 219.12736,141.092285 Z M222.085368,142.863281 L222.085368,133.303711 L223.177165,133.303711 L223.177165,142.863281 L222.085368,142.863281 Z M231.149821,142.863281 L231.149821,134.973145 L231.048258,134.973145 L228.718669,136.661621 L228.718669,135.455566 L231.156169,133.703613 L232.292399,133.703613 L232.292399,142.863281 L231.149821,142.863281 Z"/>
    <path fill="#3366FF" d="M278.264648,133.46875 C280.96875,133.46875 282.663574,135.315918 282.663574,138.280273 C282.663574,141.250977 280.975098,143.098145 278.264648,143.098145 C275.547852,143.098145 273.853027,141.250977 273.853027,138.280273 C273.853027,135.30957 275.573242,133.46875 278.264648,133.46875 Z M278.264648,135.150879 C276.779297,135.150879 275.814453,136.363281 275.814453,138.280273 C275.814453,140.190918 276.760254,141.416016 278.264648,141.416016 C279.756348,141.416016 280.708496,140.190918 280.708496,138.280273 C280.708496,136.363281 279.756348,135.150879 278.264648,135.150879 Z M284.294922,142.863281 L284.294922,135.861816 L286.084961,135.861816 L286.084961,136.979004 L286.199219,136.979004 C286.383301,136.280762 287.106934,135.747559 287.995605,135.747559 C288.249512,135.747559 288.560547,135.779297 288.719238,135.836426 L288.719238,137.518555 C288.573242,137.461426 288.141602,137.404297 287.843262,137.404297 C286.833984,137.404297 286.14209,138.000977 286.14209,138.984863 L286.14209,142.863281 L284.294922,142.863281 Z M289.963379,142.863281 L289.963379,135.861816 L291.810547,135.861816 L291.810547,142.863281 L289.963379,142.863281 Z M290.890137,134.884277 C290.223633,134.884277 289.79834,134.49707 289.79834,133.951172 C289.79834,133.398926 290.223633,133.018066 290.890137,133.018066 C291.550293,133.018066 291.981934,133.398926 291.981934,133.951172 C291.981934,134.49707 291.550293,134.884277 290.890137,134.884277 Z M296.70459,137.125 C295.847656,137.125 295.244629,137.72168 295.181152,138.629395 L298.164551,138.629395 C298.126465,137.702637 297.567871,137.125 296.70459,137.125 Z M298.202637,140.870117 L299.922852,140.870117 C299.643555,142.19043 298.4375,143.015625 296.723633,143.015625 C294.59082,143.015625 293.333984,141.669922 293.333984,139.397461 C293.333984,137.118652 294.616211,135.709473 296.698242,135.709473 C298.76123,135.709473 299.97998,137.023438 299.97998,139.245117 L299.97998,139.810059 L295.174805,139.810059 L295.174805,139.905273 C295.200195,140.946289 295.80957,141.59375 296.774414,141.59375 C297.504395,141.59375 298.005859,141.333496 298.202637,140.870117 Z M301.490723,142.863281 L301.490723,135.861816 L303.280762,135.861816 L303.280762,136.985352 L303.39502,136.985352 C303.71875,136.198242 304.429688,135.709473 305.464355,135.709473 C307.019531,135.709473 307.857422,136.661621 307.857422,138.337402 L307.857422,142.863281 L306.010254,142.863281 L306.010254,138.775391 C306.010254,137.810547 305.597656,137.302734 304.72168,137.302734 C303.864746,137.302734 303.337891,137.905762 303.337891,138.826172 L303.337891,142.863281 L301.490723,142.863281 Z M310.174316,134.19873 L312.021484,134.19873 L312.021484,135.931641 L313.475098,135.931641 L313.475098,137.385254 L312.021484,137.385254 L312.021484,140.533691 C312.021484,141.143066 312.300781,141.422363 312.929199,141.422363 C313.17041,141.422363 313.297363,141.416016 313.475098,141.396973 L313.475098,142.806152 C313.246582,142.850586 312.903809,142.888672 312.54834,142.888672 C310.847168,142.888672 310.174316,142.336426 310.174316,140.97168 L310.174316,137.385254 L309.08252,137.385254 L309.08252,135.931641 L310.174316,135.931641 L310.174316,134.19873 Z M318.039062,137.125 C317.182129,137.125 316.579102,137.72168 316.515625,138.629395 L319.499023,138.629395 C319.460938,137.702637 318.902344,137.125 318.039062,137.125 Z M319.537109,140.870117 L321.257324,140.870117 C320.978027,142.19043 319.771973,143.015625 318.058105,143.015625 C315.925293,143.015625 314.668457,141.669922 314.668457,139.397461 C314.668457,137.118652 315.950684,135.709473 318.032715,135.709473 C320.095703,135.709473 321.314453,137.023438 321.314453,139.245117 L321.314453,139.810059 L316.509277,139.810059 L316.509277,139.905273 C316.534668,140.946289 317.144043,141.59375 318.108887,141.59375 C318.838867,141.59375 319.340332,141.333496 319.537109,140.870117 Z M322.825195,142.863281 L322.825195,135.861816 L324.615234,135.861816 L324.615234,136.979004 L324.729492,136.979004 C324.913574,136.280762 325.637207,135.747559 326.525879,135.747559 C326.779785,135.747559 327.09082,135.779297 327.249512,135.836426 L327.249512,137.518555 C327.103516,137.461426 326.671875,137.404297 326.373535,137.404297 C325.364258,137.404297 324.672363,138.000977 324.672363,138.984863 L324.672363,142.863281 L322.825195,142.863281 Z M331.508789,137.125 C330.651855,137.125 330.048828,137.72168 329.985352,138.629395 L332.96875,138.629395 C332.930664,137.702637 332.37207,137.125 331.508789,137.125 Z M333.006836,140.870117 L334.727051,140.870117 C334.447754,142.19043 333.241699,143.015625 331.527832,143.015625 C329.39502,143.015625 328.138184,141.669922 328.138184,139.397461 C328.138184,137.118652 329.42041,135.709473 331.502441,135.709473 C333.56543,135.709473 334.78418,137.023438 334.78418,139.245117 L334.78418,139.810059 L329.979004,139.810059 L329.979004,139.905273 C330.004395,140.946289 330.61377,141.59375 331.578613,141.59375 C332.308594,141.59375 332.810059,141.333496 333.006836,140.870117 Z M336.294922,142.863281 L336.294922,135.861816 L338.084961,135.861816 L338.084961,136.985352 L338.199219,136.985352 C338.522949,136.198242 339.233887,135.709473 340.268555,135.709473 C341.82373,135.709473 342.661621,136.661621 342.661621,138.337402 L342.661621,142.863281 L340.814453,142.863281 L340.814453,138.775391 C340.814453,137.810547 340.401855,137.302734 339.525879,137.302734 C338.668945,137.302734 338.14209,137.905762 338.14209,138.826172 L338.14209,142.863281 L336.294922,142.863281 Z M350.831055,137.125 C349.974121,137.125 349.371094,137.72168 349.307617,138.629395 L352.291016,138.629395 C352.25293,137.702637 351.694336,137.125 350.831055,137.125 Z M352.329102,140.870117 L354.049316,140.870117 C353.77002,142.19043 352.563965,143.015625 350.850098,143.015625 C348.717285,143.015625 347.460449,141.669922 347.460449,139.397461 C347.460449,137.118652 348.742676,135.709473 350.824707,135.709473 C352.887695,135.709473 354.106445,137.023438 354.106445,139.245117 L354.106445,139.810059 L349.30127,139.810059 L349.30127,139.905273 C349.32666,140.946289 349.936035,141.59375 350.900879,141.59375 C351.630859,141.59375 352.132324,141.333496 352.329102,140.870117 Z M355.617188,142.863281 L355.617188,135.861816 L357.407227,135.861816 L357.407227,136.985352 L357.521484,136.985352 C357.845215,136.198242 358.556152,135.709473 359.59082,135.709473 C361.145996,135.709473 361.983887,136.661621 361.983887,138.337402 L361.983887,142.863281 L360.136719,142.863281 L360.136719,138.775391 C360.136719,137.810547 359.724121,137.302734 358.848145,137.302734 C357.991211,137.302734 357.464355,137.905762 357.464355,138.826172 L357.464355,142.863281 L355.617188,142.863281 Z M367.138184,142.863281 L367.138184,135.861816 L368.985352,135.861816 L368.985352,142.863281 L367.138184,142.863281 Z M368.064941,134.884277 C367.398438,134.884277 366.973145,134.49707 366.973145,133.951172 C366.973145,133.398926 367.398438,133.018066 368.064941,133.018066 C368.725098,133.018066 369.156738,133.398926 369.156738,133.951172 C369.156738,134.49707 368.725098,134.884277 368.064941,134.884277 Z M370.851562,142.863281 L370.851562,135.861816 L372.641602,135.861816 L372.641602,136.985352 L372.755859,136.985352 C373.07959,136.198242 373.790527,135.709473 374.825195,135.709473 C376.380371,135.709473 377.218262,136.661621 377.218262,138.337402 L377.218262,142.863281 L375.371094,142.863281 L375.371094,138.775391 C375.371094,137.810547 374.958496,137.302734 374.08252,137.302734 C373.225586,137.302734 372.69873,137.905762 372.69873,138.826172 L372.69873,142.863281 L370.851562,142.863281 Z M378.849609,137.918457 C378.849609,136.591797 380.017578,135.709473 381.763184,135.709473 C383.540527,135.709473 384.587891,136.452148 384.689453,137.791504 L382.981934,137.791504 C382.886719,137.34082 382.461426,137.061523 381.775879,137.061523 C381.115723,137.061523 380.626953,137.359863 380.626953,137.804199 C380.626953,138.146973 380.925293,138.356445 381.572754,138.502441 L382.886719,138.788086 C384.245117,139.086426 384.854492,139.657715 384.854492,140.705078 C384.854492,142.101562 383.604004,143.015625 381.769531,143.015625 C379.922363,143.015625 378.805176,142.260254 378.678223,140.914551 L380.480957,140.914551 C380.620605,141.390625 381.071289,141.663574 381.807617,141.663574 C382.524902,141.663574 383.02002,141.365234 383.02002,140.914551 C383.02002,140.571777 382.753418,140.362305 382.137695,140.229004 L380.868164,139.943359 C379.509766,139.64502 378.849609,138.997559 378.849609,137.918457 Z M390.415039,135.747559 C392.186035,135.747559 393.271484,137.093262 393.271484,139.359375 C393.271484,141.619141 392.19873,142.971191 390.446777,142.971191 C389.443848,142.971191 388.675781,142.533203 388.333008,141.790527 L388.21875,141.790527 L388.21875,145.186523 L386.371582,145.186523 L386.371582,135.861816 L388.161621,135.861816 L388.161621,137.010742 L388.275879,137.010742 C388.656738,136.223633 389.450195,135.747559 390.415039,135.747559 Z M389.786621,141.428711 C390.783203,141.428711 391.373535,140.654297 391.373535,139.359375 C391.373535,138.077148 390.776855,137.296387 389.792969,137.296387 C388.809082,137.296387 388.199707,138.083496 388.199707,139.365723 C388.199707,140.647949 388.809082,141.428711 389.786621,141.428711 Z M394.788574,142.863281 L394.788574,135.861816 L396.635742,135.861816 L396.635742,142.863281 L394.788574,142.863281 Z M395.715332,134.884277 C395.048828,134.884277 394.623535,134.49707 394.623535,133.951172 C394.623535,133.398926 395.048828,133.018066 395.715332,133.018066 C396.375488,133.018066 396.807129,133.398926 396.807129,133.951172 C396.807129,134.49707 396.375488,134.884277 395.715332,134.884277 Z M398.501953,142.863281 L398.501953,135.861816 L400.291992,135.861816 L400.291992,136.979004 L400.40625,136.979004 C400.590332,136.280762 401.313965,135.747559 402.202637,135.747559 C402.456543,135.747559 402.767578,135.779297 402.92627,135.836426 L402.92627,137.518555 C402.780273,137.461426 402.348633,137.404297 402.050293,137.404297 C401.041016,137.404297 400.349121,138.000977 400.349121,138.984863 L400.349121,142.863281 L398.501953,142.863281 Z M407.185547,137.125 C406.328613,137.125 405.725586,137.72168 405.662109,138.629395 L408.645508,138.629395 C408.607422,137.702637 408.048828,137.125 407.185547,137.125 Z M408.683594,140.870117 L410.403809,140.870117 C410.124512,142.19043 408.918457,143.015625 407.20459,143.015625 C405.071777,143.015625 403.814941,141.669922 403.814941,139.397461 C403.814941,137.118652 405.097168,135.709473 407.179199,135.709473 C409.242188,135.709473 410.460938,137.023438 410.460938,139.245117 L410.460938,139.810059 L405.655762,139.810059 L405.655762,139.905273 C405.681152,140.946289 406.290527,141.59375 407.255371,141.59375 C407.985352,141.59375 408.486816,141.333496 408.683594,140.870117 Z M411.97168,142.863281 L411.97168,135.861816 L413.761719,135.861816 L413.761719,136.979004 L413.875977,136.979004 C414.060059,136.280762 414.783691,135.747559 415.672363,135.747559 C415.92627,135.747559 416.237305,135.779297 416.395996,135.836426 L416.395996,137.518555 C416.25,137.461426 415.818359,137.404297 415.52002,137.404297 C414.510742,137.404297 413.818848,138.000977 413.818848,138.984863 L413.818848,142.863281 L411.97168,142.863281 Z M420.655273,137.125 C419.79834,137.125 419.195312,137.72168 419.131836,138.629395 L422.115234,138.629395 C422.077148,137.702637 421.518555,137.125 420.655273,137.125 Z M422.15332,140.870117 L423.873535,140.870117 C423.594238,142.19043 422.388184,143.015625 420.674316,143.015625 C418.541504,143.015625 417.284668,141.669922 417.284668,139.397461 C417.284668,137.118652 418.566895,135.709473 420.648926,135.709473 C422.711914,135.709473 423.930664,137.023438 423.930664,139.245117 L423.930664,139.810059 L419.125488,139.810059 L419.125488,139.905273 C419.150879,140.946289 419.760254,141.59375 420.725098,141.59375 C421.455078,141.59375 421.956543,141.333496 422.15332,140.870117 Z M425.441406,142.863281 L425.441406,135.861816 L427.231445,135.861816 L427.231445,136.985352 L427.345703,136.985352 C427.669434,136.198242 428.380371,135.709473 429.415039,135.709473 C430.970215,135.709473 431.808105,136.661621 431.808105,138.337402 L431.808105,142.863281 L429.960938,142.863281 L429.960938,138.775391 C429.960938,137.810547 429.54834,137.302734 428.672363,137.302734 C427.81543,137.302734 427.288574,137.905762 427.288574,138.826172 L427.288574,142.863281 L425.441406,142.863281 Z"/>
    <use fill="black" filter="url(#d)" xlink:href="#e"/>
    <use fill="#FFFFFF" xlink:href="#e"/>
    <use fill="#8F9092" xlink:href="#f"/>
    <path stroke="#8F9092" d="M126.277036,217.105469 L126.277036,172 L40.894061,172 C40.0656339,172 39.394061,172.671573 39.394061,173.5 L39.394061,215.605469 C39.394061,216.433896 40.0656339,217.105469 40.894061,217.105469 L126.277036,217.105469 Z"/>
    <path fill="#FFFFFF" d="M64.5791016,189.893066 L67.7211914,189.893066 C70.4379883,189.893066 72.0439453,191.587891 72.0439453,194.469727 C72.0439453,197.35791 70.4443359,199.052734 67.7211914,199.052734 L64.5791016,199.052734 L64.5791016,189.893066 Z M65.7216797,190.921387 L65.7216797,198.024414 L67.6450195,198.024414 C69.6889648,198.024414 70.8759766,196.716797 70.8759766,194.482422 C70.8759766,192.241699 69.6762695,190.921387 67.6450195,190.921387 L65.7216797,190.921387 Z M76.6079102,193.054199 C75.5161133,193.054199 74.7543945,193.854004 74.671875,195.066406 L78.4423828,195.066406 C78.4169922,193.854004 77.6933594,193.054199 76.6079102,193.054199 Z M78.4106445,197.281738 L79.5024414,197.281738 C79.1723633,198.456055 78.1186523,199.17334 76.6206055,199.17334 C74.7226562,199.17334 73.5356445,197.802246 73.5356445,195.637695 C73.5356445,193.48584 74.7416992,192.089355 76.6206055,192.089355 C78.4677734,192.089355 79.5913086,193.40332 79.5913086,195.529785 L79.5913086,195.94873 L74.671875,195.94873 L74.671875,195.999512 C74.7290039,197.351562 75.484375,198.208496 76.6459961,198.208496 C77.5283203,198.208496 78.125,197.884766 78.4106445,197.281738 Z M84.034668,193.054199 C82.9428711,193.054199 82.1811523,193.854004 82.0986328,195.066406 L85.8691406,195.066406 C85.84375,193.854004 85.1201172,193.054199 84.034668,193.054199 Z M85.8374023,197.281738 L86.9291992,197.281738 C86.5991211,198.456055 85.5454102,199.17334 84.0473633,199.17334 C82.1494141,199.17334 80.9624023,197.802246 80.9624023,195.637695 C80.9624023,193.48584 82.168457,192.089355 84.0473633,192.089355 C85.8945312,192.089355 87.0180664,193.40332 87.0180664,195.529785 L87.0180664,195.94873 L82.0986328,195.94873 L82.0986328,195.999512 C82.1557617,197.351562 82.9111328,198.208496 84.0727539,198.208496 C84.9550781,198.208496 85.5517578,197.884766 85.8374023,197.281738 Z M88.7954102,199.052734 L88.7954102,189.493164 L89.887207,189.493164 L89.887207,199.052734 L88.7954102,199.052734 Z M95.612793,192.470215 C95.612793,190.845215 96.8442383,189.677246 98.5454102,189.677246 C100.189453,189.677246 101.446289,190.794434 101.446289,192.248047 C101.446289,193.200195 101.014648,193.942871 99.5102539,195.555176 L97.3076172,197.922852 L97.3076172,198.024414 L101.598633,198.024414 L101.598633,199.052734 L95.6699219,199.052734 L95.6699219,198.265625 L98.8374023,194.806152 C100.018066,193.523926 100.303711,193.028809 100.303711,192.29248 C100.303711,191.378418 99.5229492,190.673828 98.5136719,190.673828 C97.440918,190.673828 96.7172852,191.391113 96.7172852,192.470215 L96.7172852,192.476562 L95.612793,192.476562 L95.612793,192.470215 Z"/>
    <path fill="#3366FF" d="M146.986021,199.287598 C144.3327,199.287598 142.688657,197.453125 142.688657,194.469727 C142.688657,191.492676 144.326353,189.658203 146.986021,189.658203 C149.156919,189.658203 150.820005,191.099121 150.959654,193.092285 L149.093443,193.092285 C148.909361,192.038574 148.077818,191.34668 146.986021,191.34668 C145.545103,191.34668 144.650083,192.540039 144.650083,194.469727 C144.650083,196.399414 145.545103,197.599121 146.992368,197.599121 C148.090513,197.599121 148.915708,196.95166 149.09979,195.942383 L150.966001,195.942383 C150.80731,197.922852 149.195005,199.287598 146.986021,199.287598 Z M155.650572,199.205078 C153.498716,199.205078 152.203794,197.840332 152.203794,195.548828 C152.203794,193.282715 153.517759,191.898926 155.650572,191.898926 C157.783384,191.898926 159.097349,193.276367 159.097349,195.548828 C159.097349,197.840332 157.802427,199.205078 155.650572,199.205078 Z M155.650572,197.694336 C156.634458,197.694336 157.1994,196.907227 157.1994,195.548828 C157.1994,194.203125 156.628111,193.409668 155.650572,193.409668 C154.666685,193.409668 154.101743,194.203125 154.101743,195.548828 C154.101743,196.913574 154.660337,197.694336 155.650572,197.694336 Z M160.601743,199.052734 L160.601743,192.05127 L162.391782,192.05127 L162.391782,193.193848 L162.50604,193.193848 C162.791685,192.394043 163.521665,191.898926 164.442075,191.898926 C165.425962,191.898926 166.098814,192.381348 166.378111,193.193848 L166.492368,193.193848 C166.816099,192.413086 167.622251,191.898926 168.59979,191.898926 C169.996275,191.898926 170.865904,192.806641 170.865904,194.247559 L170.865904,199.052734 L169.018736,199.052734 L169.018736,194.736328 C169.018736,193.904785 168.631529,193.492188 167.850767,193.492188 C167.101743,193.492188 166.619322,194.025391 166.619322,194.768066 L166.619322,199.052734 L164.841978,199.052734 L164.841978,194.660156 C164.841978,193.91748 164.410337,193.492188 163.686704,193.492188 C162.963072,193.492188 162.448911,194.057129 162.448911,194.837891 L162.448911,199.052734 L160.601743,199.052734 Z M172.655943,199.052734 L172.655943,192.05127 L174.445982,192.05127 L174.445982,193.193848 L174.56024,193.193848 C174.845884,192.394043 175.575865,191.898926 176.496275,191.898926 C177.480161,191.898926 178.153013,192.381348 178.43231,193.193848 L178.546568,193.193848 C178.870298,192.413086 179.67645,191.898926 180.65399,191.898926 C182.050474,191.898926 182.920103,192.806641 182.920103,194.247559 L182.920103,199.052734 L181.072935,199.052734 L181.072935,194.736328 C181.072935,193.904785 180.685728,193.492188 179.904966,193.492188 C179.155943,193.492188 178.673521,194.025391 178.673521,194.768066 L178.673521,199.052734 L176.896177,199.052734 L176.896177,194.660156 C176.896177,193.91748 176.464536,193.492188 175.740904,193.492188 C175.017271,193.492188 174.503111,194.057129 174.503111,194.837891 L174.503111,199.052734 L172.655943,199.052734 Z M191.045103,192.05127 L191.045103,199.052734 L189.255064,199.052734 L189.255064,197.929199 L189.140806,197.929199 C188.810728,198.741699 188.156919,199.205078 187.096861,199.205078 C185.586118,199.205078 184.646665,198.240234 184.646665,196.615234 L184.646665,192.05127 L186.493833,192.05127 L186.493833,196.13916 C186.493833,197.104004 186.931822,197.599121 187.782407,197.599121 C188.702818,197.599121 189.197935,197.021484 189.197935,196.088379 L189.197935,192.05127 L191.045103,192.05127 Z M192.898618,199.052734 L192.898618,192.05127 L194.688657,192.05127 L194.688657,193.174805 L194.802915,193.174805 C195.126646,192.387695 195.837583,191.898926 196.872251,191.898926 C198.427427,191.898926 199.265318,192.851074 199.265318,194.526855 L199.265318,199.052734 L197.41815,199.052734 L197.41815,194.964844 C197.41815,194 197.005552,193.492188 196.129575,193.492188 C195.272642,193.492188 194.745786,194.095215 194.745786,195.015625 L194.745786,199.052734 L192.898618,199.052734 Z M201.068052,199.052734 L201.068052,192.05127 L202.91522,192.05127 L202.91522,199.052734 L201.068052,199.052734 Z M201.99481,191.07373 C201.328306,191.07373 200.903013,190.686523 200.903013,190.140625 C200.903013,189.588379 201.328306,189.20752 201.99481,189.20752 C202.654966,189.20752 203.086607,189.588379 203.086607,190.140625 C203.086607,190.686523 202.654966,191.07373 201.99481,191.07373 Z M205.308286,190.388184 L207.155454,190.388184 L207.155454,192.121094 L208.609068,192.121094 L208.609068,193.574707 L207.155454,193.574707 L207.155454,196.723145 C207.155454,197.33252 207.434751,197.611816 208.063169,197.611816 C208.30438,197.611816 208.431333,197.605469 208.609068,197.586426 L208.609068,198.995605 C208.380552,199.040039 208.037779,199.078125 207.68231,199.078125 C205.981138,199.078125 205.308286,198.525879 205.308286,197.161133 L205.308286,193.574707 L204.21649,193.574707 L204.21649,192.121094 L205.308286,192.121094 L205.308286,190.388184 Z M211.014829,201.598145 C210.945005,201.598145 210.386411,201.591797 210.31024,201.579102 L210.31024,200.09375 C210.373716,200.106445 210.653013,200.106445 210.729185,200.106445 C211.421079,200.106445 211.814634,199.884277 211.966978,199.351074 L212.030454,199.097168 L209.573911,192.05127 L211.611509,192.05127 L213.084165,197.35791 L213.198423,197.35791 L214.671079,192.05127 L216.626157,192.05127 L214.214048,199.160645 C213.617368,200.963379 212.760435,201.598145 211.014829,201.598145 Z M227.607603,192.05127 L225.74774,199.052734 L223.779966,199.052734 L222.529478,194.222168 L222.41522,194.222168 L221.177427,199.052734 L219.235044,199.052734 L217.368833,192.05127 L219.241392,192.05127 L220.282407,197.072266 L220.396665,197.072266 L221.621763,192.05127 L223.386411,192.05127 L224.617857,197.072266 L224.732115,197.072266 L225.77313,192.05127 L227.607603,192.05127 Z M231.9494,193.314453 C231.092466,193.314453 230.489439,193.911133 230.425962,194.818848 L233.409361,194.818848 C233.371275,193.89209 232.812681,193.314453 231.9494,193.314453 Z M233.447447,197.05957 L235.167661,197.05957 C234.888365,198.379883 233.68231,199.205078 231.968443,199.205078 C229.83563,199.205078 228.578794,197.859375 228.578794,195.586914 C228.578794,193.308105 229.861021,191.898926 231.943052,191.898926 C234.00604,191.898926 235.22479,193.212891 235.22479,195.43457 L235.22479,195.999512 L230.419615,195.999512 L230.419615,196.094727 C230.445005,197.135742 231.05438,197.783203 232.019224,197.783203 C232.749204,197.783203 233.250669,197.522949 233.447447,197.05957 Z M236.735532,199.052734 L236.735532,192.05127 L238.525572,192.05127 L238.525572,193.168457 L238.639829,193.168457 C238.823911,192.470215 239.547544,191.937012 240.436216,191.937012 C240.690122,191.937012 241.001157,191.96875 241.159849,192.025879 L241.159849,193.708008 C241.013853,193.650879 240.582212,193.59375 240.283872,193.59375 C239.274595,193.59375 238.5827,194.19043 238.5827,195.174316 L238.5827,199.052734 L236.735532,199.052734 Z M244.416197,194.787109 L246.758482,192.05127 L248.859556,192.05127 L246.19354,195.053711 L249.043638,199.052734 L246.853697,199.052734 L244.809751,196.208984 L244.301939,196.729492 L244.301939,199.052734 L242.454771,199.052734 L242.454771,189.378906 L244.301939,189.378906 L244.301939,194.787109 L244.416197,194.787109 Z M250.224302,199.052734 L250.224302,192.05127 L252.07147,192.05127 L252.07147,199.052734 L250.224302,199.052734 Z M251.15106,191.07373 C250.484556,191.07373 250.059263,190.686523 250.059263,190.140625 C250.059263,189.588379 250.484556,189.20752 251.15106,189.20752 C251.811216,189.20752 252.242857,189.588379 252.242857,190.140625 C252.242857,190.686523 251.811216,191.07373 251.15106,191.07373 Z M253.937681,199.052734 L253.937681,192.05127 L255.72772,192.05127 L255.72772,193.174805 L255.841978,193.174805 C256.165708,192.387695 256.876646,191.898926 257.911314,191.898926 C259.46649,191.898926 260.30438,192.851074 260.30438,194.526855 L260.30438,199.052734 L258.457212,199.052734 L258.457212,194.964844 C258.457212,194 258.044615,193.492188 257.168638,193.492188 C256.311704,193.492188 255.784849,194.095215 255.784849,195.015625 L255.784849,199.052734 L253.937681,199.052734 Z M265.204771,197.491211 C266.2077,197.491211 266.80438,196.723145 266.80438,195.491699 C266.80438,194.260254 266.201353,193.48584 265.204771,193.48584 C264.208189,193.48584 263.630552,194.260254 263.630552,195.485352 C263.630552,196.723145 264.201841,197.491211 265.204771,197.491211 Z M265.17938,201.706055 C263.319517,201.706055 262.088072,200.887207 261.973814,199.655762 L263.801939,199.655762 C263.897154,200.087402 264.417661,200.360352 265.217466,200.360352 C266.2077,200.360352 266.785337,199.90332 266.785337,199.116211 L266.785337,197.821289 L266.671079,197.821289 C266.283872,198.557617 265.547544,198.951172 264.563657,198.951172 C262.818052,198.951172 261.732603,197.599121 261.732603,195.491699 C261.732603,193.320801 262.8244,191.937012 264.601743,191.937012 C265.547544,191.937012 266.353697,192.406738 266.728208,193.174805 L266.842466,193.174805 L266.842466,192.05127 L268.632505,192.05127 L268.632505,199.027344 C268.632505,200.671387 267.29315,201.706055 265.17938,201.706055 Z"/>
    <use fill="black" filter="url(#g)" xlink:href="#h"/>
    <use fill="#FFFFFF" xlink:href="#h"/>
    <use fill="#8F9092" xlink:href="#i"/>
    <path stroke="#8F9092" d="M265.277036,274.105469 L265.277036,229 L179.894061,229 C179.065634,229 178.394061,229.671573 178.394061,230.5 L178.394061,272.605469 C178.394061,273.433896 179.065634,274.105469 179.894061,274.105469 L265.277036,274.105469 Z"/>
    <path fill="#FFFFFF" d="M203.280762,246.893066 L206.422852,246.893066 C209.139648,246.893066 210.745605,248.587891 210.745605,251.469727 C210.745605,254.35791 209.145996,256.052734 206.422852,256.052734 L203.280762,256.052734 L203.280762,246.893066 Z M204.42334,247.921387 L204.42334,255.024414 L206.34668,255.024414 C208.390625,255.024414 209.577637,253.716797 209.577637,251.482422 C209.577637,249.241699 208.37793,247.921387 206.34668,247.921387 L204.42334,247.921387 Z M215.30957,250.054199 C214.217773,250.054199 213.456055,250.854004 213.373535,252.066406 L217.144043,252.066406 C217.118652,250.854004 216.39502,250.054199 215.30957,250.054199 Z M217.112305,254.281738 L218.204102,254.281738 C217.874023,255.456055 216.820312,256.17334 215.322266,256.17334 C213.424316,256.17334 212.237305,254.802246 212.237305,252.637695 C212.237305,250.48584 213.443359,249.089355 215.322266,249.089355 C217.169434,249.089355 218.292969,250.40332 218.292969,252.529785 L218.292969,252.94873 L213.373535,252.94873 L213.373535,252.999512 C213.430664,254.351562 214.186035,255.208496 215.347656,255.208496 C216.22998,255.208496 216.82666,254.884766 217.112305,254.281738 Z M222.736328,250.054199 C221.644531,250.054199 220.882812,250.854004 220.800293,252.066406 L224.570801,252.066406 C224.54541,250.854004 223.821777,250.054199 222.736328,250.054199 Z M224.539062,254.281738 L225.630859,254.281738 C225.300781,255.456055 224.24707,256.17334 222.749023,256.17334 C220.851074,256.17334 219.664062,254.802246 219.664062,252.637695 C219.664062,250.48584 220.870117,249.089355 222.749023,249.089355 C224.596191,249.089355 225.719727,250.40332 225.719727,252.529785 L225.719727,252.94873 L220.800293,252.94873 L220.800293,252.999512 C220.857422,254.351562 221.612793,255.208496 222.774414,255.208496 C223.656738,255.208496 224.253418,254.884766 224.539062,254.281738 Z M227.49707,256.052734 L227.49707,246.493164 L228.588867,246.493164 L228.588867,256.052734 L227.49707,256.052734 Z M236.244141,251.831543 L236.244141,250.854004 L237.35498,250.854004 C238.395996,250.854004 239.132324,250.181152 239.132324,249.229004 C239.132324,248.295898 238.427734,247.673828 237.374023,247.673828 C236.320312,247.673828 235.628418,248.257812 235.533203,249.241699 L234.422363,249.241699 C234.536621,247.654785 235.672852,246.677246 237.418457,246.677246 C239.018066,246.677246 240.293945,247.743652 240.293945,249.07666 C240.293945,250.168457 239.690918,250.968262 238.687988,251.209473 L238.687988,251.311035 C239.932129,251.469727 240.6875,252.333008 240.6875,253.583496 C240.6875,255.094238 239.271973,256.268555 237.462891,256.268555 C235.603027,256.268555 234.320801,255.233887 234.238281,253.666016 L235.342773,253.666016 C235.444336,254.643555 236.269531,255.271973 237.450195,255.271973 C238.65625,255.271973 239.513184,254.554688 239.513184,253.551758 C239.513184,252.491699 238.707031,251.831543 237.405762,251.831543 L236.244141,251.831543 Z"/>
    <path fill="#3366FF" d="M282.094907,246.893066 L285.916197,246.893066 C287.80145,246.893066 289.090025,248.15625 289.090025,250.060547 C289.090025,251.945801 287.750669,253.208984 285.820982,253.208984 L284.0119,253.208984 L284.0119,256.052734 L282.094907,256.052734 L282.094907,246.893066 Z M284.0119,248.467285 L284.0119,251.653809 L285.402036,251.653809 C286.500181,251.653809 287.141294,251.095215 287.141294,250.066895 C287.141294,249.025879 286.512876,248.467285 285.408384,248.467285 L284.0119,248.467285 Z M290.670591,256.052734 L290.670591,249.05127 L292.46063,249.05127 L292.46063,250.168457 L292.574888,250.168457 C292.75897,249.470215 293.482603,248.937012 294.371275,248.937012 C294.625181,248.937012 294.936216,248.96875 295.094907,249.025879 L295.094907,250.708008 C294.948911,250.650879 294.517271,250.59375 294.218931,250.59375 C293.209654,250.59375 292.517759,251.19043 292.517759,252.174316 L292.517759,256.052734 L290.670591,256.052734 Z M298.85272,254.770508 C299.709654,254.770508 300.357115,254.224609 300.357115,253.513672 L300.357115,252.999512 L298.941587,253.088379 C298.14813,253.145508 297.760923,253.431152 297.760923,253.932617 C297.760923,254.453125 298.211607,254.770508 298.85272,254.770508 Z M298.243345,256.160645 C296.897642,256.160645 295.951841,255.335449 295.951841,254.053223 C295.951841,252.783691 296.923032,252.047363 298.66229,251.945801 L300.357115,251.844238 L300.357115,251.272949 C300.357115,250.688965 299.938169,250.358887 299.17645,250.358887 C298.509947,250.358887 298.065611,250.587402 297.913267,251.006348 L296.212095,251.006348 C296.3327,249.711426 297.519712,248.898926 299.278013,248.898926 C301.131529,248.898926 302.178892,249.774902 302.178892,251.272949 L302.178892,256.052734 L300.388853,256.052734 L300.388853,255.138672 L300.274595,255.138672 C299.912779,255.779785 299.15106,256.160645 298.243345,256.160645 Z M306.019224,251.787109 L308.361509,249.05127 L310.462583,249.05127 L307.796568,252.053711 L310.646665,256.052734 L308.456724,256.052734 L306.412779,253.208984 L305.904966,253.729492 L305.904966,256.052734 L304.057798,256.052734 L304.057798,246.378906 L305.904966,246.378906 L305.904966,251.787109 L306.019224,251.787109 Z M312.34149,247.388184 L314.188657,247.388184 L314.188657,249.121094 L315.642271,249.121094 L315.642271,250.574707 L314.188657,250.574707 L314.188657,253.723145 C314.188657,254.33252 314.467954,254.611816 315.096372,254.611816 C315.337583,254.611816 315.464536,254.605469 315.642271,254.586426 L315.642271,255.995605 C315.413755,256.040039 315.070982,256.078125 314.715513,256.078125 C313.014341,256.078125 312.34149,255.525879 312.34149,254.161133 L312.34149,250.574707 L311.249693,250.574707 L311.249693,249.121094 L312.34149,249.121094 L312.34149,247.388184 Z M317.191099,256.052734 L317.191099,249.05127 L319.038267,249.05127 L319.038267,256.052734 L317.191099,256.052734 Z M318.117857,248.07373 C317.451353,248.07373 317.02606,247.686523 317.02606,247.140625 C317.02606,246.588379 317.451353,246.20752 318.117857,246.20752 C318.778013,246.20752 319.209654,246.588379 319.209654,247.140625 C319.209654,247.686523 318.778013,248.07373 318.117857,248.07373 Z M320.745786,251.10791 C320.745786,249.78125 321.913755,248.898926 323.659361,248.898926 C325.436704,248.898926 326.484068,249.641602 326.58563,250.980957 L324.878111,250.980957 C324.782896,250.530273 324.357603,250.250977 323.672056,250.250977 C323.0119,250.250977 322.52313,250.549316 322.52313,250.993652 C322.52313,251.336426 322.82147,251.545898 323.468931,251.691895 L324.782896,251.977539 C326.141294,252.275879 326.750669,252.847168 326.750669,253.894531 C326.750669,255.291016 325.500181,256.205078 323.665708,256.205078 C321.81854,256.205078 320.701353,255.449707 320.5744,254.104004 L322.377134,254.104004 C322.516782,254.580078 322.967466,254.853027 323.703794,254.853027 C324.421079,254.853027 324.916197,254.554688 324.916197,254.104004 C324.916197,253.76123 324.649595,253.551758 324.033872,253.418457 L322.764341,253.132812 C321.405943,252.834473 320.745786,252.187012 320.745786,251.10791 Z M334.463072,251.520508 L332.736509,251.520508 C332.609556,250.854004 332.133482,250.416016 331.346372,250.416016 C330.34979,250.416016 329.791197,251.158691 329.791197,252.536133 C329.791197,253.932617 330.356138,254.687988 331.346372,254.687988 C332.101743,254.687988 332.596861,254.319824 332.736509,253.62793 L334.463072,253.62793 C334.310728,255.195801 333.16815,256.205078 331.346372,256.205078 C329.162779,256.205078 327.924986,254.884766 327.924986,252.536133 C327.924986,250.212891 329.156431,248.898926 331.346372,248.898926 C333.199888,248.898926 334.310728,249.927246 334.463072,251.520508 Z M335.967466,256.052734 L335.967466,246.378906 L337.782896,246.378906 L337.782896,250.200195 L337.897154,250.200195 C338.220884,249.400391 338.982603,248.917969 340.010923,248.917969 C341.515318,248.917969 342.410337,249.86377 342.410337,251.545898 L342.410337,256.052734 L340.563169,256.052734 L340.563169,251.983887 C340.563169,251.012695 340.112486,250.51123 339.274595,250.51123 C338.347837,250.51123 337.814634,251.126953 337.814634,252.034668 L337.814634,256.052734 L335.967466,256.052734 Z M347.228208,250.314453 C346.371275,250.314453 345.768247,250.911133 345.704771,251.818848 L348.688169,251.818848 C348.650083,250.89209 348.09149,250.314453 347.228208,250.314453 Z M348.726255,254.05957 L350.44647,254.05957 C350.167173,255.379883 348.961118,256.205078 347.247251,256.205078 C345.114439,256.205078 343.857603,254.859375 343.857603,252.586914 C343.857603,250.308105 345.139829,248.898926 347.221861,248.898926 C349.284849,248.898926 350.503599,250.212891 350.503599,252.43457 L350.503599,252.999512 L345.698423,252.999512 L345.698423,253.094727 C345.723814,254.135742 346.333189,254.783203 347.298032,254.783203 C348.028013,254.783203 348.529478,254.522949 348.726255,254.05957 Z M361.700865,249.05127 L361.700865,256.052734 L359.910825,256.052734 L359.910825,254.929199 L359.796568,254.929199 C359.46649,255.741699 358.812681,256.205078 357.752622,256.205078 C356.24188,256.205078 355.302427,255.240234 355.302427,253.615234 L355.302427,249.05127 L357.149595,249.05127 L357.149595,253.13916 C357.149595,254.104004 357.587583,254.599121 358.438169,254.599121 C359.358579,254.599121 359.853697,254.021484 359.853697,253.088379 L359.853697,249.05127 L361.700865,249.05127 Z M363.567075,256.052734 L363.567075,249.05127 L365.414243,249.05127 L365.414243,256.052734 L363.567075,256.052734 Z M364.493833,248.07373 C363.827329,248.07373 363.402036,247.686523 363.402036,247.140625 C363.402036,246.588379 363.827329,246.20752 364.493833,246.20752 C365.15399,246.20752 365.58563,246.588379 365.58563,247.140625 C365.58563,247.686523 365.15399,248.07373 364.493833,248.07373 Z M367.80731,247.388184 L369.654478,247.388184 L369.654478,249.121094 L371.108091,249.121094 L371.108091,250.574707 L369.654478,250.574707 L369.654478,253.723145 C369.654478,254.33252 369.933775,254.611816 370.562193,254.611816 C370.803404,254.611816 370.930357,254.605469 371.108091,254.586426 L371.108091,255.995605 C370.879575,256.040039 370.536802,256.078125 370.181333,256.078125 C368.480161,256.078125 367.80731,255.525879 367.80731,254.161133 L367.80731,250.574707 L366.715513,250.574707 L366.715513,249.121094 L367.80731,249.121094 L367.80731,247.388184 Z M382.343443,249.05127 L380.483579,256.052734 L378.515806,256.052734 L377.265318,251.222168 L377.15106,251.222168 L375.913267,256.052734 L373.970884,256.052734 L372.104673,249.05127 L373.977232,249.05127 L375.018247,254.072266 L375.132505,254.072266 L376.357603,249.05127 L378.122251,249.05127 L379.353697,254.072266 L379.467954,254.072266 L380.50897,249.05127 L382.343443,249.05127 Z M386.68524,250.314453 C385.828306,250.314453 385.225279,250.911133 385.161802,251.818848 L388.1452,251.818848 C388.107115,250.89209 387.548521,250.314453 386.68524,250.314453 Z M388.183286,254.05957 L389.903501,254.05957 C389.624204,255.379883 388.41815,256.205078 386.704282,256.205078 C384.57147,256.205078 383.314634,254.859375 383.314634,252.586914 C383.314634,250.308105 384.596861,248.898926 386.678892,248.898926 C388.74188,248.898926 389.96063,250.212891 389.96063,252.43457 L389.96063,252.999512 L385.155454,252.999512 L385.155454,253.094727 C385.180845,254.135742 385.79022,254.783203 386.755064,254.783203 C387.485044,254.783203 387.986509,254.522949 388.183286,254.05957 Z M391.471372,256.052734 L391.471372,249.05127 L393.261411,249.05127 L393.261411,250.168457 L393.375669,250.168457 C393.559751,249.470215 394.283384,248.937012 395.172056,248.937012 C395.425962,248.937012 395.736997,248.96875 395.895689,249.025879 L395.895689,250.708008 C395.749693,250.650879 395.318052,250.59375 395.019712,250.59375 C394.010435,250.59375 393.31854,251.19043 393.31854,252.174316 L393.31854,256.052734 L391.471372,256.052734 Z M399.152036,251.787109 L401.494322,249.05127 L403.595396,249.05127 L400.92938,252.053711 L403.779478,256.052734 L401.589536,256.052734 L399.545591,253.208984 L399.037779,253.729492 L399.037779,256.052734 L397.190611,256.052734 L397.190611,246.378906 L399.037779,246.378906 L399.037779,251.787109 L399.152036,251.787109 Z M404.960142,256.052734 L404.960142,249.05127 L406.80731,249.05127 L406.80731,256.052734 L404.960142,256.052734 Z M405.8869,248.07373 C405.220396,248.07373 404.795103,247.686523 404.795103,247.140625 C404.795103,246.588379 405.220396,246.20752 405.8869,246.20752 C406.547056,246.20752 406.978697,246.588379 406.978697,247.140625 C406.978697,247.686523 406.547056,248.07373 405.8869,248.07373 Z M408.673521,256.052734 L408.673521,249.05127 L410.46356,249.05127 L410.46356,250.174805 L410.577818,250.174805 C410.901548,249.387695 411.612486,248.898926 412.647154,248.898926 C414.202329,248.898926 415.04022,249.851074 415.04022,251.526855 L415.04022,256.052734 L413.193052,256.052734 L413.193052,251.964844 C413.193052,251 412.780454,250.492188 411.904478,250.492188 C411.047544,250.492188 410.520689,251.095215 410.520689,252.015625 L410.520689,256.052734 L408.673521,256.052734 Z M419.940611,254.491211 C420.94354,254.491211 421.54022,253.723145 421.54022,252.491699 C421.54022,251.260254 420.937193,250.48584 419.940611,250.48584 C418.944029,250.48584 418.366392,251.260254 418.366392,252.485352 C418.366392,253.723145 418.937681,254.491211 419.940611,254.491211 Z M419.91522,258.706055 C418.055357,258.706055 416.823911,257.887207 416.709654,256.655762 L418.537779,256.655762 C418.632993,257.087402 419.153501,257.360352 419.953306,257.360352 C420.94354,257.360352 421.521177,256.90332 421.521177,256.116211 L421.521177,254.821289 L421.406919,254.821289 C421.019712,255.557617 420.283384,255.951172 419.299497,255.951172 C417.553892,255.951172 416.468443,254.599121 416.468443,252.491699 C416.468443,250.320801 417.56024,248.937012 419.337583,248.937012 C420.283384,248.937012 421.089536,249.406738 421.464048,250.174805 L421.578306,250.174805 L421.578306,249.05127 L423.368345,249.05127 L423.368345,256.027344 C423.368345,257.671387 422.02899,258.706055 419.91522,258.706055 Z"/>
    <g stroke="#FF3333" stroke-linecap="round" stroke-linejoin="round" stroke-width="3" transform="translate(140.5 231.5)">
      <path d="M21.625,21.8671875 C21.625,10.2692078 12.2229797,0.8671875 0.625,0.8671875" transform="matrix(0 1 1 0 -.242 .242)"/>
      <path d="M16.125,16.3671875 L22.625,20.8671875" transform="matrix(0 1 1 0 .758 -.758)"/>
      <path d="M21.5625,21.8046875 L16.4296875,27.0625" transform="matrix(0 1 1 0 -5.438 5.438)"/>
    </g>
    <g stroke="#FF3333" stroke-linecap="round" stroke-linejoin="round" stroke-width="3" transform="translate(304.291 175.5)">
      <path d="M21.3925781,21.3671875 C21.3925781,9.76920775 11.9905579,0.3671875 0.392578125,0.3671875" transform="rotate(90 10.893 10.867)"/>
      <path d="M-0.607421875,15.8671875 L5.89257812,20.3671875" transform="rotate(90 2.643 18.117)"/>
      <path d="M5.58789062,21.3046875 L0.455078125,26.5625" transform="rotate(90 3.021 23.934)"/>
    </g>
    <path fill="#EBEDF2" d="M298.5,350.749512 L307.307617,350.749512 L307.307617,352.951417 L302.903809,352.951417 L302.903809,357.355225 L307.307617,357.355225 L307.307617,359.55713 L298.5,359.55713 L298.5,363.960938 L311.711426,363.960938 L311.711426,346.345704 L298.5,346.345704 L298.5,350.749512 Z M302.903809,311.115235 L307.307617,311.115235 L307.307617,293.5 L298.5,293.5 L298.5,297.903809 L302.903809,297.903809 L302.903809,311.115235 Z M298.5,324.32666 L306.426855,324.32666 L298.5,333.57466 L298.5,337.538086 L311.711426,337.538086 L311.711426,333.134278 L303.784571,333.134278 L311.711426,323.886278 L311.711426,319.922852 L298.5,319.922852 L298.5,324.32666 Z M320.519043,297.903809 L320.519043,306.711426 L382.172364,306.711426 L382.172364,297.903809 L320.519043,297.903809 Z M320.519043,359.55713 L382.172364,359.55713 L382.172364,350.749512 L320.519043,350.749512 L320.519043,359.55713 Z M320.519043,333.134278 L382.172364,333.134278 L382.172364,324.32666 L320.519043,324.32666 L320.519043,333.134278 Z"/>
  </g>
</svg>
