<?xml version="1.0" encoding="UTF-8"?>
<svg width="500px" height="200px" viewBox="0 0 500 200" version="1.1" xmlns="http://www.w3.org/2000/svg" xmlns:xlink="http://www.w3.org/1999/xlink">
    <!-- Generator: Sketch 49.3 (51167) - http://www.bohemiancoding.com/sketch -->
    <title>dag</title>
    <desc>Created with Sketch.</desc>
    <defs>
        <rect id="path-1" x="132.058431" y="0.787109375" width="278.119995" height="46.1054687" rx="2"></rect>
        <filter x="-5.2%" y="-22.8%" width="110.4%" height="162.9%" filterUnits="objectBoundingBox" id="filter-2">
            <feOffset dx="0" dy="0" in="SourceAlpha" result="shadowOffsetOuter1"></feOffset>
            <feGaussianBlur stdDeviation="2.5" in="shadowOffsetOuter1" result="shadowBlurOuter1"></feGaussianBlur>
            <feColorMatrix values="0 0 0 0 0.125490196   0 0 0 0 0.133333333   0 0 0 0 0.149019608  0 0 0 0.1 0" type="matrix" in="shadowBlurOuter1" result="shadowMatrixOuter1"></feColorMatrix>
            <feOffset dx="0" dy="4" in="SourceAlpha" result="shadowOffsetOuter2"></feOffset>
            <feGaussianBlur stdDeviation="2.5" in="shadowOffsetOuter2" result="shadowBlurOuter2"></feGaussianBlur>
            <feColorMatrix values="0 0 0 0 0   0 0 0 0 0   0 0 0 0 0  0 0 0 0.1 0" type="matrix" in="shadowBlurOuter2" result="shadowMatrixOuter2"></feColorMatrix>
            <feMerge>
                <feMergeNode in="shadowMatrixOuter1"></feMergeNode>
                <feMergeNode in="shadowMatrixOuter2"></feMergeNode>
            </feMerge>
        </filter>
        <path d="M134.058431,0.787109375 L219.941406,0.787109375 L219.941406,46.8925781 L134.058431,46.8925781 C132.953861,46.8925781 132.058431,45.9971476 132.058431,44.8925781 L132.058431,2.78710938 C132.058431,1.68253988 132.953861,0.787109375 134.058431,0.787109375 Z" id="path-3"></path>
        <rect id="path-4" x="0.894060992" y="56.9765625" width="247.360612" height="46.1054687" rx="2"></rect>
        <filter x="-5.9%" y="-22.8%" width="111.7%" height="162.9%" filterUnits="objectBoundingBox" id="filter-5">
            <feOffset dx="0" dy="0" in="SourceAlpha" result="shadowOffsetOuter1"></feOffset>
            <feGaussianBlur stdDeviation="2.5" in="shadowOffsetOuter1" result="shadowBlurOuter1"></feGaussianBlur>
            <feColorMatrix values="0 0 0 0 0.125490196   0 0 0 0 0.133333333   0 0 0 0 0.149019608  0 0 0 0.1 0" type="matrix" in="shadowBlurOuter1" result="shadowMatrixOuter1"></feColorMatrix>
            <feOffset dx="0" dy="4" in="SourceAlpha" result="shadowOffsetOuter2"></feOffset>
            <feGaussianBlur stdDeviation="2.5" in="shadowOffsetOuter2" result="shadowBlurOuter2"></feGaussianBlur>
            <feColorMatrix values="0 0 0 0 0   0 0 0 0 0   0 0 0 0 0  0 0 0 0.1 0" type="matrix" in="shadowBlurOuter2" result="shadowMatrixOuter2"></feColorMatrix>
            <feMerge>
                <feMergeNode in="shadowMatrixOuter1"></feMergeNode>
                <feMergeNode in="shadowMatrixOuter2"></feMergeNode>
            </feMerge>
        </filter>
        <path d="M2.89406099,56.9765625 L88.7770364,56.9765625 L88.7770364,103.082031 L2.89406099,103.082031 C1.78949149,103.082031 0.894060992,102.186601 0.894060992,101.082031 L0.894060992,58.9765625 C0.894060992,57.871993 1.78949149,56.9765625 2.89406099,56.9765625 Z" id="path-6"></path>
        <rect id="path-7" x="139.894061" y="113.976562" width="261.582502" height="46.1054687" rx="2"></rect>
        <filter x="-5.5%" y="-22.8%" width="111.1%" height="162.9%" filterUnits="objectBoundingBox" id="filter-8">
            <feOffset dx="0" dy="0" in="SourceAlpha" result="shadowOffsetOuter1"></feOffset>
            <feGaussianBlur stdDeviation="2.5" in="shadowOffsetOuter1" result="shadowBlurOuter1"></feGaussianBlur>
            <feColorMatrix values="0 0 0 0 0.125490196   0 0 0 0 0.133333333   0 0 0 0 0.149019608  0 0 0 0.1 0" type="matrix" in="shadowBlurOuter1" result="shadowMatrixOuter1"></feColorMatrix>
            <feOffset dx="0" dy="4" in="SourceAlpha" result="shadowOffsetOuter2"></feOffset>
            <feGaussianBlur stdDeviation="2.5" in="shadowOffsetOuter2" result="shadowBlurOuter2"></feGaussianBlur>
            <feColorMatrix values="0 0 0 0 0   0 0 0 0 0   0 0 0 0 0  0 0 0 0.1 0" type="matrix" in="shadowBlurOuter2" result="shadowMatrixOuter2"></feColorMatrix>
            <feMerge>
                <feMergeNode in="shadowMatrixOuter1"></feMergeNode>
                <feMergeNode in="shadowMatrixOuter2"></feMergeNode>
            </feMerge>
        </filter>
        <path d="M141.894061,113.976562 L227.777036,113.976562 L227.777036,160.082031 L141.894061,160.082031 C140.789491,160.082031 139.894061,159.186601 139.894061,158.082031 L139.894061,115.976562 C139.894061,114.871993 140.789491,113.976562 141.894061,113.976562 Z" id="path-9"></path>
    </defs>
    <g id="dag" stroke="none" stroke-width="1" fill="none" fill-rule="evenodd">
        <g id="Group-3" transform="translate(38.000000, 19.500000)">
            <g id="Rectangle">
                <use fill="black" fill-opacity="1" filter="url(#filter-2)" xlink:href="#path-1"></use>
                <use fill="#FFFFFF" fill-rule="evenodd" xlink:href="#path-1"></use>
            </g>
            <g id="Rectangle">
                <use fill="#3366FF" fill-rule="evenodd" xlink:href="#path-3"></use>
                <path stroke="#3366FF" stroke-width="1" d="M219.441406,46.3925781 L219.441406,1.28710938 L134.058431,1.28710938 C133.230004,1.28710938 132.558431,1.95868225 132.558431,2.78710938 L132.558431,44.8925781 C132.558431,45.7210052 133.230004,46.3925781 134.058431,46.3925781 L219.441406,46.3925781 Z"></path>
            </g>
            <path d="M159.869059,19.1801758 L163.011149,19.1801758 C165.727946,19.1801758 167.333903,20.875 167.333903,23.7568359 C167.333903,26.6450195 165.734294,28.3398438 163.011149,28.3398438 L159.869059,28.3398438 L159.869059,19.1801758 Z M161.011637,20.2084961 L161.011637,27.3115234 L162.934977,27.3115234 C164.978922,27.3115234 166.165934,26.0039062 166.165934,23.7695312 C166.165934,21.5288086 164.966227,20.2084961 162.934977,20.2084961 L161.011637,20.2084961 Z M171.897868,22.3413086 C170.806071,22.3413086 170.044352,23.1411133 169.961833,24.3535156 L173.73234,24.3535156 C173.70695,23.1411133 172.983317,22.3413086 171.897868,22.3413086 Z M173.700602,26.5688477 L174.792399,26.5688477 C174.462321,27.7431641 173.40861,28.4604492 171.910563,28.4604492 C170.012614,28.4604492 168.825602,27.0893555 168.825602,24.9248047 C168.825602,22.7729492 170.031657,21.3764648 171.910563,21.3764648 C173.757731,21.3764648 174.881266,22.6904297 174.881266,24.8168945 L174.881266,25.2358398 L169.961833,25.2358398 L169.961833,25.2866211 C170.018962,26.6386719 170.774333,27.4956055 171.935954,27.4956055 C172.818278,27.4956055 173.414958,27.171875 173.700602,26.5688477 Z M179.324626,22.3413086 C178.232829,22.3413086 177.47111,23.1411133 177.38859,24.3535156 L181.159098,24.3535156 C181.133708,23.1411133 180.410075,22.3413086 179.324626,22.3413086 Z M181.12736,26.5688477 L182.219157,26.5688477 C181.889079,27.7431641 180.835368,28.4604492 179.337321,28.4604492 C177.439372,28.4604492 176.25236,27.0893555 176.25236,24.9248047 C176.25236,22.7729492 177.458415,21.3764648 179.337321,21.3764648 C181.184489,21.3764648 182.308024,22.6904297 182.308024,24.8168945 L182.308024,25.2358398 L177.38859,25.2358398 L177.38859,25.2866211 C177.445719,26.6386719 178.20109,27.4956055 179.362712,27.4956055 C180.245036,27.4956055 180.841715,27.171875 181.12736,26.5688477 Z M184.085368,28.3398438 L184.085368,18.7802734 L185.177165,18.7802734 L185.177165,28.3398438 L184.085368,28.3398438 Z M193.149821,28.3398438 L193.149821,20.449707 L193.048258,20.449707 L190.718669,22.1381836 L190.718669,20.9321289 L193.156169,19.1801758 L194.292399,19.1801758 L194.292399,28.3398438 L193.149821,28.3398438 Z" id="Deel-1" fill="#FFFFFF"></path>
            <path d="M240.264648,18.9453125 C242.96875,18.9453125 244.663574,20.7924805 244.663574,23.7568359 C244.663574,26.7275391 242.975098,28.574707 240.264648,28.574707 C237.547852,28.574707 235.853027,26.7275391 235.853027,23.7568359 C235.853027,20.7861328 237.573242,18.9453125 240.264648,18.9453125 Z M240.264648,20.6274414 C238.779297,20.6274414 237.814453,21.8398438 237.814453,23.7568359 C237.814453,25.6674805 238.760254,26.8925781 240.264648,26.8925781 C241.756348,26.8925781 242.708496,25.6674805 242.708496,23.7568359 C242.708496,21.8398438 241.756348,20.6274414 240.264648,20.6274414 Z M246.294922,28.3398438 L246.294922,21.3383789 L248.084961,21.3383789 L248.084961,22.4555664 L248.199219,22.4555664 C248.383301,21.7573242 249.106934,21.2241211 249.995605,21.2241211 C250.249512,21.2241211 250.560547,21.2558594 250.719238,21.3129883 L250.719238,22.9951172 C250.573242,22.9379883 250.141602,22.8808594 249.843262,22.8808594 C248.833984,22.8808594 248.14209,23.4775391 248.14209,24.4614258 L248.14209,28.3398438 L246.294922,28.3398438 Z M251.963379,28.3398438 L251.963379,21.3383789 L253.810547,21.3383789 L253.810547,28.3398438 L251.963379,28.3398438 Z M252.890137,20.3608398 C252.223633,20.3608398 251.79834,19.9736328 251.79834,19.4277344 C251.79834,18.8754883 252.223633,18.4946289 252.890137,18.4946289 C253.550293,18.4946289 253.981934,18.8754883 253.981934,19.4277344 C253.981934,19.9736328 253.550293,20.3608398 252.890137,20.3608398 Z M258.70459,22.6015625 C257.847656,22.6015625 257.244629,23.1982422 257.181152,24.105957 L260.164551,24.105957 C260.126465,23.1791992 259.567871,22.6015625 258.70459,22.6015625 Z M260.202637,26.3466797 L261.922852,26.3466797 C261.643555,27.6669922 260.4375,28.4921875 258.723633,28.4921875 C256.59082,28.4921875 255.333984,27.1464844 255.333984,24.8740234 C255.333984,22.5952148 256.616211,21.1860352 258.698242,21.1860352 C260.76123,21.1860352 261.97998,22.5 261.97998,24.7216797 L261.97998,25.2866211 L257.174805,25.2866211 L257.174805,25.3818359 C257.200195,26.4228516 257.80957,27.0703125 258.774414,27.0703125 C259.504395,27.0703125 260.005859,26.8100586 260.202637,26.3466797 Z M263.490723,28.3398438 L263.490723,21.3383789 L265.280762,21.3383789 L265.280762,22.4619141 L265.39502,22.4619141 C265.71875,21.6748047 266.429688,21.1860352 267.464355,21.1860352 C269.019531,21.1860352 269.857422,22.1381836 269.857422,23.8139648 L269.857422,28.3398438 L268.010254,28.3398438 L268.010254,24.2519531 C268.010254,23.2871094 267.597656,22.7792969 266.72168,22.7792969 C265.864746,22.7792969 265.337891,23.3823242 265.337891,24.3027344 L265.337891,28.3398438 L263.490723,28.3398438 Z M272.174316,19.675293 L274.021484,19.675293 L274.021484,21.4082031 L275.475098,21.4082031 L275.475098,22.8618164 L274.021484,22.8618164 L274.021484,26.0102539 C274.021484,26.6196289 274.300781,26.8989258 274.929199,26.8989258 C275.17041,26.8989258 275.297363,26.8925781 275.475098,26.8735352 L275.475098,28.2827148 C275.246582,28.3271484 274.903809,28.3652344 274.54834,28.3652344 C272.847168,28.3652344 272.174316,27.8129883 272.174316,26.4482422 L272.174316,22.8618164 L271.08252,22.8618164 L271.08252,21.4082031 L272.174316,21.4082031 L272.174316,19.675293 Z M280.039062,22.6015625 C279.182129,22.6015625 278.579102,23.1982422 278.515625,24.105957 L281.499023,24.105957 C281.460938,23.1791992 280.902344,22.6015625 280.039062,22.6015625 Z M281.537109,26.3466797 L283.257324,26.3466797 C282.978027,27.6669922 281.771973,28.4921875 280.058105,28.4921875 C277.925293,28.4921875 276.668457,27.1464844 276.668457,24.8740234 C276.668457,22.5952148 277.950684,21.1860352 280.032715,21.1860352 C282.095703,21.1860352 283.314453,22.5 283.314453,24.7216797 L283.314453,25.2866211 L278.509277,25.2866211 L278.509277,25.3818359 C278.534668,26.4228516 279.144043,27.0703125 280.108887,27.0703125 C280.838867,27.0703125 281.340332,26.8100586 281.537109,26.3466797 Z M284.825195,28.3398438 L284.825195,21.3383789 L286.615234,21.3383789 L286.615234,22.4555664 L286.729492,22.4555664 C286.913574,21.7573242 287.637207,21.2241211 288.525879,21.2241211 C288.779785,21.2241211 289.09082,21.2558594 289.249512,21.3129883 L289.249512,22.9951172 C289.103516,22.9379883 288.671875,22.8808594 288.373535,22.8808594 C287.364258,22.8808594 286.672363,23.4775391 286.672363,24.4614258 L286.672363,28.3398438 L284.825195,28.3398438 Z M293.508789,22.6015625 C292.651855,22.6015625 292.048828,23.1982422 291.985352,24.105957 L294.96875,24.105957 C294.930664,23.1791992 294.37207,22.6015625 293.508789,22.6015625 Z M295.006836,26.3466797 L296.727051,26.3466797 C296.447754,27.6669922 295.241699,28.4921875 293.527832,28.4921875 C291.39502,28.4921875 290.138184,27.1464844 290.138184,24.8740234 C290.138184,22.5952148 291.42041,21.1860352 293.502441,21.1860352 C295.56543,21.1860352 296.78418,22.5 296.78418,24.7216797 L296.78418,25.2866211 L291.979004,25.2866211 L291.979004,25.3818359 C292.004395,26.4228516 292.61377,27.0703125 293.578613,27.0703125 C294.308594,27.0703125 294.810059,26.8100586 295.006836,26.3466797 Z M298.294922,28.3398438 L298.294922,21.3383789 L300.084961,21.3383789 L300.084961,22.4619141 L300.199219,22.4619141 C300.522949,21.6748047 301.233887,21.1860352 302.268555,21.1860352 C303.82373,21.1860352 304.661621,22.1381836 304.661621,23.8139648 L304.661621,28.3398438 L302.814453,28.3398438 L302.814453,24.2519531 C302.814453,23.2871094 302.401855,22.7792969 301.525879,22.7792969 C300.668945,22.7792969 300.14209,23.3823242 300.14209,24.3027344 L300.14209,28.3398438 L298.294922,28.3398438 Z M312.831055,22.6015625 C311.974121,22.6015625 311.371094,23.1982422 311.307617,24.105957 L314.291016,24.105957 C314.25293,23.1791992 313.694336,22.6015625 312.831055,22.6015625 Z M314.329102,26.3466797 L316.049316,26.3466797 C315.77002,27.6669922 314.563965,28.4921875 312.850098,28.4921875 C310.717285,28.4921875 309.460449,27.1464844 309.460449,24.8740234 C309.460449,22.5952148 310.742676,21.1860352 312.824707,21.1860352 C314.887695,21.1860352 316.106445,22.5 316.106445,24.7216797 L316.106445,25.2866211 L311.30127,25.2866211 L311.30127,25.3818359 C311.32666,26.4228516 311.936035,27.0703125 312.900879,27.0703125 C313.630859,27.0703125 314.132324,26.8100586 314.329102,26.3466797 Z M317.617188,28.3398438 L317.617188,21.3383789 L319.407227,21.3383789 L319.407227,22.4619141 L319.521484,22.4619141 C319.845215,21.6748047 320.556152,21.1860352 321.59082,21.1860352 C323.145996,21.1860352 323.983887,22.1381836 323.983887,23.8139648 L323.983887,28.3398438 L322.136719,28.3398438 L322.136719,24.2519531 C322.136719,23.2871094 321.724121,22.7792969 320.848145,22.7792969 C319.991211,22.7792969 319.464355,23.3823242 319.464355,24.3027344 L319.464355,28.3398438 L317.617188,28.3398438 Z M329.138184,28.3398438 L329.138184,21.3383789 L330.985352,21.3383789 L330.985352,28.3398438 L329.138184,28.3398438 Z M330.064941,20.3608398 C329.398438,20.3608398 328.973145,19.9736328 328.973145,19.4277344 C328.973145,18.8754883 329.398438,18.4946289 330.064941,18.4946289 C330.725098,18.4946289 331.156738,18.8754883 331.156738,19.4277344 C331.156738,19.9736328 330.725098,20.3608398 330.064941,20.3608398 Z M332.851562,28.3398438 L332.851562,21.3383789 L334.641602,21.3383789 L334.641602,22.4619141 L334.755859,22.4619141 C335.07959,21.6748047 335.790527,21.1860352 336.825195,21.1860352 C338.380371,21.1860352 339.218262,22.1381836 339.218262,23.8139648 L339.218262,28.3398438 L337.371094,28.3398438 L337.371094,24.2519531 C337.371094,23.2871094 336.958496,22.7792969 336.08252,22.7792969 C335.225586,22.7792969 334.69873,23.3823242 334.69873,24.3027344 L334.69873,28.3398438 L332.851562,28.3398438 Z M340.849609,23.3950195 C340.849609,22.0683594 342.017578,21.1860352 343.763184,21.1860352 C345.540527,21.1860352 346.587891,21.9287109 346.689453,23.2680664 L344.981934,23.2680664 C344.886719,22.8173828 344.461426,22.5380859 343.775879,22.5380859 C343.115723,22.5380859 342.626953,22.8364258 342.626953,23.2807617 C342.626953,23.6235352 342.925293,23.8330078 343.572754,23.9790039 L344.886719,24.2646484 C346.245117,24.5629883 346.854492,25.1342773 346.854492,26.1816406 C346.854492,27.578125 345.604004,28.4921875 343.769531,28.4921875 C341.922363,28.4921875 340.805176,27.7368164 340.678223,26.3911133 L342.480957,26.3911133 C342.620605,26.8671875 343.071289,27.1401367 343.807617,27.1401367 C344.524902,27.1401367 345.02002,26.8417969 345.02002,26.3911133 C345.02002,26.0483398 344.753418,25.8388672 344.137695,25.7055664 L342.868164,25.4199219 C341.509766,25.121582 340.849609,24.4741211 340.849609,23.3950195 Z M352.415039,21.2241211 C354.186035,21.2241211 355.271484,22.5698242 355.271484,24.8359375 C355.271484,27.0957031 354.19873,28.4477539 352.446777,28.4477539 C351.443848,28.4477539 350.675781,28.0097656 350.333008,27.2670898 L350.21875,27.2670898 L350.21875,30.6630859 L348.371582,30.6630859 L348.371582,21.3383789 L350.161621,21.3383789 L350.161621,22.4873047 L350.275879,22.4873047 C350.656738,21.7001953 351.450195,21.2241211 352.415039,21.2241211 Z M351.786621,26.9052734 C352.783203,26.9052734 353.373535,26.1308594 353.373535,24.8359375 C353.373535,23.5537109 352.776855,22.7729492 351.792969,22.7729492 C350.809082,22.7729492 350.199707,23.5600586 350.199707,24.8422852 C350.199707,26.1245117 350.809082,26.9052734 351.786621,26.9052734 Z M356.788574,28.3398438 L356.788574,21.3383789 L358.635742,21.3383789 L358.635742,28.3398438 L356.788574,28.3398438 Z M357.715332,20.3608398 C357.048828,20.3608398 356.623535,19.9736328 356.623535,19.4277344 C356.623535,18.8754883 357.048828,18.4946289 357.715332,18.4946289 C358.375488,18.4946289 358.807129,18.8754883 358.807129,19.4277344 C358.807129,19.9736328 358.375488,20.3608398 357.715332,20.3608398 Z M360.501953,28.3398438 L360.501953,21.3383789 L362.291992,21.3383789 L362.291992,22.4555664 L362.40625,22.4555664 C362.590332,21.7573242 363.313965,21.2241211 364.202637,21.2241211 C364.456543,21.2241211 364.767578,21.2558594 364.92627,21.3129883 L364.92627,22.9951172 C364.780273,22.9379883 364.348633,22.8808594 364.050293,22.8808594 C363.041016,22.8808594 362.349121,23.4775391 362.349121,24.4614258 L362.349121,28.3398438 L360.501953,28.3398438 Z M369.185547,22.6015625 C368.328613,22.6015625 367.725586,23.1982422 367.662109,24.105957 L370.645508,24.105957 C370.607422,23.1791992 370.048828,22.6015625 369.185547,22.6015625 Z M370.683594,26.3466797 L372.403809,26.3466797 C372.124512,27.6669922 370.918457,28.4921875 369.20459,28.4921875 C367.071777,28.4921875 365.814941,27.1464844 365.814941,24.8740234 C365.814941,22.5952148 367.097168,21.1860352 369.179199,21.1860352 C371.242188,21.1860352 372.460938,22.5 372.460938,24.7216797 L372.460938,25.2866211 L367.655762,25.2866211 L367.655762,25.3818359 C367.681152,26.4228516 368.290527,27.0703125 369.255371,27.0703125 C369.985352,27.0703125 370.486816,26.8100586 370.683594,26.3466797 Z M373.97168,28.3398438 L373.97168,21.3383789 L375.761719,21.3383789 L375.761719,22.4555664 L375.875977,22.4555664 C376.060059,21.7573242 376.783691,21.2241211 377.672363,21.2241211 C377.92627,21.2241211 378.237305,21.2558594 378.395996,21.3129883 L378.395996,22.9951172 C378.25,22.9379883 377.818359,22.8808594 377.52002,22.8808594 C376.510742,22.8808594 375.818848,23.4775391 375.818848,24.4614258 L375.818848,28.3398438 L373.97168,28.3398438 Z M382.655273,22.6015625 C381.79834,22.6015625 381.195312,23.1982422 381.131836,24.105957 L384.115234,24.105957 C384.077148,23.1791992 383.518555,22.6015625 382.655273,22.6015625 Z M384.15332,26.3466797 L385.873535,26.3466797 C385.594238,27.6669922 384.388184,28.4921875 382.674316,28.4921875 C380.541504,28.4921875 379.284668,27.1464844 379.284668,24.8740234 C379.284668,22.5952148 380.566895,21.1860352 382.648926,21.1860352 C384.711914,21.1860352 385.930664,22.5 385.930664,24.7216797 L385.930664,25.2866211 L381.125488,25.2866211 L381.125488,25.3818359 C381.150879,26.4228516 381.760254,27.0703125 382.725098,27.0703125 C383.455078,27.0703125 383.956543,26.8100586 384.15332,26.3466797 Z M387.441406,28.3398438 L387.441406,21.3383789 L389.231445,21.3383789 L389.231445,22.4619141 L389.345703,22.4619141 C389.669434,21.6748047 390.380371,21.1860352 391.415039,21.1860352 C392.970215,21.1860352 393.808105,22.1381836 393.808105,23.8139648 L393.808105,28.3398438 L391.960938,28.3398438 L391.960938,24.2519531 C391.960938,23.2871094 391.54834,22.7792969 390.672363,22.7792969 C389.81543,22.7792969 389.288574,23.3823242 389.288574,24.3027344 L389.288574,28.3398438 L387.441406,28.3398438 Z" id="Orienteren-en-inspir" fill="#3366FF"></path>
            <g id="Rectangle">
                <use fill="black" fill-opacity="1" filter="url(#filter-5)" xlink:href="#path-4"></use>
                <use fill="#FFFFFF" fill-rule="evenodd" xlink:href="#path-4"></use>
            </g>
            <g id="Rectangle">
                <use fill="#3366FF" fill-rule="evenodd" xlink:href="#path-6"></use>
                <path stroke="#3366FF" stroke-width="1" d="M88.2770364,102.582031 L88.2770364,57.4765625 L2.89406099,57.4765625 C2.06563387,57.4765625 1.39406099,58.1481354 1.39406099,58.9765625 L1.39406099,101.082031 C1.39406099,101.910458 2.06563387,102.582031 2.89406099,102.582031 L88.2770364,102.582031 Z"></path>
            </g>
            <path d="M26.5791016,75.3696289 L29.7211914,75.3696289 C32.4379883,75.3696289 34.0439453,77.0644531 34.0439453,79.9462891 C34.0439453,82.8344727 32.4443359,84.5292969 29.7211914,84.5292969 L26.5791016,84.5292969 L26.5791016,75.3696289 Z M27.7216797,76.3979492 L27.7216797,83.5009766 L29.6450195,83.5009766 C31.6889648,83.5009766 32.8759766,82.1933594 32.8759766,79.9589844 C32.8759766,77.7182617 31.6762695,76.3979492 29.6450195,76.3979492 L27.7216797,76.3979492 Z M38.6079102,78.5307617 C37.5161133,78.5307617 36.7543945,79.3305664 36.671875,80.5429688 L40.4423828,80.5429688 C40.4169922,79.3305664 39.6933594,78.5307617 38.6079102,78.5307617 Z M40.4106445,82.7583008 L41.5024414,82.7583008 C41.1723633,83.9326172 40.1186523,84.6499023 38.6206055,84.6499023 C36.7226562,84.6499023 35.5356445,83.2788086 35.5356445,81.1142578 C35.5356445,78.9624023 36.7416992,77.565918 38.6206055,77.565918 C40.4677734,77.565918 41.5913086,78.8798828 41.5913086,81.0063477 L41.5913086,81.425293 L36.671875,81.425293 L36.671875,81.4760742 C36.7290039,82.828125 37.484375,83.6850586 38.6459961,83.6850586 C39.5283203,83.6850586 40.125,83.3613281 40.4106445,82.7583008 Z M46.034668,78.5307617 C44.9428711,78.5307617 44.1811523,79.3305664 44.0986328,80.5429688 L47.8691406,80.5429688 C47.84375,79.3305664 47.1201172,78.5307617 46.034668,78.5307617 Z M47.8374023,82.7583008 L48.9291992,82.7583008 C48.5991211,83.9326172 47.5454102,84.6499023 46.0473633,84.6499023 C44.1494141,84.6499023 42.9624023,83.2788086 42.9624023,81.1142578 C42.9624023,78.9624023 44.168457,77.565918 46.0473633,77.565918 C47.8945312,77.565918 49.0180664,78.8798828 49.0180664,81.0063477 L49.0180664,81.425293 L44.0986328,81.425293 L44.0986328,81.4760742 C44.1557617,82.828125 44.9111328,83.6850586 46.0727539,83.6850586 C46.9550781,83.6850586 47.5517578,83.3613281 47.8374023,82.7583008 Z M50.7954102,84.5292969 L50.7954102,74.9697266 L51.887207,74.9697266 L51.887207,84.5292969 L50.7954102,84.5292969 Z M57.612793,77.9467773 C57.612793,76.3217773 58.8442383,75.1538086 60.5454102,75.1538086 C62.1894531,75.1538086 63.4462891,76.2709961 63.4462891,77.7246094 C63.4462891,78.6767578 63.0146484,79.4194336 61.5102539,81.0317383 L59.3076172,83.3994141 L59.3076172,83.5009766 L63.5986328,83.5009766 L63.5986328,84.5292969 L57.6699219,84.5292969 L57.6699219,83.7421875 L60.8374023,80.2827148 C62.0180664,79.0004883 62.3037109,78.5053711 62.3037109,77.769043 C62.3037109,76.8549805 61.5229492,76.1503906 60.5136719,76.1503906 C59.440918,76.1503906 58.7172852,76.8676758 58.7172852,77.9467773 L58.7172852,77.953125 L57.612793,77.953125 L57.612793,77.9467773 Z" id="Deel-2" fill="#FFFFFF"></path>
            <path d="M108.986021,84.7641602 C106.3327,84.7641602 104.688657,82.9296875 104.688657,79.9462891 C104.688657,76.9692383 106.326353,75.1347656 108.986021,75.1347656 C111.156919,75.1347656 112.820005,76.5756836 112.959654,78.5688477 L111.093443,78.5688477 C110.909361,77.5151367 110.077818,76.8232422 108.986021,76.8232422 C107.545103,76.8232422 106.650083,78.0166016 106.650083,79.9462891 C106.650083,81.8759766 107.545103,83.0756836 108.992368,83.0756836 C110.090513,83.0756836 110.915708,82.4282227 111.09979,81.4189453 L112.966001,81.4189453 C112.80731,83.3994141 111.195005,84.7641602 108.986021,84.7641602 Z M117.650572,84.6816406 C115.498716,84.6816406 114.203794,83.3168945 114.203794,81.0253906 C114.203794,78.7592773 115.517759,77.3754883 117.650572,77.3754883 C119.783384,77.3754883 121.097349,78.7529297 121.097349,81.0253906 C121.097349,83.3168945 119.802427,84.6816406 117.650572,84.6816406 Z M117.650572,83.1708984 C118.634458,83.1708984 119.1994,82.3837891 119.1994,81.0253906 C119.1994,79.6796875 118.628111,78.8862305 117.650572,78.8862305 C116.666685,78.8862305 116.101743,79.6796875 116.101743,81.0253906 C116.101743,82.3901367 116.660337,83.1708984 117.650572,83.1708984 Z M122.601743,84.5292969 L122.601743,77.527832 L124.391782,77.527832 L124.391782,78.6704102 L124.50604,78.6704102 C124.791685,77.8706055 125.521665,77.3754883 126.442075,77.3754883 C127.425962,77.3754883 128.098814,77.8579102 128.378111,78.6704102 L128.492368,78.6704102 C128.816099,77.8896484 129.622251,77.3754883 130.59979,77.3754883 C131.996275,77.3754883 132.865904,78.2832031 132.865904,79.7241211 L132.865904,84.5292969 L131.018736,84.5292969 L131.018736,80.2128906 C131.018736,79.3813477 130.631529,78.96875 129.850767,78.96875 C129.101743,78.96875 128.619322,79.5019531 128.619322,80.2446289 L128.619322,84.5292969 L126.841978,84.5292969 L126.841978,80.1367188 C126.841978,79.394043 126.410337,78.96875 125.686704,78.96875 C124.963072,78.96875 124.448911,79.5336914 124.448911,80.3144531 L124.448911,84.5292969 L122.601743,84.5292969 Z M134.655943,84.5292969 L134.655943,77.527832 L136.445982,77.527832 L136.445982,78.6704102 L136.56024,78.6704102 C136.845884,77.8706055 137.575865,77.3754883 138.496275,77.3754883 C139.480161,77.3754883 140.153013,77.8579102 140.43231,78.6704102 L140.546568,78.6704102 C140.870298,77.8896484 141.67645,77.3754883 142.65399,77.3754883 C144.050474,77.3754883 144.920103,78.2832031 144.920103,79.7241211 L144.920103,84.5292969 L143.072935,84.5292969 L143.072935,80.2128906 C143.072935,79.3813477 142.685728,78.96875 141.904966,78.96875 C141.155943,78.96875 140.673521,79.5019531 140.673521,80.2446289 L140.673521,84.5292969 L138.896177,84.5292969 L138.896177,80.1367188 C138.896177,79.394043 138.464536,78.96875 137.740904,78.96875 C137.017271,78.96875 136.503111,79.5336914 136.503111,80.3144531 L136.503111,84.5292969 L134.655943,84.5292969 Z M153.045103,77.527832 L153.045103,84.5292969 L151.255064,84.5292969 L151.255064,83.4057617 L151.140806,83.4057617 C150.810728,84.2182617 150.156919,84.6816406 149.096861,84.6816406 C147.586118,84.6816406 146.646665,83.7167969 146.646665,82.0917969 L146.646665,77.527832 L148.493833,77.527832 L148.493833,81.6157227 C148.493833,82.5805664 148.931822,83.0756836 149.782407,83.0756836 C150.702818,83.0756836 151.197935,82.4980469 151.197935,81.5649414 L151.197935,77.527832 L153.045103,77.527832 Z M154.898618,84.5292969 L154.898618,77.527832 L156.688657,77.527832 L156.688657,78.6513672 L156.802915,78.6513672 C157.126646,77.8642578 157.837583,77.3754883 158.872251,77.3754883 C160.427427,77.3754883 161.265318,78.3276367 161.265318,80.003418 L161.265318,84.5292969 L159.41815,84.5292969 L159.41815,80.4414062 C159.41815,79.4765625 159.005552,78.96875 158.129575,78.96875 C157.272642,78.96875 156.745786,79.5717773 156.745786,80.4921875 L156.745786,84.5292969 L154.898618,84.5292969 Z M163.068052,84.5292969 L163.068052,77.527832 L164.91522,77.527832 L164.91522,84.5292969 L163.068052,84.5292969 Z M163.99481,76.550293 C163.328306,76.550293 162.903013,76.1630859 162.903013,75.6171875 C162.903013,75.0649414 163.328306,74.684082 163.99481,74.684082 C164.654966,74.684082 165.086607,75.0649414 165.086607,75.6171875 C165.086607,76.1630859 164.654966,76.550293 163.99481,76.550293 Z M167.308286,75.8647461 L169.155454,75.8647461 L169.155454,77.5976562 L170.609068,77.5976562 L170.609068,79.0512695 L169.155454,79.0512695 L169.155454,82.199707 C169.155454,82.809082 169.434751,83.0883789 170.063169,83.0883789 C170.30438,83.0883789 170.431333,83.0820312 170.609068,83.0629883 L170.609068,84.472168 C170.380552,84.5166016 170.037779,84.5546875 169.68231,84.5546875 C167.981138,84.5546875 167.308286,84.0024414 167.308286,82.6376953 L167.308286,79.0512695 L166.21649,79.0512695 L166.21649,77.5976562 L167.308286,77.5976562 L167.308286,75.8647461 Z M173.014829,87.074707 C172.945005,87.074707 172.386411,87.0683594 172.31024,87.0556641 L172.31024,85.5703125 C172.373716,85.5830078 172.653013,85.5830078 172.729185,85.5830078 C173.421079,85.5830078 173.814634,85.3608398 173.966978,84.8276367 L174.030454,84.5737305 L171.573911,77.527832 L173.611509,77.527832 L175.084165,82.8344727 L175.198423,82.8344727 L176.671079,77.527832 L178.626157,77.527832 L176.214048,84.637207 C175.617368,86.4399414 174.760435,87.074707 173.014829,87.074707 Z M189.607603,77.527832 L187.74774,84.5292969 L185.779966,84.5292969 L184.529478,79.6987305 L184.41522,79.6987305 L183.177427,84.5292969 L181.235044,84.5292969 L179.368833,77.527832 L181.241392,77.527832 L182.282407,82.5488281 L182.396665,82.5488281 L183.621763,77.527832 L185.386411,77.527832 L186.617857,82.5488281 L186.732115,82.5488281 L187.77313,77.527832 L189.607603,77.527832 Z M193.9494,78.7910156 C193.092466,78.7910156 192.489439,79.3876953 192.425962,80.2954102 L195.409361,80.2954102 C195.371275,79.3686523 194.812681,78.7910156 193.9494,78.7910156 Z M195.447447,82.5361328 L197.167661,82.5361328 C196.888365,83.8564453 195.68231,84.6816406 193.968443,84.6816406 C191.83563,84.6816406 190.578794,83.3359375 190.578794,81.0634766 C190.578794,78.784668 191.861021,77.3754883 193.943052,77.3754883 C196.00604,77.3754883 197.22479,78.6894531 197.22479,80.9111328 L197.22479,81.4760742 L192.419615,81.4760742 L192.419615,81.5712891 C192.445005,82.6123047 193.05438,83.2597656 194.019224,83.2597656 C194.749204,83.2597656 195.250669,82.9995117 195.447447,82.5361328 Z M198.735532,84.5292969 L198.735532,77.527832 L200.525572,77.527832 L200.525572,78.6450195 L200.639829,78.6450195 C200.823911,77.9467773 201.547544,77.4135742 202.436216,77.4135742 C202.690122,77.4135742 203.001157,77.4453125 203.159849,77.5024414 L203.159849,79.1845703 C203.013853,79.1274414 202.582212,79.0703125 202.283872,79.0703125 C201.274595,79.0703125 200.5827,79.6669922 200.5827,80.6508789 L200.5827,84.5292969 L198.735532,84.5292969 Z M206.416197,80.2636719 L208.758482,77.527832 L210.859556,77.527832 L208.19354,80.5302734 L211.043638,84.5292969 L208.853697,84.5292969 L206.809751,81.6855469 L206.301939,82.2060547 L206.301939,84.5292969 L204.454771,84.5292969 L204.454771,74.8554688 L206.301939,74.8554688 L206.301939,80.2636719 L206.416197,80.2636719 Z M212.224302,84.5292969 L212.224302,77.527832 L214.07147,77.527832 L214.07147,84.5292969 L212.224302,84.5292969 Z M213.15106,76.550293 C212.484556,76.550293 212.059263,76.1630859 212.059263,75.6171875 C212.059263,75.0649414 212.484556,74.684082 213.15106,74.684082 C213.811216,74.684082 214.242857,75.0649414 214.242857,75.6171875 C214.242857,76.1630859 213.811216,76.550293 213.15106,76.550293 Z M215.937681,84.5292969 L215.937681,77.527832 L217.72772,77.527832 L217.72772,78.6513672 L217.841978,78.6513672 C218.165708,77.8642578 218.876646,77.3754883 219.911314,77.3754883 C221.46649,77.3754883 222.30438,78.3276367 222.30438,80.003418 L222.30438,84.5292969 L220.457212,84.5292969 L220.457212,80.4414062 C220.457212,79.4765625 220.044615,78.96875 219.168638,78.96875 C218.311704,78.96875 217.784849,79.5717773 217.784849,80.4921875 L217.784849,84.5292969 L215.937681,84.5292969 Z M227.204771,82.9677734 C228.2077,82.9677734 228.80438,82.199707 228.80438,80.9682617 C228.80438,79.7368164 228.201353,78.9624023 227.204771,78.9624023 C226.208189,78.9624023 225.630552,79.7368164 225.630552,80.9619141 C225.630552,82.199707 226.201841,82.9677734 227.204771,82.9677734 Z M227.17938,87.1826172 C225.319517,87.1826172 224.088072,86.3637695 223.973814,85.1323242 L225.801939,85.1323242 C225.897154,85.5639648 226.417661,85.8369141 227.217466,85.8369141 C228.2077,85.8369141 228.785337,85.3798828 228.785337,84.5927734 L228.785337,83.2978516 L228.671079,83.2978516 C228.283872,84.0341797 227.547544,84.4277344 226.563657,84.4277344 C224.818052,84.4277344 223.732603,83.0756836 223.732603,80.9682617 C223.732603,78.7973633 224.8244,77.4135742 226.601743,77.4135742 C227.547544,77.4135742 228.353697,77.8833008 228.728208,78.6513672 L228.842466,78.6513672 L228.842466,77.527832 L230.632505,77.527832 L230.632505,84.5039062 C230.632505,86.1479492 229.29315,87.1826172 227.17938,87.1826172 Z" id="Communitywerking" fill="#3366FF"></path>
            <g id="Rectangle">
                <use fill="black" fill-opacity="1" filter="url(#filter-8)" xlink:href="#path-7"></use>
                <use fill="#FFFFFF" fill-rule="evenodd" xlink:href="#path-7"></use>
            </g>
            <g id="Rectangle">
                <use fill="#3366FF" fill-rule="evenodd" xlink:href="#path-9"></use>
                <path stroke="#3366FF" stroke-width="1" d="M227.277036,159.582031 L227.277036,114.476562 L141.894061,114.476562 C141.065634,114.476562 140.394061,115.148135 140.394061,115.976562 L140.394061,158.082031 C140.394061,158.910458 141.065634,159.582031 141.894061,159.582031 L227.277036,159.582031 Z"></path>
            </g>
            <path d="M165.280762,132.369629 L168.422852,132.369629 C171.139648,132.369629 172.745605,134.064453 172.745605,136.946289 C172.745605,139.834473 171.145996,141.529297 168.422852,141.529297 L165.280762,141.529297 L165.280762,132.369629 Z M166.42334,133.397949 L166.42334,140.500977 L168.34668,140.500977 C170.390625,140.500977 171.577637,139.193359 171.577637,136.958984 C171.577637,134.718262 170.37793,133.397949 168.34668,133.397949 L166.42334,133.397949 Z M177.30957,135.530762 C176.217773,135.530762 175.456055,136.330566 175.373535,137.542969 L179.144043,137.542969 C179.118652,136.330566 178.39502,135.530762 177.30957,135.530762 Z M179.112305,139.758301 L180.204102,139.758301 C179.874023,140.932617 178.820312,141.649902 177.322266,141.649902 C175.424316,141.649902 174.237305,140.278809 174.237305,138.114258 C174.237305,135.962402 175.443359,134.565918 177.322266,134.565918 C179.169434,134.565918 180.292969,135.879883 180.292969,138.006348 L180.292969,138.425293 L175.373535,138.425293 L175.373535,138.476074 C175.430664,139.828125 176.186035,140.685059 177.347656,140.685059 C178.22998,140.685059 178.82666,140.361328 179.112305,139.758301 Z M184.736328,135.530762 C183.644531,135.530762 182.882812,136.330566 182.800293,137.542969 L186.570801,137.542969 C186.54541,136.330566 185.821777,135.530762 184.736328,135.530762 Z M186.539062,139.758301 L187.630859,139.758301 C187.300781,140.932617 186.24707,141.649902 184.749023,141.649902 C182.851074,141.649902 181.664062,140.278809 181.664062,138.114258 C181.664062,135.962402 182.870117,134.565918 184.749023,134.565918 C186.596191,134.565918 187.719727,135.879883 187.719727,138.006348 L187.719727,138.425293 L182.800293,138.425293 L182.800293,138.476074 C182.857422,139.828125 183.612793,140.685059 184.774414,140.685059 C185.656738,140.685059 186.253418,140.361328 186.539062,139.758301 Z M189.49707,141.529297 L189.49707,131.969727 L190.588867,131.969727 L190.588867,141.529297 L189.49707,141.529297 Z M198.244141,137.308105 L198.244141,136.330566 L199.35498,136.330566 C200.395996,136.330566 201.132324,135.657715 201.132324,134.705566 C201.132324,133.772461 200.427734,133.150391 199.374023,133.150391 C198.320312,133.150391 197.628418,133.734375 197.533203,134.718262 L196.422363,134.718262 C196.536621,133.131348 197.672852,132.153809 199.418457,132.153809 C201.018066,132.153809 202.293945,133.220215 202.293945,134.553223 C202.293945,135.64502 201.690918,136.444824 200.687988,136.686035 L200.687988,136.787598 C201.932129,136.946289 202.6875,137.80957 202.6875,139.060059 C202.6875,140.570801 201.271973,141.745117 199.462891,141.745117 C197.603027,141.745117 196.320801,140.710449 196.238281,139.142578 L197.342773,139.142578 C197.444336,140.120117 198.269531,140.748535 199.450195,140.748535 C200.65625,140.748535 201.513184,140.03125 201.513184,139.02832 C201.513184,137.968262 200.707031,137.308105 199.405762,137.308105 L198.244141,137.308105 Z" id="Deel-3" fill="#FFFFFF"></path>
            <path d="M244.094907,132.369629 L247.916197,132.369629 C249.80145,132.369629 251.090025,133.632812 251.090025,135.537109 C251.090025,137.422363 249.750669,138.685547 247.820982,138.685547 L246.0119,138.685547 L246.0119,141.529297 L244.094907,141.529297 L244.094907,132.369629 Z M246.0119,133.943848 L246.0119,137.130371 L247.402036,137.130371 C248.500181,137.130371 249.141294,136.571777 249.141294,135.543457 C249.141294,134.502441 248.512876,133.943848 247.408384,133.943848 L246.0119,133.943848 Z M252.670591,141.529297 L252.670591,134.527832 L254.46063,134.527832 L254.46063,135.64502 L254.574888,135.64502 C254.75897,134.946777 255.482603,134.413574 256.371275,134.413574 C256.625181,134.413574 256.936216,134.445312 257.094907,134.502441 L257.094907,136.18457 C256.948911,136.127441 256.517271,136.070312 256.218931,136.070312 C255.209654,136.070312 254.517759,136.666992 254.517759,137.650879 L254.517759,141.529297 L252.670591,141.529297 Z M260.85272,140.24707 C261.709654,140.24707 262.357115,139.701172 262.357115,138.990234 L262.357115,138.476074 L260.941587,138.564941 C260.14813,138.62207 259.760923,138.907715 259.760923,139.40918 C259.760923,139.929688 260.211607,140.24707 260.85272,140.24707 Z M260.243345,141.637207 C258.897642,141.637207 257.951841,140.812012 257.951841,139.529785 C257.951841,138.260254 258.923032,137.523926 260.66229,137.422363 L262.357115,137.320801 L262.357115,136.749512 C262.357115,136.165527 261.938169,135.835449 261.17645,135.835449 C260.509947,135.835449 260.065611,136.063965 259.913267,136.48291 L258.212095,136.48291 C258.3327,135.187988 259.519712,134.375488 261.278013,134.375488 C263.131529,134.375488 264.178892,135.251465 264.178892,136.749512 L264.178892,141.529297 L262.388853,141.529297 L262.388853,140.615234 L262.274595,140.615234 C261.912779,141.256348 261.15106,141.637207 260.243345,141.637207 Z M268.019224,137.263672 L270.361509,134.527832 L272.462583,134.527832 L269.796568,137.530273 L272.646665,141.529297 L270.456724,141.529297 L268.412779,138.685547 L267.904966,139.206055 L267.904966,141.529297 L266.057798,141.529297 L266.057798,131.855469 L267.904966,131.855469 L267.904966,137.263672 L268.019224,137.263672 Z M274.34149,132.864746 L276.188657,132.864746 L276.188657,134.597656 L277.642271,134.597656 L277.642271,136.05127 L276.188657,136.05127 L276.188657,139.199707 C276.188657,139.809082 276.467954,140.088379 277.096372,140.088379 C277.337583,140.088379 277.464536,140.082031 277.642271,140.062988 L277.642271,141.472168 C277.413755,141.516602 277.070982,141.554688 276.715513,141.554688 C275.014341,141.554688 274.34149,141.002441 274.34149,139.637695 L274.34149,136.05127 L273.249693,136.05127 L273.249693,134.597656 L274.34149,134.597656 L274.34149,132.864746 Z M279.191099,141.529297 L279.191099,134.527832 L281.038267,134.527832 L281.038267,141.529297 L279.191099,141.529297 Z M280.117857,133.550293 C279.451353,133.550293 279.02606,133.163086 279.02606,132.617188 C279.02606,132.064941 279.451353,131.684082 280.117857,131.684082 C280.778013,131.684082 281.209654,132.064941 281.209654,132.617188 C281.209654,133.163086 280.778013,133.550293 280.117857,133.550293 Z M282.745786,136.584473 C282.745786,135.257812 283.913755,134.375488 285.659361,134.375488 C287.436704,134.375488 288.484068,135.118164 288.58563,136.45752 L286.878111,136.45752 C286.782896,136.006836 286.357603,135.727539 285.672056,135.727539 C285.0119,135.727539 284.52313,136.025879 284.52313,136.470215 C284.52313,136.812988 284.82147,137.022461 285.468931,137.168457 L286.782896,137.454102 C288.141294,137.752441 288.750669,138.32373 288.750669,139.371094 C288.750669,140.767578 287.500181,141.681641 285.665708,141.681641 C283.81854,141.681641 282.701353,140.92627 282.5744,139.580566 L284.377134,139.580566 C284.516782,140.056641 284.967466,140.32959 285.703794,140.32959 C286.421079,140.32959 286.916197,140.03125 286.916197,139.580566 C286.916197,139.237793 286.649595,139.02832 286.033872,138.89502 L284.764341,138.609375 C283.405943,138.311035 282.745786,137.663574 282.745786,136.584473 Z M296.463072,136.99707 L294.736509,136.99707 C294.609556,136.330566 294.133482,135.892578 293.346372,135.892578 C292.34979,135.892578 291.791197,136.635254 291.791197,138.012695 C291.791197,139.40918 292.356138,140.164551 293.346372,140.164551 C294.101743,140.164551 294.596861,139.796387 294.736509,139.104492 L296.463072,139.104492 C296.310728,140.672363 295.16815,141.681641 293.346372,141.681641 C291.162779,141.681641 289.924986,140.361328 289.924986,138.012695 C289.924986,135.689453 291.156431,134.375488 293.346372,134.375488 C295.199888,134.375488 296.310728,135.403809 296.463072,136.99707 Z M297.967466,141.529297 L297.967466,131.855469 L299.782896,131.855469 L299.782896,135.676758 L299.897154,135.676758 C300.220884,134.876953 300.982603,134.394531 302.010923,134.394531 C303.515318,134.394531 304.410337,135.340332 304.410337,137.022461 L304.410337,141.529297 L302.563169,141.529297 L302.563169,137.460449 C302.563169,136.489258 302.112486,135.987793 301.274595,135.987793 C300.347837,135.987793 299.814634,136.603516 299.814634,137.51123 L299.814634,141.529297 L297.967466,141.529297 Z M309.228208,135.791016 C308.371275,135.791016 307.768247,136.387695 307.704771,137.29541 L310.688169,137.29541 C310.650083,136.368652 310.09149,135.791016 309.228208,135.791016 Z M310.726255,139.536133 L312.44647,139.536133 C312.167173,140.856445 310.961118,141.681641 309.247251,141.681641 C307.114439,141.681641 305.857603,140.335938 305.857603,138.063477 C305.857603,135.784668 307.139829,134.375488 309.221861,134.375488 C311.284849,134.375488 312.503599,135.689453 312.503599,137.911133 L312.503599,138.476074 L307.698423,138.476074 L307.698423,138.571289 C307.723814,139.612305 308.333189,140.259766 309.298032,140.259766 C310.028013,140.259766 310.529478,139.999512 310.726255,139.536133 Z M323.700865,134.527832 L323.700865,141.529297 L321.910825,141.529297 L321.910825,140.405762 L321.796568,140.405762 C321.46649,141.218262 320.812681,141.681641 319.752622,141.681641 C318.24188,141.681641 317.302427,140.716797 317.302427,139.091797 L317.302427,134.527832 L319.149595,134.527832 L319.149595,138.615723 C319.149595,139.580566 319.587583,140.075684 320.438169,140.075684 C321.358579,140.075684 321.853697,139.498047 321.853697,138.564941 L321.853697,134.527832 L323.700865,134.527832 Z M325.567075,141.529297 L325.567075,134.527832 L327.414243,134.527832 L327.414243,141.529297 L325.567075,141.529297 Z M326.493833,133.550293 C325.827329,133.550293 325.402036,133.163086 325.402036,132.617188 C325.402036,132.064941 325.827329,131.684082 326.493833,131.684082 C327.15399,131.684082 327.58563,132.064941 327.58563,132.617188 C327.58563,133.163086 327.15399,133.550293 326.493833,133.550293 Z M329.80731,132.864746 L331.654478,132.864746 L331.654478,134.597656 L333.108091,134.597656 L333.108091,136.05127 L331.654478,136.05127 L331.654478,139.199707 C331.654478,139.809082 331.933775,140.088379 332.562193,140.088379 C332.803404,140.088379 332.930357,140.082031 333.108091,140.062988 L333.108091,141.472168 C332.879575,141.516602 332.536802,141.554688 332.181333,141.554688 C330.480161,141.554688 329.80731,141.002441 329.80731,139.637695 L329.80731,136.05127 L328.715513,136.05127 L328.715513,134.597656 L329.80731,134.597656 L329.80731,132.864746 Z M344.343443,134.527832 L342.483579,141.529297 L340.515806,141.529297 L339.265318,136.69873 L339.15106,136.69873 L337.913267,141.529297 L335.970884,141.529297 L334.104673,134.527832 L335.977232,134.527832 L337.018247,139.548828 L337.132505,139.548828 L338.357603,134.527832 L340.122251,134.527832 L341.353697,139.548828 L341.467954,139.548828 L342.50897,134.527832 L344.343443,134.527832 Z M348.68524,135.791016 C347.828306,135.791016 347.225279,136.387695 347.161802,137.29541 L350.1452,137.29541 C350.107115,136.368652 349.548521,135.791016 348.68524,135.791016 Z M350.183286,139.536133 L351.903501,139.536133 C351.624204,140.856445 350.41815,141.681641 348.704282,141.681641 C346.57147,141.681641 345.314634,140.335938 345.314634,138.063477 C345.314634,135.784668 346.596861,134.375488 348.678892,134.375488 C350.74188,134.375488 351.96063,135.689453 351.96063,137.911133 L351.96063,138.476074 L347.155454,138.476074 L347.155454,138.571289 C347.180845,139.612305 347.79022,140.259766 348.755064,140.259766 C349.485044,140.259766 349.986509,139.999512 350.183286,139.536133 Z M353.471372,141.529297 L353.471372,134.527832 L355.261411,134.527832 L355.261411,135.64502 L355.375669,135.64502 C355.559751,134.946777 356.283384,134.413574 357.172056,134.413574 C357.425962,134.413574 357.736997,134.445312 357.895689,134.502441 L357.895689,136.18457 C357.749693,136.127441 357.318052,136.070312 357.019712,136.070312 C356.010435,136.070312 355.31854,136.666992 355.31854,137.650879 L355.31854,141.529297 L353.471372,141.529297 Z M361.152036,137.263672 L363.494322,134.527832 L365.595396,134.527832 L362.92938,137.530273 L365.779478,141.529297 L363.589536,141.529297 L361.545591,138.685547 L361.037779,139.206055 L361.037779,141.529297 L359.190611,141.529297 L359.190611,131.855469 L361.037779,131.855469 L361.037779,137.263672 L361.152036,137.263672 Z M366.960142,141.529297 L366.960142,134.527832 L368.80731,134.527832 L368.80731,141.529297 L366.960142,141.529297 Z M367.8869,133.550293 C367.220396,133.550293 366.795103,133.163086 366.795103,132.617188 C366.795103,132.064941 367.220396,131.684082 367.8869,131.684082 C368.547056,131.684082 368.978697,132.064941 368.978697,132.617188 C368.978697,133.163086 368.547056,133.550293 367.8869,133.550293 Z M370.673521,141.529297 L370.673521,134.527832 L372.46356,134.527832 L372.46356,135.651367 L372.577818,135.651367 C372.901548,134.864258 373.612486,134.375488 374.647154,134.375488 C376.202329,134.375488 377.04022,135.327637 377.04022,137.003418 L377.04022,141.529297 L375.193052,141.529297 L375.193052,137.441406 C375.193052,136.476562 374.780454,135.96875 373.904478,135.96875 C373.047544,135.96875 372.520689,136.571777 372.520689,137.492188 L372.520689,141.529297 L370.673521,141.529297 Z M381.940611,139.967773 C382.94354,139.967773 383.54022,139.199707 383.54022,137.968262 C383.54022,136.736816 382.937193,135.962402 381.940611,135.962402 C380.944029,135.962402 380.366392,136.736816 380.366392,137.961914 C380.366392,139.199707 380.937681,139.967773 381.940611,139.967773 Z M381.91522,144.182617 C380.055357,144.182617 378.823911,143.36377 378.709654,142.132324 L380.537779,142.132324 C380.632993,142.563965 381.153501,142.836914 381.953306,142.836914 C382.94354,142.836914 383.521177,142.379883 383.521177,141.592773 L383.521177,140.297852 L383.406919,140.297852 C383.019712,141.03418 382.283384,141.427734 381.299497,141.427734 C379.553892,141.427734 378.468443,140.075684 378.468443,137.968262 C378.468443,135.797363 379.56024,134.413574 381.337583,134.413574 C382.283384,134.413574 383.089536,134.883301 383.464048,135.651367 L383.578306,135.651367 L383.578306,134.527832 L385.368345,134.527832 L385.368345,141.503906 C385.368345,143.147949 384.02899,144.182617 381.91522,144.182617 Z" id="Praktische-uitwerkin" fill="#3366FF"></path>
            <g id="Group-2" transform="translate(102.500000, 116.976562)" stroke="#FF3333" stroke-linecap="round" stroke-linejoin="round" stroke-width="3">
                <path d="M21.625,21.8671875 C21.625,10.2692078 12.2229797,0.8671875 0.625,0.8671875" id="Oval" transform="translate(11.125000, 11.367188) scale(-1, 1) rotate(90.000000) translate(-11.125000, -11.367188) "></path>
                <path d="M16.125,16.3671875 L22.625,20.8671875" id="Path-2" transform="translate(19.375000, 18.617188) scale(-1, 1) rotate(90.000000) translate(-19.375000, -18.617188) "></path>
                <path d="M21.5625,21.8046875 L16.4296875,27.0625" id="Path-2" transform="translate(18.996094, 24.433594) scale(-1, 1) rotate(90.000000) translate(-18.996094, -24.433594) "></path>
            </g>
            <g id="Group" transform="translate(266.291341, 60.976562)" stroke="#FF3333" stroke-linecap="round" stroke-linejoin="round" stroke-width="3">
                <path d="M21.3925781,21.3671875 C21.3925781,9.76920775 11.9905579,0.3671875 0.392578125,0.3671875" id="Oval" transform="translate(10.892578, 10.867188) rotate(90.000000) translate(-10.892578, -10.867188) "></path>
                <path d="M-0.607421875,15.8671875 L5.89257812,20.3671875" id="Path-2" transform="translate(2.642578, 18.117188) rotate(90.000000) translate(-2.642578, -18.117188) "></path>
                <path d="M5.58789062,21.3046875 L0.455078125,26.5625" id="Path-2" transform="translate(3.021484, 23.933594) rotate(90.000000) translate(-3.021484, -23.933594) "></path>
            </g>
        </g>
    </g>
</svg>