<svg xmlns="http://www.w3.org/2000/svg" width="120" height="120" viewBox="0 0 120 120">
  <g fill="#9ABE46" fill-rule="evenodd" transform="translate(36 2)">
    <path d="M37.7509238,0 C42.9655561,0 47.199166,4.23360988 47.199166,9.44796069 C47.199166,14.6623115 42.9655561,18.8959214 37.7509238,18.8959214 C32.5362914,18.8959214 28.3026816,14.6623115 28.3026816,9.44796069 C28.3026816,4.23360988 32.5362914,0 37.7509238,0 Z"/>
    <path d="M37.7509238,32.2118492 C42.9655561,32.2118492 47.199166,36.4454591 47.199166,41.6600914 C47.199166,46.8747238 42.9655561,51.1083337 37.7509238,51.1083337 C32.5362914,51.1083337 28.3026816,46.8747238 28.3026816,41.6600914 C28.3026816,36.4454591 32.5362914,32.2118492 37.7509238,32.2118492 Z"/>
    <path d="M37.7509238,64.4237922 C42.9655561,64.4237922 47.199166,68.6574021 47.199166,73.8720345 C47.199166,79.0866668 42.9655561,83.3202767 37.7509238,83.3202767 C32.5362914,83.3202767 28.3026816,79.0866668 28.3026816,73.8720345 C28.3026816,68.6574021 32.5362914,64.4237922 37.7509238,64.4237922 Z"/>
    <path d="M37.7509238,96.6357353 C42.9655561,96.6357353 47.199166,100.869345 47.199166,106.083978 C47.199166,111.29861 42.9655561,115.53222 37.7509238,115.53222 C32.5362914,115.53222 28.3026816,111.29861 28.3026816,106.083978 C28.3026816,100.869345 32.5362914,96.6357353 37.7509238,96.6357353 Z"/>
    <path d="M9.44824224,0 C14.6628746,0 18.8964845,4.23360988 18.8964845,9.44796069 C18.8964845,14.6623115 14.6628746,18.8959214 9.44824224,18.8959214 C4.23360988,18.8959214 0,14.6623115 0,9.44796069 C0,4.23360988 4.23360988,0 9.44824224,0 Z"/>
    <path d="M9.44824224,32.2118492 C14.6628746,32.2118492 18.8964845,36.4454591 18.8964845,41.6600914 C18.8964845,46.8747238 14.6628746,51.1083337 9.44824224,51.1083337 C4.23360988,51.1083337 0,46.8747238 0,41.6600914 C0,36.4454591 4.23360988,32.2118492 9.44824224,32.2118492 Z"/>
    <path d="M9.44824224,64.4237922 C14.6628746,64.4237922 18.8964845,68.6574021 18.8964845,73.8720345 C18.8964845,79.0866668 14.6628746,83.3202767 9.44824224,83.3202767 C4.23360988,83.3202767 0,79.0866668 0,73.8720345 C0,68.6574021 4.23360988,64.4237922 9.44824224,64.4237922 Z"/>
    <path d="M9.44824224,96.6357353 C14.6628746,96.6357353 18.8964845,100.869345 18.8964845,106.083978 C18.8964845,111.29861 14.6628746,115.53222 9.44824224,115.53222 C4.23360988,115.53222 0,111.29861 0,106.083978 C0,100.869345 4.23360988,96.6357353 9.44824224,96.6357353 Z"/>
  </g>
</svg>
