<svg xmlns="http://www.w3.org/2000/svg" xmlns:xlink="http://www.w3.org/1999/xlink" width="500" height="200" viewBox="0 0 500 200">
  <defs>
    <rect id="b" width="47.476" height="35.43" x=".262" y=".285" rx="2"/>
    <filter id="a" width="161.1%" height="181.9%" x="-30.5%" y="-29.6%" filterUnits="objectBoundingBox">
      <feOffset in="SourceAlpha" result="shadowOffsetOuter1"/>
      <feGaussianBlur in="shadowOffsetOuter1" result="shadowBlurOuter1" stdDeviation="2.5"/>
      <feColorMatrix in="shadowBlurOuter1" result="shadowMatrixOuter1" values="0 0 0 0 0.125490196 0 0 0 0 0.133333333 0 0 0 0 0.149019608 0 0 0 0.1 0"/>
      <feOffset dy="4" in="SourceAlpha" result="shadowOffsetOuter2"/>
      <feGaussianBlur in="shadowOffsetOuter2" result="shadowBlurOuter2" stdDeviation="2.5"/>
      <feColorMatrix in="shadowBlurOuter2" result="shadowMatrixOuter2" values="0 0 0 0 0 0 0 0 0 0 0 0 0 0 0 0 0 0 0.1 0"/>
      <feMerge>
        <feMergeNode in="shadowMatrixOuter1"/>
        <feMergeNode in="shadowMatrixOuter2"/>
      </feMerge>
    </filter>
  </defs>
  <g fill="none" fill-rule="evenodd" transform="translate(21 15.5)">
    <path stroke="#FF3333" stroke-dasharray="2 8" stroke-linecap="round" stroke-linejoin="round" stroke-width="3" d="M354,39 C332.333333,17.5 308,10.3333333 281,17.5 C254,24.6666667 236.666667,43.3333333 229,73.5"/>
    <path stroke="#FF3333" stroke-dasharray="2 8" stroke-linecap="round" stroke-linejoin="round" stroke-width="3" d="M26,86.5 C23,103.5 29.8333333,113.166667 46.5,115.5"/>
    <path stroke="#FF3333" stroke-dasharray="2 8" stroke-linecap="round" stroke-linejoin="round" stroke-width="3" d="M139.5,102.5 L152.5,77"/>
    <path stroke="#FF3333" stroke-dasharray="2 8" stroke-linecap="round" stroke-linejoin="round" stroke-width="3" d="M178.5,129 C222.5,162.666667 267.833333,155.666667 314.5,108"/>
    <rect width="181.335" height="35.43" x="47.673" y="96.439" fill="#EBEDF2" rx="2"/>
    <path fill="#8F9092" d="M73.172014,109.278809 C75.7745531,109.278809 77.3614671,111.132324 77.3614671,114.071289 C77.3614671,116.997559 75.7872484,118.870117 73.172014,118.870117 C70.5440843,118.870117 68.9635179,117.003906 68.9635179,114.071289 C68.9635179,111.125977 70.5821703,109.278809 73.172014,109.278809 Z M73.172014,110.33252 C71.3058031,110.33252 70.1378343,111.779785 70.1378343,114.071289 C70.1378343,116.34375 71.2677171,117.816406 73.172014,117.816406 C75.0509203,117.816406 76.1871507,116.34375 76.1871507,114.071289 C76.1871507,111.779785 75.0445726,110.33252 73.172014,110.33252 Z M82.534807,111.690918 C84.2804125,111.690918 85.4102953,113.081055 85.4102953,115.23291 C85.4102953,117.37207 84.2740648,118.774902 82.534807,118.774902 C81.5572679,118.774902 80.7701586,118.349609 80.3956468,117.625977 L80.2940843,117.625977 L80.2940843,120.939453 L79.2022875,120.939453 L79.2022875,111.811523 L80.2433031,111.811523 L80.2433031,112.954102 L80.3448656,112.954102 C80.7828539,112.166992 81.6017015,111.690918 82.534807,111.690918 Z M82.2745531,117.791016 C83.531389,117.791016 84.2804125,116.83252 84.2804125,115.23291 C84.2804125,113.633301 83.531389,112.674805 82.2809007,112.674805 C81.0431078,112.674805 80.2623461,113.658691 80.2623461,115.23291 C80.2623461,116.800781 81.0431078,117.791016 82.2745531,117.791016 Z M87.187639,118.654297 L87.187639,109.094727 L88.2794359,109.094727 L88.2794359,118.654297 L87.187639,118.654297 Z M93.2115648,118.774902 C91.2628343,118.774902 90.0567796,117.429199 90.0567796,115.23291 C90.0567796,113.030273 91.2628343,111.690918 93.2115648,111.690918 C95.1602953,111.690918 96.36635,113.030273 96.36635,115.23291 C96.36635,117.429199 95.1602953,118.774902 93.2115648,118.774902 Z M93.2115648,117.791016 C94.5064867,117.791016 95.2364671,116.851562 95.2364671,115.23291 C95.2364671,113.60791 94.5064867,112.674805 93.2115648,112.674805 C91.9166429,112.674805 91.1866625,113.60791 91.1866625,115.23291 C91.1866625,116.851562 91.9166429,117.791016 93.2115648,117.791016 Z M97.9215257,113.684082 C97.9215257,112.547852 99.0196703,111.690918 100.473284,111.690918 C101.907854,111.690918 102.904436,112.401855 103.050432,113.525391 L101.97133,113.525391 C101.825334,112.979492 101.292131,112.617676 100.466936,112.617676 C99.6544359,112.617676 99.0196703,113.030273 99.0196703,113.639648 C99.0196703,114.109375 99.4005296,114.401367 100.206682,114.598145 L101.260393,114.852051 C102.548967,115.163086 103.171037,115.72168 103.171037,116.705566 C103.171037,117.930664 101.984026,118.774902 100.42885,118.774902 C98.9054125,118.774902 97.8580492,118.044922 97.7374437,116.908691 L98.8609789,116.908691 C99.0450609,117.486328 99.5909593,117.854492 100.466936,117.854492 C101.387346,117.854492 102.047502,117.416504 102.047502,116.788086 C102.047502,116.318359 101.692034,116.000977 100.962053,115.823242 L99.7877367,115.537598 C98.5055101,115.226562 97.9215257,114.674316 97.9215257,113.684082 Z M104.726213,113.684082 C104.726213,112.547852 105.824358,111.690918 107.277971,111.690918 C108.712541,111.690918 109.709123,112.401855 109.855119,113.525391 L108.776018,113.525391 C108.630022,112.979492 108.096819,112.617676 107.271623,112.617676 C106.459123,112.617676 105.824358,113.030273 105.824358,113.639648 C105.824358,114.109375 106.205217,114.401367 107.011369,114.598145 L108.06508,114.852051 C109.353655,115.163086 109.975725,115.72168 109.975725,116.705566 C109.975725,117.930664 108.788713,118.774902 107.233537,118.774902 C105.7101,118.774902 104.662737,118.044922 104.542131,116.908691 L105.665666,116.908691 C105.849748,117.486328 106.395647,117.854492 107.271623,117.854492 C108.192034,117.854492 108.85219,117.416504 108.85219,116.788086 C108.85219,116.318359 108.496721,116.000977 107.766741,115.823242 L106.592424,115.537598 C105.310198,115.226562 104.726213,114.674316 104.726213,113.684082 Z M111.714983,118.654297 L111.714983,111.811523 L112.80678,111.811523 L112.80678,118.654297 L111.714983,118.654297 Z M112.260881,110.421387 C111.841936,110.421387 111.499162,110.078613 111.499162,109.659668 C111.499162,109.240723 111.841936,108.897949 112.260881,108.897949 C112.679827,108.897949 113.0226,109.240723 113.0226,109.659668 C113.0226,110.078613 112.679827,110.421387 112.260881,110.421387 Z M114.888811,118.654297 L114.888811,111.811523 L115.929827,111.811523 L115.929827,112.890625 L116.031389,112.890625 C116.374162,112.135254 117.040666,111.690918 118.08803,111.690918 C119.624162,111.690918 120.481096,112.598633 120.481096,114.223633 L120.481096,118.654297 L119.389299,118.654297 L119.389299,114.490234 C119.389299,113.258789 118.868791,112.674805 117.776994,112.674805 C116.685198,112.674805 115.980608,113.404785 115.980608,114.604492 L115.980608,118.654297 L114.888811,118.654297 Z M125.241838,117.587891 C126.511369,117.587891 127.273088,116.623047 127.273088,115.131348 C127.273088,113.639648 126.505022,112.674805 125.241838,112.674805 C123.972307,112.674805 123.261369,113.639648 123.261369,115.131348 C123.261369,116.623047 123.972307,117.587891 125.241838,117.587891 Z M125.292619,121.282227 C123.642229,121.282227 122.588518,120.539551 122.423479,119.409668 L123.578752,119.409668 C123.699358,119.968262 124.308733,120.330078 125.292619,120.330078 C126.517717,120.330078 127.247698,119.727051 127.247698,118.717773 L127.247698,117.37207 L127.146135,117.37207 C126.714494,118.127441 125.94008,118.552734 125.000627,118.552734 C123.229631,118.552734 122.131487,117.181641 122.131487,115.131348 C122.131487,113.081055 123.242327,111.690918 125.000627,111.690918 C125.959123,111.690918 126.803362,112.160645 127.196916,112.896973 L127.298479,112.896973 L127.298479,111.811523 L128.339494,111.811523 L128.339494,118.774902 C128.339494,120.304688 127.15883,121.282227 125.292619,121.282227 Z M133.125627,112.655762 C132.03383,112.655762 131.272112,113.455566 131.189592,114.667969 L134.9601,114.667969 C134.934709,113.455566 134.211077,112.655762 133.125627,112.655762 Z M134.928362,116.883301 L136.020159,116.883301 C135.69008,118.057617 134.636369,118.774902 133.138323,118.774902 C131.240373,118.774902 130.053362,117.403809 130.053362,115.239258 C130.053362,113.087402 131.259416,111.690918 133.138323,111.690918 C134.985491,111.690918 136.109026,113.004883 136.109026,115.131348 L136.109026,115.550293 L131.189592,115.550293 L131.189592,115.601074 C131.246721,116.953125 132.002092,117.810059 133.163713,117.810059 C134.046037,117.810059 134.642717,117.486328 134.928362,116.883301 Z M137.822893,118.654297 L137.822893,111.811523 L138.863909,111.811523 L138.863909,112.890625 L138.965471,112.890625 C139.308244,112.135254 139.974748,111.690918 141.022112,111.690918 C142.558244,111.690918 143.415178,112.598633 143.415178,114.223633 L143.415178,118.654297 L142.323381,118.654297 L142.323381,114.490234 C142.323381,113.258789 141.802873,112.674805 140.711077,112.674805 C139.61928,112.674805 138.91469,113.404785 138.91469,114.604492 L138.91469,118.654297 L137.822893,118.654297 Z M152.479631,118.774902 C151.527483,118.774902 150.714983,118.324219 150.283342,117.5625 L150.18178,117.5625 L150.18178,118.654297 L149.140764,118.654297 L149.140764,109.094727 L150.232561,109.094727 L150.232561,112.890625 L150.334123,112.890625 C150.708635,112.154297 151.540178,111.690918 152.479631,111.690918 C154.218889,111.690918 155.348772,113.081055 155.348772,115.23291 C155.348772,117.37207 154.212541,118.774902 152.479631,118.774902 Z M152.225725,112.674805 C150.981584,112.674805 150.20717,113.652344 150.20717,115.23291 C150.20717,116.813477 150.981584,117.791016 152.225725,117.791016 C153.476213,117.791016 154.218889,116.83252 154.218889,115.23291 C154.218889,113.633301 153.476213,112.674805 152.225725,112.674805 Z M159.792131,112.655762 C158.700334,112.655762 157.938616,113.455566 157.856096,114.667969 L161.626604,114.667969 C161.601213,113.455566 160.87758,112.655762 159.792131,112.655762 Z M161.594866,116.883301 L162.686662,116.883301 C162.356584,118.057617 161.302873,118.774902 159.804827,118.774902 C157.906877,118.774902 156.719866,117.403809 156.719866,115.239258 C156.719866,113.087402 157.92592,111.690918 159.804827,111.690918 C161.651994,111.690918 162.77553,113.004883 162.77553,115.131348 L162.77553,115.550293 L157.856096,115.550293 L157.856096,115.601074 C157.913225,116.953125 158.668596,117.810059 159.830217,117.810059 C160.712541,117.810059 161.309221,117.486328 161.594866,116.883301 Z M167.022112,118.774902 C165.270159,118.774902 164.146623,117.384766 164.146623,115.23291 C164.146623,113.087402 165.282854,111.690918 167.022112,111.690918 C167.97426,111.690918 168.780412,112.141602 169.167619,112.890625 L169.262834,112.890625 L169.262834,109.094727 L170.354631,109.094727 L170.354631,118.654297 L169.313616,118.654297 L169.313616,117.5625 L169.212053,117.5625 C168.780412,118.324219 167.967912,118.774902 167.022112,118.774902 Z M167.276018,112.674805 C166.031877,112.674805 165.276506,113.639648 165.276506,115.23291 C165.276506,116.83252 166.02553,117.791016 167.276018,117.791016 C168.520159,117.791016 169.288225,116.813477 169.288225,115.23291 C169.288225,113.665039 168.513811,112.674805 167.276018,112.674805 Z M175.204241,112.655762 C174.112444,112.655762 173.350725,113.455566 173.268205,114.667969 L177.038713,114.667969 C177.013323,113.455566 176.28969,112.655762 175.204241,112.655762 Z M177.006975,116.883301 L178.098772,116.883301 C177.768694,118.057617 176.714983,118.774902 175.216936,118.774902 C173.318987,118.774902 172.131975,117.403809 172.131975,115.239258 C172.131975,113.087402 173.33803,111.690918 175.216936,111.690918 C177.064104,111.690918 178.187639,113.004883 178.187639,115.131348 L178.187639,115.550293 L173.268205,115.550293 L173.268205,115.601074 C173.325334,116.953125 174.080705,117.810059 175.242327,117.810059 C176.124651,117.810059 176.72133,117.486328 177.006975,116.883301 Z M179.901506,118.654297 L179.901506,111.811523 L180.942522,111.811523 L180.942522,112.890625 L181.044084,112.890625 C181.386858,112.135254 182.053362,111.690918 183.100725,111.690918 C184.636858,111.690918 185.493791,112.598633 185.493791,114.223633 L185.493791,118.654297 L184.401994,118.654297 L184.401994,114.490234 C184.401994,113.258789 183.881487,112.674805 182.78969,112.674805 C181.697893,112.674805 180.993303,113.404785 180.993303,114.604492 L180.993303,118.654297 L179.901506,118.654297 Z M188.743791,114.80127 L191.714494,111.811523 L193.05385,111.811523 L190.108537,114.744141 L193.250627,118.654297 L191.860491,118.654297 L189.296037,115.44873 L188.642229,116.058105 L188.642229,118.654297 L187.550432,118.654297 L187.550432,109.094727 L188.642229,109.094727 L188.642229,114.80127 L188.743791,114.80127 Z M197.275041,112.655762 C196.183244,112.655762 195.421526,113.455566 195.339006,114.667969 L199.109514,114.667969 C199.084123,113.455566 198.360491,112.655762 197.275041,112.655762 Z M199.077776,116.883301 L200.169573,116.883301 C199.839494,118.057617 198.785784,118.774902 197.287737,118.774902 C195.389787,118.774902 194.202776,117.403809 194.202776,115.239258 C194.202776,113.087402 195.40883,111.690918 197.287737,111.690918 C199.134905,111.690918 200.25844,113.004883 200.25844,115.131348 L200.25844,115.550293 L195.339006,115.550293 L195.339006,115.601074 C195.396135,116.953125 196.151506,117.810059 197.313127,117.810059 C198.195452,117.810059 198.792131,117.486328 199.077776,116.883301 Z M201.972307,118.654297 L201.972307,111.811523 L203.013323,111.811523 L203.013323,112.890625 L203.114885,112.890625 C203.457659,112.135254 204.124162,111.690918 205.171526,111.690918 C206.707659,111.690918 207.564592,112.598633 207.564592,114.223633 L207.564592,118.654297 L206.472795,118.654297 L206.472795,114.490234 C206.472795,113.258789 205.952287,112.674805 204.860491,112.674805 C203.768694,112.674805 203.064104,113.404785 203.064104,114.604492 L203.064104,118.654297 L201.972307,118.654297 Z"/>
    <path stroke="#FF3333" stroke-dasharray="2 8" stroke-linecap="round" stroke-linejoin="round" stroke-width="3" d="M384.5,65 C385.833333,83 394.5,93.8333333 410.5,97.5"/>
    <rect width="119.542" height="35.43" x="246.673" y="77.439" fill="#EBEDF2" rx="2"/>
    <path fill="#8F9092" d="M270.282366,90.2788086 C272.884905,90.2788086 274.471819,92.1323242 274.471819,95.0712891 C274.471819,97.9975586 272.8976,99.8701172 270.282366,99.8701172 C267.654436,99.8701172 266.073869,98.0039062 266.073869,95.0712891 C266.073869,92.1259766 267.692522,90.2788086 270.282366,90.2788086 Z M270.282366,91.3325195 C268.416155,91.3325195 267.248186,92.7797852 267.248186,95.0712891 C267.248186,97.34375 268.378069,98.8164062 270.282366,98.8164062 C272.161272,98.8164062 273.297502,97.34375 273.297502,95.0712891 C273.297502,92.7797852 272.154924,91.3325195 270.282366,91.3325195 Z M276.312639,99.6542969 L276.312639,92.8115234 L277.353655,92.8115234 L277.353655,93.890625 L277.455217,93.890625 C277.797991,93.1352539 278.464494,92.690918 279.511858,92.690918 C281.047991,92.690918 281.904924,93.5986328 281.904924,95.2236328 L281.904924,99.6542969 L280.813127,99.6542969 L280.813127,95.4902344 C280.813127,94.2587891 280.292619,93.6748047 279.200823,93.6748047 C278.109026,93.6748047 277.404436,94.4047852 277.404436,95.6044922 L277.404436,99.6542969 L276.312639,99.6542969 Z M286.430803,99.7749023 C284.67885,99.7749023 283.555315,98.3847656 283.555315,96.2329102 C283.555315,94.0874023 284.691545,92.690918 286.430803,92.690918 C287.382952,92.690918 288.189104,93.1416016 288.576311,93.890625 L288.671526,93.890625 L288.671526,90.0947266 L289.763323,90.0947266 L289.763323,99.6542969 L288.722307,99.6542969 L288.722307,98.5625 L288.620744,98.5625 C288.189104,99.3242188 287.376604,99.7749023 286.430803,99.7749023 Z M286.684709,93.6748047 C285.440569,93.6748047 284.685198,94.6396484 284.685198,96.2329102 C284.685198,97.8325195 285.434221,98.7910156 286.684709,98.7910156 C287.92885,98.7910156 288.696916,97.8134766 288.696916,96.2329102 C288.696916,94.6650391 287.922502,93.6748047 286.684709,93.6748047 Z M294.612932,93.6557617 C293.521135,93.6557617 292.759416,94.4555664 292.676897,95.6679688 L296.447405,95.6679688 C296.422014,94.4555664 295.698381,93.6557617 294.612932,93.6557617 Z M296.415666,97.8833008 L297.507463,97.8833008 C297.177385,99.0576172 296.123674,99.7749023 294.625627,99.7749023 C292.727678,99.7749023 291.540666,98.4038086 291.540666,96.2392578 C291.540666,94.0874023 292.746721,92.690918 294.625627,92.690918 C296.472795,92.690918 297.59633,94.0048828 297.59633,96.1313477 L297.59633,96.550293 L292.676897,96.550293 L292.676897,96.6010742 C292.734026,97.953125 293.489397,98.8100586 294.651018,98.8100586 C295.533342,98.8100586 296.130022,98.4863281 296.415666,97.8833008 Z M299.310198,99.6542969 L299.310198,92.8115234 L300.351213,92.8115234 L300.351213,93.8271484 L300.452776,93.8271484 C300.655901,93.1606445 301.44301,92.690918 302.350725,92.690918 C302.528459,92.690918 302.756975,92.7036133 302.896623,92.7226562 L302.896623,93.8144531 C302.807756,93.7890625 302.414202,93.7509766 302.198381,93.7509766 C301.157366,93.7509766 300.401994,94.4492188 300.401994,95.4140625 L300.401994,99.6542969 L299.310198,99.6542969 Z M304.102678,99.6542969 L304.102678,98.8544922 L308.05092,93.8271484 L308.05092,93.7255859 L304.109026,93.7255859 L304.109026,92.8115234 L309.35219,92.8115234 L309.35219,93.6303711 L305.422991,98.6386719 L305.422991,98.7402344 L309.371233,98.7402344 L309.371233,99.6542969 L304.102678,99.6542969 Z M314.081194,99.7749023 C312.132463,99.7749023 310.926409,98.4291992 310.926409,96.2329102 C310.926409,94.0302734 312.132463,92.690918 314.081194,92.690918 C316.029924,92.690918 317.235979,94.0302734 317.235979,96.2329102 C317.235979,98.4291992 316.029924,99.7749023 314.081194,99.7749023 Z M314.081194,98.7910156 C315.376116,98.7910156 316.106096,97.8515625 316.106096,96.2329102 C316.106096,94.6079102 315.376116,93.6748047 314.081194,93.6748047 C312.786272,93.6748047 312.056291,94.6079102 312.056291,96.2329102 C312.056291,97.8515625 312.786272,98.7910156 314.081194,98.7910156 Z M321.679338,93.6557617 C320.587541,93.6557617 319.825823,94.4555664 319.743303,95.6679688 L323.513811,95.6679688 C323.48842,94.4555664 322.764787,93.6557617 321.679338,93.6557617 Z M323.482073,97.8833008 L324.573869,97.8833008 C324.243791,99.0576172 323.19008,99.7749023 321.692034,99.7749023 C319.794084,99.7749023 318.607073,98.4038086 318.607073,96.2392578 C318.607073,94.0874023 319.813127,92.690918 321.692034,92.690918 C323.539202,92.690918 324.662737,94.0048828 324.662737,96.1313477 L324.662737,96.550293 L319.743303,96.550293 L319.743303,96.6010742 C319.800432,97.953125 320.555803,98.8100586 321.717424,98.8100586 C322.599748,98.8100586 323.196428,98.4863281 323.482073,97.8833008 Z M327.63344,95.8012695 L330.604143,92.8115234 L331.943498,92.8115234 L328.998186,95.7441406 L332.140276,99.6542969 L330.750139,99.6542969 L328.185686,96.4487305 L327.531877,97.0581055 L327.531877,99.6542969 L326.44008,99.6542969 L326.44008,90.0947266 L327.531877,90.0947266 L327.531877,95.8012695 L327.63344,95.8012695 Z M336.16469,93.6557617 C335.072893,93.6557617 334.311174,94.4555664 334.228655,95.6679688 L337.999162,95.6679688 C337.973772,94.4555664 337.250139,93.6557617 336.16469,93.6557617 Z M337.967424,97.8833008 L339.059221,97.8833008 C338.729143,99.0576172 337.675432,99.7749023 336.177385,99.7749023 C334.279436,99.7749023 333.092424,98.4038086 333.092424,96.2392578 C333.092424,94.0874023 334.298479,92.690918 336.177385,92.690918 C338.024553,92.690918 339.148088,94.0048828 339.148088,96.1313477 L339.148088,96.550293 L334.228655,96.550293 L334.228655,96.6010742 C334.285784,97.953125 335.041155,98.8100586 336.202776,98.8100586 C337.0851,98.8100586 337.68178,98.4863281 337.967424,97.8833008 Z M340.861955,99.6542969 L340.861955,92.8115234 L341.902971,92.8115234 L341.902971,93.890625 L342.004534,93.890625 C342.347307,93.1352539 343.013811,92.690918 344.061174,92.690918 C345.597307,92.690918 346.454241,93.5986328 346.454241,95.2236328 L346.454241,99.6542969 L345.362444,99.6542969 L345.362444,95.4902344 C345.362444,94.2587891 344.841936,93.6748047 343.750139,93.6748047 C342.658342,93.6748047 341.953752,94.4047852 341.953752,95.6044922 L341.953752,99.6542969 L340.861955,99.6542969 Z"/>
    <path stroke="#FF3333" stroke-dasharray="2 8" stroke-linecap="round" stroke-linejoin="round" stroke-width="3" d="M351.5,149 C387.833333,157.666667 410.666667,149.5 420,124.5"/>
    <rect width="102.218" height="35.43" x="303.34" y="35.07" fill="#EBEDF2" rx="2"/>
    <path fill="#8F9092" d="M321.61241,48.1254883 L325.071882,48.1254883 C326.804793,48.1254883 328.0045,49.3442383 328.0045,51.0898438 C328.0045,52.8037109 326.779402,54.0161133 325.059187,54.0161133 L322.754988,54.0161133 L322.754988,57.2851562 L321.61241,57.2851562 L321.61241,48.1254883 Z M322.754988,49.1411133 L322.754988,53.0004883 L324.773543,53.0004883 C326.074812,53.0004883 326.830183,52.3022461 326.830183,51.0898438 C326.830183,49.8330078 326.100203,49.1411133 324.773543,49.1411133 L322.754988,49.1411133 Z M329.731062,57.2851562 L329.731062,50.4423828 L330.772078,50.4423828 L330.772078,51.4580078 L330.87364,51.4580078 C331.076765,50.7915039 331.863875,50.3217773 332.771589,50.3217773 C332.949324,50.3217773 333.177839,50.3344727 333.317488,50.3535156 L333.317488,51.4453125 C333.228621,51.4199219 332.835066,51.3818359 332.619246,51.3818359 C331.57823,51.3818359 330.822859,52.0800781 330.822859,53.0449219 L330.822859,57.2851562 L329.731062,57.2851562 Z M337.494246,57.4057617 C335.545515,57.4057617 334.339461,56.0600586 334.339461,53.8637695 C334.339461,51.6611328 335.545515,50.3217773 337.494246,50.3217773 C339.442976,50.3217773 340.649031,51.6611328 340.649031,53.8637695 C340.649031,56.0600586 339.442976,57.4057617 337.494246,57.4057617 Z M337.494246,56.421875 C338.789168,56.421875 339.519148,55.4824219 339.519148,53.8637695 C339.519148,52.2387695 338.789168,51.3056641 337.494246,51.3056641 C336.199324,51.3056641 335.469343,52.2387695 335.469343,53.8637695 C335.469343,55.4824219 336.199324,56.421875 337.494246,56.421875 Z M342.819929,48.6713867 L343.911726,48.6713867 L343.911726,50.4423828 L345.435164,50.4423828 L345.435164,51.3564453 L343.911726,51.3564453 L343.911726,55.2285156 C343.911726,56.034668 344.216414,56.3774414 344.927351,56.3774414 C345.124129,56.3774414 345.232039,56.3710938 345.435164,56.3520508 L345.435164,57.2724609 C345.219343,57.3105469 345.009871,57.3359375 344.79405,57.3359375 C343.384871,57.3359375 342.819929,56.8154297 342.819929,55.5078125 L342.819929,51.3564453 L341.715437,51.3564453 L341.715437,50.4423828 L342.819929,50.4423828 L342.819929,48.6713867 Z M349.897566,57.4057617 C347.948836,57.4057617 346.742781,56.0600586 346.742781,53.8637695 C346.742781,51.6611328 347.948836,50.3217773 349.897566,50.3217773 C351.846297,50.3217773 353.052351,51.6611328 353.052351,53.8637695 C353.052351,56.0600586 351.846297,57.4057617 349.897566,57.4057617 Z M349.897566,56.421875 C351.192488,56.421875 351.922468,55.4824219 351.922468,53.8637695 C351.922468,52.2387695 351.192488,51.3056641 349.897566,51.3056641 C348.602644,51.3056641 347.872664,52.2387695 347.872664,53.8637695 C347.872664,55.4824219 348.602644,56.421875 349.897566,56.421875 Z M355.22325,48.6713867 L356.315047,48.6713867 L356.315047,50.4423828 L357.838484,50.4423828 L357.838484,51.3564453 L356.315047,51.3564453 L356.315047,55.2285156 C356.315047,56.034668 356.619734,56.3774414 357.330672,56.3774414 C357.527449,56.3774414 357.635359,56.3710938 357.838484,56.3520508 L357.838484,57.2724609 C357.622664,57.3105469 357.413191,57.3359375 357.197371,57.3359375 C355.788191,57.3359375 355.22325,56.8154297 355.22325,55.5078125 L355.22325,51.3564453 L354.118757,51.3564453 L354.118757,50.4423828 L355.22325,50.4423828 L355.22325,48.6713867 Z M360.072859,59.7607422 C359.926863,59.7607422 359.736433,59.7480469 359.584089,59.7226562 L359.584089,58.7895508 C359.71739,58.8149414 359.888777,58.8212891 360.041121,58.8212891 C360.669539,58.8212891 361.012312,58.5229492 361.297957,57.6977539 L361.42491,57.2915039 L358.892195,50.4423828 L360.072859,50.4423828 L361.951765,56.0727539 L362.053328,56.0727539 L363.925886,50.4423828 L365.087507,50.4423828 L362.415144,57.7041016 C361.83116,59.2910156 361.285261,59.7607422 360.072859,59.7607422 Z M369.879988,50.3217773 C371.625593,50.3217773 372.755476,51.7119141 372.755476,53.8637695 C372.755476,56.0029297 371.619246,57.4057617 369.879988,57.4057617 C368.902449,57.4057617 368.115339,56.9804688 367.740828,56.2568359 L367.639265,56.2568359 L367.639265,59.5703125 L366.547468,59.5703125 L366.547468,50.4423828 L367.588484,50.4423828 L367.588484,51.5849609 L367.690047,51.5849609 C368.128035,50.7978516 368.946882,50.3217773 369.879988,50.3217773 Z M369.619734,56.421875 C370.87657,56.421875 371.625593,55.4633789 371.625593,53.8637695 C371.625593,52.2641602 370.87657,51.3056641 369.626082,51.3056641 C368.388289,51.3056641 367.607527,52.2895508 367.607527,53.8637695 C367.607527,55.4316406 368.388289,56.421875 369.619734,56.421875 Z M377.198836,51.2866211 C376.107039,51.2866211 375.34532,52.0864258 375.2628,53.2988281 L379.033308,53.2988281 C379.007918,52.0864258 378.284285,51.2866211 377.198836,51.2866211 Z M379.00157,55.5141602 L380.093367,55.5141602 C379.763289,56.6884766 378.709578,57.4057617 377.211531,57.4057617 C375.313582,57.4057617 374.12657,56.034668 374.12657,53.8701172 C374.12657,51.7182617 375.332625,50.3217773 377.211531,50.3217773 C379.058699,50.3217773 380.182234,51.6357422 380.182234,53.762207 L380.182234,54.1811523 L375.2628,54.1811523 L375.2628,54.2319336 C375.319929,55.5839844 376.0753,56.440918 377.236922,56.440918 C378.119246,56.440918 378.715925,56.1171875 379.00157,55.5141602 Z M381.896101,57.2851562 L381.896101,50.4423828 L382.937117,50.4423828 L382.937117,51.5214844 L383.038679,51.5214844 C383.381453,50.7661133 384.047957,50.3217773 385.09532,50.3217773 C386.631453,50.3217773 387.488386,51.2294922 387.488386,52.8544922 L387.488386,57.2851562 L386.396589,57.2851562 L386.396589,53.1210938 C386.396589,51.8896484 385.876082,51.3056641 384.784285,51.3056641 C383.692488,51.3056641 382.987898,52.0356445 382.987898,53.2353516 L382.987898,57.2851562 L381.896101,57.2851562 Z"/>
    <path stroke="#FF3333" stroke-dasharray="2 8" stroke-linecap="round" stroke-linejoin="round" stroke-width="3" d="M64.1906667,55 C64.1906667,28.88 99.888,-5.07599994 140.809333,40.1986667"/>
    <rect width="111" height="35.43" x="101.84" y="45.641" fill="#EBEDF2" rx="2"/>
    <path fill="#8F9092" d="M123.946045,58.4799805 C126.548584,58.4799805 128.135498,60.3334961 128.135498,63.2724609 C128.135498,66.1987305 126.561279,68.0712891 123.946045,68.0712891 C121.318115,68.0712891 119.737549,66.2050781 119.737549,63.2724609 C119.737549,60.3271484 121.356201,58.4799805 123.946045,58.4799805 Z M123.946045,59.5336914 C122.079834,59.5336914 120.911865,60.980957 120.911865,63.2724609 C120.911865,65.5449219 122.041748,67.0175781 123.946045,67.0175781 C125.824951,67.0175781 126.961182,65.5449219 126.961182,63.2724609 C126.961182,60.980957 125.818604,59.5336914 123.946045,59.5336914 Z M129.976318,67.8554688 L129.976318,61.0126953 L131.017334,61.0126953 L131.017334,62.0283203 L131.118896,62.0283203 C131.322021,61.3618164 132.109131,60.8920898 133.016846,60.8920898 C133.19458,60.8920898 133.423096,60.9047852 133.562744,60.9238281 L133.562744,62.015625 C133.473877,61.9902344 133.080322,61.9521484 132.864502,61.9521484 C131.823486,61.9521484 131.068115,62.6503906 131.068115,63.6152344 L131.068115,67.8554688 L129.976318,67.8554688 Z M137.695068,66.7890625 C138.9646,66.7890625 139.726318,65.8242188 139.726318,64.3325195 C139.726318,62.8408203 138.958252,61.8759766 137.695068,61.8759766 C136.425537,61.8759766 135.7146,62.8408203 135.7146,64.3325195 C135.7146,65.8242188 136.425537,66.7890625 137.695068,66.7890625 Z M137.74585,70.4833984 C136.095459,70.4833984 135.041748,69.7407227 134.876709,68.6108398 L136.031982,68.6108398 C136.152588,69.1694336 136.761963,69.53125 137.74585,69.53125 C138.970947,69.53125 139.700928,68.9282227 139.700928,67.9189453 L139.700928,66.5732422 L139.599365,66.5732422 C139.167725,67.3286133 138.393311,67.7539062 137.453857,67.7539062 C135.682861,67.7539062 134.584717,66.3828125 134.584717,64.3325195 C134.584717,62.2822266 135.695557,60.8920898 137.453857,60.8920898 C138.412354,60.8920898 139.256592,61.3618164 139.650146,62.0981445 L139.751709,62.0981445 L139.751709,61.0126953 L140.792725,61.0126953 L140.792725,67.9760742 C140.792725,69.5058594 139.612061,70.4833984 137.74585,70.4833984 Z M144.956787,67.0175781 C146.080322,67.0175781 146.911865,66.28125 146.911865,65.3037109 L146.911865,64.675293 L145.071045,64.7958984 C144.030029,64.8657227 143.572998,65.2275391 143.572998,65.9130859 C143.572998,66.6113281 144.16333,67.0175781 144.956787,67.0175781 Z M144.753662,67.9760742 C143.427002,67.9760742 142.443115,67.1889648 142.443115,65.9384766 C142.443115,64.7133789 143.344482,64.0087891 144.937744,63.9135742 L146.911865,63.7929688 L146.911865,63.1708984 C146.911865,62.3266602 146.38501,61.8632812 145.363037,61.8632812 C144.544189,61.8632812 143.9729,62.1743164 143.820557,62.7138672 L142.716064,62.7138672 C142.862061,61.6157227 143.941162,60.8920898 145.401123,60.8920898 C147.070557,60.8920898 148.003662,61.7490234 148.003662,63.1708984 L148.003662,67.8554688 L146.962646,67.8554688 L146.962646,66.8461914 L146.861084,66.8461914 C146.416748,67.5761719 145.667725,67.9760742 144.753662,67.9760742 Z M150.022217,67.8554688 L150.022217,61.0126953 L151.063232,61.0126953 L151.063232,62.0917969 L151.164795,62.0917969 C151.507568,61.3364258 152.174072,60.8920898 153.221436,60.8920898 C154.757568,60.8920898 155.614502,61.7998047 155.614502,63.4248047 L155.614502,67.8554688 L154.522705,67.8554688 L154.522705,63.6914062 C154.522705,62.4599609 154.002197,61.8759766 152.9104,61.8759766 C151.818604,61.8759766 151.114014,62.605957 151.114014,63.8056641 L151.114014,67.8554688 L150.022217,67.8554688 Z M157.633057,67.8554688 L157.633057,61.0126953 L158.724854,61.0126953 L158.724854,67.8554688 L157.633057,67.8554688 Z M158.178955,59.6225586 C157.76001,59.6225586 157.417236,59.2797852 157.417236,58.8608398 C157.417236,58.4418945 157.76001,58.0991211 158.178955,58.0991211 C158.5979,58.0991211 158.940674,58.4418945 158.940674,58.8608398 C158.940674,59.2797852 158.5979,59.6225586 158.178955,59.6225586 Z M160.648193,62.8852539 C160.648193,61.7490234 161.746338,60.8920898 163.199951,60.8920898 C164.634521,60.8920898 165.631104,61.6030273 165.7771,62.7265625 L164.697998,62.7265625 C164.552002,62.1806641 164.018799,61.8188477 163.193604,61.8188477 C162.381104,61.8188477 161.746338,62.2314453 161.746338,62.8408203 C161.746338,63.3105469 162.127197,63.6025391 162.93335,63.7993164 L163.987061,64.0532227 C165.275635,64.3642578 165.897705,64.9228516 165.897705,65.9067383 C165.897705,67.1318359 164.710693,67.9760742 163.155518,67.9760742 C161.63208,67.9760742 160.584717,67.2460938 160.464111,66.1098633 L161.587646,66.1098633 C161.771729,66.6875 162.317627,67.0556641 163.193604,67.0556641 C164.114014,67.0556641 164.77417,66.6176758 164.77417,65.9892578 C164.77417,65.5195312 164.418701,65.2021484 163.688721,65.0244141 L162.514404,64.7387695 C161.232178,64.4277344 160.648193,63.8754883 160.648193,62.8852539 Z M170.341064,61.8569336 C169.249268,61.8569336 168.487549,62.6567383 168.405029,63.8691406 L172.175537,63.8691406 C172.150146,62.6567383 171.426514,61.8569336 170.341064,61.8569336 Z M172.143799,66.0844727 L173.235596,66.0844727 C172.905518,67.2587891 171.851807,67.9760742 170.35376,67.9760742 C168.455811,67.9760742 167.268799,66.6049805 167.268799,64.4404297 C167.268799,62.2885742 168.474854,60.8920898 170.35376,60.8920898 C172.200928,60.8920898 173.324463,62.2060547 173.324463,64.3325195 L173.324463,64.7514648 L168.405029,64.7514648 L168.405029,64.8022461 C168.462158,66.1542969 169.217529,67.0112305 170.37915,67.0112305 C171.261475,67.0112305 171.858154,66.6875 172.143799,66.0844727 Z M175.03833,67.8554688 L175.03833,61.0126953 L176.079346,61.0126953 L176.079346,62.0283203 L176.180908,62.0283203 C176.384033,61.3618164 177.171143,60.8920898 178.078857,60.8920898 C178.256592,60.8920898 178.485107,60.9047852 178.624756,60.9238281 L178.624756,62.015625 C178.535889,61.9902344 178.142334,61.9521484 177.926514,61.9521484 C176.885498,61.9521484 176.130127,62.6503906 176.130127,63.6152344 L176.130127,67.8554688 L175.03833,67.8554688 Z M182.718994,61.8569336 C181.627197,61.8569336 180.865479,62.6567383 180.782959,63.8691406 L184.553467,63.8691406 C184.528076,62.6567383 183.804443,61.8569336 182.718994,61.8569336 Z M184.521729,66.0844727 L185.613525,66.0844727 C185.283447,67.2587891 184.229736,67.9760742 182.731689,67.9760742 C180.83374,67.9760742 179.646729,66.6049805 179.646729,64.4404297 C179.646729,62.2885742 180.852783,60.8920898 182.731689,60.8920898 C184.578857,60.8920898 185.702393,62.2060547 185.702393,64.3325195 L185.702393,64.7514648 L180.782959,64.7514648 L180.782959,64.8022461 C180.840088,66.1542969 181.595459,67.0112305 182.75708,67.0112305 C183.639404,67.0112305 184.236084,66.6875 184.521729,66.0844727 Z M187.41626,67.8554688 L187.41626,61.0126953 L188.457275,61.0126953 L188.457275,62.0917969 L188.558838,62.0917969 C188.901611,61.3364258 189.568115,60.8920898 190.615479,60.8920898 C192.151611,60.8920898 193.008545,61.7998047 193.008545,63.4248047 L193.008545,67.8554688 L191.916748,67.8554688 L191.916748,63.6914062 C191.916748,62.4599609 191.39624,61.8759766 190.304443,61.8759766 C189.212646,61.8759766 188.508057,62.605957 188.508057,63.8056641 L188.508057,67.8554688 L187.41626,67.8554688 Z"/>
    <g transform="translate(209.84 133.404)">
      <circle cx="15" cy="15.892" r="15" fill="#FFFFFF"/>
      <path fill="#EBEDF2" d="M14.9883693,4.26184142 C8.56840542,4.26184142 3.36962951,9.47224741 3.36962951,15.8922119 C3.36962951,22.3121769 8.56840542,27.5225824 14.9883693,27.5225824 C21.419965,27.5225824 26.6303705,22.3121769 26.6303705,15.8922119 C26.6303705,9.47224687 21.419965,4.26184142 14.9883693,4.26184142 Z M15,25.1965083 C9.85937615,25.1965083 5.69570361,21.0328357 5.69570361,15.8922119 C5.69570361,10.7515881 9.85937615,6.58791552 15,6.58791552 C20.1406238,6.58791552 24.3042964,10.7515881 24.3042964,15.8922119 C24.3042964,21.0328357 20.1406238,25.1965083 15,25.1965083 Z M15.5815185,10.0770267 L13.836963,10.0770267 L13.836963,17.055249 L19.9429075,20.7188152 L20.8151852,19.2882801 L15.5815185,16.1829712 L15.5815185,10.0770267 Z"/>
    </g>
    <rect width="94.29" height="35.43" x=".528" y="54.641" fill="#EBEDF2" rx="2"/>
    <path fill="#8F9092" d="M24.6661737,76.8554688 L23.7457636,74.2338867 L20.1022089,74.2338867 L19.1817987,76.8554688 L17.9820917,76.8554688 L21.3590448,67.6958008 L22.4889276,67.6958008 L25.8658808,76.8554688 L24.6661737,76.8554688 Z M21.873205,69.1748047 L20.4386347,73.2626953 L23.4093378,73.2626953 L21.9747675,69.1748047 L21.873205,69.1748047 Z M29.8649042,76.9760742 C28.1129511,76.9760742 26.9894159,75.5859375 26.9894159,73.434082 C26.9894159,71.2885742 28.1256464,69.8920898 29.8649042,69.8920898 C30.8170526,69.8920898 31.623205,70.3427734 32.010412,71.0917969 L32.1056268,71.0917969 L32.1056268,67.2958984 L33.1974237,67.2958984 L33.1974237,76.8554688 L32.1564081,76.8554688 L32.1564081,75.7636719 L32.0548456,75.7636719 C31.623205,76.5253906 30.810705,76.9760742 29.8649042,76.9760742 Z M30.1188104,70.8759766 C28.8746698,70.8759766 28.1192987,71.8408203 28.1192987,73.434082 C28.1192987,75.0336914 28.8683222,75.9921875 30.1188104,75.9921875 C31.3629511,75.9921875 32.1310175,75.0146484 32.1310175,73.434082 C32.1310175,71.8662109 31.3566034,70.8759766 30.1188104,70.8759766 Z M40.9034784,70.0126953 L38.3707636,76.8554688 L37.2535761,76.8554688 L34.7208612,70.0126953 L35.88883,70.0126953 L37.7613886,75.6494141 L37.8629511,75.6494141 L39.7355097,70.0126953 L40.9034784,70.0126953 Z M42.38883,76.8554688 L42.38883,70.0126953 L43.4806268,70.0126953 L43.4806268,76.8554688 L42.38883,76.8554688 Z M42.9347284,68.6225586 C42.5157831,68.6225586 42.1730097,68.2797852 42.1730097,67.8608398 C42.1730097,67.4418945 42.5157831,67.0991211 42.9347284,67.0991211 C43.3536737,67.0991211 43.6964472,67.4418945 43.6964472,67.8608398 C43.6964472,68.2797852 43.3536737,68.6225586 42.9347284,68.6225586 Z M45.4039667,71.8852539 C45.4039667,70.7490234 46.5021112,69.8920898 47.9557245,69.8920898 C49.3902948,69.8920898 50.3868768,70.6030273 50.5328729,71.7265625 L49.4537714,71.7265625 C49.3077753,71.1806641 48.7745722,70.8188477 47.9493768,70.8188477 C47.1368768,70.8188477 46.5021112,71.2314453 46.5021112,71.8408203 C46.5021112,72.3105469 46.8829706,72.6025391 47.6891229,72.7993164 L48.7428339,73.0532227 C50.0314081,73.3642578 50.6534784,73.9228516 50.6534784,74.9067383 C50.6534784,76.1318359 49.4664667,76.9760742 47.9112909,76.9760742 C46.3878534,76.9760742 45.3404901,76.2460938 45.2198847,75.1098633 L46.3434198,75.1098633 C46.5275018,75.6875 47.0734003,76.0556641 47.9493768,76.0556641 C48.869787,76.0556641 49.5299433,75.6176758 49.5299433,74.9892578 C49.5299433,74.5195312 49.1744745,74.2021484 48.444494,74.0244141 L47.2701776,73.7387695 C45.9879511,73.4277344 45.4039667,72.8754883 45.4039667,71.8852539 Z M55.0968378,70.8569336 C54.0050409,70.8569336 53.2433222,71.6567383 53.1608026,72.8691406 L56.9313104,72.8691406 C56.9059198,71.6567383 56.182287,70.8569336 55.0968378,70.8569336 Z M56.8995722,75.0844727 L57.991369,75.0844727 C57.6612909,76.2587891 56.60758,76.9760742 55.1095331,76.9760742 C53.2115839,76.9760742 52.0245722,75.6049805 52.0245722,73.4404297 C52.0245722,71.2885742 53.2306268,69.8920898 55.1095331,69.8920898 C56.9567011,69.8920898 58.0802362,71.2060547 58.0802362,73.3325195 L58.0802362,73.7514648 L53.1608026,73.7514648 L53.1608026,73.8022461 C53.2179315,75.1542969 53.9733026,76.0112305 55.1349237,76.0112305 C56.0172479,76.0112305 56.6139276,75.6875 56.8995722,75.0844727 Z M59.7941034,76.8554688 L59.7941034,70.0126953 L60.835119,70.0126953 L60.835119,71.0283203 L60.9366815,71.0283203 C61.1398065,70.3618164 61.9269159,69.8920898 62.8346308,69.8920898 C63.0123651,69.8920898 63.2408808,69.9047852 63.3805292,69.9238281 L63.3805292,71.015625 C63.291662,70.9902344 62.8981073,70.9521484 62.682287,70.9521484 C61.6412714,70.9521484 60.8859003,71.6503906 60.8859003,72.6152344 L60.8859003,76.8554688 L59.7941034,76.8554688 Z M67.4747675,70.8569336 C66.3829706,70.8569336 65.6212518,71.6567383 65.5387323,72.8691406 L69.3092401,72.8691406 C69.2838495,71.6567383 68.5602167,70.8569336 67.4747675,70.8569336 Z M69.2775018,75.0844727 L70.3692987,75.0844727 C70.0392206,76.2587891 68.9855097,76.9760742 67.4874628,76.9760742 C65.5895136,76.9760742 64.4025018,75.6049805 64.4025018,73.4404297 C64.4025018,71.2885742 65.6085565,69.8920898 67.4874628,69.8920898 C69.3346308,69.8920898 70.4581659,71.2060547 70.4581659,73.3325195 L70.4581659,73.7514648 L65.5387323,73.7514648 L65.5387323,73.8022461 C65.5958612,75.1542969 66.3512323,76.0112305 67.5128534,76.0112305 C68.3951776,76.0112305 68.9918573,75.6875 69.2775018,75.0844727 Z M72.1720331,76.8554688 L72.1720331,70.0126953 L73.2130487,70.0126953 L73.2130487,71.0917969 L73.3146112,71.0917969 C73.6573847,70.3364258 74.3238886,69.8920898 75.3712518,69.8920898 C76.9073847,69.8920898 77.7643183,70.7998047 77.7643183,72.4248047 L77.7643183,76.8554688 L76.6725214,76.8554688 L76.6725214,72.6914062 C76.6725214,71.4599609 76.1520136,70.8759766 75.0602167,70.8759766 C73.9684198,70.8759766 73.26383,71.605957 73.26383,72.8056641 L73.26383,76.8554688 L72.1720331,76.8554688 Z"/>
    <rect width="86" height="35.43" x="269.673" y="119.07" fill="#EBEDF2" rx="2"/>
    <path fill="#8F9092" d="M286.557512,132.125488 L289.699602,132.125488 C292.416399,132.125488 294.022356,133.820312 294.022356,136.702148 C294.022356,139.590332 292.422746,141.285156 289.699602,141.285156 L286.557512,141.285156 L286.557512,132.125488 Z M287.70009,133.153809 L287.70009,140.256836 L289.62343,140.256836 C291.667375,140.256836 292.854387,138.949219 292.854387,136.714844 C292.854387,134.474121 291.65468,133.153809 289.62343,133.153809 L287.70009,133.153809 Z M298.66884,141.405762 C296.72011,141.405762 295.514055,140.060059 295.514055,137.86377 C295.514055,135.661133 296.72011,134.321777 298.66884,134.321777 C300.617571,134.321777 301.823625,135.661133 301.823625,137.86377 C301.823625,140.060059 300.617571,141.405762 298.66884,141.405762 Z M298.66884,140.421875 C299.963762,140.421875 300.693743,139.482422 300.693743,137.86377 C300.693743,136.23877 299.963762,135.305664 298.66884,135.305664 C297.373918,135.305664 296.643938,136.23877 296.643938,137.86377 C296.643938,139.482422 297.373918,140.421875 298.66884,140.421875 Z M309.199602,136.537109 L308.09511,136.537109 C307.917375,135.85791 307.314348,135.305664 306.330461,135.305664 C305.099016,135.305664 304.324602,136.289551 304.324602,137.838379 C304.324602,139.418945 305.111711,140.421875 306.330461,140.421875 C307.250871,140.421875 307.891985,139.996582 308.09511,139.222168 L309.199602,139.222168 C309.002825,140.479004 307.980852,141.405762 306.336809,141.405762 C304.419817,141.405762 303.194719,140.015625 303.194719,137.838379 C303.194719,135.705566 304.413469,134.321777 306.330461,134.321777 C307.993547,134.321777 309.009172,135.318359 309.199602,136.537109 Z M313.541399,135.286621 C312.449602,135.286621 311.687883,136.086426 311.605364,137.298828 L315.375871,137.298828 C315.350481,136.086426 314.626848,135.286621 313.541399,135.286621 Z M315.344133,139.51416 L316.43593,139.51416 C316.105852,140.688477 315.052141,141.405762 313.554094,141.405762 C311.656145,141.405762 310.469133,140.034668 310.469133,137.870117 C310.469133,135.718262 311.675188,134.321777 313.554094,134.321777 C315.401262,134.321777 316.524797,135.635742 316.524797,137.762207 L316.524797,138.181152 L311.605364,138.181152 L311.605364,138.231934 C311.662493,139.583984 312.417864,140.440918 313.579485,140.440918 C314.461809,140.440918 315.058489,140.117188 315.344133,139.51416 Z M318.238664,141.285156 L318.238664,134.442383 L319.27968,134.442383 L319.27968,135.458008 L319.381243,135.458008 C319.584368,134.791504 320.371477,134.321777 321.279192,134.321777 C321.456926,134.321777 321.685442,134.334473 321.82509,134.353516 L321.82509,135.445312 C321.736223,135.419922 321.342668,135.381836 321.126848,135.381836 C320.085832,135.381836 319.330461,136.080078 319.330461,137.044922 L319.330461,141.285156 L318.238664,141.285156 Z M325.919328,135.286621 C324.827532,135.286621 324.065813,136.086426 323.983293,137.298828 L327.753801,137.298828 C327.728411,136.086426 327.004778,135.286621 325.919328,135.286621 Z M327.722063,139.51416 L328.81386,139.51416 C328.483782,140.688477 327.430071,141.405762 325.932024,141.405762 C324.034075,141.405762 322.847063,140.034668 322.847063,137.870117 C322.847063,135.718262 324.053118,134.321777 325.932024,134.321777 C327.779192,134.321777 328.902727,135.635742 328.902727,137.762207 L328.902727,138.181152 L323.983293,138.181152 L323.983293,138.231934 C324.040422,139.583984 324.795793,140.440918 325.957414,140.440918 C326.839739,140.440918 327.436418,140.117188 327.722063,139.51416 Z M330.616594,141.285156 L330.616594,134.442383 L331.65761,134.442383 L331.65761,135.521484 L331.759172,135.521484 C332.101946,134.766113 332.76845,134.321777 333.815813,134.321777 C335.351946,134.321777 336.208879,135.229492 336.208879,136.854492 L336.208879,141.285156 L335.117082,141.285156 L335.117082,137.121094 C335.117082,135.889648 334.596575,135.305664 333.504778,135.305664 C332.412981,135.305664 331.708391,136.035645 331.708391,137.235352 L331.708391,141.285156 L330.616594,141.285156 Z"/>
    <rect width="86" height="35.43" x="374" y="92.355" fill="#EBEDF2" rx="2"/>
    <path fill="#8F9092" d="M390.884871,105.410645 L394.026961,105.410645 C396.743757,105.410645 398.349714,107.105469 398.349714,109.987305 C398.349714,112.875488 396.750105,114.570312 394.026961,114.570312 L390.884871,114.570312 L390.884871,105.410645 Z M392.027449,106.438965 L392.027449,113.541992 L393.950789,113.541992 C395.994734,113.541992 397.181746,112.234375 397.181746,110 C397.181746,107.759277 395.982039,106.438965 393.950789,106.438965 L392.027449,106.438965 Z M402.996199,114.690918 C401.047468,114.690918 399.841414,113.345215 399.841414,111.148926 C399.841414,108.946289 401.047468,107.606934 402.996199,107.606934 C404.944929,107.606934 406.150984,108.946289 406.150984,111.148926 C406.150984,113.345215 404.944929,114.690918 402.996199,114.690918 Z M402.996199,113.707031 C404.291121,113.707031 405.021101,112.767578 405.021101,111.148926 C405.021101,109.523926 404.291121,108.59082 402.996199,108.59082 C401.701277,108.59082 400.971297,109.523926 400.971297,111.148926 C400.971297,112.767578 401.701277,113.707031 402.996199,113.707031 Z M413.526961,109.822266 L412.422468,109.822266 C412.244734,109.143066 411.641707,108.59082 410.65782,108.59082 C409.426375,108.59082 408.651961,109.574707 408.651961,111.123535 C408.651961,112.704102 409.43907,113.707031 410.65782,113.707031 C411.57823,113.707031 412.219343,113.281738 412.422468,112.507324 L413.526961,112.507324 C413.330183,113.76416 412.308211,114.690918 410.664168,114.690918 C408.747175,114.690918 407.522078,113.300781 407.522078,111.123535 C407.522078,108.990723 408.740828,107.606934 410.65782,107.606934 C412.320906,107.606934 413.336531,108.603516 413.526961,109.822266 Z M417.868757,108.571777 C416.776961,108.571777 416.015242,109.371582 415.932722,110.583984 L419.70323,110.583984 C419.677839,109.371582 418.954207,108.571777 417.868757,108.571777 Z M419.671492,112.799316 L420.763289,112.799316 C420.433211,113.973633 419.3795,114.690918 417.881453,114.690918 C415.983504,114.690918 414.796492,113.319824 414.796492,111.155273 C414.796492,109.003418 416.002547,107.606934 417.881453,107.606934 C419.728621,107.606934 420.852156,108.920898 420.852156,111.047363 L420.852156,111.466309 L415.932722,111.466309 L415.932722,111.51709 C415.989851,112.869141 416.745222,113.726074 417.906843,113.726074 C418.789168,113.726074 419.385847,113.402344 419.671492,112.799316 Z M422.566023,114.570312 L422.566023,107.727539 L423.607039,107.727539 L423.607039,108.743164 L423.708601,108.743164 C423.911726,108.07666 424.698836,107.606934 425.60655,107.606934 C425.784285,107.606934 426.0128,107.619629 426.152449,107.638672 L426.152449,108.730469 C426.063582,108.705078 425.670027,108.666992 425.454207,108.666992 C424.413191,108.666992 423.65782,109.365234 423.65782,110.330078 L423.65782,114.570312 L422.566023,114.570312 Z M430.246687,108.571777 C429.15489,108.571777 428.393172,109.371582 428.310652,110.583984 L432.08116,110.583984 C432.055769,109.371582 431.332136,108.571777 430.246687,108.571777 Z M432.049422,112.799316 L433.141218,112.799316 C432.81114,113.973633 431.757429,114.690918 430.259382,114.690918 C428.361433,114.690918 427.174422,113.319824 427.174422,111.155273 C427.174422,109.003418 428.380476,107.606934 430.259382,107.606934 C432.10655,107.606934 433.230086,108.920898 433.230086,111.047363 L433.230086,111.466309 L428.310652,111.466309 L428.310652,111.51709 C428.367781,112.869141 429.123152,113.726074 430.284773,113.726074 C431.167097,113.726074 431.763777,113.402344 432.049422,112.799316 Z M434.943953,114.570312 L434.943953,107.727539 L435.984968,107.727539 L435.984968,108.806641 L436.086531,108.806641 C436.429304,108.05127 437.095808,107.606934 438.143172,107.606934 C439.679304,107.606934 440.536238,108.514648 440.536238,110.139648 L440.536238,114.570312 L439.444441,114.570312 L439.444441,110.40625 C439.444441,109.174805 438.923933,108.59082 437.832136,108.59082 C436.740339,108.59082 436.03575,109.320801 436.03575,110.520508 L436.03575,114.570312 L434.943953,114.570312 Z"/>
    <g transform="translate(205 66)">
      <use fill="black" filter="url(#a)" xlink:href="#b"/>
      <use fill="#FFFFFF" xlink:href="#b"/>
      <path fill="#3366FF" d="M13.058059,21.1826172 C11.4468618,21.1826172 10.3928075,20.0833892 10.3928075,18.5625394 C10.3928075,17.0416897 11.4468618,15.9575195 13.058059,15.9575195 C14.6843142,15.9575195 15.7233106,17.0416897 15.7233106,18.5625394 C15.7233106,20.0833892 14.6843142,21.1826172 13.058059,21.1826172 Z M23.7792969,21.1826172 C22.1680996,21.1826172 21.1140453,20.0833892 21.1140453,18.5625394 C21.1140453,17.0416897 22.1680996,15.9575195 23.7792969,15.9575195 C25.4055521,15.9575195 26.4445484,17.0416897 26.4445484,18.5625394 C26.4445484,20.0833892 25.4055521,21.1826172 23.7792969,21.1826172 Z M34.5005347,21.1826172 C32.8893375,21.1826172 31.8352832,20.0833892 31.8352832,18.5625394 C31.8352832,17.0416897 32.8893375,15.9575195 34.5005347,15.9575195 C36.1267899,15.9575195 37.1657863,17.0416897 37.1657863,18.5625394 C37.1657863,20.0833892 36.1267899,21.1826172 34.5005347,21.1826172 Z"/>
    </g>
    <g transform="translate(255.264 .122)">
      <circle cx="20.791" cy="20.179" r="20.09" fill="#FFFFFF"/>
      <path fill="#EBEDF2" d="M18.703702,29.7152032 L21.8824901,29.7152032 L21.8824901,26.5364151 L18.703702,26.5364151 L18.703702,29.7152032 Z M20.293096,4.28489842 C11.5196409,4.28489842 4.39915556,11.4053838 4.39915556,20.1788389 C4.39915556,28.9522947 11.5196409,36.0727794 20.293096,36.0727794 C29.0665518,36.0727794 36.1870365,28.9522947 36.1870365,20.1788389 C36.1870365,11.405383 29.0665518,4.28489842 20.293096,4.28489842 Z M20.293096,32.8939913 C13.2838685,32.8939913 7.57794366,27.1880663 7.57794366,20.1788389 C7.57794366,13.1696114 13.2838685,7.46368652 20.293096,7.46368652 C27.3023235,7.46368652 33.0082484,13.1696114 33.0082484,20.1788389 C33.0082484,27.1880663 27.3023235,32.8939913 20.293096,32.8939913 Z M20.293096,10.6424746 C16.7805351,10.6424746 13.9355199,13.4874899 13.9355199,17.0000508 L17.1143079,17.0000508 C17.1143079,15.2517167 18.544762,13.8212627 20.293096,13.8212627 C22.04143,13.8212627 23.4718841,15.2517167 23.4718841,17.0000508 C23.4718841,20.1788389 18.703702,19.7814904 18.703702,24.9470211 L21.8824901,24.9470211 C21.8824901,21.3708844 26.6506722,20.9735359 26.6506722,17.0000508 C26.6506722,13.4874899 23.8056569,10.6424746 20.293096,10.6424746 Z"/>
    </g>
    <g transform="translate(81.64 6.127)">
      <circle cx="13.339" cy="14.231" r="13.339" fill="#FFFFFF"/>
      <path fill="#EBEDF2" d="M14.4061163,8.89570417 L12.271877,8.89570417 L12.271877,13.1641829 L8.00339832,13.1641829 L8.00339832,15.2984222 L12.271877,15.2984222 L12.271877,19.5669009 L14.4061163,19.5669009 L14.4061163,15.2984222 L18.674595,15.2984222 L18.674595,13.1641829 L14.4061163,13.1641829 L14.4061163,8.89570417 Z M13.3389967,3.56010582 C7.44849611,3.56010582 2.66779997,8.34080196 2.66779997,14.2313025 C2.66779997,20.1218035 7.44849611,24.9024992 13.3389967,24.9024992 C19.2294977,24.9024992 24.0101934,20.1218035 24.0101934,14.2313025 C24.0101934,8.34080145 19.2294977,3.56010582 13.3389967,3.56010582 Z M13.3389967,22.7682599 C8.63299909,22.7682599 4.80203931,18.9373001 4.80203931,14.2313025 C4.80203931,9.52530494 8.63299909,5.69434516 13.3389967,5.69434516 C18.0449942,5.69434516 21.875954,9.52530494 21.875954,14.2313025 C21.875954,18.9373001 18.0449942,22.7682599 13.3389967,22.7682599 Z"/>
    </g>
  </g>
</svg>
