<svg width="187px" height="33px" viewBox="0 0 187 33" xmlns="http://www.w3.org/2000/svg">
  <title>mutation</title>
  <g id="mutation" stroke="none" stroke-width="1" fill="none" fill-rule="evenodd">
      <path d="M45.847688,8.90455334 L45.847688,23.9651996 C45.847688,25.3542631 46.1194671,26.4376418 46.6629585,27.2152023 C47.2065167,27.9928296 48.1728942,28.3816099 49.5619577,28.3816099 C51.1322295,28.3816099 52.3703194,27.8455937 53.2762274,26.7735613 C54.1821355,25.7015957 54.6351229,24.3049235 54.6351229,22.5836782 L54.6351229,13.3817668 L60.4330546,13.3817668 L60.4330546,32.548867 L54.6351229,32.548867 L54.6351229,29.1063096 C53.9255072,30.4048023 53.0044484,31.3975435 51.87208,32.0845332 C50.7396449,32.7715229 49.3354974,33.1150512 47.6595041,33.1150512 C45.1229215,33.1150512 43.2204679,32.3487703 41.9522099,30.8162753 C40.6838853,29.2837135 40.0497563,27.1435199 40.0497563,24.3954943 L40.0497563,8.90455334 L45.847688,8.90455334 Z M87.4453732,8.90421963 L81.6473748,8.90421963 C81.6780768,7.60572694 81.9570642,6.46955419 82.4856718,5.49570136 C83.0142795,4.5217818 83.71642,3.7102489 84.5920933,3.06096919 C85.4677665,2.41175622 86.5096309,1.91725443 87.7170188,1.57753057 C88.9250742,1.2378067 90.2385842,1.06794477 91.6582161,1.06794477 C94.4968126,1.06794477 96.7387231,1.7549345 98.3846151,3.12891396 C100.030507,4.50296016 100.853453,6.51861058 100.853453,9.17599872 L100.842774,32.548867 L95.7122097,32.548867 L95.6668242,28.8798493 L95.4632569,28.8798493 C94.7838091,30.1783419 93.8814385,31.2088599 92.7568123,31.9713364 C91.6315188,32.7338129 90.1558224,33.1150512 88.3290557,33.1150512 C87.2418059,33.1150512 86.2486642,32.9338429 85.3502982,32.571493 C84.4519321,32.2091431 83.6630252,31.703295 82.9835775,31.054082 C82.3041298,30.4048023 81.7795267,29.6423258 81.4097683,28.7665857 C81.04001,27.8909124 80.8551308,26.9094509 80.8551308,25.8223345 C80.8551308,23.9047969 81.5192275,22.2514963 82.8480884,20.8624329 C84.1769494,19.4733026 86.094487,18.6655741 88.6007013,18.439047 L95.1462258,17.8954889 L95.1462258,9.08542793 C95.1462258,7.84727128 94.8138437,6.9527096 94.1490795,6.40160942 C93.4849827,5.85050923 92.5792749,5.57492577 91.431956,5.57492577 C90.2539352,5.57492577 89.2948326,5.85805124 88.5553158,6.42423543 C87.8157991,6.99041962 87.4453732,7.81710326 87.4453732,8.90421963 Z M60.4330546,13.3885079 L60.4330546,8.90421963 L70.4585127,8.90421963 L70.4585127,1 L76.2565111,1 L76.2565111,32.5740292 L70.4585127,32.548867 L70.4585127,13.3885079 L60.4330546,13.3885079 Z M143.183447,32.548867 L137.136496,32.548867 C137.139833,30.7062154 137.388786,29.0311565 137.884022,27.523757 C138.381927,26.006346 139.102756,24.7003113 140.046508,23.605653 C140.990259,22.5109946 142.148924,21.669227 143.523171,21.08035 C144.897417,20.4915398 146.467222,20.197068 148.233919,20.197068 C150.000617,20.197068 151.571089,20.4915398 152.944668,21.08035 C154.318914,21.669227 155.47758,22.5109946 156.421331,23.605653 C157.365083,24.7003113 158.081907,26.006346 158.573138,27.523757 C159.060365,29.0311565 159.305981,30.7062154 159.30865,32.548867 L153.284392,32.548867 L153.284392,29.1430852 C153.284392,27.693619 152.805174,26.5914186 151.846072,25.8364841 C150.887637,25.0815496 149.683586,24.704049 148.233919,24.704049 C146.784253,24.704049 145.580202,25.0890916 144.621767,25.8591101 C143.662664,26.6291286 143.183447,27.723787 143.183447,29.1430852 L143.183447,32.548867 Z M6.79793168,32.548867 L1,32.548867 L1,8.90421963 L16.7443656,8.90421963 L19.9564581,12.7543789 C21.4965618,9.81012768 23.8972549,8.33803544 27.1586039,8.33803544 C29.574381,8.33803544 31.3900015,9.11179157 32.6054654,10.6594373 C33.8209293,12.2070831 34.4286279,14.3397347 34.4286279,17.0575256 L34.4286279,32.548867 L28.6306962,32.548867 L28.6306962,17.4651942 C28.6306962,14.536027 27.5209538,13.0714768 25.3014023,13.0714768 C25.2863183,13.0714768 25.2712343,13.0714768 25.2561503,13.0714768 C23.8670201,13.0714768 22.7459981,13.6036886 21.8928841,14.6681789 C21.0398368,15.7326025 20.6132798,17.1330124 20.6132798,18.8694084 L20.6132798,32.548867 L14.8153481,32.548867 L14.8153481,13.8695275 L6.79793168,13.8958244 L6.79793168,32.548867 Z M186,32.548867 L180.202002,32.548867 L180.202002,15.8508051 L171.255717,18.0841057 L171.255717,32.548867 L165.457719,32.548867 L165.457719,8.90421963 L171.255717,8.90421963 L171.255717,12.3240843 L186,8.80550615 L186,32.548867 Z M112.34533,13.1882777 L118.2341,13.1882777 L118.2341,17.6726327 L112.34533,17.6726327 L112.34533,28.041886 L125.992352,28.041886 L125.992352,8.90421963 L131.79035,8.90421963 L131.79035,28.041886 L126.061765,28.041886 L126.061765,32.548867 L106.547332,32.548867 L106.547332,1 L112.34533,1 L112.34533,13.1882777 Z M86.8793893,26.4791562 C86.8793893,27.188772 87.2037622,27.7210505 87.8531754,28.0758584 C88.5025886,28.4306662 89.3402181,28.6080702 90.3673989,28.6080702 C91.8470999,28.6080702 93.013107,28.0834004 93.8660875,27.0340608 C94.719068,25.9846544 95.1462258,24.7125921 95.1462258,23.2178071 L95.1462258,22.2892731 L88.1928992,22.900776 C87.3325769,22.9913468 86.8947403,23.5046702 86.8793893,24.440813 L86.8793893,26.4791562 Z M143.183447,17.621574 L137.136496,17.621574 C137.139833,15.7789892 137.388786,14.1039303 137.884022,12.596464 C138.381927,11.079053 139.102756,9.77301835 140.046508,8.67835999 C140.990259,7.58370162 142.148924,6.74193397 143.523171,6.15312377 C144.897417,5.56424683 146.467222,5.26984173 148.233919,5.26984173 C150.000617,5.26984173 151.571089,5.56424683 152.944668,6.15312377 C154.318914,6.74193397 155.47758,7.58370162 156.421331,8.67835999 C157.365083,9.77301835 158.081907,11.079053 158.573138,12.596464 C159.060365,14.1038635 159.305981,15.7789224 159.30865,17.621574 L153.284392,17.621574 L153.284392,14.2157922 C153.284392,12.766326 152.805174,11.6641256 151.846072,10.9091911 C150.887637,10.1542566 149.683586,9.77675598 148.233919,9.77675598 C146.784253,9.77675598 145.580202,10.1617986 144.621767,10.9318171 C143.662664,11.7019024 143.183447,12.7965607 143.183447,14.2157922 L143.183447,17.621574 Z M131.971225,6.16380271 L125.992352,6.16380271 L125.992352,1 L131.971225,1 L131.971225,6.16380271 Z" id="Fill-1" fill="#262D40"></path>
  </g>
</svg>
