<svg xmlns="http://www.w3.org/2000/svg" width="120" height="120" viewBox="0 0 120 120">
  <path fill="#5239AC" fill-rule="evenodd" d="M28.7433232,85.0787119 C28.7433232,79.6550275 30.6967227,74.978873 34.6030254,71.0502485 C38.5093282,67.121128 44.1468052,64.8363749 51.5154563,64.1959892 L70.7582758,62.65827 L70.7582758,36.970919 C70.7582758,33.4693836 69.7820722,30.9390915 67.8286728,29.3800426 C65.8757694,27.8214898 63.2120429,27.0422134 59.8384854,27.0422134 C56.3761371,27.0422134 53.5571506,27.8428195 51.382518,29.4440316 C49.2073894,31.0457397 48.1195771,33.383569 48.1195771,36.4585113 L31.0737119,36.4585113 C31.1625028,32.7858426 31.9839424,29.5725056 33.5375348,26.8180041 C35.0911273,24.0635025 37.1551432,21.7678366 39.7300788,19.9315023 C42.3045184,18.0951679 45.3675558,16.6968356 48.918695,15.735513 C52.4698343,14.7746866 56.3314936,14.2945214 60.504169,14.2945214 C68.8495199,14.2945214 75.4413748,16.237504 80.2802299,20.1234692 C85.1185889,24.0099304 87.5377684,29.7109003 87.5377684,37.2273709 L87.5377684,91.3565745 L99.2566768,91.3565745 L99.2566768,104.104267 L72.4229809,104.104267 L72.2900426,93.7266462 L71.6908281,93.7266462 C69.6932813,97.3993148 67.0409637,100.314037 63.7338754,102.470812 C60.426787,104.627091 56.0874427,105.705479 50.7163384,105.705479 C47.5203627,105.705479 44.6016724,105.193071 41.9607637,104.168255 C39.319359,103.142944 36.9998832,101.712369 35.0023364,99.8760348 C33.0047896,98.0397005 31.462606,95.8834213 30.3747937,93.4062053 C29.2874774,90.9294854 28.7433232,88.1536542 28.7433232,85.0787119 Z M46.4548721,86.9363758 C46.4548721,88.9438434 47.40925,90.4488241 49.318006,91.4528059 C51.2267619,92.4562917 53.6905849,92.9577866 56.7089789,92.9577866 C61.0592361,92.9577866 64.4883499,91.4741356 66.9963202,88.5058415 C69.5042906,85.5380435 70.7582758,81.9397806 70.7582758,77.7120449 L70.7582758,75.0855213 L50.3170274,76.8152074 C47.7867353,77.0716592 46.4995155,78.5235638 46.4548721,81.171417 L46.4548721,86.9363758 Z"/>
</svg>
