<svg xmlns="http://www.w3.org/2000/svg" width="4457" height="2497" viewBox="0 0 4457 2497">
  <g fill="none" fill-rule="evenodd">
    <ellipse cx="2441.038" cy="23" fill="red" fill-rule="nonzero" rx="93.004" ry="93"/>
    <ellipse cx="2956.738" cy="1170" fill="#FF6E00" fill-rule="nonzero" rx="93.004" ry="93.5"/>
    <polygon fill="#00F" fill-rule="nonzero" points="3706.845 1455.751 3563.161 1534.981 3419.478 1614.211 3422.682 1450.203 3425.89 1286.211 3566.37 1370.989"/>
    <path fill="#FFF" fill-rule="nonzero" d="M2125.2694 903.539182L1976.01716 823.823767 2119.24444 733.539182 2120.01342 755.156781 2122.26771 818.530321 2125.2694 903.539182zM2097.47113 819.420632L2095.98592 777.667969 2025.60246 822.034806 2098.94665 861.207835 2097.47113 819.420632zM2387.01773 1821.04104L2533.94563 1736 2534.04232 1906 2515.34483 1895.19883 2460.53178 1863.53442 2387.01773 1821.04104zM2472.98507 1841.91494L2509.09779 1862.77654 2509.05027 1779.23667 2436.84829 1821.02677 2472.98507 1841.91494zM1113.9184 1862.56401L1260.8463 1777.52297 1260.94299 1947.52297 1242.2455 1936.7218 1187.43245 1905.05739 1113.9184 1862.56401zM1199.88574 1883.43791L1235.99846 1904.29951 1235.95094 1820.75964 1163.74896 1862.54974 1199.88574 1883.43791z"/>
    <polygon fill="#00F" fill-rule="nonzero" points="1523.761 1193.018 1630.714 1167.723 1655.236 1271.369 1621.523 1279.077 1610.279 1231.549 1523.235 1367.723 1493.732 1350.135 1580.776 1213.966 1531.728 1225.564"/>
    <polygon fill="#8C7B73" fill-rule="nonzero" points="2424.751 1509 2335.782 1500.084 2344.375 1413.38 2372.336 1416.395 2368.393 1456.155 2471.457 1374 2489.489 1395.462 2386.451 1477.612 2427.252 1481.698"/>
    <g transform="translate(3770.702 711.5)">
      <path fill="#850000" d="M188.990876,253.405525 L147.232399,230.602059 C146.350161,230.121777 145.478951,229.623512 144.618771,229.107263 C129.427687,219.871719 117.642155,205.933468 111.048819,189.405501 C106.149539,177.267612 103.673888,164.290479 103.762366,151.210582 C103.814639,149.866131 103.660385,148.521042 103.305006,147.222412 C103.015661,146.248343 102.578133,145.324442 102.007873,144.483336 C101.195441,143.27368 100.106801,142.27529 98.8326635,141.571355 L140.595286,164.374827 C141.869423,165.078762 142.958063,166.077153 143.770495,167.286808 C144.340813,168.127881 144.778345,169.051792 145.067629,170.025884 C145.423591,171.324403 145.577855,172.669583 145.524988,174.014055 C145.436403,187.093961 147.912057,200.071115 152.811441,212.208973 C159.405039,228.736783 171.190508,242.674958 186.381393,251.910735 C187.252624,252.424231 188.122451,252.922494 188.990876,253.405525 Z" transform="rotate(27.001 143.912 197.488)"/>
      <path fill="#850000" d="M94.1983415,205.976685 L52.4357192,183.173212 C39.9254964,175.865671 32.495978,162.198916 33.1647604,147.723878 C33.2447997,137.393244 34.709894,127.124076 37.5207152,117.192033 C40.2875521,107.387166 44.2714046,97.9720314 49.3790465,89.1669531 C59.2827664,71.8867097 73.4071324,57.4190019 90.4301387,47.1179717 C101.532949,40.4317273 113.857881,36.0280383 126.688027,34.1630549 C136.065964,32.8317976 145.604837,33.0893362 154.906365,34.9249175 C162.512749,36.4578477 169.848746,39.1284791 176.667891,42.847087 L218.430513,65.6505596 C211.611265,61.9321823 204.275303,59.2615638 196.668988,57.7283901 C187.367459,55.8928088 177.828587,55.6352702 168.450649,56.9665275 C155.620503,58.8315109 143.295571,63.2351999 132.192761,69.9214443 C115.169868,80.2226179 101.045534,94.6902928 91.1416687,111.970426 C86.0353548,120.776172 82.0515747,130.191136 79.2833375,139.995506 C76.4734004,149.927739 75.0083232,160.196787 74.9273827,170.527351 C74.25765,185.002606 81.6874201,198.669824 94.1983415,205.976685 Z" transform="rotate(27.001 125.777 119.651)"/>
      <path fill="#850000" d="M306.245229,159.880377 L333.102989,199.15856 C328.700258,192.817139 322.384332,188.062123 315.085516,185.593904 L288.227756,146.315721 C295.526848,148.783413 301.842924,153.538542 306.245229,159.880377 Z M230.834143,213.073773 C226.108143,206.162226 220.215438,194.78435 213.156027,178.940147 C214.207634,179.312328 215.310327,179.518897 216.424926,179.552514 C217.506144,179.579615 218.585984,179.458389 219.634501,179.192197 C221.847843,178.636604 223.890462,177.541826 225.581404,176.00485 C226.716957,174.971291 227.657038,173.740339 228.356336,172.371322 C239.708652,150.418207 266.461199,138.78822 288.220445,146.302652 L315.078205,185.580836 C293.324531,178.064587 266.568223,189.701981 255.214096,211.649506 C254.51449,213.018327 253.574449,214.249227 252.439164,215.283033 C250.748123,216.819869 248.705542,217.914626 246.492261,218.47038 C245.442481,218.736375 244.361363,218.85697 243.278995,218.82881 C242.16576,218.795221 241.064374,218.5893 240.013787,218.21833 C235.136416,216.605563 232.076535,214.890711 230.834143,213.073773 Z"/>
      <path fill="#DF0000" fill-rule="nonzero" d="M299.765438,131.970757 C322.937725,128.883466 341.39228,146.520671 341.248352,171.326272 C341.168027,181.663995 339.701546,191.940167 336.888281,201.87888 C334.118609,211.680106 330.134882,221.092147 325.029938,229.895653 C315.129233,247.180375 301.004362,261.651463 283.978857,271.952941 C272.875413,278.641007 260.548754,283.044808 247.716824,284.907852 C238.338877,286.238952 228.800031,285.981414 219.498485,284.14599 C210.905645,282.413533 202.665702,279.229079 195.131622,274.729036 C179.941134,265.492793 168.155792,251.554768 161.56167,235.027274 C156.662788,222.887818 154.187161,209.909407 154.275211,196.828202 C154.328702,195.483971 154.17585,194.138908 153.821997,192.840037 C153.53185,191.866274 153.094378,190.942493 152.524863,190.100961 C151.415118,188.447032 149.788794,187.208522 147.902091,186.580535 C146.590581,186.164999 145.203254,186.050913 143.843348,186.246767 C142.740503,186.39938 141.66756,186.718596 140.661042,187.193549 C139.685511,187.661065 138.777316,188.257726 137.960739,188.967582 C136.244069,190.470336 134.921717,192.372279 134.109098,194.50741 C133.567069,195.946884 133.288347,197.47309 133.286266,199.013017 C133.138066,223.727231 114.581533,246.23524 91.7824527,249.414429 C68.6101653,252.50172 50.151459,234.860355 50.2995383,210.058914 C50.3813788,199.72842 51.8464389,189.459491 54.6554931,179.527068 C57.423113,169.722479 61.4069249,160.30744 66.5138244,151.501988 C76.4158068,134.221807 90.5388299,119.754012 107.560771,109.453001 C118.663582,102.766757 130.988513,98.3630676 143.818659,96.4980842 C153.19795,95.166281 162.738276,95.4238229 172.041143,97.2599526 C180.635358,98.9899671 188.876838,102.173072 196.412146,106.672759 C211.602634,115.909001 223.387976,129.847026 229.982098,146.37452 C234.879753,158.512754 237.353985,171.489834 237.264406,184.569433 C237.210783,185.913669 237.363638,187.258752 237.71762,188.557598 C238.008438,189.531104 238.445863,190.454786 239.014754,191.296674 C240.123336,192.951702 241.750079,194.190532 243.637526,194.8171 C244.946029,195.23368 246.331215,195.346398 247.687973,195.146702 C248.794124,194.999439 249.870395,194.681471 250.878575,194.204086 C251.85422,193.737314 252.761317,193.139057 253.574727,192.425893 C255.29445,190.925885 256.617372,189.023121 257.426367,186.886065 C257.968735,185.449572 258.247489,183.926026 258.249212,182.388766 C258.409825,157.657955 276.966357,135.149946 299.765438,131.970757 Z" transform="rotate(27.001 195.774 190.703)"/>
    </g>
    <polygon fill="#000082" fill-rule="nonzero" points="1243.211 569.834 1211.213 552.43 1211.774 405.199 1243.772 422.608" transform="rotate(-56.008 1227.492 487.517)"/>
    <g fill-rule="nonzero" transform="translate(1027.175 157.273)">
      <polygon fill="#0000DF" points="103.843 34 222.216 91.669 340.588 149.338 221.794 239.623 103 329.907 103.422 181.954" transform="rotate(-56.008 221.794 181.954)"/>
      <polygon fill="#000082" points="155.196 445.303 122.754 427.361 123.638 132.15 156.039 149.396" transform="rotate(-56.008 139.396 288.727)"/>
    </g>
    <g transform="translate(1879.115 55)">
      <path fill="#857500" d="M40.5887302,151.622943 L36.1057216,145.528334 C35.6552829,144.913895 35.2536747,144.264723 34.9046241,143.586844 C31.9426387,137.847203 33.1765986,129.885519 34.9533584,122.132448 C37.3276137,111.760725 40.9307902,100.127696 49.5181683,92.7891467 L54.001177,98.8837556 C45.4120492,106.226079 41.817621,117.84024 39.436367,128.227056 C37.6671116,135.983647 36.4238978,143.945585 39.3838806,149.679693 C39.7341888,150.358226 40.137049,151.007982 40.5887302,151.622943 Z M165.196029,59.3784832 L169.679038,65.4730921 C167.643265,62.7773039 165.081183,60.5283451 162.150038,58.8642438 C160.098177,57.671495 157.916361,56.7207554 155.647847,56.0308752 C147.066355,53.5523826 137.906654,54.036222 129.630551,57.4051768 C123.205138,60.2801146 117.101588,63.8333964 111.422645,68.0052084 C109.658469,69.1992626 107.821778,70.4511913 105.99432,71.6339452 C96.4816131,77.8478039 86.4427554,83.2062196 75.9943117,87.646974 C74.6813969,88.2027515 73.3517237,88.7552639 72.029302,89.301989 C65.5653532,91.5430401 59.487711,94.7824559 54.0146889,98.9038743 L49.5316802,92.8092655 C55.0047385,88.6879044 61.0823714,85.4484935 67.5462933,83.2073801 C68.8724672,82.6624147 70.2003907,82.1136758 71.5113031,81.5523652 C81.959756,77.1116303 91.9986153,71.7532137 101.511311,65.5393364 C103.345768,64.3414883 105.164709,63.1179883 106.939637,61.9105995 C112.618563,57.7387612 118.722115,54.1854777 125.147542,51.310568 C133.423645,47.9416132 142.583346,47.4577738 151.164838,49.9362663 C153.431945,50.6259629 155.612474,51.5760995 157.663277,52.7678753 C160.596075,54.431879 163.159513,56.6815055 165.196029,59.3784832 Z"/>
      <path fill="#857500" d="M105.320135,208.686364 L98.681456,205.057374 C96.6261992,203.937728 94.7161267,202.56717 92.9949748,200.977084 C84.6523945,193.247366 82.2708155,182.423563 79.96461,171.957633 C79.008749,166.877183 77.6111896,161.888711 75.7879916,157.049541 C74.4981345,154.382647 72.7788936,151.94614 70.6997733,149.838522 C68.127638,147.129832 65.9511306,144.06917 64.235729,140.748613 C60.9115427,133.493776 59.3583859,125.554547 59.7055161,117.59165 C60.6547696,103.111596 64.7096015,89.0217025 71.5927122,76.2855424 C85.9055761,47.0220401 101.764101,38.6878748 112.535182,36.8604115 C112.866597,36.802902 113.202165,36.749561 113.529463,36.7045208 C115.205595,36.5477992 123.213188,36.2128717 130.906503,37.5869039 C151.047907,41.1841741 180.486288,47.9555758 186.04204,50.4563789 L138.192011,45.2297792 C132.259283,43.8100945 126.232451,39.7662603 120.168142,40.3335109 C119.8367,40.3785421 119.505276,40.4318921 119.17386,40.4894016 C108.402789,42.3210244 92.5525524,50.6552077 78.2313909,79.9145325 C71.3482802,92.6506927 67.2934482,106.740586 66.3441948,121.22064 C65.9970646,129.183537 67.5502214,137.122766 70.8744076,144.377603 C72.5896169,147.698278 74.7661429,150.758966 77.338452,153.467512 C79.4176306,155.575081 81.1368787,158.011599 82.4266702,160.678531 C84.2502734,165.517569 85.6478429,170.506077 86.6032887,175.586623 C88.9094942,186.052553 91.2952084,196.872206 99.6336535,204.606074 C101.354752,206.196227 103.264833,207.566791 105.320135,208.686364 Z" transform="rotate(-155 122.85 122.619)"/>
      <path fill="#DFC400" fill-rule="nonzero" d="M180.239222,66.5213041 C181.704908,72.9993982 182.512227,79.610516 182.648736,86.2527769 C182.802123,93.6021754 181.337449,100.894738 178.359636,107.608068 C174.541105,115.07143 169.550315,121.86635 163.579629,127.730922 C162.635696,128.755177 161.700043,129.775268 160.77681,130.803686 C153.736115,138.643336 147.39659,147.09216 141.831905,156.051977 C140.73479,157.817359 139.629394,159.66185 138.561259,161.464704 C134.655146,168.540267 130.000981,175.171102 124.679645,181.241977 C116.684106,189.874304 106.044064,195.564699 94.4572224,197.405213 C91.3793089,197.851024 88.2604803,197.937647 85.1627924,197.663359 C78.1792721,197.188231 71.5504399,194.393889 66.3172488,189.71914 C57.9998725,181.999759 55.6441795,171.17014 53.3630076,160.698595 C52.4195896,155.614956 51.0342529,150.624418 49.2229497,145.78445 C47.9402474,143.117618 46.2280231,140.682373 44.1555188,138.577195 C41.5916429,135.871541 39.4239524,132.812481 37.7177288,129.49214 C34.4126407,122.237175 32.8782753,114.293258 33.2423262,106.321504 C34.2218982,91.8246272 38.3031983,77.7115295 45.2070935,64.9474496 C59.5689544,35.618795 75.4295163,27.2457223 86.1936668,25.3929041 C86.5248715,25.3346132 86.8602162,25.280486 87.1872807,25.234686 C93.246686,24.6536298 99.3598255,25.0755896 105.283474,26.4837769 L150.186542,34.7694132 C156.428037,35.4395006 162.416118,37.6164004 167.641026,41.114795 C175.217332,46.9355587 178.173333,56.7659041 180.239222,66.5213041 Z M168.64706,103.43194 C173.346026,93.1227769 171.723123,81.0732132 169.516472,70.6474678 C167.860449,62.8656314 165.641378,55.1212678 160.549107,51.1824678 C156.439363,48.6309512 151.804976,47.0559976 146.998697,46.577486 L102.099769,38.2918496 C97.1950056,37.1113174 92.1353135,36.7192451 87.1086196,37.130195 L86.4751908,37.2301223 C71.3018785,39.8532132 60.0699014,58.5604314 54.7209466,69.477486 C48.7175472,80.4727928 45.1275083,92.6345754 44.1927793,105.143195 C43.9034679,111.239558 45.0644592,117.317376 47.5793467,122.871959 C48.9151366,125.36457 50.5869673,127.659616 52.5474162,129.691995 C55.3521871,132.613463 57.6437938,135.992313 59.324691,139.684722 C61.3950393,145.139159 62.9772959,150.768513 64.0526371,156.505813 C66.0729854,165.778231 67.9815521,174.534359 74.0260366,180.142777 C77.7779212,183.441347 82.511205,185.396106 87.4853649,185.701231 C89.8448391,185.909667 92.2203364,185.844004 94.5648639,185.50554 C103.383861,184.104468 111.482048,179.772857 117.567026,173.201995 C122.182356,167.865493 126.220877,162.050959 129.614594,155.856286 C130.71171,154.024286 131.850225,152.109013 133.009442,150.260359 C139.019646,140.585538 145.866201,131.462396 153.469608,122.996868 C154.425961,121.930977 155.398875,120.86925 156.367648,119.811686 C161.28423,115.033263 165.431161,109.514204 168.65948,103.452759 L168.64706,103.43194 Z" transform="rotate(-155 107.925 111.4)"/>
    </g>
    <path fill="#000" fill-rule="nonzero" d="M3055.52888,2761 C3225.92468,2761 3364.05777,2622.87985 3364.05777,2452.5 C3364.05777,2282.12015 3225.92468,2144 3055.52888,2144 C2885.13309,2144 2747,2282.12015 2747,2452.5 C2747,2622.87985 2885.13309,2761 3055.52888,2761 Z M3055.52888,2657.24951 C2942.43826,2657.24951 2850.7602,2565.58003 2850.7602,2452.5 C2850.7602,2339.41997 2942.43826,2247.75049 3055.52888,2247.75049 C3168.6195,2247.75049 3260.29757,2339.41997 3260.29757,2452.5 C3260.29757,2565.58003 3168.6195,2657.24951 3055.52888,2657.24951 Z"/>
    <polygon fill="#000" fill-rule="nonzero" points="1928.841 1875 1992.725 1837.691 1981.982 1820 1918.098 1857.309"/>
    <polygon fill="#000" fill-rule="nonzero" points="592.238 1072.876 656.122 1035.567 645.38 1017.876 581.496 1055.185"/>
    <polygon fill="#AD9852" fill-rule="nonzero" points="1874.083 1797 1764.66 1674.791 1655.236 1552.581 1815.634 1518.787 1976.017 1485 1925.043 1641.004"/>
    <g transform="translate(1520.464 -70)">
      <path fill="#850000" d="M180.681085,146.617464 L146.915202,128.214721 C146.201824,127.827126 145.497365,127.425017 144.801826,127.008394 C132.518351,119.555122 122.9888,108.306359 117.65782,94.9673796 C113.696548,85.1714367 111.695086,74.6981 111.767022,64.1417553 C111.809331,63.0566926 111.684639,61.9711213 111.397313,60.9230504 C111.163373,60.1369202 110.809609,59.391283 110.348512,58.7124708 C109.691603,57.7362212 108.811342,56.9304845 107.781075,56.362398 L141.55031,74.7651464 C142.580577,75.3332329 143.460838,76.1389696 144.117747,77.1152192 C144.57889,77.7940047 144.932658,78.5396495 145.166548,79.3257987 C145.454346,80.3737796 145.579046,81.4594242 145.536257,82.5445037 C145.464234,93.1008561 147.465699,103.57421 151.427054,113.370128 C156.758247,126.708981 166.287747,137.957682 178.57106,145.411142 C179.275536,145.825543 179.978877,146.22765 180.681085,146.617464 Z" transform="rotate(134.001 144.231 101.49)"/>
      <path fill="#850000" d="M183.100052,175.474105 L149.330817,157.071357 C139.215071,151.174036 133.207855,140.144267 133.749076,128.461935 C133.814106,120.124427 134.999112,111.836488 137.272284,103.820594 C139.509886,95.9073398 142.731574,88.308592 146.861958,81.2021688 C154.87078,67.2555927 166.292399,55.5788015 180.05778,47.2647141 C189.035889,41.868163 199.002155,38.3137511 209.376871,36.8082286 C216.960059,35.7335547 224.673335,35.9411396 232.194643,37.4223161 C238.345239,38.6592803 244.277163,40.8144524 249.79112,43.8154251 L283.560355,62.2181734 C278.046314,59.2173868 272.114419,57.0622253 265.963878,55.8250645 C258.442569,54.343888 250.729294,54.136303 243.146105,55.210977 C232.77139,56.7164995 222.805124,60.2709113 213.827015,65.6674624 C200.061726,73.9816655 188.640132,85.6584302 180.631193,99.6049171 C176.501883,106.71188 173.280253,114.310489 171.041519,122.223342 C168.769062,130.23939 167.58407,138.527232 167.518311,146.864683 C166.976321,158.547191 172.983741,169.577333 183.100052,175.474105 Z" transform="rotate(134.001 208.638 105.803)"/>
      <path fill="#850000" d="M152.856392,187.782314 L174.619719,219.415818 C171.052106,214.308622 165.934198,210.479071 160.019836,208.491239 L138.256509,176.857735 C144.171095,178.845143 149.289125,182.674785 152.856392,187.782314 Z M91.7494313,230.622725 C87.9198684,225.056366 83.144903,215.892956 77.4245351,203.132497 C78.2766716,203.432241 79.1702036,203.598606 80.0733828,203.625679 C80.9495134,203.647506 81.8245275,203.549874 82.6741596,203.33549 C84.4676706,202.888032 86.1228411,202.00633 87.4930418,200.768494 C88.4132011,199.936096 89.1749657,198.944723 89.7416192,197.842157 C98.9406057,180.161758 120.618676,170.795306 138.250585,176.84721 L160.013912,208.480714 C142.386518,202.427346 120.705399,211.799765 111.504946,229.475661 C110.938043,230.578069 110.17631,231.569401 109.256369,232.401998 C107.886088,233.63972 106.230947,234.521406 104.437486,234.968994 C103.586831,235.183219 102.710781,235.280343 101.833719,235.257663 C100.931644,235.230612 100.039171,235.064769 99.1878618,234.766001 C95.2356401,233.467125 92.7561632,232.086033 91.7494313,230.622725 Z" transform="rotate(107 126.022 205.134)"/>
      <path fill="#DF0000" fill-rule="nonzero" d="M221.275515,95.7644616 C240.013086,93.2721681 254.935203,107.506046 254.818078,127.525812 C254.752816,135.869041 253.566688,144.162633 251.29154,152.18391 C249.051647,160.094226 245.830059,167.690476 241.701857,174.795631 C233.695473,188.745822 222.273445,200.425341 208.506044,208.73979 C199.527423,214.137811 189.55976,217.692313 179.183602,219.196271 C171.600406,220.270817 163.887152,220.063233 156.365829,218.582183 C149.417574,217.184215 142.754721,214.614379 136.66268,210.982757 C124.379687,203.528921 114.850291,192.280341 109.518674,178.941742 C105.557724,169.144534 103.556282,158.670167 103.627872,148.112766 C103.671166,147.027881 103.547607,145.94233 103.261515,144.894065 C103.026927,144.108182 102.673208,143.362642 102.212714,142.683486 C101.315406,141.348686 100.000372,140.349172 98.4747729,139.842398 C97.4142779,139.507069 96.2924662,139.415033 95.1928189,139.573138 C94.3010363,139.696338 93.4334279,139.953996 92.6195275,140.337342 C91.8306837,140.714686 91.0962853,141.196256 90.4359667,141.76918 C89.047795,142.982049 87.9784634,144.51708 87.3213034,146.240295 C86.8829668,147.40206 86.6575419,148.633818 86.6558129,149.876641 C86.535236,169.822651 71.5294557,187.988621 53.0936632,190.555072 C34.3560923,193.047366 19.4306184,178.810131 19.5511003,158.793722 C19.6175872,150.456328 20.8025655,142.168582 23.0743086,134.152381 C25.3125434,126.239351 28.5341988,118.640681 32.6639822,111.533956 C40.6713994,97.5874299 52.0919328,85.9105682 65.8564525,77.5964966 C74.8345611,72.1999455 84.8008278,68.6455336 95.1755428,67.1400112 C102.759826,66.0648965 110.474277,66.2724841 117.996667,67.7541032 C124.946034,69.1501 131.61013,71.7188466 137.703164,75.3501818 C149.986157,82.804018 159.515553,94.0525981 164.84717,107.391196 C168.807128,117.187418 170.807443,127.660711 170.734616,138.216816 C170.691215,139.301705 170.814776,140.387272 171.100972,141.435516 C171.336104,142.221192 171.689784,142.966653 172.149773,143.646096 C173.046141,144.981782 174.361514,145.981555 175.887715,146.487184 C176.945779,146.823355 178.065858,146.914288 179.16296,146.753082 C180.057416,146.6342 180.927715,146.377549 181.74296,145.992239 C182.531896,145.615496 183.265407,145.132638 183.923164,144.557045 C185.313805,143.346391 186.383597,141.810698 187.037828,140.08593 C187.476438,138.92657 187.701888,137.69696 187.703327,136.456289 C187.833942,116.496883 202.839722,98.3309129 221.275515,95.7644616 Z" transform="rotate(134.001 137.185 143.168)"/>
    </g>
    <g transform="translate(2947 1664)">
      <path fill="#857500" d="M68.3195089,308.684027 L58.9940661,296.104869 C58.0570748,294.836678 57.2216595,293.4968 56.4955731,292.09767 C50.3341251,280.251158 52.9009775,263.818393 56.5969489,247.8162 C61.5358156,226.40916 69.0310534,202.398808 86.8943032,187.25218 L96.2197459,199.831338 C78.3528566,214.985754 70.8758168,238.957164 65.9223917,260.395358 C62.2420306,276.404814 59.6559282,292.838104 65.8132107,304.673196 C66.5419131,306.073675 67.3799327,307.414758 68.3195089,308.684027 Z M327.524503,118.2932 L336.849945,130.872358 C332.615182,125.308301 327.285603,120.666493 321.188308,117.231819 C316.920078,114.770008 312.381518,112.8077 307.662612,111.3838 C289.811607,106.268238 270.757825,107.266873 253.542083,114.220332 C240.176099,120.15415 227.479647,127.488057 215.666451,136.098598 C211.996656,138.563103 208.176016,141.14706 204.374585,143.588242 C184.586489,156.41353 163.703908,167.473199 141.969316,176.638832 C139.238223,177.785946 136.47227,178.926322 133.721402,180.054752 C120.275257,184.680239 107.632697,191.366332 96.2478529,199.872862 L86.9224101,187.293704 C98.3073295,178.787293 110.94987,172.10121 124.395959,167.475594 C127.154633,166.350796 129.916946,165.218209 132.643873,164.059674 C154.378484,154.894081 175.261069,143.83441 195.049142,131.009085 C198.865132,128.536749 202.648849,126.011468 206.341009,123.51944 C218.154169,114.908844 230.850627,107.574934 244.21664,101.641175 C261.432382,94.6877154 280.486164,93.68908 298.337169,98.8046419 C303.053148,100.228163 307.58903,102.189227 311.85506,104.64903 C317.955794,108.083502 323.288192,112.726688 327.524503,118.2932 Z" transform="rotate(155 194.817 202.133)"/>
      <path fill="#857500" d="M97.7879403,356.538651 L84.0086681,349.070754 C79.7427503,346.766728 75.7796677,343.943645 72.2101662,340.666148 C54.9085675,324.733489 50.0083138,302.381361 45.2630769,280.768289 C43.2996525,270.275973 40.4179327,259.975681 36.6510318,249.985774 C33.98265,244.481563 30.4209388,239.455285 26.1098885,235.110136 C20.7770299,229.525344 16.2679026,223.211569 12.7181583,216.358755 C5.84299661,201.384642 2.65124786,184.988548 3.40853746,168.534998 C5.44648722,138.613764 13.9362894,109.484653 28.297348,83.1397286 C58.1725326,22.6145319 91.1652776,5.32407389 113.556595,1.49989207 C114.245559,1.37958073 114.943134,1.26786306 115.623486,1.17333273 C119.107315,0.841986852 135.749172,0.113946781 151.730229,2.91816999 C193.569266,10.2597368 254.713762,24.1174572 266.247727,29.259304 L166.835548,18.6761648 C154.513322,15.7696929 142.007382,7.44194038 129.402758,8.64122935 C128.713794,8.73575969 128.024831,8.84747736 127.335867,8.9677887 C104.94455,12.8005642 71.969029,30.0910222 42.0766202,90.6076253 C27.7155616,116.952549 19.2257595,146.081661 17.1878097,176.002894 C16.4305201,192.456445 19.6222689,208.852539 26.4974305,223.826651 C30.0467745,230.67971 34.5559405,236.993539 39.8891607,242.578033 C44.2003324,246.92308 47.7620587,251.94938 50.430304,257.45367 C54.1980475,267.443302 57.0797882,277.743669 59.0423492,288.236185 C63.7875861,309.849258 68.6964518,332.192792 85.9894385,348.134044 C89.558828,351.411679 93.5219284,354.234775 97.7879403,356.538651 Z"/>
      <path fill="#DFC400" fill-rule="nonzero" d="M322.975697,93.8989997 C326.024581,107.269664 327.703944,120.914886 327.987907,134.624388 C328.306979,149.793408 325.260201,164.84512 319.065829,178.701306 C311.122616,194.105545 300.740898,208.130131 288.320827,220.234498 C286.357281,222.34854 284.410959,224.453989 282.490473,226.576625 C267.844595,242.757515 254.657273,260.195729 243.081754,278.688621 C240.799562,282.332336 238.500146,286.139331 236.278239,289.860388 C228.152839,304.464217 218.471362,318.150135 207.402051,330.680307 C190.769931,348.497268 168.63678,360.242135 144.534121,364.040922 C138.131522,364.961068 131.643813,365.139856 125.20008,364.573729 C110.673135,363.593074 96.884004,357.825605 85.9980505,348.177013 C68.6964518,332.244354 63.7961981,309.892226 59.0509612,288.279154 C57.0884867,277.786618 54.2067439,267.486243 50.4389161,257.496639 C47.7706708,251.992348 44.2089445,246.966048 39.8977728,242.621001 C34.5644621,237.036581 30.0552864,230.722739 26.5060426,223.86962 C19.6308809,208.895507 16.4391322,192.499413 17.1964218,176.045863 C19.2341031,146.124582 27.7239216,116.995414 42.0852323,90.6505936 C71.9604169,30.1168032 104.953162,12.8349389 127.344479,9.01075704 C128.033443,8.8904457 128.731019,8.77872803 129.41137,8.68419769 C142.015994,7.48490871 154.732394,8.35582589 167.05462,11.2622978 L260.460861,28.3636951 C273.444263,29.7467428 285.900521,34.239823 296.769244,41.4604437 C312.529286,53.4743901 318.678287,73.7640379 322.975697,93.8989997 Z M298.861971,170.081858 C308.636642,148.803938 305.26072,123.933866 300.6705,102.415324 C297.225682,86.3537601 292.609626,70.3695395 282.01681,62.2399305 C273.467824,56.9736483 263.827488,53.7229737 253.829587,52.7353348 L160.431957,35.6339374 C150.22919,33.1973413 139.704144,32.3881115 129.247741,33.2363043 L127.930098,33.4425523 C96.3669529,38.8565626 73.0024744,77.4679084 61.875712,100.000503 C49.3875904,122.694609 41.9196812,147.7963 39.9752812,173.613855 C39.3734629,186.196633 41.7885279,198.741134 47.0199341,210.205689 C49.7986109,215.350392 53.2763114,220.087323 57.3543883,224.282116 C63.1888027,230.311969 67.9557459,237.285854 71.4523062,244.906916 C75.7589932,256.164771 79.0503638,267.783651 81.2872618,279.625331 C85.4899398,298.763428 89.4600927,316.835909 102.033679,328.411579 C109.838255,335.219764 119.684314,339.25435 130.031437,339.884124 C134.939557,340.314331 139.881007,340.178804 144.758035,339.480222 C163.103093,336.588434 179.94874,327.648071 192.606558,314.085936 C202.207252,303.071497 210.608082,291.070406 217.667609,278.284719 C219.949801,274.503506 222.318113,270.550419 224.729486,266.734831 C237.231762,246.766183 251.473797,227.936189 267.290213,210.463499 C269.279596,208.26352 271.303426,206.072135 273.318645,203.889344 C283.545995,194.026769 292.172337,182.635536 298.887807,170.124826 L298.861971,170.081858 Z"/>
    </g>
    <ellipse cx="1149" cy="1260.727" fill="#FF6E00" fill-rule="nonzero" rx="93.004" ry="93" transform="rotate(90 1149 1260.727)"/>
    <ellipse cx="767.645" cy="2126.004" fill="red" fill-rule="nonzero" rx="93.004" ry="93.5" transform="rotate(90 767.645 2126.004)"/>
    <path fill="#FFF" fill-rule="nonzero" d="M74.62612,1083.25 L-74.62612,1003.53459 L68.6011661,913.25 L69.3701379,934.8676 L71.6244331,998.24114 L74.62612,1083.25 Z M46.8278529,999.13145 L45.3426455,957.378787 L-25.0408164,1001.74562 L48.3033705,1040.91865 L46.8278529,999.13145 Z" transform="rotate(90 0 998.25)"/>
    <polygon fill="#00F" fill-rule="nonzero" points="25.276 374.045 132.23 348.75 156.752 452.396 123.039 460.104 111.795 412.577 24.751 548.75 -4.752 531.162 82.292 394.993 33.244 406.592" transform="rotate(90 76 448.75)"/>
    <g transform="rotate(90 174.08 853.392)">
      <path fill="#857500" d="M40.5887302,151.622943 L36.1057216,145.528334 C35.6552829,144.913895 35.2536747,144.264723 34.9046241,143.586844 C31.9426387,137.847203 33.1765986,129.885519 34.9533584,122.132448 C37.3276137,111.760725 40.9307902,100.127696 49.5181683,92.7891467 L54.001177,98.8837556 C45.4120492,106.226079 41.817621,117.84024 39.436367,128.227056 C37.6671116,135.983647 36.4238978,143.945585 39.3838806,149.679693 C39.7341888,150.358226 40.137049,151.007982 40.5887302,151.622943 Z M165.196029,59.3784832 L169.679038,65.4730921 C167.643265,62.7773039 165.081183,60.5283451 162.150038,58.8642438 C160.098177,57.671495 157.916361,56.7207554 155.647847,56.0308752 C147.066355,53.5523826 137.906654,54.036222 129.630551,57.4051768 C123.205138,60.2801146 117.101588,63.8333964 111.422645,68.0052084 C109.658469,69.1992626 107.821778,70.4511913 105.99432,71.6339452 C96.4816131,77.8478039 86.4427554,83.2062196 75.9943117,87.646974 C74.6813969,88.2027515 73.3517237,88.7552639 72.029302,89.301989 C65.5653532,91.5430401 59.487711,94.7824559 54.0146889,98.9038743 L49.5316802,92.8092655 C55.0047385,88.6879044 61.0823714,85.4484935 67.5462933,83.2073801 C68.8724672,82.6624147 70.2003907,82.1136758 71.5113031,81.5523652 C81.959756,77.1116303 91.9986153,71.7532137 101.511311,65.5393364 C103.345768,64.3414883 105.164709,63.1179883 106.939637,61.9105995 C112.618563,57.7387612 118.722115,54.1854777 125.147542,51.310568 C133.423645,47.9416132 142.583346,47.4577738 151.164838,49.9362663 C153.431945,50.6259629 155.612474,51.5760995 157.663277,52.7678753 C160.596075,54.431879 163.159513,56.6815055 165.196029,59.3784832 Z"/>
      <path fill="#857500" d="M105.320135,208.686364 L98.681456,205.057374 C96.6261992,203.937728 94.7161267,202.56717 92.9949748,200.977084 C84.6523945,193.247366 82.2708155,182.423563 79.96461,171.957633 C79.008749,166.877183 77.6111896,161.888711 75.7879916,157.049541 C74.4981345,154.382647 72.7788936,151.94614 70.6997733,149.838522 C68.127638,147.129832 65.9511306,144.06917 64.235729,140.748613 C60.9115427,133.493776 59.3583859,125.554547 59.7055161,117.59165 C60.6547696,103.111596 64.7096015,89.0217025 71.5927122,76.2855424 C85.9055761,47.0220401 101.764101,38.6878748 112.535182,36.8604115 C112.866597,36.802902 113.202165,36.749561 113.529463,36.7045208 C115.205595,36.5477992 123.213188,36.2128717 130.906503,37.5869039 C151.047907,41.1841741 180.486288,47.9555758 186.04204,50.4563789 L138.192011,45.2297792 C132.259283,43.8100945 126.232451,39.7662603 120.168142,40.3335109 C119.8367,40.3785421 119.505276,40.4318921 119.17386,40.4894016 C108.402789,42.3210244 92.5525524,50.6552077 78.2313909,79.9145325 C71.3482802,92.6506927 67.2934482,106.740586 66.3441948,121.22064 C65.9970646,129.183537 67.5502214,137.122766 70.8744076,144.377603 C72.5896169,147.698278 74.7661429,150.758966 77.338452,153.467512 C79.4176306,155.575081 81.1368787,158.011599 82.4266702,160.678531 C84.2502734,165.517569 85.6478429,170.506077 86.6032887,175.586623 C88.9094942,186.052553 91.2952084,196.872206 99.6336535,204.606074 C101.354752,206.196227 103.264833,207.566791 105.320135,208.686364 Z" transform="rotate(-155 122.85 122.619)"/>
      <path fill="#DFC400" fill-rule="nonzero" d="M180.239222,66.5213041 C181.704908,72.9993982 182.512227,79.610516 182.648736,86.2527769 C182.802123,93.6021754 181.337449,100.894738 178.359636,107.608068 C174.541105,115.07143 169.550315,121.86635 163.579629,127.730922 C162.635696,128.755177 161.700043,129.775268 160.77681,130.803686 C153.736115,138.643336 147.39659,147.09216 141.831905,156.051977 C140.73479,157.817359 139.629394,159.66185 138.561259,161.464704 C134.655146,168.540267 130.000981,175.171102 124.679645,181.241977 C116.684106,189.874304 106.044064,195.564699 94.4572224,197.405213 C91.3793089,197.851024 88.2604803,197.937647 85.1627924,197.663359 C78.1792721,197.188231 71.5504399,194.393889 66.3172488,189.71914 C57.9998725,181.999759 55.6441795,171.17014 53.3630076,160.698595 C52.4195896,155.614956 51.0342529,150.624418 49.2229497,145.78445 C47.9402474,143.117618 46.2280231,140.682373 44.1555188,138.577195 C41.5916429,135.871541 39.4239524,132.812481 37.7177288,129.49214 C34.4126407,122.237175 32.8782753,114.293258 33.2423262,106.321504 C34.2218982,91.8246272 38.3031983,77.7115295 45.2070935,64.9474496 C59.5689544,35.618795 75.4295163,27.2457223 86.1936668,25.3929041 C86.5248715,25.3346132 86.8602162,25.280486 87.1872807,25.234686 C93.246686,24.6536298 99.3598255,25.0755896 105.283474,26.4837769 L150.186542,34.7694132 C156.428037,35.4395006 162.416118,37.6164004 167.641026,41.114795 C175.217332,46.9355587 178.173333,56.7659041 180.239222,66.5213041 Z M168.64706,103.43194 C173.346026,93.1227769 171.723123,81.0732132 169.516472,70.6474678 C167.860449,62.8656314 165.641378,55.1212678 160.549107,51.1824678 C156.439363,48.6309512 151.804976,47.0559976 146.998697,46.577486 L102.099769,38.2918496 C97.1950056,37.1113174 92.1353135,36.7192451 87.1086196,37.130195 L86.4751908,37.2301223 C71.3018785,39.8532132 60.0699014,58.5604314 54.7209466,69.477486 C48.7175472,80.4727928 45.1275083,92.6345754 44.1927793,105.143195 C43.9034679,111.239558 45.0644592,117.317376 47.5793467,122.871959 C48.9151366,125.36457 50.5869673,127.659616 52.5474162,129.691995 C55.3521871,132.613463 57.6437938,135.992313 59.324691,139.684722 C61.3950393,145.139159 62.9772959,150.768513 64.0526371,156.505813 C66.0729854,165.778231 67.9815521,174.534359 74.0260366,180.142777 C77.7779212,183.441347 82.511205,185.396106 87.4853649,185.701231 C89.8448391,185.909667 92.2203364,185.844004 94.5648639,185.50554 C103.383861,184.104468 111.482048,179.772857 117.567026,173.201995 C122.182356,167.865493 126.220877,162.050959 129.614594,155.856286 C130.71171,154.024286 131.850225,152.109013 133.009442,150.260359 C139.019646,140.585538 145.866201,131.462396 153.469608,122.996868 C154.425961,121.930977 155.398875,120.86925 156.367648,119.811686 C161.28423,115.033263 165.431161,109.514204 168.65948,103.452759 L168.64706,103.43194 Z" transform="rotate(-155 107.925 111.4)"/>
    </g>
    <path fill="#FFF" fill-rule="nonzero" d="M4359.94612,1002.6694 L4210.69388,922.953986 L4353.92117,832.669401 L4354.69014,854.287 L4356.94443,917.66054 L4359.94612,1002.6694 Z M4332.14785,918.550851 L4330.66265,876.798188 L4260.27918,921.165025 L4333.62337,960.338054 L4332.14785,918.550851 Z" transform="rotate(90 4285.32 917.67)"/>
    <polygon fill="#00F" fill-rule="nonzero" points="4076.816 207.543 4183.769 182.248 4208.292 285.894 4174.578 293.602 4163.334 246.074 4076.291 382.248 4046.787 364.66 4133.832 228.491 4084.783 240.089" transform="rotate(90 4127.54 282.248)"/>
    <polygon fill="#00F" fill-rule="nonzero" points="3658.518 2000.776 3577.809 2002.602 3576.021 1925.172 3601.423 1924.783 3602.24 1960.284 3685.589 1876.602 3704.111 1893.569 3620.757 1977.256 3657.769 1976.421" transform="rotate(90 3640.066 1939.602)"/>
    <polygon fill="#000" fill-rule="nonzero" points="3755.969 1195.223 3819.853 1157.913 3809.11 1140.223 3745.226 1177.532" transform="rotate(90 3782.54 1167.723)"/>
    <polygon fill="#AD9852" fill-rule="nonzero" points="3433.5 491.61 3324.076 369.4 3214.653 247.191 3375.051 213.396 3535.434 179.61 3484.459 335.614" transform="rotate(90 3375.043 335.61)"/>
    <g transform="rotate(90 1157.921 1724.279)">
      <path fill="#857500" d="M68.3195089,308.684027 L58.9940661,296.104869 C58.0570748,294.836678 57.2216595,293.4968 56.4955731,292.09767 C50.3341251,280.251158 52.9009775,263.818393 56.5969489,247.8162 C61.5358156,226.40916 69.0310534,202.398808 86.8943032,187.25218 L96.2197459,199.831338 C78.3528566,214.985754 70.8758168,238.957164 65.9223917,260.395358 C62.2420306,276.404814 59.6559282,292.838104 65.8132107,304.673196 C66.5419131,306.073675 67.3799327,307.414758 68.3195089,308.684027 Z M327.524503,118.2932 L336.849945,130.872358 C332.615182,125.308301 327.285603,120.666493 321.188308,117.231819 C316.920078,114.770008 312.381518,112.8077 307.662612,111.3838 C289.811607,106.268238 270.757825,107.266873 253.542083,114.220332 C240.176099,120.15415 227.479647,127.488057 215.666451,136.098598 C211.996656,138.563103 208.176016,141.14706 204.374585,143.588242 C184.586489,156.41353 163.703908,167.473199 141.969316,176.638832 C139.238223,177.785946 136.47227,178.926322 133.721402,180.054752 C120.275257,184.680239 107.632697,191.366332 96.2478529,199.872862 L86.9224101,187.293704 C98.3073295,178.787293 110.94987,172.10121 124.395959,167.475594 C127.154633,166.350796 129.916946,165.218209 132.643873,164.059674 C154.378484,154.894081 175.261069,143.83441 195.049142,131.009085 C198.865132,128.536749 202.648849,126.011468 206.341009,123.51944 C218.154169,114.908844 230.850627,107.574934 244.21664,101.641175 C261.432382,94.6877154 280.486164,93.68908 298.337169,98.8046419 C303.053148,100.228163 307.58903,102.189227 311.85506,104.64903 C317.955794,108.083502 323.288192,112.726688 327.524503,118.2932 Z" transform="rotate(155 194.817 202.133)"/>
      <path fill="#857500" d="M97.7879403,356.538651 L84.0086681,349.070754 C79.7427503,346.766728 75.7796677,343.943645 72.2101662,340.666148 C54.9085675,324.733489 50.0083138,302.381361 45.2630769,280.768289 C43.2996525,270.275973 40.4179327,259.975681 36.6510318,249.985774 C33.98265,244.481563 30.4209388,239.455285 26.1098885,235.110136 C20.7770299,229.525344 16.2679026,223.211569 12.7181583,216.358755 C5.84299661,201.384642 2.65124786,184.988548 3.40853746,168.534998 C5.44648722,138.613764 13.9362894,109.484653 28.297348,83.1397286 C58.1725326,22.6145319 91.1652776,5.32407389 113.556595,1.49989207 C114.245559,1.37958073 114.943134,1.26786306 115.623486,1.17333273 C119.107315,0.841986852 135.749172,0.113946781 151.730229,2.91816999 C193.569266,10.2597368 254.713762,24.1174572 266.247727,29.259304 L166.835548,18.6761648 C154.513322,15.7696929 142.007382,7.44194038 129.402758,8.64122935 C128.713794,8.73575969 128.024831,8.84747736 127.335867,8.9677887 C104.94455,12.8005642 71.969029,30.0910222 42.0766202,90.6076253 C27.7155616,116.952549 19.2257595,146.081661 17.1878097,176.002894 C16.4305201,192.456445 19.6222689,208.852539 26.4974305,223.826651 C30.0467745,230.67971 34.5559405,236.993539 39.8891607,242.578033 C44.2003324,246.92308 47.7620587,251.94938 50.430304,257.45367 C54.1980475,267.443302 57.0797882,277.743669 59.0423492,288.236185 C63.7875861,309.849258 68.6964518,332.192792 85.9894385,348.134044 C89.558828,351.411679 93.5219284,354.234775 97.7879403,356.538651 Z"/>
      <path fill="#DFC400" fill-rule="nonzero" d="M322.975697,93.8989997 C326.024581,107.269664 327.703944,120.914886 327.987907,134.624388 C328.306979,149.793408 325.260201,164.84512 319.065829,178.701306 C311.122616,194.105545 300.740898,208.130131 288.320827,220.234498 C286.357281,222.34854 284.410959,224.453989 282.490473,226.576625 C267.844595,242.757515 254.657273,260.195729 243.081754,278.688621 C240.799562,282.332336 238.500146,286.139331 236.278239,289.860388 C228.152839,304.464217 218.471362,318.150135 207.402051,330.680307 C190.769931,348.497268 168.63678,360.242135 144.534121,364.040922 C138.131522,364.961068 131.643813,365.139856 125.20008,364.573729 C110.673135,363.593074 96.884004,357.825605 85.9980505,348.177013 C68.6964518,332.244354 63.7961981,309.892226 59.0509612,288.279154 C57.0884867,277.786618 54.2067439,267.486243 50.4389161,257.496639 C47.7706708,251.992348 44.2089445,246.966048 39.8977728,242.621001 C34.5644621,237.036581 30.0552864,230.722739 26.5060426,223.86962 C19.6308809,208.895507 16.4391322,192.499413 17.1964218,176.045863 C19.2341031,146.124582 27.7239216,116.995414 42.0852323,90.6505936 C71.9604169,30.1168032 104.953162,12.8349389 127.344479,9.01075704 C128.033443,8.8904457 128.731019,8.77872803 129.41137,8.68419769 C142.015994,7.48490871 154.732394,8.35582589 167.05462,11.2622978 L260.460861,28.3636951 C273.444263,29.7467428 285.900521,34.239823 296.769244,41.4604437 C312.529286,53.4743901 318.678287,73.7640379 322.975697,93.8989997 Z M298.861971,170.081858 C308.636642,148.803938 305.26072,123.933866 300.6705,102.415324 C297.225682,86.3537601 292.609626,70.3695395 282.01681,62.2399305 C273.467824,56.9736483 263.827488,53.7229737 253.829587,52.7353348 L160.431957,35.6339374 C150.22919,33.1973413 139.704144,32.3881115 129.247741,33.2363043 L127.930098,33.4425523 C96.3669529,38.8565626 73.0024744,77.4679084 61.875712,100.000503 C49.3875904,122.694609 41.9196812,147.7963 39.9752812,173.613855 C39.3734629,186.196633 41.7885279,198.741134 47.0199341,210.205689 C49.7986109,215.350392 53.2763114,220.087323 57.3543883,224.282116 C63.1888027,230.311969 67.9557459,237.285854 71.4523062,244.906916 C75.7589932,256.164771 79.0503638,267.783651 81.2872618,279.625331 C85.4899398,298.763428 89.4600927,316.835909 102.033679,328.411579 C109.838255,335.219764 119.684314,339.25435 130.031437,339.884124 C134.939557,340.314331 139.881007,340.178804 144.758035,339.480222 C163.103093,336.588434 179.94874,327.648071 192.606558,314.085936 C202.207252,303.071497 210.608082,291.070406 217.667609,278.284719 C219.949801,274.503506 222.318113,270.550419 224.729486,266.734831 C237.231762,246.766183 251.473797,227.936189 267.290213,210.463499 C269.279596,208.26352 271.303426,206.072135 273.318645,203.889344 C283.545995,194.026769 292.172337,182.635536 298.887807,170.124826 L298.861971,170.081858 Z"/>
    </g>
    <g transform="rotate(90 1103.73 3121.555)">
      <path fill="#850000" d="M188.990876,253.405525 L147.232399,230.602059 C146.350161,230.121777 145.478951,229.623512 144.618771,229.107263 C129.427687,219.871719 117.642155,205.933468 111.048819,189.405501 C106.149539,177.267612 103.673888,164.290479 103.762366,151.210582 C103.814639,149.866131 103.660385,148.521042 103.305006,147.222412 C103.015661,146.248343 102.578133,145.324442 102.007873,144.483336 C101.195441,143.27368 100.106801,142.27529 98.8326635,141.571355 L140.595286,164.374827 C141.869423,165.078762 142.958063,166.077153 143.770495,167.286808 C144.340813,168.127881 144.778345,169.051792 145.067629,170.025884 C145.423591,171.324403 145.577855,172.669583 145.524988,174.014055 C145.436403,187.093961 147.912057,200.071115 152.811441,212.208973 C159.405039,228.736783 171.190508,242.674958 186.381393,251.910735 C187.252624,252.424231 188.122451,252.922494 188.990876,253.405525 Z" transform="rotate(27.001 143.912 197.488)"/>
      <path fill="#850000" d="M94.1983415,205.976685 L52.4357192,183.173212 C39.9254964,175.865671 32.495978,162.198916 33.1647604,147.723878 C33.2447997,137.393244 34.709894,127.124076 37.5207152,117.192033 C40.2875521,107.387166 44.2714046,97.9720314 49.3790465,89.1669531 C59.2827664,71.8867097 73.4071324,57.4190019 90.4301387,47.1179717 C101.532949,40.4317273 113.857881,36.0280383 126.688027,34.1630549 C136.065964,32.8317976 145.604837,33.0893362 154.906365,34.9249175 C162.512749,36.4578477 169.848746,39.1284791 176.667891,42.847087 L218.430513,65.6505596 C211.611265,61.9321823 204.275303,59.2615638 196.668988,57.7283901 C187.367459,55.8928088 177.828587,55.6352702 168.450649,56.9665275 C155.620503,58.8315109 143.295571,63.2351999 132.192761,69.9214443 C115.169868,80.2226179 101.045534,94.6902928 91.1416687,111.970426 C86.0353548,120.776172 82.0515747,130.191136 79.2833375,139.995506 C76.4734004,149.927739 75.0083232,160.196787 74.9273827,170.527351 C74.25765,185.002606 81.6874201,198.669824 94.1983415,205.976685 Z" transform="rotate(27.001 125.777 119.651)"/>
      <path fill="#850000" d="M306.245229,159.880377 L333.102989,199.15856 C328.700258,192.817139 322.384332,188.062123 315.085516,185.593904 L288.227756,146.315721 C295.526848,148.783413 301.842924,153.538542 306.245229,159.880377 Z M230.834143,213.073773 C226.108143,206.162226 220.215438,194.78435 213.156027,178.940147 C214.207634,179.312328 215.310327,179.518897 216.424926,179.552514 C217.506144,179.579615 218.585984,179.458389 219.634501,179.192197 C221.847843,178.636604 223.890462,177.541826 225.581404,176.00485 C226.716957,174.971291 227.657038,173.740339 228.356336,172.371322 C239.708652,150.418207 266.461199,138.78822 288.220445,146.302652 L315.078205,185.580836 C293.324531,178.064587 266.568223,189.701981 255.214096,211.649506 C254.51449,213.018327 253.574449,214.249227 252.439164,215.283033 C250.748123,216.819869 248.705542,217.914626 246.492261,218.47038 C245.442481,218.736375 244.361363,218.85697 243.278995,218.82881 C242.16576,218.795221 241.064374,218.5893 240.013787,218.21833 C235.136416,216.605563 232.076535,214.890711 230.834143,213.073773 Z"/>
      <path fill="#DF0000" fill-rule="nonzero" d="M299.765438,131.970757 C322.937725,128.883466 341.39228,146.520671 341.248352,171.326272 C341.168027,181.663995 339.701546,191.940167 336.888281,201.87888 C334.118609,211.680106 330.134882,221.092147 325.029938,229.895653 C315.129233,247.180375 301.004362,261.651463 283.978857,271.952941 C272.875413,278.641007 260.548754,283.044808 247.716824,284.907852 C238.338877,286.238952 228.800031,285.981414 219.498485,284.14599 C210.905645,282.413533 202.665702,279.229079 195.131622,274.729036 C179.941134,265.492793 168.155792,251.554768 161.56167,235.027274 C156.662788,222.887818 154.187161,209.909407 154.275211,196.828202 C154.328702,195.483971 154.17585,194.138908 153.821997,192.840037 C153.53185,191.866274 153.094378,190.942493 152.524863,190.100961 C151.415118,188.447032 149.788794,187.208522 147.902091,186.580535 C146.590581,186.164999 145.203254,186.050913 143.843348,186.246767 C142.740503,186.39938 141.66756,186.718596 140.661042,187.193549 C139.685511,187.661065 138.777316,188.257726 137.960739,188.967582 C136.244069,190.470336 134.921717,192.372279 134.109098,194.50741 C133.567069,195.946884 133.288347,197.47309 133.286266,199.013017 C133.138066,223.727231 114.581533,246.23524 91.7824527,249.414429 C68.6101653,252.50172 50.151459,234.860355 50.2995383,210.058914 C50.3813788,199.72842 51.8464389,189.459491 54.6554931,179.527068 C57.423113,169.722479 61.4069249,160.30744 66.5138244,151.501988 C76.4158068,134.221807 90.5388299,119.754012 107.560771,109.453001 C118.663582,102.766757 130.988513,98.3630676 143.818659,96.4980842 C153.19795,95.166281 162.738276,95.4238229 172.041143,97.2599526 C180.635358,98.9899671 188.876838,102.173072 196.412146,106.672759 C211.602634,115.909001 223.387976,129.847026 229.982098,146.37452 C234.879753,158.512754 237.353985,171.489834 237.264406,184.569433 C237.210783,185.913669 237.363638,187.258752 237.71762,188.557598 C238.008438,189.531104 238.445863,190.454786 239.014754,191.296674 C240.123336,192.951702 241.750079,194.190532 243.637526,194.8171 C244.946029,195.23368 246.331215,195.346398 247.687973,195.146702 C248.794124,194.999439 249.870395,194.681471 250.878575,194.204086 C251.85422,193.737314 252.761317,193.139057 253.574727,192.425893 C255.29445,190.925885 256.617372,189.023121 257.426367,186.886065 C257.968735,185.449572 258.247489,183.926026 258.249212,182.388766 C258.409825,157.657955 276.966357,135.149946 299.765438,131.970757 Z" transform="rotate(27.001 195.774 190.703)"/>
    </g>
    <ellipse cx="4457" cy="1479.593" fill="red" fill-rule="nonzero" rx="93.004" ry="93" transform="rotate(90 4457 1479.593)"/>
    <g transform="rotate(90 -411.61 1038.601)">
      <path fill="#857500" d="M68.3195089,308.684027 L58.9940661,296.104869 C58.0570748,294.836678 57.2216595,293.4968 56.4955731,292.09767 C50.3341251,280.251158 52.9009775,263.818393 56.5969489,247.8162 C61.5358156,226.40916 69.0310534,202.398808 86.8943032,187.25218 L96.2197459,199.831338 C78.3528566,214.985754 70.8758168,238.957164 65.9223917,260.395358 C62.2420306,276.404814 59.6559282,292.838104 65.8132107,304.673196 C66.5419131,306.073675 67.3799327,307.414758 68.3195089,308.684027 Z M327.524503,118.2932 L336.849945,130.872358 C332.615182,125.308301 327.285603,120.666493 321.188308,117.231819 C316.920078,114.770008 312.381518,112.8077 307.662612,111.3838 C289.811607,106.268238 270.757825,107.266873 253.542083,114.220332 C240.176099,120.15415 227.479647,127.488057 215.666451,136.098598 C211.996656,138.563103 208.176016,141.14706 204.374585,143.588242 C184.586489,156.41353 163.703908,167.473199 141.969316,176.638832 C139.238223,177.785946 136.47227,178.926322 133.721402,180.054752 C120.275257,184.680239 107.632697,191.366332 96.2478529,199.872862 L86.9224101,187.293704 C98.3073295,178.787293 110.94987,172.10121 124.395959,167.475594 C127.154633,166.350796 129.916946,165.218209 132.643873,164.059674 C154.378484,154.894081 175.261069,143.83441 195.049142,131.009085 C198.865132,128.536749 202.648849,126.011468 206.341009,123.51944 C218.154169,114.908844 230.850627,107.574934 244.21664,101.641175 C261.432382,94.6877154 280.486164,93.68908 298.337169,98.8046419 C303.053148,100.228163 307.58903,102.189227 311.85506,104.64903 C317.955794,108.083502 323.288192,112.726688 327.524503,118.2932 Z" transform="rotate(155 194.817 202.133)"/>
      <path fill="#857500" d="M97.7879403,356.538651 L84.0086681,349.070754 C79.7427503,346.766728 75.7796677,343.943645 72.2101662,340.666148 C54.9085675,324.733489 50.0083138,302.381361 45.2630769,280.768289 C43.2996525,270.275973 40.4179327,259.975681 36.6510318,249.985774 C33.98265,244.481563 30.4209388,239.455285 26.1098885,235.110136 C20.7770299,229.525344 16.2679026,223.211569 12.7181583,216.358755 C5.84299661,201.384642 2.65124786,184.988548 3.40853746,168.534998 C5.44648722,138.613764 13.9362894,109.484653 28.297348,83.1397286 C58.1725326,22.6145319 91.1652776,5.32407389 113.556595,1.49989207 C114.245559,1.37958073 114.943134,1.26786306 115.623486,1.17333273 C119.107315,0.841986852 135.749172,0.113946781 151.730229,2.91816999 C193.569266,10.2597368 254.713762,24.1174572 266.247727,29.259304 L166.835548,18.6761648 C154.513322,15.7696929 142.007382,7.44194038 129.402758,8.64122935 C128.713794,8.73575969 128.024831,8.84747736 127.335867,8.9677887 C104.94455,12.8005642 71.969029,30.0910222 42.0766202,90.6076253 C27.7155616,116.952549 19.2257595,146.081661 17.1878097,176.002894 C16.4305201,192.456445 19.6222689,208.852539 26.4974305,223.826651 C30.0467745,230.67971 34.5559405,236.993539 39.8891607,242.578033 C44.2003324,246.92308 47.7620587,251.94938 50.430304,257.45367 C54.1980475,267.443302 57.0797882,277.743669 59.0423492,288.236185 C63.7875861,309.849258 68.6964518,332.192792 85.9894385,348.134044 C89.558828,351.411679 93.5219284,354.234775 97.7879403,356.538651 Z"/>
      <path fill="#DFC400" fill-rule="nonzero" d="M322.975697,93.8989997 C326.024581,107.269664 327.703944,120.914886 327.987907,134.624388 C328.306979,149.793408 325.260201,164.84512 319.065829,178.701306 C311.122616,194.105545 300.740898,208.130131 288.320827,220.234498 C286.357281,222.34854 284.410959,224.453989 282.490473,226.576625 C267.844595,242.757515 254.657273,260.195729 243.081754,278.688621 C240.799562,282.332336 238.500146,286.139331 236.278239,289.860388 C228.152839,304.464217 218.471362,318.150135 207.402051,330.680307 C190.769931,348.497268 168.63678,360.242135 144.534121,364.040922 C138.131522,364.961068 131.643813,365.139856 125.20008,364.573729 C110.673135,363.593074 96.884004,357.825605 85.9980505,348.177013 C68.6964518,332.244354 63.7961981,309.892226 59.0509612,288.279154 C57.0884867,277.786618 54.2067439,267.486243 50.4389161,257.496639 C47.7706708,251.992348 44.2089445,246.966048 39.8977728,242.621001 C34.5644621,237.036581 30.0552864,230.722739 26.5060426,223.86962 C19.6308809,208.895507 16.4391322,192.499413 17.1964218,176.045863 C19.2341031,146.124582 27.7239216,116.995414 42.0852323,90.6505936 C71.9604169,30.1168032 104.953162,12.8349389 127.344479,9.01075704 C128.033443,8.8904457 128.731019,8.77872803 129.41137,8.68419769 C142.015994,7.48490871 154.732394,8.35582589 167.05462,11.2622978 L260.460861,28.3636951 C273.444263,29.7467428 285.900521,34.239823 296.769244,41.4604437 C312.529286,53.4743901 318.678287,73.7640379 322.975697,93.8989997 Z M298.861971,170.081858 C308.636642,148.803938 305.26072,123.933866 300.6705,102.415324 C297.225682,86.3537601 292.609626,70.3695395 282.01681,62.2399305 C273.467824,56.9736483 263.827488,53.7229737 253.829587,52.7353348 L160.431957,35.6339374 C150.22919,33.1973413 139.704144,32.3881115 129.247741,33.2363043 L127.930098,33.4425523 C96.3669529,38.8565626 73.0024744,77.4679084 61.875712,100.000503 C49.3875904,122.694609 41.9196812,147.7963 39.9752812,173.613855 C39.3734629,186.196633 41.7885279,198.741134 47.0199341,210.205689 C49.7986109,215.350392 53.2763114,220.087323 57.3543883,224.282116 C63.1888027,230.311969 67.9557459,237.285854 71.4523062,244.906916 C75.7589932,256.164771 79.0503638,267.783651 81.2872618,279.625331 C85.4899398,298.763428 89.4600927,316.835909 102.033679,328.411579 C109.838255,335.219764 119.684314,339.25435 130.031437,339.884124 C134.939557,340.314331 139.881007,340.178804 144.758035,339.480222 C163.103093,336.588434 179.94874,327.648071 192.606558,314.085936 C202.207252,303.071497 210.608082,291.070406 217.667609,278.284719 C219.949801,274.503506 222.318113,270.550419 224.729486,266.734831 C237.231762,246.766183 251.473797,227.936189 267.290213,210.463499 C269.279596,208.26352 271.303426,206.072135 273.318645,203.889344 C283.545995,194.026769 292.172337,182.635536 298.887807,170.124826 L298.861971,170.081858 Z"/>
    </g>
    <polygon fill="#AD9852" fill-rule="nonzero" points="500.948 246.39 391.524 124.181 282.101 1.972 442.499 -31.823 602.882 -65.61 551.907 90.394" transform="rotate(90 442.491 90.39)"/>
    <g transform="translate(1670.862 2003.647)">
      <path fill="#850000" d="M188.990876,253.405525 L147.232399,230.602059 C146.350161,230.121777 145.478951,229.623512 144.618771,229.107263 C129.427687,219.871719 117.642155,205.933468 111.048819,189.405501 C106.149539,177.267612 103.673888,164.290479 103.762366,151.210582 C103.814639,149.866131 103.660385,148.521042 103.305006,147.222412 C103.015661,146.248343 102.578133,145.324442 102.007873,144.483336 C101.195441,143.27368 100.106801,142.27529 98.8326635,141.571355 L140.595286,164.374827 C141.869423,165.078762 142.958063,166.077153 143.770495,167.286808 C144.340813,168.127881 144.778345,169.051792 145.067629,170.025884 C145.423591,171.324403 145.577855,172.669583 145.524988,174.014055 C145.436403,187.093961 147.912057,200.071115 152.811441,212.208973 C159.405039,228.736783 171.190508,242.674958 186.381393,251.910735 C187.252624,252.424231 188.122451,252.922494 188.990876,253.405525 Z" transform="rotate(27.001 143.912 197.488)"/>
      <path fill="#850000" d="M94.1983415,205.976685 L52.4357192,183.173212 C39.9254964,175.865671 32.495978,162.198916 33.1647604,147.723878 C33.2447997,137.393244 34.709894,127.124076 37.5207152,117.192033 C40.2875521,107.387166 44.2714046,97.9720314 49.3790465,89.1669531 C59.2827664,71.8867097 73.4071324,57.4190019 90.4301387,47.1179717 C101.532949,40.4317273 113.857881,36.0280383 126.688027,34.1630549 C136.065964,32.8317976 145.604837,33.0893362 154.906365,34.9249175 C162.512749,36.4578477 169.848746,39.1284791 176.667891,42.847087 L218.430513,65.6505596 C211.611265,61.9321823 204.275303,59.2615638 196.668988,57.7283901 C187.367459,55.8928088 177.828587,55.6352702 168.450649,56.9665275 C155.620503,58.8315109 143.295571,63.2351999 132.192761,69.9214443 C115.169868,80.2226179 101.045534,94.6902928 91.1416687,111.970426 C86.0353548,120.776172 82.0515747,130.191136 79.2833375,139.995506 C76.4734004,149.927739 75.0083232,160.196787 74.9273827,170.527351 C74.25765,185.002606 81.6874201,198.669824 94.1983415,205.976685 Z" transform="rotate(27.001 125.777 119.651)"/>
      <path fill="#850000" d="M306.245229,159.880377 L333.102989,199.15856 C328.700258,192.817139 322.384332,188.062123 315.085516,185.593904 L288.227756,146.315721 C295.526848,148.783413 301.842924,153.538542 306.245229,159.880377 Z M230.834143,213.073773 C226.108143,206.162226 220.215438,194.78435 213.156027,178.940147 C214.207634,179.312328 215.310327,179.518897 216.424926,179.552514 C217.506144,179.579615 218.585984,179.458389 219.634501,179.192197 C221.847843,178.636604 223.890462,177.541826 225.581404,176.00485 C226.716957,174.971291 227.657038,173.740339 228.356336,172.371322 C239.708652,150.418207 266.461199,138.78822 288.220445,146.302652 L315.078205,185.580836 C293.324531,178.064587 266.568223,189.701981 255.214096,211.649506 C254.51449,213.018327 253.574449,214.249227 252.439164,215.283033 C250.748123,216.819869 248.705542,217.914626 246.492261,218.47038 C245.442481,218.736375 244.361363,218.85697 243.278995,218.82881 C242.16576,218.795221 241.064374,218.5893 240.013787,218.21833 C235.136416,216.605563 232.076535,214.890711 230.834143,213.073773 Z"/>
      <path fill="#DF0000" fill-rule="nonzero" d="M299.765438,131.970757 C322.937725,128.883466 341.39228,146.520671 341.248352,171.326272 C341.168027,181.663995 339.701546,191.940167 336.888281,201.87888 C334.118609,211.680106 330.134882,221.092147 325.029938,229.895653 C315.129233,247.180375 301.004362,261.651463 283.978857,271.952941 C272.875413,278.641007 260.548754,283.044808 247.716824,284.907852 C238.338877,286.238952 228.800031,285.981414 219.498485,284.14599 C210.905645,282.413533 202.665702,279.229079 195.131622,274.729036 C179.941134,265.492793 168.155792,251.554768 161.56167,235.027274 C156.662788,222.887818 154.187161,209.909407 154.275211,196.828202 C154.328702,195.483971 154.17585,194.138908 153.821997,192.840037 C153.53185,191.866274 153.094378,190.942493 152.524863,190.100961 C151.415118,188.447032 149.788794,187.208522 147.902091,186.580535 C146.590581,186.164999 145.203254,186.050913 143.843348,186.246767 C142.740503,186.39938 141.66756,186.718596 140.661042,187.193549 C139.685511,187.661065 138.777316,188.257726 137.960739,188.967582 C136.244069,190.470336 134.921717,192.372279 134.109098,194.50741 C133.567069,195.946884 133.288347,197.47309 133.286266,199.013017 C133.138066,223.727231 114.581533,246.23524 91.7824527,249.414429 C68.6101653,252.50172 50.151459,234.860355 50.2995383,210.058914 C50.3813788,199.72842 51.8464389,189.459491 54.6554931,179.527068 C57.423113,169.722479 61.4069249,160.30744 66.5138244,151.501988 C76.4158068,134.221807 90.5388299,119.754012 107.560771,109.453001 C118.663582,102.766757 130.988513,98.3630676 143.818659,96.4980842 C153.19795,95.166281 162.738276,95.4238229 172.041143,97.2599526 C180.635358,98.9899671 188.876838,102.173072 196.412146,106.672759 C211.602634,115.909001 223.387976,129.847026 229.982098,146.37452 C234.879753,158.512754 237.353985,171.489834 237.264406,184.569433 C237.210783,185.913669 237.363638,187.258752 237.71762,188.557598 C238.008438,189.531104 238.445863,190.454786 239.014754,191.296674 C240.123336,192.951702 241.750079,194.190532 243.637526,194.8171 C244.946029,195.23368 246.331215,195.346398 247.687973,195.146702 C248.794124,194.999439 249.870395,194.681471 250.878575,194.204086 C251.85422,193.737314 252.761317,193.139057 253.574727,192.425893 C255.29445,190.925885 256.617372,189.023121 257.426367,186.886065 C257.968735,185.449572 258.247489,183.926026 258.249212,182.388766 C258.409825,157.657955 276.966357,135.149946 299.765438,131.970757 Z" transform="rotate(27.001 195.774 190.703)"/>
    </g>
    <path fill="#FFF" fill-rule="nonzero" d="M2902.71763,22.5410424 L3049.64553,-62.5 L3049.74223,107.5 L3031.04473,96.698828 L2976.23168,65.0344192 L2902.71763,22.5410424 Z M2988.68498,43.4149423 L3024.7977,64.2765411 L3024.75018,-19.2633265 L2952.5482,22.526774 L2988.68498,43.4149423 Z"/>
  </g>
</svg>
