<svg xmlns="http://www.w3.org/2000/svg" width="120" height="120" viewBox="0 0 120 120">
  <path fill="#BF77A5" fill-rule="evenodd" d="M99.1583153,61.717091 C98.8037873,82.0012311 81.7538515,98.404326 60.6698013,98.7450285 L99.1583153,61.717091 Z M37.9775367,92.2257611 L99.1637468,33.3607716 L99.1637468,47.6786687 L47.9650562,96.9348615 C44.3832365,95.8219002 41.026083,94.2255364 37.9775367,92.2257611 Z M24.4491805,76.8902006 L82.1414623,21.3873024 L96.9906577,21.4189037 L30.2791426,85.5993453 C27.9436026,82.9828492 25.9749349,80.055277 24.4491805,76.8902006 Z M20.8520539,52.0006521 L52.7388407,21.3236058 L67.5880361,21.355701 L21.1705366,66.011917 C20.9498207,64.3953085 20.8362532,62.7466049 20.8362532,61.072719 L20.8520539,52.0006521 Z M38.1849208,21.2924982 L20.8767424,37.9439602 L20.9063687,21.2549715 L38.1849208,21.2924982 Z"/>
</svg>
