<svg xmlns="http://www.w3.org/2000/svg" width="120" height="120" viewBox="0 0 120 120">
  <g fill="#243242" fill-rule="evenodd" transform="translate(21 28)">
    <path d="M0.713263072,41.5184488 C0.728144226,35.418664 1.58629074,29.8734502 3.28770262,24.8833034 C5.00399565,19.8599221 7.48418789,15.5364509 10.7282793,11.912394 C13.9773312,8.28883317 17.9654803,5.50208917 22.6927267,3.55265807 C27.4199731,1.60322697 32.8218318,0.62851142 38.9032632,0.62851142 C44.9797342,0.62851142 50.3815929,1.60322697 55.1137997,3.55265807 C59.8410461,5.50208917 63.8291952,8.28883317 67.0732867,11.912394 C70.3223385,15.5364509 72.7876496,19.8599221 74.4791407,24.8833034 C76.1557506,29.8734502 76.999016,35.418664 77.0089368,41.5184488 L56.27949,41.5184488 L56.27949,30.2439909 C56.27949,25.445315 54.6326424,21.7964562 51.3339867,19.2974145 C48.035331,16.7983728 43.8884496,15.5488519 38.9032632,15.5488519 C33.9131164,15.5488519 29.7711954,16.8231747 26.4725397,19.3723163 C23.173884,21.9214578 21.522076,25.5455147 21.522076,30.2439909 L21.522076,41.5184488 L0.713263072,41.5184488 Z"/>
    <path d="M0.713263072,93.2899816 C0.728144226,87.1901968 1.58629074,81.644983 3.28770262,76.6548362 C5.00399565,71.6314549 7.48418789,67.3079838 10.7282793,63.6839269 C13.9773312,60.060366 17.9654803,57.273622 22.6927267,55.3241909 C27.4199731,53.3747598 32.8218318,52.4000442 38.9032632,52.4000442 C44.9797342,52.4000442 50.3815929,53.3747598 55.1137997,55.3241909 C59.8410461,57.273622 63.8291952,60.060366 67.0732867,63.6839269 C70.3223385,67.3079838 72.7876496,71.6314549 74.4791407,76.6548362 C76.1557506,81.644983 76.999016,87.1901968 77.0089368,93.2899816 L56.27949,93.2899816 L56.27949,82.0155238 C56.27949,77.2168478 54.6326424,73.567989 51.3339867,71.0689473 C48.035331,68.5699056 43.8884496,67.3203847 38.9032632,67.3203847 C33.9131164,67.3203847 29.7711954,68.5947075 26.4725397,71.1438491 C23.173884,73.6929907 21.522076,77.3170476 21.522076,82.0155238 L21.522076,93.2899816 L0.713263072,93.2899816 Z"/>
  </g>
</svg>
