<svg xmlns="http://www.w3.org/2000/svg" width="120" height="174" viewBox="0 0 120 174">
  <g fill="#E53958" fill-rule="evenodd" transform="translate(23 1)">
    <path d="M58.5987245,0.948240037 C66.6062731,0.948240037 73.107353,7.20229279 73.107353,14.9062659 C73.107353,22.609743 66.6062731,28.8642918 58.5987245,28.8642918 C50.5911758,28.8642918 44.0900959,22.609743 44.0900959,14.9062659 C44.0900959,7.20229279 50.5911758,0.948240037 58.5987245,0.948240037 Z"/>
    <path d="M58.5987245,48.5351925 C66.6062731,48.5351925 73.107353,54.7897413 73.107353,62.4937144 C73.107353,70.1971915 66.6062731,76.4517403 58.5987245,76.4517403 C50.5911758,76.4517403 44.0900959,70.1971915 44.0900959,62.4937144 C44.0900959,54.7897413 50.5911758,48.5351925 58.5987245,48.5351925 Z"/>
    <path d="M58.5987245,96.122641 C66.6062731,96.122641 73.107353,102.37719 73.107353,110.080667 C73.107353,117.78464 66.6062731,124.038842 58.5987245,124.038842 C50.5911758,124.038842 44.0900959,117.78464 44.0900959,110.080667 C44.0900959,102.37719 50.5911758,96.122641 58.5987245,96.122641 Z"/>
    <path d="M58.5987245,143.71004 C66.6062731,143.71004 73.107353,149.96444 73.107353,157.668066 C73.107353,165.371741 66.6062731,171.626141 58.5987245,171.626141 C50.5911758,171.626141 44.0900959,165.371741 44.0900959,157.668066 C44.0900959,149.96444 50.5911758,143.71004 58.5987245,143.71004 Z"/>
    <path d="M15.1378198,0.948240037 C23.1453685,0.948240037 29.6464484,7.20229279 29.6464484,14.9062659 C29.6464484,22.609743 23.1453685,28.8642918 15.1378198,28.8642918 C7.13027113,28.8642918 0.629191231,22.609743 0.629191231,14.9062659 C0.629191231,7.20229279 7.13027113,0.948240037 15.1378198,0.948240037 Z"/>
    <path d="M15.1378198,48.5351925 C23.1453685,48.5351925 29.6464484,54.7897413 29.6464484,62.4937144 C29.6464484,70.1971915 23.1453685,76.4517403 15.1378198,76.4517403 C7.13027113,76.4517403 0.629191231,70.1971915 0.629191231,62.4937144 C0.629191231,54.7897413 7.13027113,48.5351925 15.1378198,48.5351925 Z"/>
    <path d="M15.1378198,96.122641 C23.1453685,96.122641 29.6464484,102.37719 29.6464484,110.080667 C29.6464484,117.78464 23.1453685,124.038842 15.1378198,124.038842 C7.13027113,124.038842 0.629191231,117.78464 0.629191231,110.080667 C0.629191231,102.37719 7.13027113,96.122641 15.1378198,96.122641 Z"/>
    <path d="M15.1378198,143.71004 C23.1453685,143.71004 29.6464484,149.96444 29.6464484,157.668066 C29.6464484,165.371741 23.1453685,171.626141 15.1378198,171.626141 C7.13027113,171.626141 0.629191231,165.371741 0.629191231,157.668066 C0.629191231,149.96444 7.13027113,143.71004 15.1378198,143.71004 Z"/>
  </g>
</svg>
