<svg xmlns="http://www.w3.org/2000/svg" width="4457" height="2497" viewBox="0 0 4457 2497">
  <g fill="none" fill-rule="evenodd">
    <ellipse cx="2030.004" cy="-37" fill="red" fill-rule="nonzero" rx="93.004" ry="93"/>
    <ellipse cx="3271.054" cy="1174.223" fill="#FF6E00" fill-rule="nonzero" rx="93.004" ry="93.5"/>
    <path fill="#FFF" fill-rule="nonzero" d="M2697.70036 1596.50391L2548.44812 1516.78849 2691.67541 1426.50391 2692.44438 1448.12151 2694.69868 1511.49505 2697.70036 1596.50391zM2669.9021 1512.38536L2668.41689 1470.6327 2598.03343 1514.99953 2671.37761 1554.17256 2669.9021 1512.38536zM2957.0262 2219.04943L3103.9541 2134.00839 3104.05079 2304.00839 3085.35329 2293.20722 3030.54024 2261.54281 2957.0262 2219.04943zM3042.99354 2239.92333L3079.10626 2260.78493 3079.05874 2177.24506 3006.85676 2219.03516 3042.99354 2239.92333zM2982.01659 15.0410424L3128.94449-70 3129.04118 100 3110.34368 89.198828 3055.53063 57.5344192 2982.01659 15.0410424zM3067.98393 35.9149423L3104.09665 56.7765411 3104.04913-26.7633265 3031.84715 15.026774 3067.98393 35.9149423zM1040.67928 1826.10167L1187.60718 1741.06063 1187.70388 1911.06063 1169.00638 1900.25946 1114.19333 1868.59505 1040.67928 1826.10167zM1126.64662 1846.97557L1162.75934 1867.83717 1162.71183 1784.2973 1090.50985 1826.0874 1126.64662 1846.97557z"/>
    <path fill="#FFF" fill-rule="nonzero" d="M74.62612,1083.25 L-74.62612,1003.53459 L68.6011661,913.25 L69.3701379,934.8676 L71.6244331,998.24114 L74.62612,1083.25 Z M46.8278529,999.13145 L45.3426455,957.378787 L-25.0408164,1001.74562 L48.3033705,1040.91865 L46.8278529,999.13145 Z" transform="rotate(90 0 998.25)"/>
    <path fill="#FFF" fill-rule="nonzero" d="M4359.94612,1002.6694 L4210.69388,922.953986 L4353.92117,832.669401 L4354.69014,854.287 L4356.94443,917.66054 L4359.94612,1002.6694 Z M4332.14785,918.550851 L4330.66265,876.798188 L4260.27918,921.165025 L4333.62337,960.338054 L4332.14785,918.550851 Z" transform="rotate(90 4285.32 917.67)"/>
    <polygon fill="#00F" fill-rule="nonzero" points="4076.816 207.543 4183.769 182.248 4208.292 285.894 4174.578 293.602 4163.334 246.074 4076.291 382.248 4046.787 364.66 4133.832 228.491 4084.783 240.089" transform="rotate(90 4127.54 282.248)"/>
    <polygon fill="#00F" fill-rule="nonzero" points="3549.496 1802.235 3468.786 1804.061 3466.998 1726.631 3492.401 1726.242 3493.217 1761.743 3576.567 1678.061 3595.088 1695.028 3511.734 1778.714 3548.746 1777.88" transform="rotate(90 3531.043 1741.06)"/>
    <polygon fill="#000" fill-rule="nonzero" points="3784.742 1157.91 3848.626 1120.6 3837.884 1102.91 3774 1140.219" transform="rotate(90 3811.313 1130.41)"/>
    <polygon fill="#AD9852" fill-rule="nonzero" points="3433.5 491.61 3324.076 369.4 3214.653 247.191 3375.051 213.396 3535.434 179.61 3484.459 335.614" transform="rotate(90 3375.043 335.61)"/>
    <g transform="rotate(90 1157.921 1724.279)">
      <path fill="#857500" d="M68.3195089,308.684027 L58.9940661,296.104869 C58.0570748,294.836678 57.2216595,293.4968 56.4955731,292.09767 C50.3341251,280.251158 52.9009775,263.818393 56.5969489,247.8162 C61.5358156,226.40916 69.0310534,202.398808 86.8943032,187.25218 L96.2197459,199.831338 C78.3528566,214.985754 70.8758168,238.957164 65.9223917,260.395358 C62.2420306,276.404814 59.6559282,292.838104 65.8132107,304.673196 C66.5419131,306.073675 67.3799327,307.414758 68.3195089,308.684027 Z M327.524503,118.2932 L336.849945,130.872358 C332.615182,125.308301 327.285603,120.666493 321.188308,117.231819 C316.920078,114.770008 312.381518,112.8077 307.662612,111.3838 C289.811607,106.268238 270.757825,107.266873 253.542083,114.220332 C240.176099,120.15415 227.479647,127.488057 215.666451,136.098598 C211.996656,138.563103 208.176016,141.14706 204.374585,143.588242 C184.586489,156.41353 163.703908,167.473199 141.969316,176.638832 C139.238223,177.785946 136.47227,178.926322 133.721402,180.054752 C120.275257,184.680239 107.632697,191.366332 96.2478529,199.872862 L86.9224101,187.293704 C98.3073295,178.787293 110.94987,172.10121 124.395959,167.475594 C127.154633,166.350796 129.916946,165.218209 132.643873,164.059674 C154.378484,154.894081 175.261069,143.83441 195.049142,131.009085 C198.865132,128.536749 202.648849,126.011468 206.341009,123.51944 C218.154169,114.908844 230.850627,107.574934 244.21664,101.641175 C261.432382,94.6877154 280.486164,93.68908 298.337169,98.8046419 C303.053148,100.228163 307.58903,102.189227 311.85506,104.64903 C317.955794,108.083502 323.288192,112.726688 327.524503,118.2932 Z" transform="rotate(155 194.817 202.133)"/>
      <path fill="#857500" d="M97.7879403,356.538651 L84.0086681,349.070754 C79.7427503,346.766728 75.7796677,343.943645 72.2101662,340.666148 C54.9085675,324.733489 50.0083138,302.381361 45.2630769,280.768289 C43.2996525,270.275973 40.4179327,259.975681 36.6510318,249.985774 C33.98265,244.481563 30.4209388,239.455285 26.1098885,235.110136 C20.7770299,229.525344 16.2679026,223.211569 12.7181583,216.358755 C5.84299661,201.384642 2.65124786,184.988548 3.40853746,168.534998 C5.44648722,138.613764 13.9362894,109.484653 28.297348,83.1397286 C58.1725326,22.6145319 91.1652776,5.32407389 113.556595,1.49989207 C114.245559,1.37958073 114.943134,1.26786306 115.623486,1.17333273 C119.107315,0.841986852 135.749172,0.113946781 151.730229,2.91816999 C193.569266,10.2597368 254.713762,24.1174572 266.247727,29.259304 L166.835548,18.6761648 C154.513322,15.7696929 142.007382,7.44194038 129.402758,8.64122935 C128.713794,8.73575969 128.024831,8.84747736 127.335867,8.9677887 C104.94455,12.8005642 71.969029,30.0910222 42.0766202,90.6076253 C27.7155616,116.952549 19.2257595,146.081661 17.1878097,176.002894 C16.4305201,192.456445 19.6222689,208.852539 26.4974305,223.826651 C30.0467745,230.67971 34.5559405,236.993539 39.8891607,242.578033 C44.2003324,246.92308 47.7620587,251.94938 50.430304,257.45367 C54.1980475,267.443302 57.0797882,277.743669 59.0423492,288.236185 C63.7875861,309.849258 68.6964518,332.192792 85.9894385,348.134044 C89.558828,351.411679 93.5219284,354.234775 97.7879403,356.538651 Z"/>
      <path fill="#DFC400" fill-rule="nonzero" d="M322.975697,93.8989997 C326.024581,107.269664 327.703944,120.914886 327.987907,134.624388 C328.306979,149.793408 325.260201,164.84512 319.065829,178.701306 C311.122616,194.105545 300.740898,208.130131 288.320827,220.234498 C286.357281,222.34854 284.410959,224.453989 282.490473,226.576625 C267.844595,242.757515 254.657273,260.195729 243.081754,278.688621 C240.799562,282.332336 238.500146,286.139331 236.278239,289.860388 C228.152839,304.464217 218.471362,318.150135 207.402051,330.680307 C190.769931,348.497268 168.63678,360.242135 144.534121,364.040922 C138.131522,364.961068 131.643813,365.139856 125.20008,364.573729 C110.673135,363.593074 96.884004,357.825605 85.9980505,348.177013 C68.6964518,332.244354 63.7961981,309.892226 59.0509612,288.279154 C57.0884867,277.786618 54.2067439,267.486243 50.4389161,257.496639 C47.7706708,251.992348 44.2089445,246.966048 39.8977728,242.621001 C34.5644621,237.036581 30.0552864,230.722739 26.5060426,223.86962 C19.6308809,208.895507 16.4391322,192.499413 17.1964218,176.045863 C19.2341031,146.124582 27.7239216,116.995414 42.0852323,90.6505936 C71.9604169,30.1168032 104.953162,12.8349389 127.344479,9.01075704 C128.033443,8.8904457 128.731019,8.77872803 129.41137,8.68419769 C142.015994,7.48490871 154.732394,8.35582589 167.05462,11.2622978 L260.460861,28.3636951 C273.444263,29.7467428 285.900521,34.239823 296.769244,41.4604437 C312.529286,53.4743901 318.678287,73.7640379 322.975697,93.8989997 Z M298.861971,170.081858 C308.636642,148.803938 305.26072,123.933866 300.6705,102.415324 C297.225682,86.3537601 292.609626,70.3695395 282.01681,62.2399305 C273.467824,56.9736483 263.827488,53.7229737 253.829587,52.7353348 L160.431957,35.6339374 C150.22919,33.1973413 139.704144,32.3881115 129.247741,33.2363043 L127.930098,33.4425523 C96.3669529,38.8565626 73.0024744,77.4679084 61.875712,100.000503 C49.3875904,122.694609 41.9196812,147.7963 39.9752812,173.613855 C39.3734629,186.196633 41.7885279,198.741134 47.0199341,210.205689 C49.7986109,215.350392 53.2763114,220.087323 57.3543883,224.282116 C63.1888027,230.311969 67.9557459,237.285854 71.4523062,244.906916 C75.7589932,256.164771 79.0503638,267.783651 81.2872618,279.625331 C85.4899398,298.763428 89.4600927,316.835909 102.033679,328.411579 C109.838255,335.219764 119.684314,339.25435 130.031437,339.884124 C134.939557,340.314331 139.881007,340.178804 144.758035,339.480222 C163.103093,336.588434 179.94874,327.648071 192.606558,314.085936 C202.207252,303.071497 210.608082,291.070406 217.667609,278.284719 C219.949801,274.503506 222.318113,270.550419 224.729486,266.734831 C237.231762,246.766183 251.473797,227.936189 267.290213,210.463499 C269.279596,208.26352 271.303426,206.072135 273.318645,203.889344 C283.545995,194.026769 292.172337,182.635536 298.887807,170.124826 L298.861971,170.081858 Z"/>
    </g>
    <g transform="rotate(90 1103.73 3121.555)">
      <path fill="#850000" d="M188.990876,253.405525 L147.232399,230.602059 C146.350161,230.121777 145.478951,229.623512 144.618771,229.107263 C129.427687,219.871719 117.642155,205.933468 111.048819,189.405501 C106.149539,177.267612 103.673888,164.290479 103.762366,151.210582 C103.814639,149.866131 103.660385,148.521042 103.305006,147.222412 C103.015661,146.248343 102.578133,145.324442 102.007873,144.483336 C101.195441,143.27368 100.106801,142.27529 98.8326635,141.571355 L140.595286,164.374827 C141.869423,165.078762 142.958063,166.077153 143.770495,167.286808 C144.340813,168.127881 144.778345,169.051792 145.067629,170.025884 C145.423591,171.324403 145.577855,172.669583 145.524988,174.014055 C145.436403,187.093961 147.912057,200.071115 152.811441,212.208973 C159.405039,228.736783 171.190508,242.674958 186.381393,251.910735 C187.252624,252.424231 188.122451,252.922494 188.990876,253.405525 Z" transform="rotate(27.001 143.912 197.488)"/>
      <path fill="#850000" d="M94.1983415,205.976685 L52.4357192,183.173212 C39.9254964,175.865671 32.495978,162.198916 33.1647604,147.723878 C33.2447997,137.393244 34.709894,127.124076 37.5207152,117.192033 C40.2875521,107.387166 44.2714046,97.9720314 49.3790465,89.1669531 C59.2827664,71.8867097 73.4071324,57.4190019 90.4301387,47.1179717 C101.532949,40.4317273 113.857881,36.0280383 126.688027,34.1630549 C136.065964,32.8317976 145.604837,33.0893362 154.906365,34.9249175 C162.512749,36.4578477 169.848746,39.1284791 176.667891,42.847087 L218.430513,65.6505596 C211.611265,61.9321823 204.275303,59.2615638 196.668988,57.7283901 C187.367459,55.8928088 177.828587,55.6352702 168.450649,56.9665275 C155.620503,58.8315109 143.295571,63.2351999 132.192761,69.9214443 C115.169868,80.2226179 101.045534,94.6902928 91.1416687,111.970426 C86.0353548,120.776172 82.0515747,130.191136 79.2833375,139.995506 C76.4734004,149.927739 75.0083232,160.196787 74.9273827,170.527351 C74.25765,185.002606 81.6874201,198.669824 94.1983415,205.976685 Z" transform="rotate(27.001 125.777 119.651)"/>
      <path fill="#850000" d="M306.245229,159.880377 L333.102989,199.15856 C328.700258,192.817139 322.384332,188.062123 315.085516,185.593904 L288.227756,146.315721 C295.526848,148.783413 301.842924,153.538542 306.245229,159.880377 Z M230.834143,213.073773 C226.108143,206.162226 220.215438,194.78435 213.156027,178.940147 C214.207634,179.312328 215.310327,179.518897 216.424926,179.552514 C217.506144,179.579615 218.585984,179.458389 219.634501,179.192197 C221.847843,178.636604 223.890462,177.541826 225.581404,176.00485 C226.716957,174.971291 227.657038,173.740339 228.356336,172.371322 C239.708652,150.418207 266.461199,138.78822 288.220445,146.302652 L315.078205,185.580836 C293.324531,178.064587 266.568223,189.701981 255.214096,211.649506 C254.51449,213.018327 253.574449,214.249227 252.439164,215.283033 C250.748123,216.819869 248.705542,217.914626 246.492261,218.47038 C245.442481,218.736375 244.361363,218.85697 243.278995,218.82881 C242.16576,218.795221 241.064374,218.5893 240.013787,218.21833 C235.136416,216.605563 232.076535,214.890711 230.834143,213.073773 Z"/>
      <path fill="#DF0000" fill-rule="nonzero" d="M299.765438,131.970757 C322.937725,128.883466 341.39228,146.520671 341.248352,171.326272 C341.168027,181.663995 339.701546,191.940167 336.888281,201.87888 C334.118609,211.680106 330.134882,221.092147 325.029938,229.895653 C315.129233,247.180375 301.004362,261.651463 283.978857,271.952941 C272.875413,278.641007 260.548754,283.044808 247.716824,284.907852 C238.338877,286.238952 228.800031,285.981414 219.498485,284.14599 C210.905645,282.413533 202.665702,279.229079 195.131622,274.729036 C179.941134,265.492793 168.155792,251.554768 161.56167,235.027274 C156.662788,222.887818 154.187161,209.909407 154.275211,196.828202 C154.328702,195.483971 154.17585,194.138908 153.821997,192.840037 C153.53185,191.866274 153.094378,190.942493 152.524863,190.100961 C151.415118,188.447032 149.788794,187.208522 147.902091,186.580535 C146.590581,186.164999 145.203254,186.050913 143.843348,186.246767 C142.740503,186.39938 141.66756,186.718596 140.661042,187.193549 C139.685511,187.661065 138.777316,188.257726 137.960739,188.967582 C136.244069,190.470336 134.921717,192.372279 134.109098,194.50741 C133.567069,195.946884 133.288347,197.47309 133.286266,199.013017 C133.138066,223.727231 114.581533,246.23524 91.7824527,249.414429 C68.6101653,252.50172 50.151459,234.860355 50.2995383,210.058914 C50.3813788,199.72842 51.8464389,189.459491 54.6554931,179.527068 C57.423113,169.722479 61.4069249,160.30744 66.5138244,151.501988 C76.4158068,134.221807 90.5388299,119.754012 107.560771,109.453001 C118.663582,102.766757 130.988513,98.3630676 143.818659,96.4980842 C153.19795,95.166281 162.738276,95.4238229 172.041143,97.2599526 C180.635358,98.9899671 188.876838,102.173072 196.412146,106.672759 C211.602634,115.909001 223.387976,129.847026 229.982098,146.37452 C234.879753,158.512754 237.353985,171.489834 237.264406,184.569433 C237.210783,185.913669 237.363638,187.258752 237.71762,188.557598 C238.008438,189.531104 238.445863,190.454786 239.014754,191.296674 C240.123336,192.951702 241.750079,194.190532 243.637526,194.8171 C244.946029,195.23368 246.331215,195.346398 247.687973,195.146702 C248.794124,194.999439 249.870395,194.681471 250.878575,194.204086 C251.85422,193.737314 252.761317,193.139057 253.574727,192.425893 C255.29445,190.925885 256.617372,189.023121 257.426367,186.886065 C257.968735,185.449572 258.247489,183.926026 258.249212,182.388766 C258.409825,157.657955 276.966357,135.149946 299.765438,131.970757 Z" transform="rotate(27.001 195.774 190.703)"/>
    </g>
    <g transform="rotate(90 -448.94 993.124)">
      <path fill="#857500" d="M68.3195089,308.684027 L58.9940661,296.104869 C58.0570748,294.836678 57.2216595,293.4968 56.4955731,292.09767 C50.3341251,280.251158 52.9009775,263.818393 56.5969489,247.8162 C61.5358156,226.40916 69.0310534,202.398808 86.8943032,187.25218 L96.2197459,199.831338 C78.3528566,214.985754 70.8758168,238.957164 65.9223917,260.395358 C62.2420306,276.404814 59.6559282,292.838104 65.8132107,304.673196 C66.5419131,306.073675 67.3799327,307.414758 68.3195089,308.684027 Z M327.524503,118.2932 L336.849945,130.872358 C332.615182,125.308301 327.285603,120.666493 321.188308,117.231819 C316.920078,114.770008 312.381518,112.8077 307.662612,111.3838 C289.811607,106.268238 270.757825,107.266873 253.542083,114.220332 C240.176099,120.15415 227.479647,127.488057 215.666451,136.098598 C211.996656,138.563103 208.176016,141.14706 204.374585,143.588242 C184.586489,156.41353 163.703908,167.473199 141.969316,176.638832 C139.238223,177.785946 136.47227,178.926322 133.721402,180.054752 C120.275257,184.680239 107.632697,191.366332 96.2478529,199.872862 L86.9224101,187.293704 C98.3073295,178.787293 110.94987,172.10121 124.395959,167.475594 C127.154633,166.350796 129.916946,165.218209 132.643873,164.059674 C154.378484,154.894081 175.261069,143.83441 195.049142,131.009085 C198.865132,128.536749 202.648849,126.011468 206.341009,123.51944 C218.154169,114.908844 230.850627,107.574934 244.21664,101.641175 C261.432382,94.6877154 280.486164,93.68908 298.337169,98.8046419 C303.053148,100.228163 307.58903,102.189227 311.85506,104.64903 C317.955794,108.083502 323.288192,112.726688 327.524503,118.2932 Z" transform="rotate(155 194.817 202.133)"/>
      <path fill="#857500" d="M97.7879403,356.538651 L84.0086681,349.070754 C79.7427503,346.766728 75.7796677,343.943645 72.2101662,340.666148 C54.9085675,324.733489 50.0083138,302.381361 45.2630769,280.768289 C43.2996525,270.275973 40.4179327,259.975681 36.6510318,249.985774 C33.98265,244.481563 30.4209388,239.455285 26.1098885,235.110136 C20.7770299,229.525344 16.2679026,223.211569 12.7181583,216.358755 C5.84299661,201.384642 2.65124786,184.988548 3.40853746,168.534998 C5.44648722,138.613764 13.9362894,109.484653 28.297348,83.1397286 C58.1725326,22.6145319 91.1652776,5.32407389 113.556595,1.49989207 C114.245559,1.37958073 114.943134,1.26786306 115.623486,1.17333273 C119.107315,0.841986852 135.749172,0.113946781 151.730229,2.91816999 C193.569266,10.2597368 254.713762,24.1174572 266.247727,29.259304 L166.835548,18.6761648 C154.513322,15.7696929 142.007382,7.44194038 129.402758,8.64122935 C128.713794,8.73575969 128.024831,8.84747736 127.335867,8.9677887 C104.94455,12.8005642 71.969029,30.0910222 42.0766202,90.6076253 C27.7155616,116.952549 19.2257595,146.081661 17.1878097,176.002894 C16.4305201,192.456445 19.6222689,208.852539 26.4974305,223.826651 C30.0467745,230.67971 34.5559405,236.993539 39.8891607,242.578033 C44.2003324,246.92308 47.7620587,251.94938 50.430304,257.45367 C54.1980475,267.443302 57.0797882,277.743669 59.0423492,288.236185 C63.7875861,309.849258 68.6964518,332.192792 85.9894385,348.134044 C89.558828,351.411679 93.5219284,354.234775 97.7879403,356.538651 Z"/>
      <path fill="#DFC400" fill-rule="nonzero" d="M322.975697,93.8989997 C326.024581,107.269664 327.703944,120.914886 327.987907,134.624388 C328.306979,149.793408 325.260201,164.84512 319.065829,178.701306 C311.122616,194.105545 300.740898,208.130131 288.320827,220.234498 C286.357281,222.34854 284.410959,224.453989 282.490473,226.576625 C267.844595,242.757515 254.657273,260.195729 243.081754,278.688621 C240.799562,282.332336 238.500146,286.139331 236.278239,289.860388 C228.152839,304.464217 218.471362,318.150135 207.402051,330.680307 C190.769931,348.497268 168.63678,360.242135 144.534121,364.040922 C138.131522,364.961068 131.643813,365.139856 125.20008,364.573729 C110.673135,363.593074 96.884004,357.825605 85.9980505,348.177013 C68.6964518,332.244354 63.7961981,309.892226 59.0509612,288.279154 C57.0884867,277.786618 54.2067439,267.486243 50.4389161,257.496639 C47.7706708,251.992348 44.2089445,246.966048 39.8977728,242.621001 C34.5644621,237.036581 30.0552864,230.722739 26.5060426,223.86962 C19.6308809,208.895507 16.4391322,192.499413 17.1964218,176.045863 C19.2341031,146.124582 27.7239216,116.995414 42.0852323,90.6505936 C71.9604169,30.1168032 104.953162,12.8349389 127.344479,9.01075704 C128.033443,8.8904457 128.731019,8.77872803 129.41137,8.68419769 C142.015994,7.48490871 154.732394,8.35582589 167.05462,11.2622978 L260.460861,28.3636951 C273.444263,29.7467428 285.900521,34.239823 296.769244,41.4604437 C312.529286,53.4743901 318.678287,73.7640379 322.975697,93.8989997 Z M298.861971,170.081858 C308.636642,148.803938 305.26072,123.933866 300.6705,102.415324 C297.225682,86.3537601 292.609626,70.3695395 282.01681,62.2399305 C273.467824,56.9736483 263.827488,53.7229737 253.829587,52.7353348 L160.431957,35.6339374 C150.22919,33.1973413 139.704144,32.3881115 129.247741,33.2363043 L127.930098,33.4425523 C96.3669529,38.8565626 73.0024744,77.4679084 61.875712,100.000503 C49.3875904,122.694609 41.9196812,147.7963 39.9752812,173.613855 C39.3734629,186.196633 41.7885279,198.741134 47.0199341,210.205689 C49.7986109,215.350392 53.2763114,220.087323 57.3543883,224.282116 C63.1888027,230.311969 67.9557459,237.285854 71.4523062,244.906916 C75.7589932,256.164771 79.0503638,267.783651 81.2872618,279.625331 C85.4899398,298.763428 89.4600927,316.835909 102.033679,328.411579 C109.838255,335.219764 119.684314,339.25435 130.031437,339.884124 C134.939557,340.314331 139.881007,340.178804 144.758035,339.480222 C163.103093,336.588434 179.94874,327.648071 192.606558,314.085936 C202.207252,303.071497 210.608082,291.070406 217.667609,278.284719 C219.949801,274.503506 222.318113,270.550419 224.729486,266.734831 C237.231762,246.766183 251.473797,227.936189 267.290213,210.463499 C269.279596,208.26352 271.303426,206.072135 273.318645,203.889344 C283.545995,194.026769 292.172337,182.635536 298.887807,170.124826 L298.861971,170.081858 Z"/>
    </g>
    <polygon fill="#AD9852" fill-rule="nonzero" points="500.948 246.39 391.524 124.181 282.101 1.972 442.499 -31.823 602.882 -65.61 551.907 90.394" transform="rotate(90 442.491 90.39)"/>
  </g>
</svg>
