<svg class="c-icon-set" xmlns="http://www.w3.org/2000/svg">
<symbol id="back" viewBox="0 0 44 44"> <!-- Generator: Sketch 50.2 (55047) - http://www.bohemiancoding.com/sketch --> <title>back</title> <desc>Created with Sketch.</desc> <g id="back" stroke="none" stroke-width="1" fill-rule="evenodd"> <polygon id="Fill-2" points="40.8899852 19.6387504 12.153593 19.6387504 25.3529713 6.4393719 21.9999987 3.11001215 3.11001215 21.9999987 21.9999987 40.8899852 25.3293583 37.5606253 12.153593 24.361247 40.8899852 24.361247"/> </g> </symbol>
<symbol id="close" viewBox="0 0 44 44"><title>close icon</title> <polygon fill-rule="evenodd" points="34.833 11.752 32.248 9.167 22 19.415 11.752 9.167 9.167 11.752 19.415 22 9.167 32.248 11.752 34.833 22 24.585 32.248 34.833 34.833 32.248 24.585 22"/> </symbol>
<symbol id="forward" viewBox="0 0 44 44"> <!-- Generator: Sketch 51 (57462) - http://www.bohemiancoding.com/sketch --> <title>forward</title> <desc>Created with Sketch.</desc> <g id="forward" stroke="none" stroke-width="1" fill-rule="evenodd"> <polygon id="Fill-2" transform="translate(21.999999, 21.999999) scale(-1, 1) translate(-21.999999, -21.999999) " points="40.8899852 19.6387504 12.153593 19.6387504 25.3529713 6.4393719 21.9999987 3.11001215 3.11001215 21.9999987 21.9999987 40.8899852 25.3293583 37.5606253 12.153593 24.361247 40.8899852 24.361247"/> </g> </symbol>
</svg>