<svg xmlns="http://www.w3.org/2000/svg" xmlns:xlink="http://www.w3.org/1999/xlink" width="0" height="0" style="display:none;"><symbol id="back">
    <!-- Generator: Sketch 50.2 (55047) - http://www.bohemiancoding.com/sketch -->
    <title>back</title>
    <desc>Created with Sketch.</desc>
    <defs/>
    <g id="back" stroke-width="1" fill-rule="evenodd">
        <polygon id="Fill-2" fill="#000000" points="40.8899852 19.6387504 12.153593 19.6387504 25.3529713 6.4393719 21.9999987 3.11001215 3.11001215 21.9999987 21.9999987 40.8899852 25.3293583 37.5606253 12.153593 24.361247 40.8899852 24.361247"/>
    </g>
</symbol><symbol viewBox="0 0 44 44" id="close">
  <polygon fill-rule="evenodd" points="34.833 11.752 32.248 9.167 22 19.415 11.752 9.167 9.167 11.752 19.415 22 9.167 32.248 11.752 34.833 22 24.585 32.248 34.833 34.833 32.248 24.585 22"/>
</symbol><symbol viewBox="0 0 44 44" id="down">
  <polygon fill-rule="evenodd" points="40.89 19.639 12.154 19.639 25.353 6.439 22 3.11 3.11 22 22 40.89 25.329 37.561 12.154 24.361 40.89 24.361" transform="matrix(0 -1 -1 0 44 44)"/>
</symbol><symbol id="forward">
    <!-- Generator: Sketch 51 (57462) - http://www.bohemiancoding.com/sketch -->
    <title>forward</title>
    <desc>Created with Sketch.</desc>
    <defs/>
    <g id="forward" stroke-width="1" fill-rule="evenodd">
        <polygon id="Fill-2" fill="#000000" transform="translate(21.999999, 21.999999) scale(-1, 1) translate(-21.999999, -21.999999) " points="40.8899852 19.6387504 12.153593 19.6387504 25.3529713 6.4393719 21.9999987 3.11001215 3.11001215 21.9999987 21.9999987 40.8899852 25.3293583 37.5606253 12.153593 24.361247 40.8899852 24.361247"/>
    </g>
</symbol><symbol viewBox="0 0 44 44" id="next">
  <polygon fill-rule="evenodd" points="40.89 19.639 12.154 19.639 25.353 6.439 22 3.11 3.11 22 22 40.89 25.329 37.561 12.154 24.361 40.89 24.361" transform="matrix(-1 0 0 1 44 0)"/>
</symbol><symbol viewBox="0 0 44 44" id="previous">
  <polygon fill-rule="evenodd" points="40.89 19.639 12.154 19.639 25.353 6.439 22 3.11 3.11 22 22 40.89 25.329 37.561 12.154 24.361 40.89 24.361"/>
</symbol></svg>