<svg xmlns="http://www.w3.org/2000/svg" xmlns:xlink="http://www.w3.org/1999/xlink" width="500" height="430" viewBox="0 0 500 430">
  <defs>
    <rect id="b" width="223.293" height="46.105" x="58.574" y="70.705" rx="2"/>
    <filter id="a" width="113%" height="162.9%" x="-6.5%" y="-22.8%" filterUnits="objectBoundingBox">
      <feOffset in="SourceAlpha" result="shadowOffsetOuter1"/>
      <feGaussianBlur in="shadowOffsetOuter1" result="shadowBlurOuter1" stdDeviation="2.5"/>
      <feColorMatrix in="shadowBlurOuter1" result="shadowMatrixOuter1" values="0 0 0 0 0.125490196 0 0 0 0 0.133333333 0 0 0 0 0.149019608 0 0 0 0.1 0"/>
      <feOffset dy="4" in="SourceAlpha" result="shadowOffsetOuter2"/>
      <feGaussianBlur in="shadowOffsetOuter2" result="shadowBlurOuter2" stdDeviation="2.5"/>
      <feColorMatrix in="shadowBlurOuter2" result="shadowMatrixOuter2" values="0 0 0 0 0 0 0 0 0 0 0 0 0 0 0 0 0 0 0.1 0"/>
      <feMerge>
        <feMergeNode in="shadowMatrixOuter1"/>
        <feMergeNode in="shadowMatrixOuter2"/>
      </feMerge>
    </filter>
    <path id="c" d="M60.5742188,70.7050781 L160.769531,70.7050781 L160.769531,116.810547 L60.5742188,116.810547 C59.4696493,116.810547 58.5742188,115.915116 58.5742188,114.810547 L58.5742188,72.7050781 C58.5742188,71.6005086 59.4696493,70.7050781 60.5742188,70.7050781 Z"/>
    <rect id="e" width="269.629" height="46.105" x="99.672" y="126.811" rx="2"/>
    <filter id="d" width="110.8%" height="162.9%" x="-5.4%" y="-22.8%" filterUnits="objectBoundingBox">
      <feOffset in="SourceAlpha" result="shadowOffsetOuter1"/>
      <feGaussianBlur in="shadowOffsetOuter1" result="shadowBlurOuter1" stdDeviation="2.5"/>
      <feColorMatrix in="shadowBlurOuter1" result="shadowMatrixOuter1" values="0 0 0 0 0.125490196 0 0 0 0 0.133333333 0 0 0 0 0.149019608 0 0 0 0.1 0"/>
      <feOffset dy="4" in="SourceAlpha" result="shadowOffsetOuter2"/>
      <feGaussianBlur in="shadowOffsetOuter2" result="shadowBlurOuter2" stdDeviation="2.5"/>
      <feColorMatrix in="shadowBlurOuter2" result="shadowMatrixOuter2" values="0 0 0 0 0 0 0 0 0 0 0 0 0 0 0 0 0 0 0.1 0"/>
      <feMerge>
        <feMergeNode in="shadowMatrixOuter1"/>
        <feMergeNode in="shadowMatrixOuter2"/>
      </feMerge>
    </filter>
    <path id="f" d="M101.671875,126.810547 L201.867188,126.810547 L201.867188,172.916016 L101.671875,172.916016 C100.567306,172.916016 99.671875,172.020585 99.671875,170.916016 L99.671875,128.810547 C99.671875,127.705977 100.567306,126.810547 101.671875,126.810547 Z"/>
    <rect id="h" width="284.797" height="46.105" x="131.746" y="183.811" rx="2"/>
    <filter id="g" width="110.2%" height="162.9%" x="-5.1%" y="-22.8%" filterUnits="objectBoundingBox">
      <feOffset in="SourceAlpha" result="shadowOffsetOuter1"/>
      <feGaussianBlur in="shadowOffsetOuter1" result="shadowBlurOuter1" stdDeviation="2.5"/>
      <feColorMatrix in="shadowBlurOuter1" result="shadowMatrixOuter1" values="0 0 0 0 0.125490196 0 0 0 0 0.133333333 0 0 0 0 0.149019608 0 0 0 0.1 0"/>
      <feOffset dy="4" in="SourceAlpha" result="shadowOffsetOuter2"/>
      <feGaussianBlur in="shadowOffsetOuter2" result="shadowBlurOuter2" stdDeviation="2.5"/>
      <feColorMatrix in="shadowBlurOuter2" result="shadowMatrixOuter2" values="0 0 0 0 0 0 0 0 0 0 0 0 0 0 0 0 0 0 0.1 0"/>
      <feMerge>
        <feMergeNode in="shadowMatrixOuter1"/>
        <feMergeNode in="shadowMatrixOuter2"/>
      </feMerge>
    </filter>
    <path id="i" d="M133.746094,183.810547 L233.941406,183.810547 L233.941406,229.916016 L133.746094,229.916016 C132.641524,229.916016 131.746094,229.020585 131.746094,227.916016 L131.746094,185.810547 C131.746094,184.705977 132.641524,183.810547 133.746094,183.810547 Z"/>
    <rect id="k" width="253.891" height="46.105" x="198.039" y="296.811" rx="2"/>
    <filter id="j" width="111.4%" height="162.9%" x="-5.7%" y="-22.8%" filterUnits="objectBoundingBox">
      <feOffset in="SourceAlpha" result="shadowOffsetOuter1"/>
      <feGaussianBlur in="shadowOffsetOuter1" result="shadowBlurOuter1" stdDeviation="2.5"/>
      <feColorMatrix in="shadowBlurOuter1" result="shadowMatrixOuter1" values="0 0 0 0 0.125490196 0 0 0 0 0.133333333 0 0 0 0 0.149019608 0 0 0 0.1 0"/>
      <feOffset dy="4" in="SourceAlpha" result="shadowOffsetOuter2"/>
      <feGaussianBlur in="shadowOffsetOuter2" result="shadowBlurOuter2" stdDeviation="2.5"/>
      <feColorMatrix in="shadowBlurOuter2" result="shadowMatrixOuter2" values="0 0 0 0 0 0 0 0 0 0 0 0 0 0 0 0 0 0 0.1 0"/>
      <feMerge>
        <feMergeNode in="shadowMatrixOuter1"/>
        <feMergeNode in="shadowMatrixOuter2"/>
      </feMerge>
    </filter>
    <path id="l" d="M200.039062,296.810547 L300.234375,296.810547 L300.234375,342.916016 L200.039062,342.916016 C198.934493,342.916016 198.039062,342.020585 198.039062,340.916016 L198.039062,298.810547 C198.039062,297.705977 198.934493,296.810547 200.039062,296.810547 Z"/>
    <rect id="n" width="208.281" height="46.105" x="39.039" y="239.811" rx="2"/>
    <filter id="m" width="113.9%" height="162.9%" x="-7%" y="-22.8%" filterUnits="objectBoundingBox">
      <feOffset in="SourceAlpha" result="shadowOffsetOuter1"/>
      <feGaussianBlur in="shadowOffsetOuter1" result="shadowBlurOuter1" stdDeviation="2.5"/>
      <feColorMatrix in="shadowBlurOuter1" result="shadowMatrixOuter1" values="0 0 0 0 0.125490196 0 0 0 0 0.133333333 0 0 0 0 0.149019608 0 0 0 0.1 0"/>
      <feOffset dy="4" in="SourceAlpha" result="shadowOffsetOuter2"/>
      <feGaussianBlur in="shadowOffsetOuter2" result="shadowBlurOuter2" stdDeviation="2.5"/>
      <feColorMatrix in="shadowBlurOuter2" result="shadowMatrixOuter2" values="0 0 0 0 0 0 0 0 0 0 0 0 0 0 0 0 0 0 0.1 0"/>
      <feMerge>
        <feMergeNode in="shadowMatrixOuter1"/>
        <feMergeNode in="shadowMatrixOuter2"/>
      </feMerge>
    </filter>
    <path id="o" d="M41.0390625,239.810547 L141.234375,239.810547 L141.234375,285.916016 L41.0390625,285.916016 C39.934493,285.916016 39.0390625,285.020585 39.0390625,283.916016 L39.0390625,241.810547 C39.0390625,240.705977 39.934493,239.810547 41.0390625,239.810547 Z"/>
  </defs>
  <g fill="none" fill-rule="evenodd">
    <path fill="#EBEDF2" d="M138.066003,177.477894 C136.228453,160.820075 123.006055,147.597682 106.348236,145.760129 L106.348236,137.531087 L98.3588748,137.531087 L98.3588748,145.760129 C81.7010559,147.597682 68.478663,160.820075 66.6411098,177.477894 L58.4120678,177.477894 L58.4120678,185.467255 L66.6411098,185.467255 C68.478663,202.125074 81.7010559,215.347465 98.3588748,217.185022 L98.3588748,225.414063 L106.348236,225.414063 L106.348236,217.185022 C123.006055,215.347473 136.228446,202.125074 138.066003,185.467255 L146.295043,185.467255 L146.295043,177.477894 L138.066003,177.477894 Z M102.353555,209.43534 C86.8941416,209.43534 74.3907906,196.931988 74.3907906,181.472575 C74.3907906,166.013161 86.8941416,153.50981 102.353555,153.50981 C117.812969,153.50981 130.31632,166.013161 130.31632,181.472575 C130.31632,196.931988 117.812969,209.43534 102.353555,209.43534 Z"/>
    <path fill="#EBEDF2" d="M309.966085,84.9979675 L306.555429,84.9979675 L305.34659,83.8322979 C309.577529,78.9105935 312.124729,72.5210069 312.124729,65.5701768 C312.124729,50.0711164 299.561424,37.5078125 284.062364,37.5078125 C268.563304,37.5078125 256,50.0711164 256,65.5701768 C256,81.0692369 268.563304,93.6325411 284.062364,93.6325411 C291.013194,93.6325411 297.402781,91.085341 302.324485,86.8544021 L303.490155,88.0632411 L303.490155,91.4738977 L325.076589,113.017158 L331.509345,106.584402 L309.966085,84.9979675 Z M284.062364,84.9979675 C273.312321,84.9979675 264.634574,76.3202197 264.634574,65.5701768 C264.634574,54.8201336 273.312321,46.1423861 284.062364,46.1423861 C294.812407,46.1423861 303.490155,54.8201336 303.490155,65.5701768 C303.490155,76.3202197 294.812407,84.9979675 284.062364,84.9979675 Z"/>
    <use fill="black" filter="url(#a)" xlink:href="#b"/>
    <use fill="#FFFFFF" xlink:href="#b"/>
    <use fill="#8F9092" xlink:href="#c"/>
    <path stroke="#8F9092" d="M160.269531,116.310547 L160.269531,71.2050781 L60.5742188,71.2050781 C59.7457916,71.2050781 59.0742188,71.876651 59.0742188,72.7050781 L59.0742188,114.810547 C59.0742188,115.638974 59.7457916,116.310547 60.5742188,116.310547 L160.269531,116.310547 Z"/>
    <path fill="#FFFFFF" d="M89.0817871,98.2578125 L88.0153809,98.2578125 L88.0153809,91.2626953 L87.939209,91.2626953 L85.0510254,98.1943359 L84.0861816,98.1943359 L81.197998,91.2626953 L81.1218262,91.2626953 L81.1218262,98.2578125 L80.0554199,98.2578125 L80.0554199,89.0981445 L81.3820801,89.0981445 L84.5178223,96.6772461 L84.6193848,96.6772461 L87.755127,89.0981445 L89.0817871,89.0981445 L89.0817871,98.2578125 Z M93.385498,97.4199219 C94.5090332,97.4199219 95.3405762,96.6835938 95.3405762,95.7060547 L95.3405762,95.0776367 L93.4997559,95.1982422 C92.4587402,95.2680664 92.001709,95.6298828 92.001709,96.3154297 C92.001709,97.0136719 92.592041,97.4199219 93.385498,97.4199219 Z M93.182373,98.378418 C91.8557129,98.378418 90.8718262,97.5913086 90.8718262,96.3408203 C90.8718262,95.1157227 91.7731934,94.4111328 93.3664551,94.315918 L95.3405762,94.1953125 L95.3405762,93.5732422 C95.3405762,92.7290039 94.8137207,92.265625 93.791748,92.265625 C92.9729004,92.265625 92.4016113,92.5766602 92.2492676,93.1162109 L91.1447754,93.1162109 C91.2907715,92.0180664 92.369873,91.2944336 93.829834,91.2944336 C95.4992676,91.2944336 96.432373,92.1513672 96.432373,93.5732422 L96.432373,98.2578125 L95.3913574,98.2578125 L95.3913574,97.2485352 L95.2897949,97.2485352 C94.845459,97.9785156 94.0964355,98.378418 93.182373,98.378418 Z M100.55835,97.4199219 C101.681885,97.4199219 102.513428,96.6835938 102.513428,95.7060547 L102.513428,95.0776367 L100.672607,95.1982422 C99.6315918,95.2680664 99.1745605,95.6298828 99.1745605,96.3154297 C99.1745605,97.0136719 99.7648926,97.4199219 100.55835,97.4199219 Z M100.355225,98.378418 C99.0285645,98.378418 98.0446777,97.5913086 98.0446777,96.3408203 C98.0446777,95.1157227 98.9460449,94.4111328 100.539307,94.315918 L102.513428,94.1953125 L102.513428,93.5732422 C102.513428,92.7290039 101.986572,92.265625 100.9646,92.265625 C100.145752,92.265625 99.5744629,92.5766602 99.4221191,93.1162109 L98.317627,93.1162109 C98.463623,92.0180664 99.5427246,91.2944336 101.002686,91.2944336 C102.672119,91.2944336 103.605225,92.1513672 103.605225,93.5732422 L103.605225,98.2578125 L102.564209,98.2578125 L102.564209,97.2485352 L102.462646,97.2485352 C102.018311,97.9785156 101.269287,98.378418 100.355225,98.378418 Z M105.623779,98.2578125 L105.623779,91.4150391 L106.664795,91.4150391 L106.664795,92.4941406 L106.766357,92.4941406 C107.109131,91.7387695 107.775635,91.2944336 108.822998,91.2944336 C110.359131,91.2944336 111.216064,92.2021484 111.216064,93.8271484 L111.216064,98.2578125 L110.124268,98.2578125 L110.124268,94.09375 C110.124268,92.8623047 109.60376,92.2783203 108.511963,92.2783203 C107.420166,92.2783203 106.715576,93.0083008 106.715576,94.2080078 L106.715576,98.2578125 L105.623779,98.2578125 Z M115.741943,98.378418 C113.98999,98.378418 112.866455,96.9882812 112.866455,94.8364258 C112.866455,92.690918 114.002686,91.2944336 115.741943,91.2944336 C116.694092,91.2944336 117.500244,91.7451172 117.887451,92.4941406 L117.982666,92.4941406 L117.982666,88.6982422 L119.074463,88.6982422 L119.074463,98.2578125 L118.033447,98.2578125 L118.033447,97.1660156 L117.931885,97.1660156 C117.500244,97.9277344 116.687744,98.378418 115.741943,98.378418 Z M115.99585,92.2783203 C114.751709,92.2783203 113.996338,93.2431641 113.996338,94.8364258 C113.996338,96.4360352 114.745361,97.3945312 115.99585,97.3945312 C117.23999,97.3945312 118.008057,96.4169922 118.008057,94.8364258 C118.008057,93.2685547 117.233643,92.2783203 115.99585,92.2783203 Z M123.302002,97.4199219 C124.425537,97.4199219 125.25708,96.6835938 125.25708,95.7060547 L125.25708,95.0776367 L123.41626,95.1982422 C122.375244,95.2680664 121.918213,95.6298828 121.918213,96.3154297 C121.918213,97.0136719 122.508545,97.4199219 123.302002,97.4199219 Z M123.098877,98.378418 C121.772217,98.378418 120.78833,97.5913086 120.78833,96.3408203 C120.78833,95.1157227 121.689697,94.4111328 123.282959,94.315918 L125.25708,94.1953125 L125.25708,93.5732422 C125.25708,92.7290039 124.730225,92.265625 123.708252,92.265625 C122.889404,92.265625 122.318115,92.5766602 122.165771,93.1162109 L121.061279,93.1162109 C121.207275,92.0180664 122.286377,91.2944336 123.746338,91.2944336 C125.415771,91.2944336 126.348877,92.1513672 126.348877,93.5732422 L126.348877,98.2578125 L125.307861,98.2578125 L125.307861,97.2485352 L125.206299,97.2485352 C124.761963,97.9785156 124.012939,98.378418 123.098877,98.378418 Z M131.13501,97.1914062 C132.404541,97.1914062 133.16626,96.2265625 133.16626,94.7348633 C133.16626,93.2431641 132.398193,92.2783203 131.13501,92.2783203 C129.865479,92.2783203 129.154541,93.2431641 129.154541,94.7348633 C129.154541,96.2265625 129.865479,97.1914062 131.13501,97.1914062 Z M131.185791,100.885742 C129.5354,100.885742 128.481689,100.143066 128.31665,99.0131836 L129.471924,99.0131836 C129.592529,99.5717773 130.201904,99.9335938 131.185791,99.9335938 C132.410889,99.9335938 133.140869,99.3305664 133.140869,98.3212891 L133.140869,96.9755859 L133.039307,96.9755859 C132.607666,97.730957 131.833252,98.15625 130.893799,98.15625 C129.122803,98.15625 128.024658,96.7851562 128.024658,94.7348633 C128.024658,92.6845703 129.135498,91.2944336 130.893799,91.2944336 C131.852295,91.2944336 132.696533,91.7641602 133.090088,92.5004883 L133.19165,92.5004883 L133.19165,91.4150391 L134.232666,91.4150391 L134.232666,98.378418 C134.232666,99.9082031 133.052002,100.885742 131.185791,100.885742 Z"/>
    <path fill="#3366FF" d="M181.853027,88.8632812 C184.557129,88.8632812 186.251953,90.7104492 186.251953,93.6748047 C186.251953,96.6455078 184.563477,98.4926758 181.853027,98.4926758 C179.13623,98.4926758 177.441406,96.6455078 177.441406,93.6748047 C177.441406,90.7041016 179.161621,88.8632812 181.853027,88.8632812 Z M181.853027,90.5454102 C180.367676,90.5454102 179.402832,91.7578125 179.402832,93.6748047 C179.402832,95.5854492 180.348633,96.8105469 181.853027,96.8105469 C183.344727,96.8105469 184.296875,95.5854492 184.296875,93.6748047 C184.296875,91.7578125 183.344727,90.5454102 181.853027,90.5454102 Z M187.883301,98.2578125 L187.883301,91.2563477 L189.67334,91.2563477 L189.67334,92.3798828 L189.787598,92.3798828 C190.111328,91.5927734 190.822266,91.1040039 191.856934,91.1040039 C193.412109,91.1040039 194.25,92.0561523 194.25,93.7319336 L194.25,98.2578125 L192.402832,98.2578125 L192.402832,94.1699219 C192.402832,93.2050781 191.990234,92.6972656 191.114258,92.6972656 C190.257324,92.6972656 189.730469,93.300293 189.730469,94.2207031 L189.730469,98.2578125 L187.883301,98.2578125 Z M198.547363,98.3657227 C196.782715,98.3657227 195.697266,96.9819336 195.697266,94.7475586 C195.697266,92.5195312 196.789062,91.1420898 198.547363,91.1420898 C199.493164,91.1420898 200.273926,91.5991211 200.635742,92.3735352 L200.743652,92.3735352 L200.743652,88.5839844 L202.59082,88.5839844 L202.59082,98.2578125 L200.800781,98.2578125 L200.800781,97.159668 L200.686523,97.159668 C200.312012,97.9150391 199.518555,98.3657227 198.547363,98.3657227 Z M199.175781,92.690918 C198.191895,92.690918 197.595215,93.4716797 197.595215,94.7539062 C197.595215,96.0488281 198.185547,96.8232422 199.175781,96.8232422 C200.166016,96.8232422 200.762695,96.0424805 200.762695,94.7602539 C200.762695,93.484375 200.159668,92.690918 199.175781,92.690918 Z M207.535645,92.5195312 C206.678711,92.5195312 206.075684,93.1162109 206.012207,94.0239258 L208.995605,94.0239258 C208.95752,93.097168 208.398926,92.5195312 207.535645,92.5195312 Z M209.033691,96.2646484 L210.753906,96.2646484 C210.474609,97.5849609 209.268555,98.4101562 207.554688,98.4101562 C205.421875,98.4101562 204.165039,97.0644531 204.165039,94.7919922 C204.165039,92.5131836 205.447266,91.1040039 207.529297,91.1040039 C209.592285,91.1040039 210.811035,92.4179688 210.811035,94.6396484 L210.811035,95.2045898 L206.005859,95.2045898 L206.005859,95.2998047 C206.03125,96.3408203 206.640625,96.9882812 207.605469,96.9882812 C208.335449,96.9882812 208.836914,96.7280273 209.033691,96.2646484 Z M212.321777,98.2578125 L212.321777,91.2563477 L214.111816,91.2563477 L214.111816,92.3735352 L214.226074,92.3735352 C214.410156,91.675293 215.133789,91.1420898 216.022461,91.1420898 C216.276367,91.1420898 216.587402,91.1738281 216.746094,91.230957 L216.746094,92.9130859 C216.600098,92.855957 216.168457,92.7988281 215.870117,92.7988281 C214.86084,92.7988281 214.168945,93.3955078 214.168945,94.3793945 L214.168945,98.2578125 L212.321777,98.2578125 Z M217.818848,98.2578125 L217.818848,97.1660156 L221.36084,92.8432617 L221.36084,92.7290039 L217.869629,92.7290039 L217.869629,91.2563477 L223.569824,91.2563477 L223.569824,92.4750977 L220.230957,96.6708984 L220.230957,96.7851562 L223.652344,96.7851562 L223.652344,98.2578125 L217.818848,98.2578125 Z M228.444824,98.4101562 C226.292969,98.4101562 224.998047,97.0454102 224.998047,94.7539062 C224.998047,92.487793 226.312012,91.1040039 228.444824,91.1040039 C230.577637,91.1040039 231.891602,92.4814453 231.891602,94.7539062 C231.891602,97.0454102 230.59668,98.4101562 228.444824,98.4101562 Z M228.444824,96.8994141 C229.428711,96.8994141 229.993652,96.1123047 229.993652,94.7539062 C229.993652,93.4082031 229.422363,92.6147461 228.444824,92.6147461 C227.460938,92.6147461 226.895996,93.4082031 226.895996,94.7539062 C226.895996,96.1186523 227.45459,96.8994141 228.444824,96.8994141 Z M236.423828,92.5195312 C235.566895,92.5195312 234.963867,93.1162109 234.900391,94.0239258 L237.883789,94.0239258 C237.845703,93.097168 237.287109,92.5195312 236.423828,92.5195312 Z M237.921875,96.2646484 L239.64209,96.2646484 C239.362793,97.5849609 238.156738,98.4101562 236.442871,98.4101562 C234.310059,98.4101562 233.053223,97.0644531 233.053223,94.7919922 C233.053223,92.5131836 234.335449,91.1040039 236.41748,91.1040039 C238.480469,91.1040039 239.699219,92.4179688 239.699219,94.6396484 L239.699219,95.2045898 L234.894043,95.2045898 L234.894043,95.2998047 C234.919434,96.3408203 235.528809,96.9882812 236.493652,96.9882812 C237.223633,96.9882812 237.725098,96.7280273 237.921875,96.2646484 Z M243.234863,93.9921875 L245.577148,91.2563477 L247.678223,91.2563477 L245.012207,94.2587891 L247.862305,98.2578125 L245.672363,98.2578125 L243.628418,95.4140625 L243.120605,95.9345703 L243.120605,98.2578125 L241.273438,98.2578125 L241.273438,88.5839844 L243.120605,88.5839844 L243.120605,93.9921875 L243.234863,93.9921875 Z M252.058105,92.5195312 C251.201172,92.5195312 250.598145,93.1162109 250.534668,94.0239258 L253.518066,94.0239258 C253.47998,93.097168 252.921387,92.5195312 252.058105,92.5195312 Z M253.556152,96.2646484 L255.276367,96.2646484 C254.99707,97.5849609 253.791016,98.4101562 252.077148,98.4101562 C249.944336,98.4101562 248.6875,97.0644531 248.6875,94.7919922 C248.6875,92.5131836 249.969727,91.1040039 252.051758,91.1040039 C254.114746,91.1040039 255.333496,92.4179688 255.333496,94.6396484 L255.333496,95.2045898 L250.52832,95.2045898 L250.52832,95.2998047 C250.553711,96.3408203 251.163086,96.9882812 252.12793,96.9882812 C252.85791,96.9882812 253.359375,96.7280273 253.556152,96.2646484 Z M256.844238,98.2578125 L256.844238,91.2563477 L258.634277,91.2563477 L258.634277,92.3798828 L258.748535,92.3798828 C259.072266,91.5927734 259.783203,91.1040039 260.817871,91.1040039 C262.373047,91.1040039 263.210938,92.0561523 263.210938,93.7319336 L263.210938,98.2578125 L261.36377,98.2578125 L261.36377,94.1699219 C261.36377,93.2050781 260.951172,92.6972656 260.075195,92.6972656 C259.218262,92.6972656 258.691406,93.300293 258.691406,94.2207031 L258.691406,98.2578125 L256.844238,98.2578125 Z"/>
    <path fill="#EBEDF2" d="M419.506533,275.869582 C419.506533,277.825861 421.107127,279.426459 423.06341,279.426459 L437.290917,279.426459 C439.247199,279.426459 440.847794,277.825861 440.847794,275.869582 L440.847794,272.312705 L419.506533,272.312705 L419.506533,275.869582 Z M430.177163,208.288922 C416.44762,208.288922 405.279025,219.457515 405.279025,233.18706 C405.279025,241.652427 409.511709,249.0863 415.949656,253.603532 L415.949656,261.642075 C415.949656,263.598354 417.55025,265.198951 419.506533,265.198951 L440.847794,265.198951 C442.804076,265.198951 444.404671,263.598354 444.404671,261.642075 L444.404671,253.603532 C450.842615,249.086297 455.075301,241.652424 455.075301,233.18706 C455.075301,219.457515 443.906706,208.288922 430.177163,208.288922 Z M440.314263,247.770256 L437.290917,249.904384 L437.290917,258.085198 L423.06341,258.085198 L423.06341,249.90438 L420.040063,247.770253 C415.238281,244.42679 412.392779,238.98477 412.392779,233.18706 C412.392779,223.370079 420.360182,215.402676 430.177163,215.402676 C439.994144,215.402676 447.961547,223.370079 447.961547,233.18706 C447.961547,238.98477 445.116048,244.42679 440.314263,247.770256 Z"/>
    <path fill="#EBEDF2" d="M425.367658,183.179858 L435.001129,183.179858 L435.001129,197.630064 L425.367658,197.630064 L425.367658,183.179858 Z M389.242145,201.844707 L396.053009,195.029027 L406.264486,205.250138 L399.453623,212.06582 L389.242145,201.844707 Z M454.075395,205.264589 L464.30132,195.053111 L471.112182,201.863975 L460.89108,212.080269 L454.075395,205.264589 Z"/>
    <path fill="#EBEDF2" d="M358.652698,318.919119 L358.652698,305.47111 L340.722019,323.401789 L358.652698,341.332468 L358.652698,327.884459 C373.490332,327.884459 385.548717,339.942842 385.548717,354.780477 C385.548717,359.307974 384.428049,363.611337 382.410844,367.331953 L388.955538,373.876651 C392.452032,368.362965 394.514056,361.818267 394.514056,354.780477 C394.514056,334.967076 378.466099,318.919119 358.652698,318.919119 Z M358.652698,381.676495 C343.815064,381.676495 331.75668,369.618111 331.75668,354.780477 C331.75668,350.252979 332.877347,345.949616 334.894548,342.229001 L328.34985,335.684303 C324.853369,341.197989 322.791341,347.742687 322.791341,354.780477 C322.791341,374.593877 338.839298,390.641835 358.652698,390.641835 L358.652698,404.089844 L376.583377,386.159165 L358.652698,368.228486 L358.652698,381.676495 Z"/>
    <use fill="black" filter="url(#d)" xlink:href="#e"/>
    <use fill="#FFFFFF" xlink:href="#e"/>
    <use fill="#8F9092" xlink:href="#f"/>
    <path stroke="#8F9092" d="M201.367188,172.416016 L201.367188,127.310547 L101.671875,127.310547 C100.843448,127.310547 100.171875,127.98212 100.171875,128.810547 L100.171875,170.916016 C100.171875,171.744443 100.843448,172.416016 101.671875,172.416016 L201.367188,172.416016 Z"/>
    <path fill="#FFFFFF" d="M127.187988,145.203613 L130.330078,145.203613 C133.046875,145.203613 134.652832,146.898438 134.652832,149.780273 C134.652832,152.668457 133.053223,154.363281 130.330078,154.363281 L127.187988,154.363281 L127.187988,145.203613 Z M128.330566,146.231934 L128.330566,153.334961 L130.253906,153.334961 C132.297852,153.334961 133.484863,152.027344 133.484863,149.792969 C133.484863,147.552246 132.285156,146.231934 130.253906,146.231934 L128.330566,146.231934 Z M136.512695,154.363281 L136.512695,147.520508 L137.604492,147.520508 L137.604492,154.363281 L136.512695,154.363281 Z M137.058594,146.130371 C136.639648,146.130371 136.296875,145.787598 136.296875,145.368652 C136.296875,144.949707 136.639648,144.606934 137.058594,144.606934 C137.477539,144.606934 137.820312,144.949707 137.820312,145.368652 C137.820312,145.787598 137.477539,146.130371 137.058594,146.130371 Z M139.686523,154.363281 L139.686523,147.520508 L140.727539,147.520508 L140.727539,148.599609 L140.829102,148.599609 C141.171875,147.844238 141.838379,147.399902 142.885742,147.399902 C144.421875,147.399902 145.278809,148.307617 145.278809,149.932617 L145.278809,154.363281 L144.187012,154.363281 L144.187012,150.199219 C144.187012,148.967773 143.666504,148.383789 142.574707,148.383789 C141.48291,148.383789 140.77832,149.11377 140.77832,150.313477 L140.77832,154.363281 L139.686523,154.363281 Z M147.113281,149.393066 C147.113281,148.256836 148.211426,147.399902 149.665039,147.399902 C151.099609,147.399902 152.096191,148.11084 152.242188,149.234375 L151.163086,149.234375 C151.01709,148.688477 150.483887,148.32666 149.658691,148.32666 C148.846191,148.32666 148.211426,148.739258 148.211426,149.348633 C148.211426,149.818359 148.592285,150.110352 149.398438,150.307129 L150.452148,150.561035 C151.740723,150.87207 152.362793,151.430664 152.362793,152.414551 C152.362793,153.639648 151.175781,154.483887 149.620605,154.483887 C148.097168,154.483887 147.049805,153.753906 146.929199,152.617676 L148.052734,152.617676 C148.236816,153.195312 148.782715,153.563477 149.658691,153.563477 C150.579102,153.563477 151.239258,153.125488 151.239258,152.49707 C151.239258,152.027344 150.883789,151.709961 150.153809,151.532227 L148.979492,151.246582 C147.697266,150.935547 147.113281,150.383301 147.113281,149.393066 Z M156.609375,154.483887 C154.857422,154.483887 153.733887,153.09375 153.733887,150.941895 C153.733887,148.796387 154.870117,147.399902 156.609375,147.399902 C157.561523,147.399902 158.367676,147.850586 158.754883,148.599609 L158.850098,148.599609 L158.850098,144.803711 L159.941895,144.803711 L159.941895,154.363281 L158.900879,154.363281 L158.900879,153.271484 L158.799316,153.271484 C158.367676,154.033203 157.555176,154.483887 156.609375,154.483887 Z M156.863281,148.383789 C155.619141,148.383789 154.86377,149.348633 154.86377,150.941895 C154.86377,152.541504 155.612793,153.5 156.863281,153.5 C158.107422,153.5 158.875488,152.522461 158.875488,150.941895 C158.875488,149.374023 158.101074,148.383789 156.863281,148.383789 Z M164.169434,153.525391 C165.292969,153.525391 166.124512,152.789062 166.124512,151.811523 L166.124512,151.183105 L164.283691,151.303711 C163.242676,151.373535 162.785645,151.735352 162.785645,152.420898 C162.785645,153.119141 163.375977,153.525391 164.169434,153.525391 Z M163.966309,154.483887 C162.639648,154.483887 161.655762,153.696777 161.655762,152.446289 C161.655762,151.221191 162.557129,150.516602 164.150391,150.421387 L166.124512,150.300781 L166.124512,149.678711 C166.124512,148.834473 165.597656,148.371094 164.575684,148.371094 C163.756836,148.371094 163.185547,148.682129 163.033203,149.22168 L161.928711,149.22168 C162.074707,148.123535 163.153809,147.399902 164.61377,147.399902 C166.283203,147.399902 167.216309,148.256836 167.216309,149.678711 L167.216309,154.363281 L166.175293,154.363281 L166.175293,153.354004 L166.07373,153.354004 C165.629395,154.083984 164.880371,154.483887 163.966309,154.483887 Z M172.002441,153.296875 C173.271973,153.296875 174.033691,152.332031 174.033691,150.840332 C174.033691,149.348633 173.265625,148.383789 172.002441,148.383789 C170.73291,148.383789 170.021973,149.348633 170.021973,150.840332 C170.021973,152.332031 170.73291,153.296875 172.002441,153.296875 Z M172.053223,156.991211 C170.402832,156.991211 169.349121,156.248535 169.184082,155.118652 L170.339355,155.118652 C170.459961,155.677246 171.069336,156.039062 172.053223,156.039062 C173.27832,156.039062 174.008301,155.436035 174.008301,154.426758 L174.008301,153.081055 L173.906738,153.081055 C173.475098,153.836426 172.700684,154.261719 171.76123,154.261719 C169.990234,154.261719 168.89209,152.890625 168.89209,150.840332 C168.89209,148.790039 170.00293,147.399902 171.76123,147.399902 C172.719727,147.399902 173.563965,147.869629 173.95752,148.605957 L174.059082,148.605957 L174.059082,147.520508 L175.100098,147.520508 L175.100098,154.483887 C175.100098,156.013672 173.919434,156.991211 172.053223,156.991211 Z"/>
    <path fill="#3366FF" d="M221.747559,145.203613 L225.568848,145.203613 C227.454102,145.203613 228.742676,146.466797 228.742676,148.371094 C228.742676,150.256348 227.40332,151.519531 225.473633,151.519531 L223.664551,151.519531 L223.664551,154.363281 L221.747559,154.363281 L221.747559,145.203613 Z M223.664551,146.777832 L223.664551,149.964355 L225.054688,149.964355 C226.152832,149.964355 226.793945,149.405762 226.793945,148.377441 C226.793945,147.336426 226.165527,146.777832 225.061035,146.777832 L223.664551,146.777832 Z M230.323242,154.363281 L230.323242,147.361816 L232.113281,147.361816 L232.113281,148.479004 L232.227539,148.479004 C232.411621,147.780762 233.135254,147.247559 234.023926,147.247559 C234.277832,147.247559 234.588867,147.279297 234.747559,147.336426 L234.747559,149.018555 C234.601562,148.961426 234.169922,148.904297 233.871582,148.904297 C232.862305,148.904297 232.17041,149.500977 232.17041,150.484863 L232.17041,154.363281 L230.323242,154.363281 Z M239.083008,154.515625 C236.931152,154.515625 235.63623,153.150879 235.63623,150.859375 C235.63623,148.593262 236.950195,147.209473 239.083008,147.209473 C241.21582,147.209473 242.529785,148.586914 242.529785,150.859375 C242.529785,153.150879 241.234863,154.515625 239.083008,154.515625 Z M239.083008,153.004883 C240.066895,153.004883 240.631836,152.217773 240.631836,150.859375 C240.631836,149.513672 240.060547,148.720215 239.083008,148.720215 C238.099121,148.720215 237.53418,149.513672 237.53418,150.859375 C237.53418,152.224121 238.092773,153.004883 239.083008,153.004883 Z M248.160156,154.471191 C247.169922,154.471191 246.376465,154.026855 246.001953,153.265137 L245.887695,153.265137 L245.887695,154.363281 L244.097656,154.363281 L244.097656,144.689453 L245.944824,144.689453 L245.944824,148.479004 L246.059082,148.479004 C246.414551,147.710938 247.20166,147.247559 248.160156,147.247559 C249.931152,147.247559 250.997559,148.599609 250.997559,150.859375 C250.997559,153.106445 249.918457,154.471191 248.160156,154.471191 Z M247.519043,148.796387 C246.547852,148.796387 245.932129,149.589844 245.925781,150.865723 C245.932129,152.135254 246.541504,152.928711 247.519043,152.928711 C248.50293,152.928711 249.099609,152.141602 249.099609,150.859375 C249.099609,149.583496 248.496582,148.796387 247.519043,148.796387 Z M252.56543,154.363281 L252.56543,144.689453 L254.412598,144.689453 L254.412598,154.363281 L252.56543,154.363281 Z M259.357422,148.625 C258.500488,148.625 257.897461,149.22168 257.833984,150.129395 L260.817383,150.129395 C260.779297,149.202637 260.220703,148.625 259.357422,148.625 Z M260.855469,152.370117 L262.575684,152.370117 C262.296387,153.69043 261.090332,154.515625 259.376465,154.515625 C257.243652,154.515625 255.986816,153.169922 255.986816,150.897461 C255.986816,148.618652 257.269043,147.209473 259.351074,147.209473 C261.414062,147.209473 262.632812,148.523438 262.632812,150.745117 L262.632812,151.310059 L257.827637,151.310059 L257.827637,151.405273 C257.853027,152.446289 258.462402,153.09375 259.427246,153.09375 C260.157227,153.09375 260.658691,152.833496 260.855469,152.370117 Z M267.171387,148.625 C266.314453,148.625 265.711426,149.22168 265.647949,150.129395 L268.631348,150.129395 C268.593262,149.202637 268.034668,148.625 267.171387,148.625 Z M268.669434,152.370117 L270.389648,152.370117 C270.110352,153.69043 268.904297,154.515625 267.19043,154.515625 C265.057617,154.515625 263.800781,153.169922 263.800781,150.897461 C263.800781,148.618652 265.083008,147.209473 267.165039,147.209473 C269.228027,147.209473 270.446777,148.523438 270.446777,150.745117 L270.446777,151.310059 L265.641602,151.310059 L265.641602,151.405273 C265.666992,152.446289 266.276367,153.09375 267.241211,153.09375 C267.971191,153.09375 268.472656,152.833496 268.669434,152.370117 Z M271.95752,154.363281 L271.95752,147.361816 L273.747559,147.361816 L273.747559,148.504395 L273.861816,148.504395 C274.147461,147.70459 274.877441,147.209473 275.797852,147.209473 C276.781738,147.209473 277.45459,147.691895 277.733887,148.504395 L277.848145,148.504395 C278.171875,147.723633 278.978027,147.209473 279.955566,147.209473 C281.352051,147.209473 282.22168,148.117188 282.22168,149.558105 L282.22168,154.363281 L280.374512,154.363281 L280.374512,150.046875 C280.374512,149.215332 279.987305,148.802734 279.206543,148.802734 C278.45752,148.802734 277.975098,149.335938 277.975098,150.078613 L277.975098,154.363281 L276.197754,154.363281 L276.197754,149.970703 C276.197754,149.228027 275.766113,148.802734 275.04248,148.802734 C274.318848,148.802734 273.804688,149.367676 273.804688,150.148438 L273.804688,154.363281 L271.95752,154.363281 Z M289.870605,154.471191 C288.105957,154.471191 287.020508,153.087402 287.020508,150.853027 C287.020508,148.625 288.112305,147.247559 289.870605,147.247559 C290.816406,147.247559 291.597168,147.70459 291.958984,148.479004 L292.066895,148.479004 L292.066895,144.689453 L293.914062,144.689453 L293.914062,154.363281 L292.124023,154.363281 L292.124023,153.265137 L292.009766,153.265137 C291.635254,154.020508 290.841797,154.471191 289.870605,154.471191 Z M290.499023,148.796387 C289.515137,148.796387 288.918457,149.577148 288.918457,150.859375 C288.918457,152.154297 289.508789,152.928711 290.499023,152.928711 C291.489258,152.928711 292.085938,152.147949 292.085938,150.865723 C292.085938,149.589844 291.48291,148.796387 290.499023,148.796387 Z M298.858887,148.625 C298.001953,148.625 297.398926,149.22168 297.335449,150.129395 L300.318848,150.129395 C300.280762,149.202637 299.722168,148.625 298.858887,148.625 Z M300.356934,152.370117 L302.077148,152.370117 C301.797852,153.69043 300.591797,154.515625 298.87793,154.515625 C296.745117,154.515625 295.488281,153.169922 295.488281,150.897461 C295.488281,148.618652 296.770508,147.209473 298.852539,147.209473 C300.915527,147.209473 302.134277,148.523438 302.134277,150.745117 L302.134277,151.310059 L297.329102,151.310059 L297.329102,151.405273 C297.354492,152.446289 297.963867,153.09375 298.928711,153.09375 C299.658691,153.09375 300.160156,152.833496 300.356934,152.370117 Z M304.18457,154.363281 L304.18457,148.885254 L303.054688,148.885254 L303.054688,147.431641 L304.18457,147.431641 L304.18457,146.720703 C304.18457,145.330566 304.895508,144.625977 306.583984,144.625977 C306.958496,144.625977 307.269531,144.651367 307.536133,144.695801 L307.536133,146.003418 C307.415527,145.990723 307.225098,145.97168 306.983887,145.97168 C306.260254,145.97168 305.993652,146.257324 305.993652,146.854004 L305.993652,147.431641 L307.479004,147.431641 L307.479004,148.885254 L306.031738,148.885254 L306.031738,154.363281 L304.18457,154.363281 Z M308.964355,154.363281 L308.964355,147.361816 L310.811523,147.361816 L310.811523,154.363281 L308.964355,154.363281 Z M309.891113,146.384277 C309.224609,146.384277 308.799316,145.99707 308.799316,145.451172 C308.799316,144.898926 309.224609,144.518066 309.891113,144.518066 C310.55127,144.518066 310.98291,144.898926 310.98291,145.451172 C310.98291,145.99707 310.55127,146.384277 309.891113,146.384277 Z M312.677734,154.363281 L312.677734,147.361816 L314.467773,147.361816 L314.467773,148.485352 L314.582031,148.485352 C314.905762,147.698242 315.616699,147.209473 316.651367,147.209473 C318.206543,147.209473 319.044434,148.161621 319.044434,149.837402 L319.044434,154.363281 L317.197266,154.363281 L317.197266,150.275391 C317.197266,149.310547 316.784668,148.802734 315.908691,148.802734 C315.051758,148.802734 314.524902,149.405762 314.524902,150.326172 L314.524902,154.363281 L312.677734,154.363281 Z M320.847168,154.363281 L320.847168,147.361816 L322.694336,147.361816 L322.694336,154.363281 L320.847168,154.363281 Z M321.773926,146.384277 C321.107422,146.384277 320.682129,145.99707 320.682129,145.451172 C320.682129,144.898926 321.107422,144.518066 321.773926,144.518066 C322.434082,144.518066 322.865723,144.898926 322.865723,145.451172 C322.865723,145.99707 322.434082,146.384277 321.773926,146.384277 Z M327.588379,148.625 C326.731445,148.625 326.128418,149.22168 326.064941,150.129395 L329.04834,150.129395 C329.010254,149.202637 328.45166,148.625 327.588379,148.625 Z M329.086426,152.370117 L330.806641,152.370117 C330.527344,153.69043 329.321289,154.515625 327.607422,154.515625 C325.474609,154.515625 324.217773,153.169922 324.217773,150.897461 C324.217773,148.618652 325.5,147.209473 327.582031,147.209473 C329.64502,147.209473 330.86377,148.523438 330.86377,150.745117 L330.86377,151.310059 L326.058594,151.310059 L326.058594,151.405273 C326.083984,152.446289 326.693359,153.09375 327.658203,153.09375 C328.388184,153.09375 328.889648,152.833496 329.086426,152.370117 Z M326.09668,146.422363 C325.525391,146.422363 325.112793,146.016113 325.112793,145.45752 C325.112793,144.898926 325.525391,144.499023 326.09668,144.499023 C326.667969,144.499023 327.080566,144.898926 327.080566,145.45752 C327.080566,146.016113 326.667969,146.422363 326.09668,146.422363 Z M329.067383,146.422363 C328.502441,146.422363 328.083496,146.016113 328.083496,145.45752 C328.083496,144.898926 328.502441,144.499023 329.067383,144.499023 C329.638672,144.499023 330.057617,144.898926 330.057617,145.45752 C330.057617,146.016113 329.638672,146.422363 329.067383,146.422363 Z M332.374512,154.363281 L332.374512,147.361816 L334.164551,147.361816 L334.164551,148.479004 L334.278809,148.479004 C334.462891,147.780762 335.186523,147.247559 336.075195,147.247559 C336.329102,147.247559 336.640137,147.279297 336.798828,147.336426 L336.798828,149.018555 C336.652832,148.961426 336.221191,148.904297 335.922852,148.904297 C334.913574,148.904297 334.22168,149.500977 334.22168,150.484863 L334.22168,154.363281 L332.374512,154.363281 Z M341.058105,148.625 C340.201172,148.625 339.598145,149.22168 339.534668,150.129395 L342.518066,150.129395 C342.47998,149.202637 341.921387,148.625 341.058105,148.625 Z M342.556152,152.370117 L344.276367,152.370117 C343.99707,153.69043 342.791016,154.515625 341.077148,154.515625 C338.944336,154.515625 337.6875,153.169922 337.6875,150.897461 C337.6875,148.618652 338.969727,147.209473 341.051758,147.209473 C343.114746,147.209473 344.333496,148.523438 344.333496,150.745117 L344.333496,151.310059 L339.52832,151.310059 L339.52832,151.405273 C339.553711,152.446289 340.163086,153.09375 341.12793,153.09375 C341.85791,153.09375 342.359375,152.833496 342.556152,152.370117 Z M345.844238,154.363281 L345.844238,147.361816 L347.634277,147.361816 L347.634277,148.485352 L347.748535,148.485352 C348.072266,147.698242 348.783203,147.209473 349.817871,147.209473 C351.373047,147.209473 352.210938,148.161621 352.210938,149.837402 L352.210938,154.363281 L350.36377,154.363281 L350.36377,150.275391 C350.36377,149.310547 349.951172,148.802734 349.075195,148.802734 C348.218262,148.802734 347.691406,149.405762 347.691406,150.326172 L347.691406,154.363281 L345.844238,154.363281 Z"/>
    <use fill="black" filter="url(#g)" xlink:href="#h"/>
    <use fill="#FFFFFF" xlink:href="#h"/>
    <use fill="#8F9092" xlink:href="#i"/>
    <path stroke="#8F9092" d="M233.441406,229.416016 L233.441406,184.310547 L133.746094,184.310547 C132.917667,184.310547 132.246094,184.98212 132.246094,185.810547 L132.246094,227.916016 C132.246094,228.744443 132.917667,229.416016 133.746094,229.416016 L233.441406,229.416016 Z"/>
    <path fill="#FFFFFF" d="M157.747314,204.133301 L155.639893,211.363281 L154.560791,211.363281 L152.066162,202.203613 L153.259521,202.203613 L155.081299,209.649414 L155.157471,209.649414 L157.207764,202.203613 L158.363037,202.203613 L160.41333,209.649414 L160.489502,209.649414 L162.311279,202.203613 L163.504639,202.203613 L161.01001,211.363281 L159.930908,211.363281 L157.823486,204.133301 L157.747314,204.133301 Z M167.91626,211.483887 C165.967529,211.483887 164.761475,210.138184 164.761475,207.941895 C164.761475,205.739258 165.967529,204.399902 167.91626,204.399902 C169.86499,204.399902 171.071045,205.739258 171.071045,207.941895 C171.071045,210.138184 169.86499,211.483887 167.91626,211.483887 Z M167.91626,210.5 C169.211182,210.5 169.941162,209.560547 169.941162,207.941895 C169.941162,206.316895 169.211182,205.383789 167.91626,205.383789 C166.621338,205.383789 165.891357,206.316895 165.891357,207.941895 C165.891357,209.560547 166.621338,210.5 167.91626,210.5 Z M175.514404,205.364746 C174.422607,205.364746 173.660889,206.164551 173.578369,207.376953 L177.348877,207.376953 C177.323486,206.164551 176.599854,205.364746 175.514404,205.364746 Z M177.317139,209.592285 L178.408936,209.592285 C178.078857,210.766602 177.025146,211.483887 175.5271,211.483887 C173.62915,211.483887 172.442139,210.112793 172.442139,207.948242 C172.442139,205.796387 173.648193,204.399902 175.5271,204.399902 C177.374268,204.399902 178.497803,205.713867 178.497803,207.840332 L178.497803,208.259277 L173.578369,208.259277 L173.578369,208.310059 C173.635498,209.662109 174.390869,210.519043 175.55249,210.519043 C176.434814,210.519043 177.031494,210.195312 177.317139,209.592285 Z M180.21167,211.363281 L180.21167,204.520508 L181.252686,204.520508 L181.252686,205.599609 L181.354248,205.599609 C181.697021,204.844238 182.363525,204.399902 183.410889,204.399902 C184.947021,204.399902 185.803955,205.307617 185.803955,206.932617 L185.803955,211.363281 L184.712158,211.363281 L184.712158,207.199219 C184.712158,205.967773 184.19165,205.383789 183.099854,205.383789 C182.008057,205.383789 181.303467,206.11377 181.303467,207.313477 L181.303467,211.363281 L180.21167,211.363281 Z M187.638428,206.393066 C187.638428,205.256836 188.736572,204.399902 190.190186,204.399902 C191.624756,204.399902 192.621338,205.11084 192.767334,206.234375 L191.688232,206.234375 C191.542236,205.688477 191.009033,205.32666 190.183838,205.32666 C189.371338,205.32666 188.736572,205.739258 188.736572,206.348633 C188.736572,206.818359 189.117432,207.110352 189.923584,207.307129 L190.977295,207.561035 C192.265869,207.87207 192.887939,208.430664 192.887939,209.414551 C192.887939,210.639648 191.700928,211.483887 190.145752,211.483887 C188.622314,211.483887 187.574951,210.753906 187.454346,209.617676 L188.577881,209.617676 C188.761963,210.195312 189.307861,210.563477 190.183838,210.563477 C191.104248,210.563477 191.764404,210.125488 191.764404,209.49707 C191.764404,209.027344 191.408936,208.709961 190.678955,208.532227 L189.504639,208.246582 C188.222412,207.935547 187.638428,207.383301 187.638428,206.393066 Z M197.134521,211.483887 C195.382568,211.483887 194.259033,210.09375 194.259033,207.941895 C194.259033,205.796387 195.395264,204.399902 197.134521,204.399902 C198.08667,204.399902 198.892822,204.850586 199.280029,205.599609 L199.375244,205.599609 L199.375244,201.803711 L200.467041,201.803711 L200.467041,211.363281 L199.426025,211.363281 L199.426025,210.271484 L199.324463,210.271484 C198.892822,211.033203 198.080322,211.483887 197.134521,211.483887 Z M197.388428,205.383789 C196.144287,205.383789 195.388916,206.348633 195.388916,207.941895 C195.388916,209.541504 196.137939,210.5 197.388428,210.5 C198.632568,210.5 199.400635,209.522461 199.400635,207.941895 C199.400635,206.374023 198.626221,205.383789 197.388428,205.383789 Z M204.69458,210.525391 C205.818115,210.525391 206.649658,209.789062 206.649658,208.811523 L206.649658,208.183105 L204.808838,208.303711 C203.767822,208.373535 203.310791,208.735352 203.310791,209.420898 C203.310791,210.119141 203.901123,210.525391 204.69458,210.525391 Z M204.491455,211.483887 C203.164795,211.483887 202.180908,210.696777 202.180908,209.446289 C202.180908,208.221191 203.082275,207.516602 204.675537,207.421387 L206.649658,207.300781 L206.649658,206.678711 C206.649658,205.834473 206.122803,205.371094 205.10083,205.371094 C204.281982,205.371094 203.710693,205.682129 203.55835,206.22168 L202.453857,206.22168 C202.599854,205.123535 203.678955,204.399902 205.138916,204.399902 C206.80835,204.399902 207.741455,205.256836 207.741455,206.678711 L207.741455,211.363281 L206.700439,211.363281 L206.700439,210.354004 L206.598877,210.354004 C206.154541,211.083984 205.405518,211.483887 204.491455,211.483887 Z M212.527588,210.296875 C213.797119,210.296875 214.558838,209.332031 214.558838,207.840332 C214.558838,206.348633 213.790771,205.383789 212.527588,205.383789 C211.258057,205.383789 210.547119,206.348633 210.547119,207.840332 C210.547119,209.332031 211.258057,210.296875 212.527588,210.296875 Z M212.578369,213.991211 C210.927979,213.991211 209.874268,213.248535 209.709229,212.118652 L210.864502,212.118652 C210.985107,212.677246 211.594482,213.039062 212.578369,213.039062 C213.803467,213.039062 214.533447,212.436035 214.533447,211.426758 L214.533447,210.081055 L214.431885,210.081055 C214.000244,210.836426 213.22583,211.261719 212.286377,211.261719 C210.515381,211.261719 209.417236,209.890625 209.417236,207.840332 C209.417236,205.790039 210.528076,204.399902 212.286377,204.399902 C213.244873,204.399902 214.089111,204.869629 214.482666,205.605957 L214.584229,205.605957 L214.584229,204.520508 L215.625244,204.520508 L215.625244,211.483887 C215.625244,213.013672 214.44458,213.991211 212.578369,213.991211 Z"/>
    <path fill="#3366FF" d="M254.264648,201.96875 C256.96875,201.96875 258.663574,203.815918 258.663574,206.780273 C258.663574,209.750977 256.975098,211.598145 254.264648,211.598145 C251.547852,211.598145 249.853027,209.750977 249.853027,206.780273 C249.853027,203.80957 251.573242,201.96875 254.264648,201.96875 Z M254.264648,203.650879 C252.779297,203.650879 251.814453,204.863281 251.814453,206.780273 C251.814453,208.690918 252.760254,209.916016 254.264648,209.916016 C255.756348,209.916016 256.708496,208.690918 256.708496,206.780273 C256.708496,204.863281 255.756348,203.650879 254.264648,203.650879 Z M264.338379,204.247559 C266.109375,204.247559 267.194824,205.593262 267.194824,207.859375 C267.194824,210.119141 266.12207,211.471191 264.370117,211.471191 C263.367188,211.471191 262.599121,211.033203 262.256348,210.290527 L262.14209,210.290527 L262.14209,213.686523 L260.294922,213.686523 L260.294922,204.361816 L262.084961,204.361816 L262.084961,205.510742 L262.199219,205.510742 C262.580078,204.723633 263.373535,204.247559 264.338379,204.247559 Z M263.709961,209.928711 C264.706543,209.928711 265.296875,209.154297 265.296875,207.859375 C265.296875,206.577148 264.700195,205.796387 263.716309,205.796387 C262.732422,205.796387 262.123047,206.583496 262.123047,207.865723 C262.123047,209.147949 262.732422,209.928711 263.709961,209.928711 Z M268.762695,211.363281 L268.762695,201.689453 L270.609863,201.689453 L270.609863,211.363281 L268.762695,211.363281 Z M275.630859,211.515625 C273.479004,211.515625 272.184082,210.150879 272.184082,207.859375 C272.184082,205.593262 273.498047,204.209473 275.630859,204.209473 C277.763672,204.209473 279.077637,205.586914 279.077637,207.859375 C279.077637,210.150879 277.782715,211.515625 275.630859,211.515625 Z M275.630859,210.004883 C276.614746,210.004883 277.179688,209.217773 277.179688,207.859375 C277.179688,206.513672 276.608398,205.720215 275.630859,205.720215 C274.646973,205.720215 274.082031,206.513672 274.082031,207.859375 C274.082031,209.224121 274.640625,210.004883 275.630859,210.004883 Z M280.42334,206.418457 C280.42334,205.091797 281.591309,204.209473 283.336914,204.209473 C285.114258,204.209473 286.161621,204.952148 286.263184,206.291504 L284.555664,206.291504 C284.460449,205.84082 284.035156,205.561523 283.349609,205.561523 C282.689453,205.561523 282.200684,205.859863 282.200684,206.304199 C282.200684,206.646973 282.499023,206.856445 283.146484,207.002441 L284.460449,207.288086 C285.818848,207.586426 286.428223,208.157715 286.428223,209.205078 C286.428223,210.601562 285.177734,211.515625 283.343262,211.515625 C281.496094,211.515625 280.378906,210.760254 280.251953,209.414551 L282.054688,209.414551 C282.194336,209.890625 282.64502,210.163574 283.381348,210.163574 C284.098633,210.163574 284.59375,209.865234 284.59375,209.414551 C284.59375,209.071777 284.327148,208.862305 283.711426,208.729004 L282.441895,208.443359 C281.083496,208.14502 280.42334,207.497559 280.42334,206.418457 Z M287.786621,206.418457 C287.786621,205.091797 288.95459,204.209473 290.700195,204.209473 C292.477539,204.209473 293.524902,204.952148 293.626465,206.291504 L291.918945,206.291504 C291.82373,205.84082 291.398438,205.561523 290.712891,205.561523 C290.052734,205.561523 289.563965,205.859863 289.563965,206.304199 C289.563965,206.646973 289.862305,206.856445 290.509766,207.002441 L291.82373,207.288086 C293.182129,207.586426 293.791504,208.157715 293.791504,209.205078 C293.791504,210.601562 292.541016,211.515625 290.706543,211.515625 C288.859375,211.515625 287.742188,210.760254 287.615234,209.414551 L289.417969,209.414551 C289.557617,209.890625 290.008301,210.163574 290.744629,210.163574 C291.461914,210.163574 291.957031,209.865234 291.957031,209.414551 C291.957031,209.071777 291.69043,208.862305 291.074707,208.729004 L289.805176,208.443359 C288.446777,208.14502 287.786621,207.497559 287.786621,206.418457 Z M295.321289,211.363281 L295.321289,204.361816 L297.168457,204.361816 L297.168457,211.363281 L295.321289,211.363281 Z M296.248047,203.384277 C295.581543,203.384277 295.15625,202.99707 295.15625,202.451172 C295.15625,201.898926 295.581543,201.518066 296.248047,201.518066 C296.908203,201.518066 297.339844,201.898926 297.339844,202.451172 C297.339844,202.99707 296.908203,203.384277 296.248047,203.384277 Z M299.034668,211.363281 L299.034668,204.361816 L300.824707,204.361816 L300.824707,205.485352 L300.938965,205.485352 C301.262695,204.698242 301.973633,204.209473 303.008301,204.209473 C304.563477,204.209473 305.401367,205.161621 305.401367,206.837402 L305.401367,211.363281 L303.554199,211.363281 L303.554199,207.275391 C303.554199,206.310547 303.141602,205.802734 302.265625,205.802734 C301.408691,205.802734 300.881836,206.405762 300.881836,207.326172 L300.881836,211.363281 L299.034668,211.363281 Z M310.301758,209.801758 C311.304688,209.801758 311.901367,209.033691 311.901367,207.802246 C311.901367,206.570801 311.29834,205.796387 310.301758,205.796387 C309.305176,205.796387 308.727539,206.570801 308.727539,207.795898 C308.727539,209.033691 309.298828,209.801758 310.301758,209.801758 Z M310.276367,214.016602 C308.416504,214.016602 307.185059,213.197754 307.070801,211.966309 L308.898926,211.966309 C308.994141,212.397949 309.514648,212.670898 310.314453,212.670898 C311.304688,212.670898 311.882324,212.213867 311.882324,211.426758 L311.882324,210.131836 L311.768066,210.131836 C311.380859,210.868164 310.644531,211.261719 309.660645,211.261719 C307.915039,211.261719 306.82959,209.909668 306.82959,207.802246 C306.82959,205.631348 307.921387,204.247559 309.69873,204.247559 C310.644531,204.247559 311.450684,204.717285 311.825195,205.485352 L311.939453,205.485352 L311.939453,204.361816 L313.729492,204.361816 L313.729492,211.337891 C313.729492,212.981934 312.390137,214.016602 310.276367,214.016602 Z M318.61084,205.625 C317.753906,205.625 317.150879,206.22168 317.087402,207.129395 L320.070801,207.129395 C320.032715,206.202637 319.474121,205.625 318.61084,205.625 Z M320.108887,209.370117 L321.829102,209.370117 C321.549805,210.69043 320.34375,211.515625 318.629883,211.515625 C316.49707,211.515625 315.240234,210.169922 315.240234,207.897461 C315.240234,205.618652 316.522461,204.209473 318.604492,204.209473 C320.66748,204.209473 321.88623,205.523438 321.88623,207.745117 L321.88623,208.310059 L317.081055,208.310059 L317.081055,208.405273 C317.106445,209.446289 317.71582,210.09375 318.680664,210.09375 C319.410645,210.09375 319.912109,209.833496 320.108887,209.370117 Z M323.396973,211.363281 L323.396973,204.361816 L325.187012,204.361816 L325.187012,205.485352 L325.30127,205.485352 C325.625,204.698242 326.335938,204.209473 327.370605,204.209473 C328.925781,204.209473 329.763672,205.161621 329.763672,206.837402 L329.763672,211.363281 L327.916504,211.363281 L327.916504,207.275391 C327.916504,206.310547 327.503906,205.802734 326.62793,205.802734 C325.770996,205.802734 325.244141,206.405762 325.244141,207.326172 L325.244141,211.363281 L323.396973,211.363281 Z M339.03125,211.471191 C338.041016,211.471191 337.247559,211.026855 336.873047,210.265137 L336.758789,210.265137 L336.758789,211.363281 L334.96875,211.363281 L334.96875,201.689453 L336.815918,201.689453 L336.815918,205.479004 L336.930176,205.479004 C337.285645,204.710938 338.072754,204.247559 339.03125,204.247559 C340.802246,204.247559 341.868652,205.599609 341.868652,207.859375 C341.868652,210.106445 340.789551,211.471191 339.03125,211.471191 Z M338.390137,205.796387 C337.418945,205.796387 336.803223,206.589844 336.796875,207.865723 C336.803223,209.135254 337.412598,209.928711 338.390137,209.928711 C339.374023,209.928711 339.970703,209.141602 339.970703,207.859375 C339.970703,206.583496 339.367676,205.796387 338.390137,205.796387 Z M346.400879,205.625 C345.543945,205.625 344.940918,206.22168 344.877441,207.129395 L347.86084,207.129395 C347.822754,206.202637 347.26416,205.625 346.400879,205.625 Z M347.898926,209.370117 L349.619141,209.370117 C349.339844,210.69043 348.133789,211.515625 346.419922,211.515625 C344.287109,211.515625 343.030273,210.169922 343.030273,207.897461 C343.030273,205.618652 344.3125,204.209473 346.394531,204.209473 C348.45752,204.209473 349.67627,205.523438 349.67627,207.745117 L349.67627,208.310059 L344.871094,208.310059 L344.871094,208.405273 C344.896484,209.446289 345.505859,210.09375 346.470703,210.09375 C347.200684,210.09375 347.702148,209.833496 347.898926,209.370117 Z M353.694336,211.471191 C351.929688,211.471191 350.844238,210.087402 350.844238,207.853027 C350.844238,205.625 351.936035,204.247559 353.694336,204.247559 C354.640137,204.247559 355.420898,204.70459 355.782715,205.479004 L355.890625,205.479004 L355.890625,201.689453 L357.737793,201.689453 L357.737793,211.363281 L355.947754,211.363281 L355.947754,210.265137 L355.833496,210.265137 C355.458984,211.020508 354.665527,211.471191 353.694336,211.471191 Z M354.322754,205.796387 C353.338867,205.796387 352.742188,206.577148 352.742188,207.859375 C352.742188,209.154297 353.33252,209.928711 354.322754,209.928711 C355.312988,209.928711 355.909668,209.147949 355.909668,207.865723 C355.909668,206.589844 355.306641,205.796387 354.322754,205.796387 Z M362.682617,205.625 C361.825684,205.625 361.222656,206.22168 361.15918,207.129395 L364.142578,207.129395 C364.104492,206.202637 363.545898,205.625 362.682617,205.625 Z M364.180664,209.370117 L365.900879,209.370117 C365.621582,210.69043 364.415527,211.515625 362.70166,211.515625 C360.568848,211.515625 359.312012,210.169922 359.312012,207.897461 C359.312012,205.618652 360.594238,204.209473 362.67627,204.209473 C364.739258,204.209473 365.958008,205.523438 365.958008,207.745117 L365.958008,208.310059 L361.152832,208.310059 L361.152832,208.405273 C361.178223,209.446289 361.787598,210.09375 362.752441,210.09375 C363.482422,210.09375 363.983887,209.833496 364.180664,209.370117 Z M367.46875,211.363281 L367.46875,204.361816 L369.258789,204.361816 L369.258789,205.485352 L369.373047,205.485352 C369.696777,204.698242 370.407715,204.209473 371.442383,204.209473 C372.997559,204.209473 373.835449,205.161621 373.835449,206.837402 L373.835449,211.363281 L371.988281,211.363281 L371.988281,207.275391 C371.988281,206.310547 371.575684,205.802734 370.699707,205.802734 C369.842773,205.802734 369.315918,206.405762 369.315918,207.326172 L369.315918,211.363281 L367.46875,211.363281 Z M377.650391,207.097656 L379.992676,204.361816 L382.09375,204.361816 L379.427734,207.364258 L382.277832,211.363281 L380.087891,211.363281 L378.043945,208.519531 L377.536133,209.040039 L377.536133,211.363281 L375.688965,211.363281 L375.688965,201.689453 L377.536133,201.689453 L377.536133,207.097656 L377.650391,207.097656 Z M386.473633,205.625 C385.616699,205.625 385.013672,206.22168 384.950195,207.129395 L387.933594,207.129395 C387.895508,206.202637 387.336914,205.625 386.473633,205.625 Z M387.97168,209.370117 L389.691895,209.370117 C389.412598,210.69043 388.206543,211.515625 386.492676,211.515625 C384.359863,211.515625 383.103027,210.169922 383.103027,207.897461 C383.103027,205.618652 384.385254,204.209473 386.467285,204.209473 C388.530273,204.209473 389.749023,205.523438 389.749023,207.745117 L389.749023,208.310059 L384.943848,208.310059 L384.943848,208.405273 C384.969238,209.446289 385.578613,210.09375 386.543457,210.09375 C387.273438,210.09375 387.774902,209.833496 387.97168,209.370117 Z M391.259766,211.363281 L391.259766,204.361816 L393.049805,204.361816 L393.049805,205.485352 L393.164062,205.485352 C393.487793,204.698242 394.19873,204.209473 395.233398,204.209473 C396.788574,204.209473 397.626465,205.161621 397.626465,206.837402 L397.626465,211.363281 L395.779297,211.363281 L395.779297,207.275391 C395.779297,206.310547 395.366699,205.802734 394.490723,205.802734 C393.633789,205.802734 393.106934,206.405762 393.106934,207.326172 L393.106934,211.363281 L391.259766,211.363281 Z"/>
    <use fill="black" filter="url(#j)" xlink:href="#k"/>
    <use fill="#FFFFFF" xlink:href="#k"/>
    <use fill="#8F9092" xlink:href="#l"/>
    <path stroke="#8F9092" d="M299.734375,342.416016 L299.734375,297.310547 L200.039062,297.310547 C199.210635,297.310547 198.539062,297.98212 198.539062,298.810547 L198.539062,340.916016 C198.539062,341.744443 199.210635,342.416016 200.039062,342.416016 L299.734375,342.416016 Z"/>
    <path fill="#FFFFFF" d="M232.486816,324.363281 L231.356934,324.363281 L227.97998,315.203613 L229.179688,315.203613 L231.871094,322.884277 L231.972656,322.884277 L234.664062,315.203613 L235.86377,315.203613 L232.486816,324.363281 Z M237.330078,324.363281 L237.330078,317.520508 L238.371094,317.520508 L238.371094,318.536133 L238.472656,318.536133 C238.675781,317.869629 239.462891,317.399902 240.370605,317.399902 C240.54834,317.399902 240.776855,317.412598 240.916504,317.431641 L240.916504,318.523438 C240.827637,318.498047 240.434082,318.459961 240.218262,318.459961 C239.177246,318.459961 238.421875,319.158203 238.421875,320.123047 L238.421875,324.363281 L237.330078,324.363281 Z M242.306641,324.363281 L242.306641,317.520508 L243.398438,317.520508 L243.398438,324.363281 L242.306641,324.363281 Z M242.852539,316.130371 C242.433594,316.130371 242.09082,315.787598 242.09082,315.368652 C242.09082,314.949707 242.433594,314.606934 242.852539,314.606934 C243.271484,314.606934 243.614258,314.949707 243.614258,315.368652 C243.614258,315.787598 243.271484,316.130371 242.852539,316.130371 Z M246.597656,317.520508 L246.597656,324.699707 C246.597656,326.108887 245.9375,326.711914 244.50293,326.711914 L244.3125,326.711914 L244.3125,325.778809 L244.477539,325.778809 C245.251953,325.778809 245.505859,325.474121 245.505859,324.71875 L245.505859,317.520508 L246.597656,317.520508 Z M246.051758,316.130371 C245.632812,316.130371 245.290039,315.787598 245.290039,315.368652 C245.290039,314.949707 245.632812,314.606934 246.051758,314.606934 C246.470703,314.606934 246.813477,314.949707 246.813477,315.368652 C246.813477,315.787598 246.470703,316.130371 246.051758,316.130371 Z M251.212402,324.483887 C249.460449,324.483887 248.336914,323.09375 248.336914,320.941895 C248.336914,318.796387 249.473145,317.399902 251.212402,317.399902 C252.164551,317.399902 252.970703,317.850586 253.35791,318.599609 L253.453125,318.599609 L253.453125,314.803711 L254.544922,314.803711 L254.544922,324.363281 L253.503906,324.363281 L253.503906,323.271484 L253.402344,323.271484 C252.970703,324.033203 252.158203,324.483887 251.212402,324.483887 Z M251.466309,318.383789 C250.222168,318.383789 249.466797,319.348633 249.466797,320.941895 C249.466797,322.541504 250.21582,323.5 251.466309,323.5 C252.710449,323.5 253.478516,322.522461 253.478516,320.941895 C253.478516,319.374023 252.704102,318.383789 251.466309,318.383789 Z M258.772461,323.525391 C259.895996,323.525391 260.727539,322.789062 260.727539,321.811523 L260.727539,321.183105 L258.886719,321.303711 C257.845703,321.373535 257.388672,321.735352 257.388672,322.420898 C257.388672,323.119141 257.979004,323.525391 258.772461,323.525391 Z M258.569336,324.483887 C257.242676,324.483887 256.258789,323.696777 256.258789,322.446289 C256.258789,321.221191 257.160156,320.516602 258.753418,320.421387 L260.727539,320.300781 L260.727539,319.678711 C260.727539,318.834473 260.200684,318.371094 259.178711,318.371094 C258.359863,318.371094 257.788574,318.682129 257.63623,319.22168 L256.531738,319.22168 C256.677734,318.123535 257.756836,317.399902 259.216797,317.399902 C260.88623,317.399902 261.819336,318.256836 261.819336,319.678711 L261.819336,324.363281 L260.77832,324.363281 L260.77832,323.354004 L260.676758,323.354004 C260.232422,324.083984 259.483398,324.483887 258.569336,324.483887 Z M266.605469,323.296875 C267.875,323.296875 268.636719,322.332031 268.636719,320.840332 C268.636719,319.348633 267.868652,318.383789 266.605469,318.383789 C265.335938,318.383789 264.625,319.348633 264.625,320.840332 C264.625,322.332031 265.335938,323.296875 266.605469,323.296875 Z M266.65625,326.991211 C265.005859,326.991211 263.952148,326.248535 263.787109,325.118652 L264.942383,325.118652 C265.062988,325.677246 265.672363,326.039062 266.65625,326.039062 C267.881348,326.039062 268.611328,325.436035 268.611328,324.426758 L268.611328,323.081055 L268.509766,323.081055 C268.078125,323.836426 267.303711,324.261719 266.364258,324.261719 C264.593262,324.261719 263.495117,322.890625 263.495117,320.840332 C263.495117,318.790039 264.605957,317.399902 266.364258,317.399902 C267.322754,317.399902 268.166992,317.869629 268.560547,318.605957 L268.662109,318.605957 L268.662109,317.520508 L269.703125,317.520508 L269.703125,324.483887 C269.703125,326.013672 268.522461,326.991211 266.65625,326.991211 Z"/>
    <path fill="#3366FF" d="M320.690918,324.363281 L318.773926,324.363281 L318.773926,316.841309 L316.025391,316.841309 L316.025391,315.203613 L323.439453,315.203613 L323.439453,316.841309 L320.690918,316.841309 L320.690918,324.363281 Z M327.978027,318.625 C327.121094,318.625 326.518066,319.22168 326.45459,320.129395 L329.437988,320.129395 C329.399902,319.202637 328.841309,318.625 327.978027,318.625 Z M329.476074,322.370117 L331.196289,322.370117 C330.916992,323.69043 329.710938,324.515625 327.99707,324.515625 C325.864258,324.515625 324.607422,323.169922 324.607422,320.897461 C324.607422,318.618652 325.889648,317.209473 327.97168,317.209473 C330.034668,317.209473 331.253418,318.523438 331.253418,320.745117 L331.253418,321.310059 L326.448242,321.310059 L326.448242,321.405273 C326.473633,322.446289 327.083008,323.09375 328.047852,323.09375 C328.777832,323.09375 329.279297,322.833496 329.476074,322.370117 Z M332.605469,319.418457 C332.605469,318.091797 333.773438,317.209473 335.519043,317.209473 C337.296387,317.209473 338.34375,317.952148 338.445312,319.291504 L336.737793,319.291504 C336.642578,318.84082 336.217285,318.561523 335.531738,318.561523 C334.871582,318.561523 334.382812,318.859863 334.382812,319.304199 C334.382812,319.646973 334.681152,319.856445 335.328613,320.002441 L336.642578,320.288086 C338.000977,320.586426 338.610352,321.157715 338.610352,322.205078 C338.610352,323.601562 337.359863,324.515625 335.525391,324.515625 C333.678223,324.515625 332.561035,323.760254 332.434082,322.414551 L334.236816,322.414551 C334.376465,322.890625 334.827148,323.163574 335.563477,323.163574 C336.280762,323.163574 336.775879,322.865234 336.775879,322.414551 C336.775879,322.071777 336.509277,321.862305 335.893555,321.729004 L334.624023,321.443359 C333.265625,321.14502 332.605469,320.497559 332.605469,319.418457 Z M340.654297,315.69873 L342.501465,315.69873 L342.501465,317.431641 L343.955078,317.431641 L343.955078,318.885254 L342.501465,318.885254 L342.501465,322.033691 C342.501465,322.643066 342.780762,322.922363 343.40918,322.922363 C343.650391,322.922363 343.777344,322.916016 343.955078,322.896973 L343.955078,324.306152 C343.726562,324.350586 343.383789,324.388672 343.02832,324.388672 C341.327148,324.388672 340.654297,323.836426 340.654297,322.47168 L340.654297,318.885254 L339.5625,318.885254 L339.5625,317.431641 L340.654297,317.431641 L340.654297,315.69873 Z M348.519043,318.625 C347.662109,318.625 347.059082,319.22168 346.995605,320.129395 L349.979004,320.129395 C349.940918,319.202637 349.382324,318.625 348.519043,318.625 Z M350.01709,322.370117 L351.737305,322.370117 C351.458008,323.69043 350.251953,324.515625 348.538086,324.515625 C346.405273,324.515625 345.148438,323.169922 345.148438,320.897461 C345.148438,318.618652 346.430664,317.209473 348.512695,317.209473 C350.575684,317.209473 351.794434,318.523438 351.794434,320.745117 L351.794434,321.310059 L346.989258,321.310059 L346.989258,321.405273 C347.014648,322.446289 347.624023,323.09375 348.588867,323.09375 C349.318848,323.09375 349.820312,322.833496 350.01709,322.370117 Z M353.305176,324.363281 L353.305176,317.361816 L355.095215,317.361816 L355.095215,318.485352 L355.209473,318.485352 C355.533203,317.698242 356.244141,317.209473 357.278809,317.209473 C358.833984,317.209473 359.671875,318.161621 359.671875,319.837402 L359.671875,324.363281 L357.824707,324.363281 L357.824707,320.275391 C357.824707,319.310547 357.412109,318.802734 356.536133,318.802734 C355.679199,318.802734 355.152344,319.405762 355.152344,320.326172 L355.152344,324.363281 L353.305176,324.363281 Z M371.326172,324.363281 L370.621582,323.620605 C369.942383,324.198242 368.89502,324.541016 367.771484,324.541016 C365.822754,324.541016 364.565918,323.531738 364.565918,321.970215 C364.565918,320.922852 365.092773,320.173828 366.273438,319.526367 C366.311523,319.513672 366.628906,319.32959 366.679688,319.304199 C365.841797,318.447266 365.543457,317.875977 365.543457,317.203125 C365.543457,315.965332 366.647949,315.063965 368.152344,315.063965 C369.650391,315.063965 370.710449,315.927246 370.710449,317.165039 C370.710449,318.11084 370.126465,318.872559 368.844238,319.564453 L370.602539,321.38623 C370.818359,321.005371 370.92627,320.478516 370.92627,319.716797 L370.92627,319.266113 L372.481445,319.266113 L372.481445,319.837402 C372.481445,320.935547 372.195801,321.906738 371.700684,322.573242 L373.401855,324.363281 L371.326172,324.363281 Z M367.282715,320.44043 C366.616211,320.802246 366.298828,321.25293 366.298828,321.811523 C366.298828,322.611328 366.97168,323.150879 367.961914,323.150879 C368.628418,323.150879 369.288574,322.909668 369.650391,322.528809 L367.549316,320.313477 C367.479492,320.338867 367.352539,320.402344 367.282715,320.44043 Z M367.987305,318.669434 C368.825195,318.250488 369.167969,317.844238 369.167969,317.304688 C369.167969,316.727051 368.755371,316.333496 368.158691,316.333496 C367.562012,316.333496 367.136719,316.733398 367.136719,317.304688 C367.136719,317.723633 367.358887,318.072754 367.987305,318.669434 Z M381.971191,324.471191 C380.980957,324.471191 380.1875,324.026855 379.812988,323.265137 L379.69873,323.265137 L379.69873,324.363281 L377.908691,324.363281 L377.908691,314.689453 L379.755859,314.689453 L379.755859,318.479004 L379.870117,318.479004 C380.225586,317.710938 381.012695,317.247559 381.971191,317.247559 C383.742188,317.247559 384.808594,318.599609 384.808594,320.859375 C384.808594,323.106445 383.729492,324.471191 381.971191,324.471191 Z M381.330078,318.796387 C380.358887,318.796387 379.743164,319.589844 379.736816,320.865723 C379.743164,322.135254 380.352539,322.928711 381.330078,322.928711 C382.313965,322.928711 382.910645,322.141602 382.910645,320.859375 C382.910645,319.583496 382.307617,318.796387 381.330078,318.796387 Z M386.325684,324.363281 L386.325684,317.361816 L388.172852,317.361816 L388.172852,324.363281 L386.325684,324.363281 Z M387.252441,316.384277 C386.585938,316.384277 386.160645,315.99707 386.160645,315.451172 C386.160645,314.898926 386.585938,314.518066 387.252441,314.518066 C387.912598,314.518066 388.344238,314.898926 388.344238,315.451172 C388.344238,315.99707 387.912598,316.384277 387.252441,316.384277 Z M391.898926,317.361816 L391.898926,324.579102 C391.898926,326.013672 391.041992,326.75 389.42334,326.75 C389.290039,326.75 389.004395,326.737305 388.928223,326.724609 L388.928223,325.309082 C388.966309,325.31543 389.105957,325.31543 389.163086,325.31543 C389.810547,325.31543 390.051758,325.086914 390.051758,324.52832 L390.051758,317.361816 L391.898926,317.361816 Z M390.978516,316.384277 C390.312012,316.384277 389.886719,315.99707 389.886719,315.451172 C389.886719,314.898926 390.312012,314.518066 390.978516,314.518066 C391.638672,314.518066 392.070312,314.898926 392.070312,315.451172 C392.070312,315.99707 391.638672,316.384277 390.978516,316.384277 Z M393.606445,319.418457 C393.606445,318.091797 394.774414,317.209473 396.52002,317.209473 C398.297363,317.209473 399.344727,317.952148 399.446289,319.291504 L397.73877,319.291504 C397.643555,318.84082 397.218262,318.561523 396.532715,318.561523 C395.872559,318.561523 395.383789,318.859863 395.383789,319.304199 C395.383789,319.646973 395.682129,319.856445 396.32959,320.002441 L397.643555,320.288086 C399.001953,320.586426 399.611328,321.157715 399.611328,322.205078 C399.611328,323.601562 398.36084,324.515625 396.526367,324.515625 C394.679199,324.515625 393.562012,323.760254 393.435059,322.414551 L395.237793,322.414551 C395.377441,322.890625 395.828125,323.163574 396.564453,323.163574 C397.281738,323.163574 397.776855,322.865234 397.776855,322.414551 C397.776855,322.071777 397.510254,321.862305 396.894531,321.729004 L395.625,321.443359 C394.266602,321.14502 393.606445,320.497559 393.606445,319.418457 Z M401.655273,315.69873 L403.502441,315.69873 L403.502441,317.431641 L404.956055,317.431641 L404.956055,318.885254 L403.502441,318.885254 L403.502441,322.033691 C403.502441,322.643066 403.781738,322.922363 404.410156,322.922363 C404.651367,322.922363 404.77832,322.916016 404.956055,322.896973 L404.956055,324.306152 C404.727539,324.350586 404.384766,324.388672 404.029297,324.388672 C402.328125,324.388672 401.655273,323.836426 401.655273,322.47168 L401.655273,318.885254 L400.563477,318.885254 L400.563477,317.431641 L401.655273,317.431641 L401.655273,315.69873 Z M412.827148,317.361816 L412.827148,324.363281 L411.037109,324.363281 L411.037109,323.239746 L410.922852,323.239746 C410.592773,324.052246 409.938965,324.515625 408.878906,324.515625 C407.368164,324.515625 406.428711,323.550781 406.428711,321.925781 L406.428711,317.361816 L408.275879,317.361816 L408.275879,321.449707 C408.275879,322.414551 408.713867,322.909668 409.564453,322.909668 C410.484863,322.909668 410.97998,322.332031 410.97998,321.398926 L410.97998,317.361816 L412.827148,317.361816 Z M414.680664,324.363281 L414.680664,317.361816 L416.470703,317.361816 L416.470703,318.479004 L416.584961,318.479004 C416.769043,317.780762 417.492676,317.247559 418.381348,317.247559 C418.635254,317.247559 418.946289,317.279297 419.10498,317.336426 L419.10498,319.018555 C418.958984,318.961426 418.527344,318.904297 418.229004,318.904297 C417.219727,318.904297 416.527832,319.500977 416.527832,320.484863 L416.527832,324.363281 L414.680664,324.363281 Z M423.364258,318.625 C422.507324,318.625 421.904297,319.22168 421.84082,320.129395 L424.824219,320.129395 C424.786133,319.202637 424.227539,318.625 423.364258,318.625 Z M424.862305,322.370117 L426.58252,322.370117 C426.303223,323.69043 425.097168,324.515625 423.383301,324.515625 C421.250488,324.515625 419.993652,323.169922 419.993652,320.897461 C419.993652,318.618652 421.275879,317.209473 423.35791,317.209473 C425.420898,317.209473 426.639648,318.523438 426.639648,320.745117 L426.639648,321.310059 L421.834473,321.310059 L421.834473,321.405273 C421.859863,322.446289 422.469238,323.09375 423.434082,323.09375 C424.164062,323.09375 424.665527,322.833496 424.862305,322.370117 Z M428.150391,324.363281 L428.150391,317.361816 L429.94043,317.361816 L429.94043,318.485352 L430.054688,318.485352 C430.378418,317.698242 431.089355,317.209473 432.124023,317.209473 C433.679199,317.209473 434.51709,318.161621 434.51709,319.837402 L434.51709,324.363281 L432.669922,324.363281 L432.669922,320.275391 C432.669922,319.310547 432.257324,318.802734 431.381348,318.802734 C430.524414,318.802734 429.997559,319.405762 429.997559,320.326172 L429.997559,324.363281 L428.150391,324.363281 Z"/>
    <g stroke="#FF3333" stroke-linecap="round" stroke-linejoin="round" stroke-width="3" transform="translate(379 150)">
      <path d="M21.8671875,21.2578125 C21.8671875,9.65983275 12.4651672,0.2578125 0.8671875,0.2578125"/>
      <path d="M15.3671875,16.7578125 L21.8671875,21.2578125"/>
      <path d="M27,16 L21.8671875,21.2578125"/>
    </g>
    <path stroke="#FF3333" stroke-linecap="round" stroke-linejoin="round" stroke-width="3" d="M89.3320312,150.867188 C89.3320312,139.269208 79.930011,129.867188 68.3320312,129.867188" transform="matrix(0 1 1 0 -61.535 61.535)"/>
    <path stroke="#FF3333" stroke-linecap="round" stroke-linejoin="round" stroke-width="3" d="M83.8320312,145.367188 L90.3320312,149.867188" transform="matrix(0 1 1 0 -60.535 60.535)"/>
    <path stroke="#FF3333" stroke-linecap="round" stroke-linejoin="round" stroke-width="3" d="M89.2695312,150.804688 L84.1367188,156.0625" transform="matrix(0 1 1 0 -66.73 66.73)"/>
    <path stroke="#FF3333" stroke-linecap="round" stroke-linejoin="round" stroke-width="3" d="M185.625,321.867188 C185.625,310.269208 176.22298,300.867188 164.625,300.867188" transform="scale(-1 1) rotate(90 0 136.242)"/>
    <path stroke="#FF3333" stroke-linecap="round" stroke-linejoin="round" stroke-width="3" d="M180.125,316.367188 L186.625,320.867188" transform="scale(-1 1) rotate(90 0 135.242)"/>
    <path stroke="#FF3333" stroke-linecap="round" stroke-linejoin="round" stroke-width="3" d="M185.5625,321.804688 L180.429688,327.0625" transform="scale(-1 1) rotate(90 0 141.438)"/>
    <path fill="#EBEDF2" d="M119.460469,334.303696 L125.867711,334.303696 L125.867711,327.896455 L119.460469,327.896455 L119.460469,334.303696 Z M132.274952,295.860248 L138.682194,295.860248 L138.682194,289.453007 L132.274952,289.453007 L132.274952,295.860248 Z M81.0170212,283.045765 L81.0170212,327.896455 C81.0170212,331.420438 83.9002801,334.303696 87.4242626,334.303696 L100.238745,334.303696 L100.238745,327.896455 L87.4242626,327.896455 L87.4242626,283.045765 L100.238745,283.045765 L100.238745,276.638524 L87.4242626,276.638524 C83.9002801,276.638524 81.0170212,279.521783 81.0170212,283.045765 Z M132.274952,276.638524 L132.274952,283.045765 L138.682194,283.045765 C138.682194,279.521783 135.798936,276.638524 132.274952,276.638524 Z M106.645987,340.710938 L113.053228,340.710938 L113.053228,270.231282 L106.645987,270.231282 L106.645987,340.710938 Z M132.274952,321.489213 L138.682194,321.489213 L138.682194,315.081972 L132.274952,315.081972 L132.274952,321.489213 Z M119.460469,283.045765 L125.867711,283.045765 L125.867711,276.638524 L119.460469,276.638524 L119.460469,283.045765 Z M132.274952,308.674731 L138.682194,308.674731 L138.682194,302.267489 L132.274952,302.267489 L132.274952,308.674731 Z M132.274952,334.303696 C135.798936,334.303696 138.682194,331.420438 138.682194,327.896455 L132.274952,327.896455 L132.274952,334.303696 Z"/>
    <g>
      <use fill="black" filter="url(#m)" xlink:href="#n"/>
      <use fill="#FFFFFF" xlink:href="#n"/>
    </g>
    <g>
      <use fill="#8F9092" xlink:href="#o"/>
      <path stroke="#8F9092" d="M140.734375,285.416016 L140.734375,240.310547 L41.0390625,240.310547 C40.2106354,240.310547 39.5390625,240.98212 39.5390625,241.810547 L39.5390625,283.916016 C39.5390625,284.744443 40.2106354,285.416016 41.0390625,285.416016 L140.734375,285.416016 Z"/>
    </g>
    <path fill="#FFFFFF" d="M57.2304688,258.203613 L60.3725586,258.203613 C63.0893555,258.203613 64.6953125,259.898438 64.6953125,262.780273 C64.6953125,265.668457 63.0957031,267.363281 60.3725586,267.363281 L57.2304688,267.363281 L57.2304688,258.203613 Z M58.3730469,259.231934 L58.3730469,266.334961 L60.2963867,266.334961 C62.340332,266.334961 63.5273438,265.027344 63.5273438,262.792969 C63.5273438,260.552246 62.3276367,259.231934 60.2963867,259.231934 L58.3730469,259.231934 Z M69.3417969,267.483887 C67.3930664,267.483887 66.1870117,266.138184 66.1870117,263.941895 C66.1870117,261.739258 67.3930664,260.399902 69.3417969,260.399902 C71.2905273,260.399902 72.496582,261.739258 72.496582,263.941895 C72.496582,266.138184 71.2905273,267.483887 69.3417969,267.483887 Z M69.3417969,266.5 C70.6367188,266.5 71.3666992,265.560547 71.3666992,263.941895 C71.3666992,262.316895 70.6367188,261.383789 69.3417969,261.383789 C68.046875,261.383789 67.3168945,262.316895 67.3168945,263.941895 C67.3168945,265.560547 68.046875,266.5 69.3417969,266.5 Z M74.2104492,267.363281 L74.2104492,260.520508 L75.2514648,260.520508 L75.2514648,261.599609 L75.3530273,261.599609 C75.6958008,260.844238 76.3623047,260.399902 77.409668,260.399902 C78.9458008,260.399902 79.8027344,261.307617 79.8027344,262.932617 L79.8027344,267.363281 L78.7109375,267.363281 L78.7109375,263.199219 C78.7109375,261.967773 78.1904297,261.383789 77.0986328,261.383789 C76.0068359,261.383789 75.3022461,262.11377 75.3022461,263.313477 L75.3022461,267.363281 L74.2104492,267.363281 Z M84.3286133,267.483887 C82.5766602,267.483887 81.453125,266.09375 81.453125,263.941895 C81.453125,261.796387 82.5893555,260.399902 84.3286133,260.399902 C85.2807617,260.399902 86.0869141,260.850586 86.4741211,261.599609 L86.5693359,261.599609 L86.5693359,257.803711 L87.6611328,257.803711 L87.6611328,267.363281 L86.6201172,267.363281 L86.6201172,266.271484 L86.5185547,266.271484 C86.0869141,267.033203 85.2744141,267.483887 84.3286133,267.483887 Z M84.5825195,261.383789 C83.3383789,261.383789 82.5830078,262.348633 82.5830078,263.941895 C82.5830078,265.541504 83.3320312,266.5 84.5825195,266.5 C85.8266602,266.5 86.5947266,265.522461 86.5947266,263.941895 C86.5947266,262.374023 85.8203125,261.383789 84.5825195,261.383789 Z M92.5107422,261.364746 C91.4189453,261.364746 90.6572266,262.164551 90.574707,263.376953 L94.3452148,263.376953 C94.3198242,262.164551 93.5961914,261.364746 92.5107422,261.364746 Z M94.3134766,265.592285 L95.4052734,265.592285 C95.0751953,266.766602 94.0214844,267.483887 92.5234375,267.483887 C90.6254883,267.483887 89.4384766,266.112793 89.4384766,263.948242 C89.4384766,261.796387 90.6445312,260.399902 92.5234375,260.399902 C94.3706055,260.399902 95.4941406,261.713867 95.4941406,263.840332 L95.4941406,264.259277 L90.574707,264.259277 L90.574707,264.310059 C90.6318359,265.662109 91.387207,266.519043 92.5488281,266.519043 C93.4311523,266.519043 94.027832,266.195312 94.3134766,265.592285 Z M97.2080078,267.363281 L97.2080078,260.520508 L98.2490234,260.520508 L98.2490234,261.536133 L98.3505859,261.536133 C98.5537109,260.869629 99.3408203,260.399902 100.248535,260.399902 C100.42627,260.399902 100.654785,260.412598 100.794434,260.431641 L100.794434,261.523438 C100.705566,261.498047 100.312012,261.459961 100.096191,261.459961 C99.0551758,261.459961 98.2998047,262.158203 98.2998047,263.123047 L98.2998047,267.363281 L97.2080078,267.363281 Z M104.691895,267.483887 C102.939941,267.483887 101.816406,266.09375 101.816406,263.941895 C101.816406,261.796387 102.952637,260.399902 104.691895,260.399902 C105.644043,260.399902 106.450195,260.850586 106.837402,261.599609 L106.932617,261.599609 L106.932617,257.803711 L108.024414,257.803711 L108.024414,267.363281 L106.983398,267.363281 L106.983398,266.271484 L106.881836,266.271484 C106.450195,267.033203 105.637695,267.483887 104.691895,267.483887 Z M104.945801,261.383789 C103.70166,261.383789 102.946289,262.348633 102.946289,263.941895 C102.946289,265.541504 103.695312,266.5 104.945801,266.5 C106.189941,266.5 106.958008,265.522461 106.958008,263.941895 C106.958008,262.374023 106.183594,261.383789 104.945801,261.383789 Z M112.251953,266.525391 C113.375488,266.525391 114.207031,265.789062 114.207031,264.811523 L114.207031,264.183105 L112.366211,264.303711 C111.325195,264.373535 110.868164,264.735352 110.868164,265.420898 C110.868164,266.119141 111.458496,266.525391 112.251953,266.525391 Z M112.048828,267.483887 C110.722168,267.483887 109.738281,266.696777 109.738281,265.446289 C109.738281,264.221191 110.639648,263.516602 112.23291,263.421387 L114.207031,263.300781 L114.207031,262.678711 C114.207031,261.834473 113.680176,261.371094 112.658203,261.371094 C111.839355,261.371094 111.268066,261.682129 111.115723,262.22168 L110.01123,262.22168 C110.157227,261.123535 111.236328,260.399902 112.696289,260.399902 C114.365723,260.399902 115.298828,261.256836 115.298828,262.678711 L115.298828,267.363281 L114.257812,267.363281 L114.257812,266.354004 L114.15625,266.354004 C113.711914,267.083984 112.962891,267.483887 112.048828,267.483887 Z M120.084961,266.296875 C121.354492,266.296875 122.116211,265.332031 122.116211,263.840332 C122.116211,262.348633 121.348145,261.383789 120.084961,261.383789 C118.81543,261.383789 118.104492,262.348633 118.104492,263.840332 C118.104492,265.332031 118.81543,266.296875 120.084961,266.296875 Z M120.135742,269.991211 C118.485352,269.991211 117.431641,269.248535 117.266602,268.118652 L118.421875,268.118652 C118.54248,268.677246 119.151855,269.039062 120.135742,269.039062 C121.36084,269.039062 122.09082,268.436035 122.09082,267.426758 L122.09082,266.081055 L121.989258,266.081055 C121.557617,266.836426 120.783203,267.261719 119.84375,267.261719 C118.072754,267.261719 116.974609,265.890625 116.974609,263.840332 C116.974609,261.790039 118.085449,260.399902 119.84375,260.399902 C120.802246,260.399902 121.646484,260.869629 122.040039,261.605957 L122.141602,261.605957 L122.141602,260.520508 L123.182617,260.520508 L123.182617,267.483887 C123.182617,269.013672 122.001953,269.991211 120.135742,269.991211 Z"/>
    <path fill="#3366FF" d="M157.552246,258.203613 L161.373535,258.203613 C163.258789,258.203613 164.547363,259.466797 164.547363,261.371094 C164.547363,263.256348 163.208008,264.519531 161.27832,264.519531 L159.469238,264.519531 L159.469238,267.363281 L157.552246,267.363281 L157.552246,258.203613 Z M159.469238,259.777832 L159.469238,262.964355 L160.859375,262.964355 C161.95752,262.964355 162.598633,262.405762 162.598633,261.377441 C162.598633,260.336426 161.970215,259.777832 160.865723,259.777832 L159.469238,259.777832 Z M166.12793,267.363281 L166.12793,260.361816 L167.917969,260.361816 L167.917969,261.479004 L168.032227,261.479004 C168.216309,260.780762 168.939941,260.247559 169.828613,260.247559 C170.08252,260.247559 170.393555,260.279297 170.552246,260.336426 L170.552246,262.018555 C170.40625,261.961426 169.974609,261.904297 169.67627,261.904297 C168.666992,261.904297 167.975098,262.500977 167.975098,263.484863 L167.975098,267.363281 L166.12793,267.363281 Z M174.887695,267.515625 C172.73584,267.515625 171.440918,266.150879 171.440918,263.859375 C171.440918,261.593262 172.754883,260.209473 174.887695,260.209473 C177.020508,260.209473 178.334473,261.586914 178.334473,263.859375 C178.334473,266.150879 177.039551,267.515625 174.887695,267.515625 Z M174.887695,266.004883 C175.871582,266.004883 176.436523,265.217773 176.436523,263.859375 C176.436523,262.513672 175.865234,261.720215 174.887695,261.720215 C173.903809,261.720215 173.338867,262.513672 173.338867,263.859375 C173.338867,265.224121 173.897461,266.004883 174.887695,266.004883 Z M180.365723,258.69873 L182.212891,258.69873 L182.212891,260.431641 L183.666504,260.431641 L183.666504,261.885254 L182.212891,261.885254 L182.212891,265.033691 C182.212891,265.643066 182.492188,265.922363 183.120605,265.922363 C183.361816,265.922363 183.48877,265.916016 183.666504,265.896973 L183.666504,267.306152 C183.437988,267.350586 183.095215,267.388672 182.739746,267.388672 C181.038574,267.388672 180.365723,266.836426 180.365723,265.47168 L180.365723,261.885254 L179.273926,261.885254 L179.273926,260.431641 L180.365723,260.431641 L180.365723,258.69873 Z M188.306641,267.515625 C186.154785,267.515625 184.859863,266.150879 184.859863,263.859375 C184.859863,261.593262 186.173828,260.209473 188.306641,260.209473 C190.439453,260.209473 191.753418,261.586914 191.753418,263.859375 C191.753418,266.150879 190.458496,267.515625 188.306641,267.515625 Z M188.306641,266.004883 C189.290527,266.004883 189.855469,265.217773 189.855469,263.859375 C189.855469,262.513672 189.28418,261.720215 188.306641,261.720215 C187.322754,261.720215 186.757812,262.513672 186.757812,263.859375 C186.757812,265.224121 187.316406,266.004883 188.306641,266.004883 Z M193.784668,258.69873 L195.631836,258.69873 L195.631836,260.431641 L197.085449,260.431641 L197.085449,261.885254 L195.631836,261.885254 L195.631836,265.033691 C195.631836,265.643066 195.911133,265.922363 196.539551,265.922363 C196.780762,265.922363 196.907715,265.916016 197.085449,265.896973 L197.085449,267.306152 C196.856934,267.350586 196.51416,267.388672 196.158691,267.388672 C194.45752,267.388672 193.784668,266.836426 193.784668,265.47168 L193.784668,261.885254 L192.692871,261.885254 L192.692871,260.431641 L193.784668,260.431641 L193.784668,258.69873 Z M199.491211,269.908691 C199.421387,269.908691 198.862793,269.902344 198.786621,269.889648 L198.786621,268.404297 C198.850098,268.416992 199.129395,268.416992 199.205566,268.416992 C199.897461,268.416992 200.291016,268.194824 200.443359,267.661621 L200.506836,267.407715 L198.050293,260.361816 L200.087891,260.361816 L201.560547,265.668457 L201.674805,265.668457 L203.147461,260.361816 L205.102539,260.361816 L202.69043,267.471191 C202.09375,269.273926 201.236816,269.908691 199.491211,269.908691 Z M210.428223,260.247559 C212.199219,260.247559 213.284668,261.593262 213.284668,263.859375 C213.284668,266.119141 212.211914,267.471191 210.459961,267.471191 C209.457031,267.471191 208.688965,267.033203 208.346191,266.290527 L208.231934,266.290527 L208.231934,269.686523 L206.384766,269.686523 L206.384766,260.361816 L208.174805,260.361816 L208.174805,261.510742 L208.289062,261.510742 C208.669922,260.723633 209.463379,260.247559 210.428223,260.247559 Z M209.799805,265.928711 C210.796387,265.928711 211.386719,265.154297 211.386719,263.859375 C211.386719,262.577148 210.790039,261.796387 209.806152,261.796387 C208.822266,261.796387 208.212891,262.583496 208.212891,263.865723 C208.212891,265.147949 208.822266,265.928711 209.799805,265.928711 Z M217.816895,261.625 C216.959961,261.625 216.356934,262.22168 216.293457,263.129395 L219.276855,263.129395 C219.23877,262.202637 218.680176,261.625 217.816895,261.625 Z M219.314941,265.370117 L221.035156,265.370117 C220.755859,266.69043 219.549805,267.515625 217.835938,267.515625 C215.703125,267.515625 214.446289,266.169922 214.446289,263.897461 C214.446289,261.618652 215.728516,260.209473 217.810547,260.209473 C219.873535,260.209473 221.092285,261.523438 221.092285,263.745117 L221.092285,264.310059 L216.287109,264.310059 L216.287109,264.405273 C216.3125,265.446289 216.921875,266.09375 217.886719,266.09375 C218.616699,266.09375 219.118164,265.833496 219.314941,265.370117 Z M222.603027,267.363281 L222.603027,260.361816 L224.393066,260.361816 L224.393066,261.485352 L224.507324,261.485352 C224.831055,260.698242 225.541992,260.209473 226.57666,260.209473 C228.131836,260.209473 228.969727,261.161621 228.969727,262.837402 L228.969727,267.363281 L227.122559,267.363281 L227.122559,263.275391 C227.122559,262.310547 226.709961,261.802734 225.833984,261.802734 C224.977051,261.802734 224.450195,262.405762 224.450195,263.326172 L224.450195,267.363281 L222.603027,267.363281 Z"/>
    <path stroke="#FF3333" stroke-linecap="round" stroke-linejoin="round" stroke-width="3" d="M282.392578,265.367188 C282.392578,253.769208 272.990558,244.367188 261.392578,244.367188" transform="rotate(90 271.893 254.867)"/>
    <path stroke="#FF3333" stroke-linecap="round" stroke-linejoin="round" stroke-width="3" d="M260.392578,259.867188 L266.892578,264.367188" transform="rotate(90 263.643 262.117)"/>
    <path stroke="#FF3333" stroke-linecap="round" stroke-linejoin="round" stroke-width="3" d="M266.587891,265.304688 L261.455078,270.5625" transform="rotate(90 264.021 267.934)"/>
  </g>
</svg>
