<?xml version="1.0" encoding="UTF-8"?>
<svg width="500px" height="318px" viewBox="0 0 500 318" version="1.1" xmlns="http://www.w3.org/2000/svg" xmlns:xlink="http://www.w3.org/1999/xlink">
    <!-- Generator: Sketch 49.3 (51167) - http://www.bohemiancoding.com/sketch -->
    <title>week</title>
    <desc>Created with Sketch.</desc>
    <defs>
        <rect id="path-1" x="19.5742188" y="0.705078125" width="223.292969" height="46.1054687" rx="2"></rect>
        <filter x="-6.5%" y="-22.8%" width="113.0%" height="162.9%" filterUnits="objectBoundingBox" id="filter-2">
            <feOffset dx="0" dy="0" in="SourceAlpha" result="shadowOffsetOuter1"></feOffset>
            <feGaussianBlur stdDeviation="2.5" in="shadowOffsetOuter1" result="shadowBlurOuter1"></feGaussianBlur>
            <feColorMatrix values="0 0 0 0 0.125490196   0 0 0 0 0.133333333   0 0 0 0 0.149019608  0 0 0 0.1 0" type="matrix" in="shadowBlurOuter1" result="shadowMatrixOuter1"></feColorMatrix>
            <feOffset dx="0" dy="4" in="SourceAlpha" result="shadowOffsetOuter2"></feOffset>
            <feGaussianBlur stdDeviation="2.5" in="shadowOffsetOuter2" result="shadowBlurOuter2"></feGaussianBlur>
            <feColorMatrix values="0 0 0 0 0   0 0 0 0 0   0 0 0 0 0  0 0 0 0.1 0" type="matrix" in="shadowBlurOuter2" result="shadowMatrixOuter2"></feColorMatrix>
            <feMerge>
                <feMergeNode in="shadowMatrixOuter1"></feMergeNode>
                <feMergeNode in="shadowMatrixOuter2"></feMergeNode>
            </feMerge>
        </filter>
        <path d="M21.5742188,0.705078125 L121.769531,0.705078125 L121.769531,46.8105469 L21.5742188,46.8105469 C20.4696493,46.8105469 19.5742188,45.9151164 19.5742188,44.8105469 L19.5742188,2.70507813 C19.5742188,1.60050863 20.4696493,0.705078125 21.5742188,0.705078125 Z" id="path-3"></path>
        <rect id="path-4" x="60.671875" y="56.8105469" width="269.628906" height="46.1054687" rx="2"></rect>
        <filter x="-5.4%" y="-22.8%" width="110.8%" height="162.9%" filterUnits="objectBoundingBox" id="filter-5">
            <feOffset dx="0" dy="0" in="SourceAlpha" result="shadowOffsetOuter1"></feOffset>
            <feGaussianBlur stdDeviation="2.5" in="shadowOffsetOuter1" result="shadowBlurOuter1"></feGaussianBlur>
            <feColorMatrix values="0 0 0 0 0.125490196   0 0 0 0 0.133333333   0 0 0 0 0.149019608  0 0 0 0.1 0" type="matrix" in="shadowBlurOuter1" result="shadowMatrixOuter1"></feColorMatrix>
            <feOffset dx="0" dy="4" in="SourceAlpha" result="shadowOffsetOuter2"></feOffset>
            <feGaussianBlur stdDeviation="2.5" in="shadowOffsetOuter2" result="shadowBlurOuter2"></feGaussianBlur>
            <feColorMatrix values="0 0 0 0 0   0 0 0 0 0   0 0 0 0 0  0 0 0 0.1 0" type="matrix" in="shadowBlurOuter2" result="shadowMatrixOuter2"></feColorMatrix>
            <feMerge>
                <feMergeNode in="shadowMatrixOuter1"></feMergeNode>
                <feMergeNode in="shadowMatrixOuter2"></feMergeNode>
            </feMerge>
        </filter>
        <path d="M62.671875,56.8105469 L162.867188,56.8105469 L162.867188,102.916016 L62.671875,102.916016 C61.5673055,102.916016 60.671875,102.020585 60.671875,100.916016 L60.671875,58.8105469 C60.671875,57.7059774 61.5673055,56.8105469 62.671875,56.8105469 Z" id="path-6"></path>
        <rect id="path-7" x="92.7460938" y="113.810547" width="284.796875" height="46.1054687" rx="2"></rect>
        <filter x="-5.1%" y="-22.8%" width="110.2%" height="162.9%" filterUnits="objectBoundingBox" id="filter-8">
            <feOffset dx="0" dy="0" in="SourceAlpha" result="shadowOffsetOuter1"></feOffset>
            <feGaussianBlur stdDeviation="2.5" in="shadowOffsetOuter1" result="shadowBlurOuter1"></feGaussianBlur>
            <feColorMatrix values="0 0 0 0 0.125490196   0 0 0 0 0.133333333   0 0 0 0 0.149019608  0 0 0 0.1 0" type="matrix" in="shadowBlurOuter1" result="shadowMatrixOuter1"></feColorMatrix>
            <feOffset dx="0" dy="4" in="SourceAlpha" result="shadowOffsetOuter2"></feOffset>
            <feGaussianBlur stdDeviation="2.5" in="shadowOffsetOuter2" result="shadowBlurOuter2"></feGaussianBlur>
            <feColorMatrix values="0 0 0 0 0   0 0 0 0 0   0 0 0 0 0  0 0 0 0.1 0" type="matrix" in="shadowBlurOuter2" result="shadowMatrixOuter2"></feColorMatrix>
            <feMerge>
                <feMergeNode in="shadowMatrixOuter1"></feMergeNode>
                <feMergeNode in="shadowMatrixOuter2"></feMergeNode>
            </feMerge>
        </filter>
        <path d="M94.7460938,113.810547 L194.941406,113.810547 L194.941406,159.916016 L94.7460938,159.916016 C93.6415243,159.916016 92.7460938,159.020585 92.7460938,157.916016 L92.7460938,115.810547 C92.7460938,114.705977 93.6415243,113.810547 94.7460938,113.810547 Z" id="path-9"></path>
        <rect id="path-10" x="159.039062" y="226.810547" width="253.890625" height="46.1054687" rx="2"></rect>
        <filter x="-5.7%" y="-22.8%" width="111.4%" height="162.9%" filterUnits="objectBoundingBox" id="filter-11">
            <feOffset dx="0" dy="0" in="SourceAlpha" result="shadowOffsetOuter1"></feOffset>
            <feGaussianBlur stdDeviation="2.5" in="shadowOffsetOuter1" result="shadowBlurOuter1"></feGaussianBlur>
            <feColorMatrix values="0 0 0 0 0.125490196   0 0 0 0 0.133333333   0 0 0 0 0.149019608  0 0 0 0.1 0" type="matrix" in="shadowBlurOuter1" result="shadowMatrixOuter1"></feColorMatrix>
            <feOffset dx="0" dy="4" in="SourceAlpha" result="shadowOffsetOuter2"></feOffset>
            <feGaussianBlur stdDeviation="2.5" in="shadowOffsetOuter2" result="shadowBlurOuter2"></feGaussianBlur>
            <feColorMatrix values="0 0 0 0 0   0 0 0 0 0   0 0 0 0 0  0 0 0 0.1 0" type="matrix" in="shadowBlurOuter2" result="shadowMatrixOuter2"></feColorMatrix>
            <feMerge>
                <feMergeNode in="shadowMatrixOuter1"></feMergeNode>
                <feMergeNode in="shadowMatrixOuter2"></feMergeNode>
            </feMerge>
        </filter>
        <path d="M161.039062,226.810547 L261.234375,226.810547 L261.234375,272.916016 L161.039062,272.916016 C159.934493,272.916016 159.039062,272.020585 159.039062,270.916016 L159.039062,228.810547 C159.039062,227.705977 159.934493,226.810547 161.039062,226.810547 Z" id="path-12"></path>
        <rect id="path-13" x="0.0390625" y="169.810547" width="208.28125" height="46.1054687" rx="2"></rect>
        <filter x="-7.0%" y="-22.8%" width="113.9%" height="162.9%" filterUnits="objectBoundingBox" id="filter-14">
            <feOffset dx="0" dy="0" in="SourceAlpha" result="shadowOffsetOuter1"></feOffset>
            <feGaussianBlur stdDeviation="2.5" in="shadowOffsetOuter1" result="shadowBlurOuter1"></feGaussianBlur>
            <feColorMatrix values="0 0 0 0 0.125490196   0 0 0 0 0.133333333   0 0 0 0 0.149019608  0 0 0 0.1 0" type="matrix" in="shadowBlurOuter1" result="shadowMatrixOuter1"></feColorMatrix>
            <feOffset dx="0" dy="4" in="SourceAlpha" result="shadowOffsetOuter2"></feOffset>
            <feGaussianBlur stdDeviation="2.5" in="shadowOffsetOuter2" result="shadowBlurOuter2"></feGaussianBlur>
            <feColorMatrix values="0 0 0 0 0   0 0 0 0 0   0 0 0 0 0  0 0 0 0.1 0" type="matrix" in="shadowBlurOuter2" result="shadowMatrixOuter2"></feColorMatrix>
            <feMerge>
                <feMergeNode in="shadowMatrixOuter1"></feMergeNode>
                <feMergeNode in="shadowMatrixOuter2"></feMergeNode>
            </feMerge>
        </filter>
        <path d="M2.0390625,169.810547 L102.234375,169.810547 L102.234375,215.916016 L2.0390625,215.916016 C0.934493,215.916016 0.0390625,215.020585 0.0390625,213.916016 L0.0390625,171.810547 C0.0390625,170.705977 0.934493,169.810547 2.0390625,169.810547 Z" id="path-15"></path>
    </defs>
    <g id="week" stroke="none" stroke-width="1" fill="none" fill-rule="evenodd">
        <g id="Group-2" transform="translate(43.500000, 19.500000)">
            <g id="Rectangle">
                <use fill="black" fill-opacity="1" filter="url(#filter-2)" xlink:href="#path-1"></use>
                <use fill="#FFFFFF" fill-rule="evenodd" xlink:href="#path-1"></use>
            </g>
            <g id="Rectangle">
                <use fill="#3366FF" fill-rule="evenodd" xlink:href="#path-3"></use>
                <path stroke="#3366FF" stroke-width="1" d="M121.269531,46.3105469 L121.269531,1.20507812 L21.5742188,1.20507812 C20.7457916,1.20507813 20.0742188,1.876651 20.0742188,2.70507813 L20.0742188,44.8105469 C20.0742188,45.638974 20.7457916,46.3105469 21.5742188,46.3105469 L121.269531,46.3105469 Z"></path>
            </g>
            <path d="M50.0817871,28.2578125 L49.0153809,28.2578125 L49.0153809,21.2626953 L48.939209,21.2626953 L46.0510254,28.1943359 L45.0861816,28.1943359 L42.197998,21.2626953 L42.1218262,21.2626953 L42.1218262,28.2578125 L41.0554199,28.2578125 L41.0554199,19.0981445 L42.3820801,19.0981445 L45.5178223,26.6772461 L45.6193848,26.6772461 L48.755127,19.0981445 L50.0817871,19.0981445 L50.0817871,28.2578125 Z M54.385498,27.4199219 C55.5090332,27.4199219 56.3405762,26.6835938 56.3405762,25.7060547 L56.3405762,25.0776367 L54.4997559,25.1982422 C53.4587402,25.2680664 53.001709,25.6298828 53.001709,26.3154297 C53.001709,27.0136719 53.592041,27.4199219 54.385498,27.4199219 Z M54.182373,28.378418 C52.8557129,28.378418 51.8718262,27.5913086 51.8718262,26.3408203 C51.8718262,25.1157227 52.7731934,24.4111328 54.3664551,24.315918 L56.3405762,24.1953125 L56.3405762,23.5732422 C56.3405762,22.7290039 55.8137207,22.265625 54.791748,22.265625 C53.9729004,22.265625 53.4016113,22.5766602 53.2492676,23.1162109 L52.1447754,23.1162109 C52.2907715,22.0180664 53.369873,21.2944336 54.829834,21.2944336 C56.4992676,21.2944336 57.432373,22.1513672 57.432373,23.5732422 L57.432373,28.2578125 L56.3913574,28.2578125 L56.3913574,27.2485352 L56.2897949,27.2485352 C55.845459,27.9785156 55.0964355,28.378418 54.182373,28.378418 Z M61.5583496,27.4199219 C62.6818848,27.4199219 63.5134277,26.6835938 63.5134277,25.7060547 L63.5134277,25.0776367 L61.6726074,25.1982422 C60.6315918,25.2680664 60.1745605,25.6298828 60.1745605,26.3154297 C60.1745605,27.0136719 60.7648926,27.4199219 61.5583496,27.4199219 Z M61.3552246,28.378418 C60.0285645,28.378418 59.0446777,27.5913086 59.0446777,26.3408203 C59.0446777,25.1157227 59.9460449,24.4111328 61.5393066,24.315918 L63.5134277,24.1953125 L63.5134277,23.5732422 C63.5134277,22.7290039 62.9865723,22.265625 61.9645996,22.265625 C61.145752,22.265625 60.5744629,22.5766602 60.4221191,23.1162109 L59.317627,23.1162109 C59.463623,22.0180664 60.5427246,21.2944336 62.0026855,21.2944336 C63.6721191,21.2944336 64.6052246,22.1513672 64.6052246,23.5732422 L64.6052246,28.2578125 L63.564209,28.2578125 L63.564209,27.2485352 L63.4626465,27.2485352 C63.0183105,27.9785156 62.2692871,28.378418 61.3552246,28.378418 Z M66.6237793,28.2578125 L66.6237793,21.4150391 L67.6647949,21.4150391 L67.6647949,22.4941406 L67.7663574,22.4941406 C68.1091309,21.7387695 68.7756348,21.2944336 69.822998,21.2944336 C71.3591309,21.2944336 72.2160645,22.2021484 72.2160645,23.8271484 L72.2160645,28.2578125 L71.1242676,28.2578125 L71.1242676,24.09375 C71.1242676,22.8623047 70.6037598,22.2783203 69.5119629,22.2783203 C68.420166,22.2783203 67.7155762,23.0083008 67.7155762,24.2080078 L67.7155762,28.2578125 L66.6237793,28.2578125 Z M76.7419434,28.378418 C74.9899902,28.378418 73.8664551,26.9882812 73.8664551,24.8364258 C73.8664551,22.690918 75.0026855,21.2944336 76.7419434,21.2944336 C77.6940918,21.2944336 78.5002441,21.7451172 78.8874512,22.4941406 L78.982666,22.4941406 L78.982666,18.6982422 L80.0744629,18.6982422 L80.0744629,28.2578125 L79.0334473,28.2578125 L79.0334473,27.1660156 L78.9318848,27.1660156 C78.5002441,27.9277344 77.6877441,28.378418 76.7419434,28.378418 Z M76.9958496,22.2783203 C75.751709,22.2783203 74.9963379,23.2431641 74.9963379,24.8364258 C74.9963379,26.4360352 75.7453613,27.3945312 76.9958496,27.3945312 C78.2399902,27.3945312 79.0080566,26.4169922 79.0080566,24.8364258 C79.0080566,23.2685547 78.2336426,22.2783203 76.9958496,22.2783203 Z M84.302002,27.4199219 C85.4255371,27.4199219 86.2570801,26.6835938 86.2570801,25.7060547 L86.2570801,25.0776367 L84.4162598,25.1982422 C83.3752441,25.2680664 82.9182129,25.6298828 82.9182129,26.3154297 C82.9182129,27.0136719 83.5085449,27.4199219 84.302002,27.4199219 Z M84.098877,28.378418 C82.7722168,28.378418 81.7883301,27.5913086 81.7883301,26.3408203 C81.7883301,25.1157227 82.6896973,24.4111328 84.282959,24.315918 L86.2570801,24.1953125 L86.2570801,23.5732422 C86.2570801,22.7290039 85.7302246,22.265625 84.708252,22.265625 C83.8894043,22.265625 83.3181152,22.5766602 83.1657715,23.1162109 L82.0612793,23.1162109 C82.2072754,22.0180664 83.286377,21.2944336 84.7463379,21.2944336 C86.4157715,21.2944336 87.348877,22.1513672 87.348877,23.5732422 L87.348877,28.2578125 L86.3078613,28.2578125 L86.3078613,27.2485352 L86.2062988,27.2485352 C85.7619629,27.9785156 85.0129395,28.378418 84.098877,28.378418 Z M92.1350098,27.1914062 C93.404541,27.1914062 94.1662598,26.2265625 94.1662598,24.7348633 C94.1662598,23.2431641 93.3981934,22.2783203 92.1350098,22.2783203 C90.8654785,22.2783203 90.154541,23.2431641 90.154541,24.7348633 C90.154541,26.2265625 90.8654785,27.1914062 92.1350098,27.1914062 Z M92.185791,30.8857422 C90.5354004,30.8857422 89.4816895,30.1430664 89.3166504,29.0131836 L90.4719238,29.0131836 C90.5925293,29.5717773 91.2019043,29.9335938 92.185791,29.9335938 C93.4108887,29.9335938 94.1408691,29.3305664 94.1408691,28.3212891 L94.1408691,26.9755859 L94.0393066,26.9755859 C93.607666,27.730957 92.833252,28.15625 91.8937988,28.15625 C90.1228027,28.15625 89.0246582,26.7851562 89.0246582,24.7348633 C89.0246582,22.6845703 90.135498,21.2944336 91.8937988,21.2944336 C92.8522949,21.2944336 93.6965332,21.7641602 94.0900879,22.5004883 L94.1916504,22.5004883 L94.1916504,21.4150391 L95.232666,21.4150391 L95.232666,28.378418 C95.232666,29.9082031 94.052002,30.8857422 92.185791,30.8857422 Z" id="Maandag" fill="#FFFFFF"></path>
            <path d="M142.853027,18.8632812 C145.557129,18.8632812 147.251953,20.7104492 147.251953,23.6748047 C147.251953,26.6455078 145.563477,28.4926758 142.853027,28.4926758 C140.13623,28.4926758 138.441406,26.6455078 138.441406,23.6748047 C138.441406,20.7041016 140.161621,18.8632812 142.853027,18.8632812 Z M142.853027,20.5454102 C141.367676,20.5454102 140.402832,21.7578125 140.402832,23.6748047 C140.402832,25.5854492 141.348633,26.8105469 142.853027,26.8105469 C144.344727,26.8105469 145.296875,25.5854492 145.296875,23.6748047 C145.296875,21.7578125 144.344727,20.5454102 142.853027,20.5454102 Z M148.883301,28.2578125 L148.883301,21.2563477 L150.67334,21.2563477 L150.67334,22.3798828 L150.787598,22.3798828 C151.111328,21.5927734 151.822266,21.1040039 152.856934,21.1040039 C154.412109,21.1040039 155.25,22.0561523 155.25,23.7319336 L155.25,28.2578125 L153.402832,28.2578125 L153.402832,24.1699219 C153.402832,23.2050781 152.990234,22.6972656 152.114258,22.6972656 C151.257324,22.6972656 150.730469,23.300293 150.730469,24.2207031 L150.730469,28.2578125 L148.883301,28.2578125 Z M159.547363,28.3657227 C157.782715,28.3657227 156.697266,26.9819336 156.697266,24.7475586 C156.697266,22.5195312 157.789062,21.1420898 159.547363,21.1420898 C160.493164,21.1420898 161.273926,21.5991211 161.635742,22.3735352 L161.743652,22.3735352 L161.743652,18.5839844 L163.59082,18.5839844 L163.59082,28.2578125 L161.800781,28.2578125 L161.800781,27.159668 L161.686523,27.159668 C161.312012,27.9150391 160.518555,28.3657227 159.547363,28.3657227 Z M160.175781,22.690918 C159.191895,22.690918 158.595215,23.4716797 158.595215,24.7539062 C158.595215,26.0488281 159.185547,26.8232422 160.175781,26.8232422 C161.166016,26.8232422 161.762695,26.0424805 161.762695,24.7602539 C161.762695,23.484375 161.159668,22.690918 160.175781,22.690918 Z M168.535645,22.5195312 C167.678711,22.5195312 167.075684,23.1162109 167.012207,24.0239258 L169.995605,24.0239258 C169.95752,23.097168 169.398926,22.5195312 168.535645,22.5195312 Z M170.033691,26.2646484 L171.753906,26.2646484 C171.474609,27.5849609 170.268555,28.4101562 168.554688,28.4101562 C166.421875,28.4101562 165.165039,27.0644531 165.165039,24.7919922 C165.165039,22.5131836 166.447266,21.1040039 168.529297,21.1040039 C170.592285,21.1040039 171.811035,22.4179688 171.811035,24.6396484 L171.811035,25.2045898 L167.005859,25.2045898 L167.005859,25.2998047 C167.03125,26.3408203 167.640625,26.9882812 168.605469,26.9882812 C169.335449,26.9882812 169.836914,26.7280273 170.033691,26.2646484 Z M173.321777,28.2578125 L173.321777,21.2563477 L175.111816,21.2563477 L175.111816,22.3735352 L175.226074,22.3735352 C175.410156,21.675293 176.133789,21.1420898 177.022461,21.1420898 C177.276367,21.1420898 177.587402,21.1738281 177.746094,21.230957 L177.746094,22.9130859 C177.600098,22.855957 177.168457,22.7988281 176.870117,22.7988281 C175.86084,22.7988281 175.168945,23.3955078 175.168945,24.3793945 L175.168945,28.2578125 L173.321777,28.2578125 Z M178.818848,28.2578125 L178.818848,27.1660156 L182.36084,22.8432617 L182.36084,22.7290039 L178.869629,22.7290039 L178.869629,21.2563477 L184.569824,21.2563477 L184.569824,22.4750977 L181.230957,26.6708984 L181.230957,26.7851562 L184.652344,26.7851562 L184.652344,28.2578125 L178.818848,28.2578125 Z M189.444824,28.4101562 C187.292969,28.4101562 185.998047,27.0454102 185.998047,24.7539062 C185.998047,22.487793 187.312012,21.1040039 189.444824,21.1040039 C191.577637,21.1040039 192.891602,22.4814453 192.891602,24.7539062 C192.891602,27.0454102 191.59668,28.4101562 189.444824,28.4101562 Z M189.444824,26.8994141 C190.428711,26.8994141 190.993652,26.1123047 190.993652,24.7539062 C190.993652,23.4082031 190.422363,22.6147461 189.444824,22.6147461 C188.460938,22.6147461 187.895996,23.4082031 187.895996,24.7539062 C187.895996,26.1186523 188.45459,26.8994141 189.444824,26.8994141 Z M197.423828,22.5195312 C196.566895,22.5195312 195.963867,23.1162109 195.900391,24.0239258 L198.883789,24.0239258 C198.845703,23.097168 198.287109,22.5195312 197.423828,22.5195312 Z M198.921875,26.2646484 L200.64209,26.2646484 C200.362793,27.5849609 199.156738,28.4101562 197.442871,28.4101562 C195.310059,28.4101562 194.053223,27.0644531 194.053223,24.7919922 C194.053223,22.5131836 195.335449,21.1040039 197.41748,21.1040039 C199.480469,21.1040039 200.699219,22.4179688 200.699219,24.6396484 L200.699219,25.2045898 L195.894043,25.2045898 L195.894043,25.2998047 C195.919434,26.3408203 196.528809,26.9882812 197.493652,26.9882812 C198.223633,26.9882812 198.725098,26.7280273 198.921875,26.2646484 Z M204.234863,23.9921875 L206.577148,21.2563477 L208.678223,21.2563477 L206.012207,24.2587891 L208.862305,28.2578125 L206.672363,28.2578125 L204.628418,25.4140625 L204.120605,25.9345703 L204.120605,28.2578125 L202.273438,28.2578125 L202.273438,18.5839844 L204.120605,18.5839844 L204.120605,23.9921875 L204.234863,23.9921875 Z M213.058105,22.5195312 C212.201172,22.5195312 211.598145,23.1162109 211.534668,24.0239258 L214.518066,24.0239258 C214.47998,23.097168 213.921387,22.5195312 213.058105,22.5195312 Z M214.556152,26.2646484 L216.276367,26.2646484 C215.99707,27.5849609 214.791016,28.4101562 213.077148,28.4101562 C210.944336,28.4101562 209.6875,27.0644531 209.6875,24.7919922 C209.6875,22.5131836 210.969727,21.1040039 213.051758,21.1040039 C215.114746,21.1040039 216.333496,22.4179688 216.333496,24.6396484 L216.333496,25.2045898 L211.52832,25.2045898 L211.52832,25.2998047 C211.553711,26.3408203 212.163086,26.9882812 213.12793,26.9882812 C213.85791,26.9882812 214.359375,26.7280273 214.556152,26.2646484 Z M217.844238,28.2578125 L217.844238,21.2563477 L219.634277,21.2563477 L219.634277,22.3798828 L219.748535,22.3798828 C220.072266,21.5927734 220.783203,21.1040039 221.817871,21.1040039 C223.373047,21.1040039 224.210938,22.0561523 224.210938,23.7319336 L224.210938,28.2578125 L222.36377,28.2578125 L222.36377,24.1699219 C222.36377,23.2050781 221.951172,22.6972656 221.075195,22.6972656 C220.218262,22.6972656 219.691406,23.300293 219.691406,24.2207031 L219.691406,28.2578125 L217.844238,28.2578125 Z" id="Onderzoeken" fill="#3366FF"></path>
            <g id="Rectangle">
                <use fill="black" fill-opacity="1" filter="url(#filter-5)" xlink:href="#path-4"></use>
                <use fill="#FFFFFF" fill-rule="evenodd" xlink:href="#path-4"></use>
            </g>
            <g id="Rectangle">
                <use fill="#3366FF" fill-rule="evenodd" xlink:href="#path-6"></use>
                <path stroke="#3366FF" stroke-width="1" d="M162.367188,102.416016 L162.367188,57.3105469 L62.671875,57.3105469 C61.8434479,57.3105469 61.171875,57.9821198 61.171875,58.8105469 L61.171875,100.916016 C61.171875,101.744443 61.8434479,102.416016 62.671875,102.416016 L162.367188,102.416016 Z"></path>
            </g>
            <path d="M88.1879883,75.2036133 L91.3300781,75.2036133 C94.046875,75.2036133 95.652832,76.8984375 95.652832,79.7802734 C95.652832,82.668457 94.0532227,84.3632812 91.3300781,84.3632812 L88.1879883,84.3632812 L88.1879883,75.2036133 Z M89.3305664,76.2319336 L89.3305664,83.3349609 L91.2539062,83.3349609 C93.2978516,83.3349609 94.4848633,82.0273438 94.4848633,79.7929688 C94.4848633,77.5522461 93.2851562,76.2319336 91.2539062,76.2319336 L89.3305664,76.2319336 Z M97.5126953,84.3632812 L97.5126953,77.5205078 L98.6044922,77.5205078 L98.6044922,84.3632812 L97.5126953,84.3632812 Z M98.0585938,76.1303711 C97.6396484,76.1303711 97.296875,75.7875977 97.296875,75.3686523 C97.296875,74.949707 97.6396484,74.6069336 98.0585938,74.6069336 C98.4775391,74.6069336 98.8203125,74.949707 98.8203125,75.3686523 C98.8203125,75.7875977 98.4775391,76.1303711 98.0585938,76.1303711 Z M100.686523,84.3632812 L100.686523,77.5205078 L101.727539,77.5205078 L101.727539,78.5996094 L101.829102,78.5996094 C102.171875,77.8442383 102.838379,77.3999023 103.885742,77.3999023 C105.421875,77.3999023 106.278809,78.3076172 106.278809,79.9326172 L106.278809,84.3632812 L105.187012,84.3632812 L105.187012,80.1992188 C105.187012,78.9677734 104.666504,78.3837891 103.574707,78.3837891 C102.48291,78.3837891 101.77832,79.1137695 101.77832,80.3134766 L101.77832,84.3632812 L100.686523,84.3632812 Z M108.113281,79.3930664 C108.113281,78.2568359 109.211426,77.3999023 110.665039,77.3999023 C112.099609,77.3999023 113.096191,78.1108398 113.242188,79.234375 L112.163086,79.234375 C112.01709,78.6884766 111.483887,78.3266602 110.658691,78.3266602 C109.846191,78.3266602 109.211426,78.7392578 109.211426,79.3486328 C109.211426,79.8183594 109.592285,80.1103516 110.398438,80.3071289 L111.452148,80.5610352 C112.740723,80.8720703 113.362793,81.4306641 113.362793,82.4145508 C113.362793,83.6396484 112.175781,84.4838867 110.620605,84.4838867 C109.097168,84.4838867 108.049805,83.7539062 107.929199,82.6176758 L109.052734,82.6176758 C109.236816,83.1953125 109.782715,83.5634766 110.658691,83.5634766 C111.579102,83.5634766 112.239258,83.1254883 112.239258,82.4970703 C112.239258,82.0273438 111.883789,81.7099609 111.153809,81.5322266 L109.979492,81.246582 C108.697266,80.9355469 108.113281,80.3833008 108.113281,79.3930664 Z M117.609375,84.4838867 C115.857422,84.4838867 114.733887,83.09375 114.733887,80.9418945 C114.733887,78.7963867 115.870117,77.3999023 117.609375,77.3999023 C118.561523,77.3999023 119.367676,77.8505859 119.754883,78.5996094 L119.850098,78.5996094 L119.850098,74.8037109 L120.941895,74.8037109 L120.941895,84.3632812 L119.900879,84.3632812 L119.900879,83.2714844 L119.799316,83.2714844 C119.367676,84.0332031 118.555176,84.4838867 117.609375,84.4838867 Z M117.863281,78.3837891 C116.619141,78.3837891 115.86377,79.3486328 115.86377,80.9418945 C115.86377,82.5415039 116.612793,83.5 117.863281,83.5 C119.107422,83.5 119.875488,82.5224609 119.875488,80.9418945 C119.875488,79.3740234 119.101074,78.3837891 117.863281,78.3837891 Z M125.169434,83.5253906 C126.292969,83.5253906 127.124512,82.7890625 127.124512,81.8115234 L127.124512,81.1831055 L125.283691,81.3037109 C124.242676,81.3735352 123.785645,81.7353516 123.785645,82.4208984 C123.785645,83.1191406 124.375977,83.5253906 125.169434,83.5253906 Z M124.966309,84.4838867 C123.639648,84.4838867 122.655762,83.6967773 122.655762,82.4462891 C122.655762,81.2211914 123.557129,80.5166016 125.150391,80.4213867 L127.124512,80.3007812 L127.124512,79.6787109 C127.124512,78.8344727 126.597656,78.3710938 125.575684,78.3710938 C124.756836,78.3710938 124.185547,78.6821289 124.033203,79.2216797 L122.928711,79.2216797 C123.074707,78.1235352 124.153809,77.3999023 125.61377,77.3999023 C127.283203,77.3999023 128.216309,78.2568359 128.216309,79.6787109 L128.216309,84.3632812 L127.175293,84.3632812 L127.175293,83.3540039 L127.07373,83.3540039 C126.629395,84.0839844 125.880371,84.4838867 124.966309,84.4838867 Z M133.002441,83.296875 C134.271973,83.296875 135.033691,82.3320312 135.033691,80.840332 C135.033691,79.3486328 134.265625,78.3837891 133.002441,78.3837891 C131.73291,78.3837891 131.021973,79.3486328 131.021973,80.840332 C131.021973,82.3320312 131.73291,83.296875 133.002441,83.296875 Z M133.053223,86.9912109 C131.402832,86.9912109 130.349121,86.2485352 130.184082,85.1186523 L131.339355,85.1186523 C131.459961,85.6772461 132.069336,86.0390625 133.053223,86.0390625 C134.27832,86.0390625 135.008301,85.4360352 135.008301,84.4267578 L135.008301,83.0810547 L134.906738,83.0810547 C134.475098,83.8364258 133.700684,84.2617188 132.76123,84.2617188 C130.990234,84.2617188 129.89209,82.890625 129.89209,80.840332 C129.89209,78.7900391 131.00293,77.3999023 132.76123,77.3999023 C133.719727,77.3999023 134.563965,77.8696289 134.95752,78.605957 L135.059082,78.605957 L135.059082,77.5205078 L136.100098,77.5205078 L136.100098,84.4838867 C136.100098,86.0136719 134.919434,86.9912109 133.053223,86.9912109 Z" id="Dinsdag" fill="#FFFFFF"></path>
            <path d="M182.747559,75.2036133 L186.568848,75.2036133 C188.454102,75.2036133 189.742676,76.4667969 189.742676,78.3710938 C189.742676,80.2563477 188.40332,81.5195312 186.473633,81.5195312 L184.664551,81.5195312 L184.664551,84.3632812 L182.747559,84.3632812 L182.747559,75.2036133 Z M184.664551,76.777832 L184.664551,79.9643555 L186.054688,79.9643555 C187.152832,79.9643555 187.793945,79.4057617 187.793945,78.3774414 C187.793945,77.3364258 187.165527,76.777832 186.061035,76.777832 L184.664551,76.777832 Z M191.323242,84.3632812 L191.323242,77.3618164 L193.113281,77.3618164 L193.113281,78.4790039 L193.227539,78.4790039 C193.411621,77.7807617 194.135254,77.2475586 195.023926,77.2475586 C195.277832,77.2475586 195.588867,77.2792969 195.747559,77.3364258 L195.747559,79.0185547 C195.601562,78.9614258 195.169922,78.9042969 194.871582,78.9042969 C193.862305,78.9042969 193.17041,79.5009766 193.17041,80.4848633 L193.17041,84.3632812 L191.323242,84.3632812 Z M200.083008,84.515625 C197.931152,84.515625 196.63623,83.1508789 196.63623,80.859375 C196.63623,78.5932617 197.950195,77.2094727 200.083008,77.2094727 C202.21582,77.2094727 203.529785,78.5869141 203.529785,80.859375 C203.529785,83.1508789 202.234863,84.515625 200.083008,84.515625 Z M200.083008,83.0048828 C201.066895,83.0048828 201.631836,82.2177734 201.631836,80.859375 C201.631836,79.5136719 201.060547,78.7202148 200.083008,78.7202148 C199.099121,78.7202148 198.53418,79.5136719 198.53418,80.859375 C198.53418,82.2241211 199.092773,83.0048828 200.083008,83.0048828 Z M209.160156,84.4711914 C208.169922,84.4711914 207.376465,84.0268555 207.001953,83.2651367 L206.887695,83.2651367 L206.887695,84.3632812 L205.097656,84.3632812 L205.097656,74.6894531 L206.944824,74.6894531 L206.944824,78.4790039 L207.059082,78.4790039 C207.414551,77.7109375 208.20166,77.2475586 209.160156,77.2475586 C210.931152,77.2475586 211.997559,78.5996094 211.997559,80.859375 C211.997559,83.1064453 210.918457,84.4711914 209.160156,84.4711914 Z M208.519043,78.7963867 C207.547852,78.7963867 206.932129,79.5898438 206.925781,80.8657227 C206.932129,82.1352539 207.541504,82.9287109 208.519043,82.9287109 C209.50293,82.9287109 210.099609,82.1416016 210.099609,80.859375 C210.099609,79.5834961 209.496582,78.7963867 208.519043,78.7963867 Z M213.56543,84.3632812 L213.56543,74.6894531 L215.412598,74.6894531 L215.412598,84.3632812 L213.56543,84.3632812 Z M220.357422,78.625 C219.500488,78.625 218.897461,79.2216797 218.833984,80.1293945 L221.817383,80.1293945 C221.779297,79.2026367 221.220703,78.625 220.357422,78.625 Z M221.855469,82.3701172 L223.575684,82.3701172 C223.296387,83.6904297 222.090332,84.515625 220.376465,84.515625 C218.243652,84.515625 216.986816,83.1699219 216.986816,80.8974609 C216.986816,78.6186523 218.269043,77.2094727 220.351074,77.2094727 C222.414062,77.2094727 223.632812,78.5234375 223.632812,80.7451172 L223.632812,81.3100586 L218.827637,81.3100586 L218.827637,81.4052734 C218.853027,82.4462891 219.462402,83.09375 220.427246,83.09375 C221.157227,83.09375 221.658691,82.8334961 221.855469,82.3701172 Z M228.171387,78.625 C227.314453,78.625 226.711426,79.2216797 226.647949,80.1293945 L229.631348,80.1293945 C229.593262,79.2026367 229.034668,78.625 228.171387,78.625 Z M229.669434,82.3701172 L231.389648,82.3701172 C231.110352,83.6904297 229.904297,84.515625 228.19043,84.515625 C226.057617,84.515625 224.800781,83.1699219 224.800781,80.8974609 C224.800781,78.6186523 226.083008,77.2094727 228.165039,77.2094727 C230.228027,77.2094727 231.446777,78.5234375 231.446777,80.7451172 L231.446777,81.3100586 L226.641602,81.3100586 L226.641602,81.4052734 C226.666992,82.4462891 227.276367,83.09375 228.241211,83.09375 C228.971191,83.09375 229.472656,82.8334961 229.669434,82.3701172 Z M232.95752,84.3632812 L232.95752,77.3618164 L234.747559,77.3618164 L234.747559,78.5043945 L234.861816,78.5043945 C235.147461,77.7045898 235.877441,77.2094727 236.797852,77.2094727 C237.781738,77.2094727 238.45459,77.6918945 238.733887,78.5043945 L238.848145,78.5043945 C239.171875,77.7236328 239.978027,77.2094727 240.955566,77.2094727 C242.352051,77.2094727 243.22168,78.1171875 243.22168,79.5581055 L243.22168,84.3632812 L241.374512,84.3632812 L241.374512,80.046875 C241.374512,79.215332 240.987305,78.8027344 240.206543,78.8027344 C239.45752,78.8027344 238.975098,79.3359375 238.975098,80.0786133 L238.975098,84.3632812 L237.197754,84.3632812 L237.197754,79.9707031 C237.197754,79.2280273 236.766113,78.8027344 236.04248,78.8027344 C235.318848,78.8027344 234.804688,79.3676758 234.804688,80.1484375 L234.804688,84.3632812 L232.95752,84.3632812 Z M250.870605,84.4711914 C249.105957,84.4711914 248.020508,83.0874023 248.020508,80.8530273 C248.020508,78.625 249.112305,77.2475586 250.870605,77.2475586 C251.816406,77.2475586 252.597168,77.7045898 252.958984,78.4790039 L253.066895,78.4790039 L253.066895,74.6894531 L254.914062,74.6894531 L254.914062,84.3632812 L253.124023,84.3632812 L253.124023,83.2651367 L253.009766,83.2651367 C252.635254,84.0205078 251.841797,84.4711914 250.870605,84.4711914 Z M251.499023,78.7963867 C250.515137,78.7963867 249.918457,79.5771484 249.918457,80.859375 C249.918457,82.1542969 250.508789,82.9287109 251.499023,82.9287109 C252.489258,82.9287109 253.085938,82.1479492 253.085938,80.8657227 C253.085938,79.5898438 252.48291,78.7963867 251.499023,78.7963867 Z M259.858887,78.625 C259.001953,78.625 258.398926,79.2216797 258.335449,80.1293945 L261.318848,80.1293945 C261.280762,79.2026367 260.722168,78.625 259.858887,78.625 Z M261.356934,82.3701172 L263.077148,82.3701172 C262.797852,83.6904297 261.591797,84.515625 259.87793,84.515625 C257.745117,84.515625 256.488281,83.1699219 256.488281,80.8974609 C256.488281,78.6186523 257.770508,77.2094727 259.852539,77.2094727 C261.915527,77.2094727 263.134277,78.5234375 263.134277,80.7451172 L263.134277,81.3100586 L258.329102,81.3100586 L258.329102,81.4052734 C258.354492,82.4462891 258.963867,83.09375 259.928711,83.09375 C260.658691,83.09375 261.160156,82.8334961 261.356934,82.3701172 Z M265.18457,84.3632812 L265.18457,78.8852539 L264.054688,78.8852539 L264.054688,77.4316406 L265.18457,77.4316406 L265.18457,76.7207031 C265.18457,75.3305664 265.895508,74.6259766 267.583984,74.6259766 C267.958496,74.6259766 268.269531,74.6513672 268.536133,74.6958008 L268.536133,76.003418 C268.415527,75.9907227 268.225098,75.9716797 267.983887,75.9716797 C267.260254,75.9716797 266.993652,76.2573242 266.993652,76.8540039 L266.993652,77.4316406 L268.479004,77.4316406 L268.479004,78.8852539 L267.031738,78.8852539 L267.031738,84.3632812 L265.18457,84.3632812 Z M269.964355,84.3632812 L269.964355,77.3618164 L271.811523,77.3618164 L271.811523,84.3632812 L269.964355,84.3632812 Z M270.891113,76.3842773 C270.224609,76.3842773 269.799316,75.9970703 269.799316,75.4511719 C269.799316,74.8989258 270.224609,74.5180664 270.891113,74.5180664 C271.55127,74.5180664 271.98291,74.8989258 271.98291,75.4511719 C271.98291,75.9970703 271.55127,76.3842773 270.891113,76.3842773 Z M273.677734,84.3632812 L273.677734,77.3618164 L275.467773,77.3618164 L275.467773,78.4853516 L275.582031,78.4853516 C275.905762,77.6982422 276.616699,77.2094727 277.651367,77.2094727 C279.206543,77.2094727 280.044434,78.1616211 280.044434,79.8374023 L280.044434,84.3632812 L278.197266,84.3632812 L278.197266,80.2753906 C278.197266,79.3105469 277.784668,78.8027344 276.908691,78.8027344 C276.051758,78.8027344 275.524902,79.4057617 275.524902,80.3261719 L275.524902,84.3632812 L273.677734,84.3632812 Z M281.847168,84.3632812 L281.847168,77.3618164 L283.694336,77.3618164 L283.694336,84.3632812 L281.847168,84.3632812 Z M282.773926,76.3842773 C282.107422,76.3842773 281.682129,75.9970703 281.682129,75.4511719 C281.682129,74.8989258 282.107422,74.5180664 282.773926,74.5180664 C283.434082,74.5180664 283.865723,74.8989258 283.865723,75.4511719 C283.865723,75.9970703 283.434082,76.3842773 282.773926,76.3842773 Z M288.588379,78.625 C287.731445,78.625 287.128418,79.2216797 287.064941,80.1293945 L290.04834,80.1293945 C290.010254,79.2026367 289.45166,78.625 288.588379,78.625 Z M290.086426,82.3701172 L291.806641,82.3701172 C291.527344,83.6904297 290.321289,84.515625 288.607422,84.515625 C286.474609,84.515625 285.217773,83.1699219 285.217773,80.8974609 C285.217773,78.6186523 286.5,77.2094727 288.582031,77.2094727 C290.64502,77.2094727 291.86377,78.5234375 291.86377,80.7451172 L291.86377,81.3100586 L287.058594,81.3100586 L287.058594,81.4052734 C287.083984,82.4462891 287.693359,83.09375 288.658203,83.09375 C289.388184,83.09375 289.889648,82.8334961 290.086426,82.3701172 Z M287.09668,76.4223633 C286.525391,76.4223633 286.112793,76.0161133 286.112793,75.4575195 C286.112793,74.8989258 286.525391,74.4990234 287.09668,74.4990234 C287.667969,74.4990234 288.080566,74.8989258 288.080566,75.4575195 C288.080566,76.0161133 287.667969,76.4223633 287.09668,76.4223633 Z M290.067383,76.4223633 C289.502441,76.4223633 289.083496,76.0161133 289.083496,75.4575195 C289.083496,74.8989258 289.502441,74.4990234 290.067383,74.4990234 C290.638672,74.4990234 291.057617,74.8989258 291.057617,75.4575195 C291.057617,76.0161133 290.638672,76.4223633 290.067383,76.4223633 Z M293.374512,84.3632812 L293.374512,77.3618164 L295.164551,77.3618164 L295.164551,78.4790039 L295.278809,78.4790039 C295.462891,77.7807617 296.186523,77.2475586 297.075195,77.2475586 C297.329102,77.2475586 297.640137,77.2792969 297.798828,77.3364258 L297.798828,79.0185547 C297.652832,78.9614258 297.221191,78.9042969 296.922852,78.9042969 C295.913574,78.9042969 295.22168,79.5009766 295.22168,80.4848633 L295.22168,84.3632812 L293.374512,84.3632812 Z M302.058105,78.625 C301.201172,78.625 300.598145,79.2216797 300.534668,80.1293945 L303.518066,80.1293945 C303.47998,79.2026367 302.921387,78.625 302.058105,78.625 Z M303.556152,82.3701172 L305.276367,82.3701172 C304.99707,83.6904297 303.791016,84.515625 302.077148,84.515625 C299.944336,84.515625 298.6875,83.1699219 298.6875,80.8974609 C298.6875,78.6186523 299.969727,77.2094727 302.051758,77.2094727 C304.114746,77.2094727 305.333496,78.5234375 305.333496,80.7451172 L305.333496,81.3100586 L300.52832,81.3100586 L300.52832,81.4052734 C300.553711,82.4462891 301.163086,83.09375 302.12793,83.09375 C302.85791,83.09375 303.359375,82.8334961 303.556152,82.3701172 Z M306.844238,84.3632812 L306.844238,77.3618164 L308.634277,77.3618164 L308.634277,78.4853516 L308.748535,78.4853516 C309.072266,77.6982422 309.783203,77.2094727 310.817871,77.2094727 C312.373047,77.2094727 313.210938,78.1616211 313.210938,79.8374023 L313.210938,84.3632812 L311.36377,84.3632812 L311.36377,80.2753906 C311.36377,79.3105469 310.951172,78.8027344 310.075195,78.8027344 C309.218262,78.8027344 308.691406,79.4057617 308.691406,80.3261719 L308.691406,84.3632812 L306.844238,84.3632812 Z" id="Probleem-definiëren" fill="#3366FF"></path>
            <g id="Rectangle">
                <use fill="black" fill-opacity="1" filter="url(#filter-8)" xlink:href="#path-7"></use>
                <use fill="#FFFFFF" fill-rule="evenodd" xlink:href="#path-7"></use>
            </g>
            <g id="Rectangle">
                <use fill="#3366FF" fill-rule="evenodd" xlink:href="#path-9"></use>
                <path stroke="#3366FF" stroke-width="1" d="M194.441406,159.416016 L194.441406,114.310547 L94.7460938,114.310547 C93.9176666,114.310547 93.2460938,114.98212 93.2460938,115.810547 L93.2460938,157.916016 C93.2460938,158.744443 93.9176666,159.416016 94.7460938,159.416016 L194.441406,159.416016 Z"></path>
            </g>
            <path d="M118.747314,134.133301 L116.639893,141.363281 L115.560791,141.363281 L113.066162,132.203613 L114.259521,132.203613 L116.081299,139.649414 L116.157471,139.649414 L118.207764,132.203613 L119.363037,132.203613 L121.41333,139.649414 L121.489502,139.649414 L123.311279,132.203613 L124.504639,132.203613 L122.01001,141.363281 L120.930908,141.363281 L118.823486,134.133301 L118.747314,134.133301 Z M128.91626,141.483887 C126.967529,141.483887 125.761475,140.138184 125.761475,137.941895 C125.761475,135.739258 126.967529,134.399902 128.91626,134.399902 C130.86499,134.399902 132.071045,135.739258 132.071045,137.941895 C132.071045,140.138184 130.86499,141.483887 128.91626,141.483887 Z M128.91626,140.5 C130.211182,140.5 130.941162,139.560547 130.941162,137.941895 C130.941162,136.316895 130.211182,135.383789 128.91626,135.383789 C127.621338,135.383789 126.891357,136.316895 126.891357,137.941895 C126.891357,139.560547 127.621338,140.5 128.91626,140.5 Z M136.514404,135.364746 C135.422607,135.364746 134.660889,136.164551 134.578369,137.376953 L138.348877,137.376953 C138.323486,136.164551 137.599854,135.364746 136.514404,135.364746 Z M138.317139,139.592285 L139.408936,139.592285 C139.078857,140.766602 138.025146,141.483887 136.5271,141.483887 C134.62915,141.483887 133.442139,140.112793 133.442139,137.948242 C133.442139,135.796387 134.648193,134.399902 136.5271,134.399902 C138.374268,134.399902 139.497803,135.713867 139.497803,137.840332 L139.497803,138.259277 L134.578369,138.259277 L134.578369,138.310059 C134.635498,139.662109 135.390869,140.519043 136.55249,140.519043 C137.434814,140.519043 138.031494,140.195312 138.317139,139.592285 Z M141.21167,141.363281 L141.21167,134.520508 L142.252686,134.520508 L142.252686,135.599609 L142.354248,135.599609 C142.697021,134.844238 143.363525,134.399902 144.410889,134.399902 C145.947021,134.399902 146.803955,135.307617 146.803955,136.932617 L146.803955,141.363281 L145.712158,141.363281 L145.712158,137.199219 C145.712158,135.967773 145.19165,135.383789 144.099854,135.383789 C143.008057,135.383789 142.303467,136.11377 142.303467,137.313477 L142.303467,141.363281 L141.21167,141.363281 Z M148.638428,136.393066 C148.638428,135.256836 149.736572,134.399902 151.190186,134.399902 C152.624756,134.399902 153.621338,135.11084 153.767334,136.234375 L152.688232,136.234375 C152.542236,135.688477 152.009033,135.32666 151.183838,135.32666 C150.371338,135.32666 149.736572,135.739258 149.736572,136.348633 C149.736572,136.818359 150.117432,137.110352 150.923584,137.307129 L151.977295,137.561035 C153.265869,137.87207 153.887939,138.430664 153.887939,139.414551 C153.887939,140.639648 152.700928,141.483887 151.145752,141.483887 C149.622314,141.483887 148.574951,140.753906 148.454346,139.617676 L149.577881,139.617676 C149.761963,140.195312 150.307861,140.563477 151.183838,140.563477 C152.104248,140.563477 152.764404,140.125488 152.764404,139.49707 C152.764404,139.027344 152.408936,138.709961 151.678955,138.532227 L150.504639,138.246582 C149.222412,137.935547 148.638428,137.383301 148.638428,136.393066 Z M158.134521,141.483887 C156.382568,141.483887 155.259033,140.09375 155.259033,137.941895 C155.259033,135.796387 156.395264,134.399902 158.134521,134.399902 C159.08667,134.399902 159.892822,134.850586 160.280029,135.599609 L160.375244,135.599609 L160.375244,131.803711 L161.467041,131.803711 L161.467041,141.363281 L160.426025,141.363281 L160.426025,140.271484 L160.324463,140.271484 C159.892822,141.033203 159.080322,141.483887 158.134521,141.483887 Z M158.388428,135.383789 C157.144287,135.383789 156.388916,136.348633 156.388916,137.941895 C156.388916,139.541504 157.137939,140.5 158.388428,140.5 C159.632568,140.5 160.400635,139.522461 160.400635,137.941895 C160.400635,136.374023 159.626221,135.383789 158.388428,135.383789 Z M165.69458,140.525391 C166.818115,140.525391 167.649658,139.789062 167.649658,138.811523 L167.649658,138.183105 L165.808838,138.303711 C164.767822,138.373535 164.310791,138.735352 164.310791,139.420898 C164.310791,140.119141 164.901123,140.525391 165.69458,140.525391 Z M165.491455,141.483887 C164.164795,141.483887 163.180908,140.696777 163.180908,139.446289 C163.180908,138.221191 164.082275,137.516602 165.675537,137.421387 L167.649658,137.300781 L167.649658,136.678711 C167.649658,135.834473 167.122803,135.371094 166.10083,135.371094 C165.281982,135.371094 164.710693,135.682129 164.55835,136.22168 L163.453857,136.22168 C163.599854,135.123535 164.678955,134.399902 166.138916,134.399902 C167.80835,134.399902 168.741455,135.256836 168.741455,136.678711 L168.741455,141.363281 L167.700439,141.363281 L167.700439,140.354004 L167.598877,140.354004 C167.154541,141.083984 166.405518,141.483887 165.491455,141.483887 Z M173.527588,140.296875 C174.797119,140.296875 175.558838,139.332031 175.558838,137.840332 C175.558838,136.348633 174.790771,135.383789 173.527588,135.383789 C172.258057,135.383789 171.547119,136.348633 171.547119,137.840332 C171.547119,139.332031 172.258057,140.296875 173.527588,140.296875 Z M173.578369,143.991211 C171.927979,143.991211 170.874268,143.248535 170.709229,142.118652 L171.864502,142.118652 C171.985107,142.677246 172.594482,143.039062 173.578369,143.039062 C174.803467,143.039062 175.533447,142.436035 175.533447,141.426758 L175.533447,140.081055 L175.431885,140.081055 C175.000244,140.836426 174.22583,141.261719 173.286377,141.261719 C171.515381,141.261719 170.417236,139.890625 170.417236,137.840332 C170.417236,135.790039 171.528076,134.399902 173.286377,134.399902 C174.244873,134.399902 175.089111,134.869629 175.482666,135.605957 L175.584229,135.605957 L175.584229,134.520508 L176.625244,134.520508 L176.625244,141.483887 C176.625244,143.013672 175.44458,143.991211 173.578369,143.991211 Z" id="Woensdag" fill="#FFFFFF"></path>
            <path d="M215.264648,131.96875 C217.96875,131.96875 219.663574,133.815918 219.663574,136.780273 C219.663574,139.750977 217.975098,141.598145 215.264648,141.598145 C212.547852,141.598145 210.853027,139.750977 210.853027,136.780273 C210.853027,133.80957 212.573242,131.96875 215.264648,131.96875 Z M215.264648,133.650879 C213.779297,133.650879 212.814453,134.863281 212.814453,136.780273 C212.814453,138.690918 213.760254,139.916016 215.264648,139.916016 C216.756348,139.916016 217.708496,138.690918 217.708496,136.780273 C217.708496,134.863281 216.756348,133.650879 215.264648,133.650879 Z M225.338379,134.247559 C227.109375,134.247559 228.194824,135.593262 228.194824,137.859375 C228.194824,140.119141 227.12207,141.471191 225.370117,141.471191 C224.367188,141.471191 223.599121,141.033203 223.256348,140.290527 L223.14209,140.290527 L223.14209,143.686523 L221.294922,143.686523 L221.294922,134.361816 L223.084961,134.361816 L223.084961,135.510742 L223.199219,135.510742 C223.580078,134.723633 224.373535,134.247559 225.338379,134.247559 Z M224.709961,139.928711 C225.706543,139.928711 226.296875,139.154297 226.296875,137.859375 C226.296875,136.577148 225.700195,135.796387 224.716309,135.796387 C223.732422,135.796387 223.123047,136.583496 223.123047,137.865723 C223.123047,139.147949 223.732422,139.928711 224.709961,139.928711 Z M229.762695,141.363281 L229.762695,131.689453 L231.609863,131.689453 L231.609863,141.363281 L229.762695,141.363281 Z M236.630859,141.515625 C234.479004,141.515625 233.184082,140.150879 233.184082,137.859375 C233.184082,135.593262 234.498047,134.209473 236.630859,134.209473 C238.763672,134.209473 240.077637,135.586914 240.077637,137.859375 C240.077637,140.150879 238.782715,141.515625 236.630859,141.515625 Z M236.630859,140.004883 C237.614746,140.004883 238.179688,139.217773 238.179688,137.859375 C238.179688,136.513672 237.608398,135.720215 236.630859,135.720215 C235.646973,135.720215 235.082031,136.513672 235.082031,137.859375 C235.082031,139.224121 235.640625,140.004883 236.630859,140.004883 Z M241.42334,136.418457 C241.42334,135.091797 242.591309,134.209473 244.336914,134.209473 C246.114258,134.209473 247.161621,134.952148 247.263184,136.291504 L245.555664,136.291504 C245.460449,135.84082 245.035156,135.561523 244.349609,135.561523 C243.689453,135.561523 243.200684,135.859863 243.200684,136.304199 C243.200684,136.646973 243.499023,136.856445 244.146484,137.002441 L245.460449,137.288086 C246.818848,137.586426 247.428223,138.157715 247.428223,139.205078 C247.428223,140.601562 246.177734,141.515625 244.343262,141.515625 C242.496094,141.515625 241.378906,140.760254 241.251953,139.414551 L243.054688,139.414551 C243.194336,139.890625 243.64502,140.163574 244.381348,140.163574 C245.098633,140.163574 245.59375,139.865234 245.59375,139.414551 C245.59375,139.071777 245.327148,138.862305 244.711426,138.729004 L243.441895,138.443359 C242.083496,138.14502 241.42334,137.497559 241.42334,136.418457 Z M248.786621,136.418457 C248.786621,135.091797 249.95459,134.209473 251.700195,134.209473 C253.477539,134.209473 254.524902,134.952148 254.626465,136.291504 L252.918945,136.291504 C252.82373,135.84082 252.398438,135.561523 251.712891,135.561523 C251.052734,135.561523 250.563965,135.859863 250.563965,136.304199 C250.563965,136.646973 250.862305,136.856445 251.509766,137.002441 L252.82373,137.288086 C254.182129,137.586426 254.791504,138.157715 254.791504,139.205078 C254.791504,140.601562 253.541016,141.515625 251.706543,141.515625 C249.859375,141.515625 248.742188,140.760254 248.615234,139.414551 L250.417969,139.414551 C250.557617,139.890625 251.008301,140.163574 251.744629,140.163574 C252.461914,140.163574 252.957031,139.865234 252.957031,139.414551 C252.957031,139.071777 252.69043,138.862305 252.074707,138.729004 L250.805176,138.443359 C249.446777,138.14502 248.786621,137.497559 248.786621,136.418457 Z M256.321289,141.363281 L256.321289,134.361816 L258.168457,134.361816 L258.168457,141.363281 L256.321289,141.363281 Z M257.248047,133.384277 C256.581543,133.384277 256.15625,132.99707 256.15625,132.451172 C256.15625,131.898926 256.581543,131.518066 257.248047,131.518066 C257.908203,131.518066 258.339844,131.898926 258.339844,132.451172 C258.339844,132.99707 257.908203,133.384277 257.248047,133.384277 Z M260.034668,141.363281 L260.034668,134.361816 L261.824707,134.361816 L261.824707,135.485352 L261.938965,135.485352 C262.262695,134.698242 262.973633,134.209473 264.008301,134.209473 C265.563477,134.209473 266.401367,135.161621 266.401367,136.837402 L266.401367,141.363281 L264.554199,141.363281 L264.554199,137.275391 C264.554199,136.310547 264.141602,135.802734 263.265625,135.802734 C262.408691,135.802734 261.881836,136.405762 261.881836,137.326172 L261.881836,141.363281 L260.034668,141.363281 Z M271.301758,139.801758 C272.304688,139.801758 272.901367,139.033691 272.901367,137.802246 C272.901367,136.570801 272.29834,135.796387 271.301758,135.796387 C270.305176,135.796387 269.727539,136.570801 269.727539,137.795898 C269.727539,139.033691 270.298828,139.801758 271.301758,139.801758 Z M271.276367,144.016602 C269.416504,144.016602 268.185059,143.197754 268.070801,141.966309 L269.898926,141.966309 C269.994141,142.397949 270.514648,142.670898 271.314453,142.670898 C272.304688,142.670898 272.882324,142.213867 272.882324,141.426758 L272.882324,140.131836 L272.768066,140.131836 C272.380859,140.868164 271.644531,141.261719 270.660645,141.261719 C268.915039,141.261719 267.82959,139.909668 267.82959,137.802246 C267.82959,135.631348 268.921387,134.247559 270.69873,134.247559 C271.644531,134.247559 272.450684,134.717285 272.825195,135.485352 L272.939453,135.485352 L272.939453,134.361816 L274.729492,134.361816 L274.729492,141.337891 C274.729492,142.981934 273.390137,144.016602 271.276367,144.016602 Z M279.61084,135.625 C278.753906,135.625 278.150879,136.22168 278.087402,137.129395 L281.070801,137.129395 C281.032715,136.202637 280.474121,135.625 279.61084,135.625 Z M281.108887,139.370117 L282.829102,139.370117 C282.549805,140.69043 281.34375,141.515625 279.629883,141.515625 C277.49707,141.515625 276.240234,140.169922 276.240234,137.897461 C276.240234,135.618652 277.522461,134.209473 279.604492,134.209473 C281.66748,134.209473 282.88623,135.523438 282.88623,137.745117 L282.88623,138.310059 L278.081055,138.310059 L278.081055,138.405273 C278.106445,139.446289 278.71582,140.09375 279.680664,140.09375 C280.410645,140.09375 280.912109,139.833496 281.108887,139.370117 Z M284.396973,141.363281 L284.396973,134.361816 L286.187012,134.361816 L286.187012,135.485352 L286.30127,135.485352 C286.625,134.698242 287.335938,134.209473 288.370605,134.209473 C289.925781,134.209473 290.763672,135.161621 290.763672,136.837402 L290.763672,141.363281 L288.916504,141.363281 L288.916504,137.275391 C288.916504,136.310547 288.503906,135.802734 287.62793,135.802734 C286.770996,135.802734 286.244141,136.405762 286.244141,137.326172 L286.244141,141.363281 L284.396973,141.363281 Z M300.03125,141.471191 C299.041016,141.471191 298.247559,141.026855 297.873047,140.265137 L297.758789,140.265137 L297.758789,141.363281 L295.96875,141.363281 L295.96875,131.689453 L297.815918,131.689453 L297.815918,135.479004 L297.930176,135.479004 C298.285645,134.710938 299.072754,134.247559 300.03125,134.247559 C301.802246,134.247559 302.868652,135.599609 302.868652,137.859375 C302.868652,140.106445 301.789551,141.471191 300.03125,141.471191 Z M299.390137,135.796387 C298.418945,135.796387 297.803223,136.589844 297.796875,137.865723 C297.803223,139.135254 298.412598,139.928711 299.390137,139.928711 C300.374023,139.928711 300.970703,139.141602 300.970703,137.859375 C300.970703,136.583496 300.367676,135.796387 299.390137,135.796387 Z M307.400879,135.625 C306.543945,135.625 305.940918,136.22168 305.877441,137.129395 L308.86084,137.129395 C308.822754,136.202637 308.26416,135.625 307.400879,135.625 Z M308.898926,139.370117 L310.619141,139.370117 C310.339844,140.69043 309.133789,141.515625 307.419922,141.515625 C305.287109,141.515625 304.030273,140.169922 304.030273,137.897461 C304.030273,135.618652 305.3125,134.209473 307.394531,134.209473 C309.45752,134.209473 310.67627,135.523438 310.67627,137.745117 L310.67627,138.310059 L305.871094,138.310059 L305.871094,138.405273 C305.896484,139.446289 306.505859,140.09375 307.470703,140.09375 C308.200684,140.09375 308.702148,139.833496 308.898926,139.370117 Z M314.694336,141.471191 C312.929688,141.471191 311.844238,140.087402 311.844238,137.853027 C311.844238,135.625 312.936035,134.247559 314.694336,134.247559 C315.640137,134.247559 316.420898,134.70459 316.782715,135.479004 L316.890625,135.479004 L316.890625,131.689453 L318.737793,131.689453 L318.737793,141.363281 L316.947754,141.363281 L316.947754,140.265137 L316.833496,140.265137 C316.458984,141.020508 315.665527,141.471191 314.694336,141.471191 Z M315.322754,135.796387 C314.338867,135.796387 313.742188,136.577148 313.742188,137.859375 C313.742188,139.154297 314.33252,139.928711 315.322754,139.928711 C316.312988,139.928711 316.909668,139.147949 316.909668,137.865723 C316.909668,136.589844 316.306641,135.796387 315.322754,135.796387 Z M323.682617,135.625 C322.825684,135.625 322.222656,136.22168 322.15918,137.129395 L325.142578,137.129395 C325.104492,136.202637 324.545898,135.625 323.682617,135.625 Z M325.180664,139.370117 L326.900879,139.370117 C326.621582,140.69043 325.415527,141.515625 323.70166,141.515625 C321.568848,141.515625 320.312012,140.169922 320.312012,137.897461 C320.312012,135.618652 321.594238,134.209473 323.67627,134.209473 C325.739258,134.209473 326.958008,135.523438 326.958008,137.745117 L326.958008,138.310059 L322.152832,138.310059 L322.152832,138.405273 C322.178223,139.446289 322.787598,140.09375 323.752441,140.09375 C324.482422,140.09375 324.983887,139.833496 325.180664,139.370117 Z M328.46875,141.363281 L328.46875,134.361816 L330.258789,134.361816 L330.258789,135.485352 L330.373047,135.485352 C330.696777,134.698242 331.407715,134.209473 332.442383,134.209473 C333.997559,134.209473 334.835449,135.161621 334.835449,136.837402 L334.835449,141.363281 L332.988281,141.363281 L332.988281,137.275391 C332.988281,136.310547 332.575684,135.802734 331.699707,135.802734 C330.842773,135.802734 330.315918,136.405762 330.315918,137.326172 L330.315918,141.363281 L328.46875,141.363281 Z M338.650391,137.097656 L340.992676,134.361816 L343.09375,134.361816 L340.427734,137.364258 L343.277832,141.363281 L341.087891,141.363281 L339.043945,138.519531 L338.536133,139.040039 L338.536133,141.363281 L336.688965,141.363281 L336.688965,131.689453 L338.536133,131.689453 L338.536133,137.097656 L338.650391,137.097656 Z M347.473633,135.625 C346.616699,135.625 346.013672,136.22168 345.950195,137.129395 L348.933594,137.129395 C348.895508,136.202637 348.336914,135.625 347.473633,135.625 Z M348.97168,139.370117 L350.691895,139.370117 C350.412598,140.69043 349.206543,141.515625 347.492676,141.515625 C345.359863,141.515625 344.103027,140.169922 344.103027,137.897461 C344.103027,135.618652 345.385254,134.209473 347.467285,134.209473 C349.530273,134.209473 350.749023,135.523438 350.749023,137.745117 L350.749023,138.310059 L345.943848,138.310059 L345.943848,138.405273 C345.969238,139.446289 346.578613,140.09375 347.543457,140.09375 C348.273438,140.09375 348.774902,139.833496 348.97168,139.370117 Z M352.259766,141.363281 L352.259766,134.361816 L354.049805,134.361816 L354.049805,135.485352 L354.164062,135.485352 C354.487793,134.698242 355.19873,134.209473 356.233398,134.209473 C357.788574,134.209473 358.626465,135.161621 358.626465,136.837402 L358.626465,141.363281 L356.779297,141.363281 L356.779297,137.275391 C356.779297,136.310547 356.366699,135.802734 355.490723,135.802734 C354.633789,135.802734 354.106934,136.405762 354.106934,137.326172 L354.106934,141.363281 L352.259766,141.363281 Z" id="Oplossingen-bedenken" fill="#3366FF"></path>
            <g id="Rectangle">
                <use fill="black" fill-opacity="1" filter="url(#filter-11)" xlink:href="#path-10"></use>
                <use fill="#FFFFFF" fill-rule="evenodd" xlink:href="#path-10"></use>
            </g>
            <g id="Rectangle">
                <use fill="#3366FF" fill-rule="evenodd" xlink:href="#path-12"></use>
                <path stroke="#3366FF" stroke-width="1" d="M260.734375,272.416016 L260.734375,227.310547 L161.039062,227.310547 C160.210635,227.310547 159.539062,227.98212 159.539062,228.810547 L159.539062,270.916016 C159.539062,271.744443 160.210635,272.416016 161.039062,272.416016 L260.734375,272.416016 Z"></path>
            </g>
            <path d="M193.486816,254.363281 L192.356934,254.363281 L188.97998,245.203613 L190.179688,245.203613 L192.871094,252.884277 L192.972656,252.884277 L195.664062,245.203613 L196.86377,245.203613 L193.486816,254.363281 Z M198.330078,254.363281 L198.330078,247.520508 L199.371094,247.520508 L199.371094,248.536133 L199.472656,248.536133 C199.675781,247.869629 200.462891,247.399902 201.370605,247.399902 C201.54834,247.399902 201.776855,247.412598 201.916504,247.431641 L201.916504,248.523438 C201.827637,248.498047 201.434082,248.459961 201.218262,248.459961 C200.177246,248.459961 199.421875,249.158203 199.421875,250.123047 L199.421875,254.363281 L198.330078,254.363281 Z M203.306641,254.363281 L203.306641,247.520508 L204.398438,247.520508 L204.398438,254.363281 L203.306641,254.363281 Z M203.852539,246.130371 C203.433594,246.130371 203.09082,245.787598 203.09082,245.368652 C203.09082,244.949707 203.433594,244.606934 203.852539,244.606934 C204.271484,244.606934 204.614258,244.949707 204.614258,245.368652 C204.614258,245.787598 204.271484,246.130371 203.852539,246.130371 Z M207.597656,247.520508 L207.597656,254.699707 C207.597656,256.108887 206.9375,256.711914 205.50293,256.711914 L205.3125,256.711914 L205.3125,255.778809 L205.477539,255.778809 C206.251953,255.778809 206.505859,255.474121 206.505859,254.71875 L206.505859,247.520508 L207.597656,247.520508 Z M207.051758,246.130371 C206.632812,246.130371 206.290039,245.787598 206.290039,245.368652 C206.290039,244.949707 206.632812,244.606934 207.051758,244.606934 C207.470703,244.606934 207.813477,244.949707 207.813477,245.368652 C207.813477,245.787598 207.470703,246.130371 207.051758,246.130371 Z M212.212402,254.483887 C210.460449,254.483887 209.336914,253.09375 209.336914,250.941895 C209.336914,248.796387 210.473145,247.399902 212.212402,247.399902 C213.164551,247.399902 213.970703,247.850586 214.35791,248.599609 L214.453125,248.599609 L214.453125,244.803711 L215.544922,244.803711 L215.544922,254.363281 L214.503906,254.363281 L214.503906,253.271484 L214.402344,253.271484 C213.970703,254.033203 213.158203,254.483887 212.212402,254.483887 Z M212.466309,248.383789 C211.222168,248.383789 210.466797,249.348633 210.466797,250.941895 C210.466797,252.541504 211.21582,253.5 212.466309,253.5 C213.710449,253.5 214.478516,252.522461 214.478516,250.941895 C214.478516,249.374023 213.704102,248.383789 212.466309,248.383789 Z M219.772461,253.525391 C220.895996,253.525391 221.727539,252.789062 221.727539,251.811523 L221.727539,251.183105 L219.886719,251.303711 C218.845703,251.373535 218.388672,251.735352 218.388672,252.420898 C218.388672,253.119141 218.979004,253.525391 219.772461,253.525391 Z M219.569336,254.483887 C218.242676,254.483887 217.258789,253.696777 217.258789,252.446289 C217.258789,251.221191 218.160156,250.516602 219.753418,250.421387 L221.727539,250.300781 L221.727539,249.678711 C221.727539,248.834473 221.200684,248.371094 220.178711,248.371094 C219.359863,248.371094 218.788574,248.682129 218.63623,249.22168 L217.531738,249.22168 C217.677734,248.123535 218.756836,247.399902 220.216797,247.399902 C221.88623,247.399902 222.819336,248.256836 222.819336,249.678711 L222.819336,254.363281 L221.77832,254.363281 L221.77832,253.354004 L221.676758,253.354004 C221.232422,254.083984 220.483398,254.483887 219.569336,254.483887 Z M227.605469,253.296875 C228.875,253.296875 229.636719,252.332031 229.636719,250.840332 C229.636719,249.348633 228.868652,248.383789 227.605469,248.383789 C226.335938,248.383789 225.625,249.348633 225.625,250.840332 C225.625,252.332031 226.335938,253.296875 227.605469,253.296875 Z M227.65625,256.991211 C226.005859,256.991211 224.952148,256.248535 224.787109,255.118652 L225.942383,255.118652 C226.062988,255.677246 226.672363,256.039062 227.65625,256.039062 C228.881348,256.039062 229.611328,255.436035 229.611328,254.426758 L229.611328,253.081055 L229.509766,253.081055 C229.078125,253.836426 228.303711,254.261719 227.364258,254.261719 C225.593262,254.261719 224.495117,252.890625 224.495117,250.840332 C224.495117,248.790039 225.605957,247.399902 227.364258,247.399902 C228.322754,247.399902 229.166992,247.869629 229.560547,248.605957 L229.662109,248.605957 L229.662109,247.520508 L230.703125,247.520508 L230.703125,254.483887 C230.703125,256.013672 229.522461,256.991211 227.65625,256.991211 Z" id="Vrijdag" fill="#FFFFFF"></path>
            <path d="M281.690918,254.363281 L279.773926,254.363281 L279.773926,246.841309 L277.025391,246.841309 L277.025391,245.203613 L284.439453,245.203613 L284.439453,246.841309 L281.690918,246.841309 L281.690918,254.363281 Z M288.978027,248.625 C288.121094,248.625 287.518066,249.22168 287.45459,250.129395 L290.437988,250.129395 C290.399902,249.202637 289.841309,248.625 288.978027,248.625 Z M290.476074,252.370117 L292.196289,252.370117 C291.916992,253.69043 290.710938,254.515625 288.99707,254.515625 C286.864258,254.515625 285.607422,253.169922 285.607422,250.897461 C285.607422,248.618652 286.889648,247.209473 288.97168,247.209473 C291.034668,247.209473 292.253418,248.523438 292.253418,250.745117 L292.253418,251.310059 L287.448242,251.310059 L287.448242,251.405273 C287.473633,252.446289 288.083008,253.09375 289.047852,253.09375 C289.777832,253.09375 290.279297,252.833496 290.476074,252.370117 Z M293.605469,249.418457 C293.605469,248.091797 294.773438,247.209473 296.519043,247.209473 C298.296387,247.209473 299.34375,247.952148 299.445312,249.291504 L297.737793,249.291504 C297.642578,248.84082 297.217285,248.561523 296.531738,248.561523 C295.871582,248.561523 295.382812,248.859863 295.382812,249.304199 C295.382812,249.646973 295.681152,249.856445 296.328613,250.002441 L297.642578,250.288086 C299.000977,250.586426 299.610352,251.157715 299.610352,252.205078 C299.610352,253.601562 298.359863,254.515625 296.525391,254.515625 C294.678223,254.515625 293.561035,253.760254 293.434082,252.414551 L295.236816,252.414551 C295.376465,252.890625 295.827148,253.163574 296.563477,253.163574 C297.280762,253.163574 297.775879,252.865234 297.775879,252.414551 C297.775879,252.071777 297.509277,251.862305 296.893555,251.729004 L295.624023,251.443359 C294.265625,251.14502 293.605469,250.497559 293.605469,249.418457 Z M301.654297,245.69873 L303.501465,245.69873 L303.501465,247.431641 L304.955078,247.431641 L304.955078,248.885254 L303.501465,248.885254 L303.501465,252.033691 C303.501465,252.643066 303.780762,252.922363 304.40918,252.922363 C304.650391,252.922363 304.777344,252.916016 304.955078,252.896973 L304.955078,254.306152 C304.726562,254.350586 304.383789,254.388672 304.02832,254.388672 C302.327148,254.388672 301.654297,253.836426 301.654297,252.47168 L301.654297,248.885254 L300.5625,248.885254 L300.5625,247.431641 L301.654297,247.431641 L301.654297,245.69873 Z M309.519043,248.625 C308.662109,248.625 308.059082,249.22168 307.995605,250.129395 L310.979004,250.129395 C310.940918,249.202637 310.382324,248.625 309.519043,248.625 Z M311.01709,252.370117 L312.737305,252.370117 C312.458008,253.69043 311.251953,254.515625 309.538086,254.515625 C307.405273,254.515625 306.148438,253.169922 306.148438,250.897461 C306.148438,248.618652 307.430664,247.209473 309.512695,247.209473 C311.575684,247.209473 312.794434,248.523438 312.794434,250.745117 L312.794434,251.310059 L307.989258,251.310059 L307.989258,251.405273 C308.014648,252.446289 308.624023,253.09375 309.588867,253.09375 C310.318848,253.09375 310.820312,252.833496 311.01709,252.370117 Z M314.305176,254.363281 L314.305176,247.361816 L316.095215,247.361816 L316.095215,248.485352 L316.209473,248.485352 C316.533203,247.698242 317.244141,247.209473 318.278809,247.209473 C319.833984,247.209473 320.671875,248.161621 320.671875,249.837402 L320.671875,254.363281 L318.824707,254.363281 L318.824707,250.275391 C318.824707,249.310547 318.412109,248.802734 317.536133,248.802734 C316.679199,248.802734 316.152344,249.405762 316.152344,250.326172 L316.152344,254.363281 L314.305176,254.363281 Z M332.326172,254.363281 L331.621582,253.620605 C330.942383,254.198242 329.89502,254.541016 328.771484,254.541016 C326.822754,254.541016 325.565918,253.531738 325.565918,251.970215 C325.565918,250.922852 326.092773,250.173828 327.273438,249.526367 C327.311523,249.513672 327.628906,249.32959 327.679688,249.304199 C326.841797,248.447266 326.543457,247.875977 326.543457,247.203125 C326.543457,245.965332 327.647949,245.063965 329.152344,245.063965 C330.650391,245.063965 331.710449,245.927246 331.710449,247.165039 C331.710449,248.11084 331.126465,248.872559 329.844238,249.564453 L331.602539,251.38623 C331.818359,251.005371 331.92627,250.478516 331.92627,249.716797 L331.92627,249.266113 L333.481445,249.266113 L333.481445,249.837402 C333.481445,250.935547 333.195801,251.906738 332.700684,252.573242 L334.401855,254.363281 L332.326172,254.363281 Z M328.282715,250.44043 C327.616211,250.802246 327.298828,251.25293 327.298828,251.811523 C327.298828,252.611328 327.97168,253.150879 328.961914,253.150879 C329.628418,253.150879 330.288574,252.909668 330.650391,252.528809 L328.549316,250.313477 C328.479492,250.338867 328.352539,250.402344 328.282715,250.44043 Z M328.987305,248.669434 C329.825195,248.250488 330.167969,247.844238 330.167969,247.304688 C330.167969,246.727051 329.755371,246.333496 329.158691,246.333496 C328.562012,246.333496 328.136719,246.733398 328.136719,247.304688 C328.136719,247.723633 328.358887,248.072754 328.987305,248.669434 Z M342.971191,254.471191 C341.980957,254.471191 341.1875,254.026855 340.812988,253.265137 L340.69873,253.265137 L340.69873,254.363281 L338.908691,254.363281 L338.908691,244.689453 L340.755859,244.689453 L340.755859,248.479004 L340.870117,248.479004 C341.225586,247.710938 342.012695,247.247559 342.971191,247.247559 C344.742188,247.247559 345.808594,248.599609 345.808594,250.859375 C345.808594,253.106445 344.729492,254.471191 342.971191,254.471191 Z M342.330078,248.796387 C341.358887,248.796387 340.743164,249.589844 340.736816,250.865723 C340.743164,252.135254 341.352539,252.928711 342.330078,252.928711 C343.313965,252.928711 343.910645,252.141602 343.910645,250.859375 C343.910645,249.583496 343.307617,248.796387 342.330078,248.796387 Z M347.325684,254.363281 L347.325684,247.361816 L349.172852,247.361816 L349.172852,254.363281 L347.325684,254.363281 Z M348.252441,246.384277 C347.585938,246.384277 347.160645,245.99707 347.160645,245.451172 C347.160645,244.898926 347.585938,244.518066 348.252441,244.518066 C348.912598,244.518066 349.344238,244.898926 349.344238,245.451172 C349.344238,245.99707 348.912598,246.384277 348.252441,246.384277 Z M352.898926,247.361816 L352.898926,254.579102 C352.898926,256.013672 352.041992,256.75 350.42334,256.75 C350.290039,256.75 350.004395,256.737305 349.928223,256.724609 L349.928223,255.309082 C349.966309,255.31543 350.105957,255.31543 350.163086,255.31543 C350.810547,255.31543 351.051758,255.086914 351.051758,254.52832 L351.051758,247.361816 L352.898926,247.361816 Z M351.978516,246.384277 C351.312012,246.384277 350.886719,245.99707 350.886719,245.451172 C350.886719,244.898926 351.312012,244.518066 351.978516,244.518066 C352.638672,244.518066 353.070312,244.898926 353.070312,245.451172 C353.070312,245.99707 352.638672,246.384277 351.978516,246.384277 Z M354.606445,249.418457 C354.606445,248.091797 355.774414,247.209473 357.52002,247.209473 C359.297363,247.209473 360.344727,247.952148 360.446289,249.291504 L358.73877,249.291504 C358.643555,248.84082 358.218262,248.561523 357.532715,248.561523 C356.872559,248.561523 356.383789,248.859863 356.383789,249.304199 C356.383789,249.646973 356.682129,249.856445 357.32959,250.002441 L358.643555,250.288086 C360.001953,250.586426 360.611328,251.157715 360.611328,252.205078 C360.611328,253.601562 359.36084,254.515625 357.526367,254.515625 C355.679199,254.515625 354.562012,253.760254 354.435059,252.414551 L356.237793,252.414551 C356.377441,252.890625 356.828125,253.163574 357.564453,253.163574 C358.281738,253.163574 358.776855,252.865234 358.776855,252.414551 C358.776855,252.071777 358.510254,251.862305 357.894531,251.729004 L356.625,251.443359 C355.266602,251.14502 354.606445,250.497559 354.606445,249.418457 Z M362.655273,245.69873 L364.502441,245.69873 L364.502441,247.431641 L365.956055,247.431641 L365.956055,248.885254 L364.502441,248.885254 L364.502441,252.033691 C364.502441,252.643066 364.781738,252.922363 365.410156,252.922363 C365.651367,252.922363 365.77832,252.916016 365.956055,252.896973 L365.956055,254.306152 C365.727539,254.350586 365.384766,254.388672 365.029297,254.388672 C363.328125,254.388672 362.655273,253.836426 362.655273,252.47168 L362.655273,248.885254 L361.563477,248.885254 L361.563477,247.431641 L362.655273,247.431641 L362.655273,245.69873 Z M373.827148,247.361816 L373.827148,254.363281 L372.037109,254.363281 L372.037109,253.239746 L371.922852,253.239746 C371.592773,254.052246 370.938965,254.515625 369.878906,254.515625 C368.368164,254.515625 367.428711,253.550781 367.428711,251.925781 L367.428711,247.361816 L369.275879,247.361816 L369.275879,251.449707 C369.275879,252.414551 369.713867,252.909668 370.564453,252.909668 C371.484863,252.909668 371.97998,252.332031 371.97998,251.398926 L371.97998,247.361816 L373.827148,247.361816 Z M375.680664,254.363281 L375.680664,247.361816 L377.470703,247.361816 L377.470703,248.479004 L377.584961,248.479004 C377.769043,247.780762 378.492676,247.247559 379.381348,247.247559 C379.635254,247.247559 379.946289,247.279297 380.10498,247.336426 L380.10498,249.018555 C379.958984,248.961426 379.527344,248.904297 379.229004,248.904297 C378.219727,248.904297 377.527832,249.500977 377.527832,250.484863 L377.527832,254.363281 L375.680664,254.363281 Z M384.364258,248.625 C383.507324,248.625 382.904297,249.22168 382.84082,250.129395 L385.824219,250.129395 C385.786133,249.202637 385.227539,248.625 384.364258,248.625 Z M385.862305,252.370117 L387.58252,252.370117 C387.303223,253.69043 386.097168,254.515625 384.383301,254.515625 C382.250488,254.515625 380.993652,253.169922 380.993652,250.897461 C380.993652,248.618652 382.275879,247.209473 384.35791,247.209473 C386.420898,247.209473 387.639648,248.523438 387.639648,250.745117 L387.639648,251.310059 L382.834473,251.310059 L382.834473,251.405273 C382.859863,252.446289 383.469238,253.09375 384.434082,253.09375 C385.164062,253.09375 385.665527,252.833496 385.862305,252.370117 Z M389.150391,254.363281 L389.150391,247.361816 L390.94043,247.361816 L390.94043,248.485352 L391.054688,248.485352 C391.378418,247.698242 392.089355,247.209473 393.124023,247.209473 C394.679199,247.209473 395.51709,248.161621 395.51709,249.837402 L395.51709,254.363281 L393.669922,254.363281 L393.669922,250.275391 C393.669922,249.310547 393.257324,248.802734 392.381348,248.802734 C391.524414,248.802734 390.997559,249.405762 390.997559,250.326172 L390.997559,254.363281 L389.150391,254.363281 Z" id="Testen-&amp;-bijsturen" fill="#3366FF"></path>
            <g id="Group" transform="translate(340.000000, 80.000000)" stroke="#FF3333" stroke-linecap="round" stroke-linejoin="round" stroke-width="3">
                <path d="M21.8671875,21.2578125 C21.8671875,9.65983275 12.4651672,0.2578125 0.8671875,0.2578125" id="Oval"></path>
                <path d="M15.3671875,16.7578125 L21.8671875,21.2578125" id="Path-2"></path>
                <path d="M27,16 L21.8671875,21.2578125" id="Path-2"></path>
            </g>
            <path d="M50.3320312,80.8671875 C50.3320312,69.2692078 40.930011,59.8671875 29.3320312,59.8671875" id="Oval" stroke="#FF3333" stroke-width="3" stroke-linecap="round" stroke-linejoin="round" transform="translate(39.832031, 70.367188) scale(-1, 1) rotate(90.000000) translate(-39.832031, -70.367188) "></path>
            <path d="M44.8320312,75.3671875 L51.3320312,79.8671875" id="Path-2" stroke="#FF3333" stroke-width="3" stroke-linecap="round" stroke-linejoin="round" transform="translate(48.082031, 77.617188) scale(-1, 1) rotate(90.000000) translate(-48.082031, -77.617188) "></path>
            <path d="M50.2695312,80.8046875 L45.1367188,86.0625" id="Path-2" stroke="#FF3333" stroke-width="3" stroke-linecap="round" stroke-linejoin="round" transform="translate(47.703125, 83.433594) scale(-1, 1) rotate(90.000000) translate(-47.703125, -83.433594) "></path>
            <path d="M146.625,251.867188 C146.625,240.269208 137.22298,230.867188 125.625,230.867188" id="Oval" stroke="#FF3333" stroke-width="3" stroke-linecap="round" stroke-linejoin="round" transform="translate(136.125000, 241.367188) scale(-1, 1) rotate(90.000000) translate(-136.125000, -241.367188) "></path>
            <path d="M141.125,246.367188 L147.625,250.867188" id="Path-2" stroke="#FF3333" stroke-width="3" stroke-linecap="round" stroke-linejoin="round" transform="translate(144.375000, 248.617188) scale(-1, 1) rotate(90.000000) translate(-144.375000, -248.617188) "></path>
            <path d="M146.5625,251.804688 L141.429688,257.0625" id="Path-2" stroke="#FF3333" stroke-width="3" stroke-linecap="round" stroke-linejoin="round" transform="translate(143.996094, 254.433594) scale(-1, 1) rotate(90.000000) translate(-143.996094, -254.433594) "></path>
            <g id="Rectangle">
                <use fill="black" fill-opacity="1" filter="url(#filter-14)" xlink:href="#path-13"></use>
                <use fill="#FFFFFF" fill-rule="evenodd" xlink:href="#path-13"></use>
            </g>
            <g id="Rectangle">
                <use fill="#3366FF" fill-rule="evenodd" xlink:href="#path-15"></use>
                <path stroke="#3366FF" stroke-width="1" d="M101.734375,215.416016 L101.734375,170.310547 L2.0390625,170.310547 C1.21063538,170.310547 0.5390625,170.98212 0.5390625,171.810547 L0.5390625,213.916016 C0.5390625,214.744443 1.21063538,215.416016 2.0390625,215.416016 L101.734375,215.416016 Z"></path>
            </g>
            <path d="M18.2304688,188.203613 L21.3725586,188.203613 C24.0893555,188.203613 25.6953125,189.898438 25.6953125,192.780273 C25.6953125,195.668457 24.0957031,197.363281 21.3725586,197.363281 L18.2304688,197.363281 L18.2304688,188.203613 Z M19.3730469,189.231934 L19.3730469,196.334961 L21.2963867,196.334961 C23.340332,196.334961 24.5273438,195.027344 24.5273438,192.792969 C24.5273438,190.552246 23.3276367,189.231934 21.2963867,189.231934 L19.3730469,189.231934 Z M30.3417969,197.483887 C28.3930664,197.483887 27.1870117,196.138184 27.1870117,193.941895 C27.1870117,191.739258 28.3930664,190.399902 30.3417969,190.399902 C32.2905273,190.399902 33.496582,191.739258 33.496582,193.941895 C33.496582,196.138184 32.2905273,197.483887 30.3417969,197.483887 Z M30.3417969,196.5 C31.6367188,196.5 32.3666992,195.560547 32.3666992,193.941895 C32.3666992,192.316895 31.6367188,191.383789 30.3417969,191.383789 C29.046875,191.383789 28.3168945,192.316895 28.3168945,193.941895 C28.3168945,195.560547 29.046875,196.5 30.3417969,196.5 Z M35.2104492,197.363281 L35.2104492,190.520508 L36.2514648,190.520508 L36.2514648,191.599609 L36.3530273,191.599609 C36.6958008,190.844238 37.3623047,190.399902 38.409668,190.399902 C39.9458008,190.399902 40.8027344,191.307617 40.8027344,192.932617 L40.8027344,197.363281 L39.7109375,197.363281 L39.7109375,193.199219 C39.7109375,191.967773 39.1904297,191.383789 38.0986328,191.383789 C37.0068359,191.383789 36.3022461,192.11377 36.3022461,193.313477 L36.3022461,197.363281 L35.2104492,197.363281 Z M45.3286133,197.483887 C43.5766602,197.483887 42.453125,196.09375 42.453125,193.941895 C42.453125,191.796387 43.5893555,190.399902 45.3286133,190.399902 C46.2807617,190.399902 47.0869141,190.850586 47.4741211,191.599609 L47.5693359,191.599609 L47.5693359,187.803711 L48.6611328,187.803711 L48.6611328,197.363281 L47.6201172,197.363281 L47.6201172,196.271484 L47.5185547,196.271484 C47.0869141,197.033203 46.2744141,197.483887 45.3286133,197.483887 Z M45.5825195,191.383789 C44.3383789,191.383789 43.5830078,192.348633 43.5830078,193.941895 C43.5830078,195.541504 44.3320312,196.5 45.5825195,196.5 C46.8266602,196.5 47.5947266,195.522461 47.5947266,193.941895 C47.5947266,192.374023 46.8203125,191.383789 45.5825195,191.383789 Z M53.5107422,191.364746 C52.4189453,191.364746 51.6572266,192.164551 51.574707,193.376953 L55.3452148,193.376953 C55.3198242,192.164551 54.5961914,191.364746 53.5107422,191.364746 Z M55.3134766,195.592285 L56.4052734,195.592285 C56.0751953,196.766602 55.0214844,197.483887 53.5234375,197.483887 C51.6254883,197.483887 50.4384766,196.112793 50.4384766,193.948242 C50.4384766,191.796387 51.6445312,190.399902 53.5234375,190.399902 C55.3706055,190.399902 56.4941406,191.713867 56.4941406,193.840332 L56.4941406,194.259277 L51.574707,194.259277 L51.574707,194.310059 C51.6318359,195.662109 52.387207,196.519043 53.5488281,196.519043 C54.4311523,196.519043 55.027832,196.195312 55.3134766,195.592285 Z M58.2080078,197.363281 L58.2080078,190.520508 L59.2490234,190.520508 L59.2490234,191.536133 L59.3505859,191.536133 C59.5537109,190.869629 60.3408203,190.399902 61.2485352,190.399902 C61.4262695,190.399902 61.6547852,190.412598 61.7944336,190.431641 L61.7944336,191.523438 C61.7055664,191.498047 61.3120117,191.459961 61.0961914,191.459961 C60.0551758,191.459961 59.2998047,192.158203 59.2998047,193.123047 L59.2998047,197.363281 L58.2080078,197.363281 Z M65.6918945,197.483887 C63.9399414,197.483887 62.8164062,196.09375 62.8164062,193.941895 C62.8164062,191.796387 63.9526367,190.399902 65.6918945,190.399902 C66.644043,190.399902 67.4501953,190.850586 67.8374023,191.599609 L67.9326172,191.599609 L67.9326172,187.803711 L69.0244141,187.803711 L69.0244141,197.363281 L67.9833984,197.363281 L67.9833984,196.271484 L67.8818359,196.271484 C67.4501953,197.033203 66.6376953,197.483887 65.6918945,197.483887 Z M65.9458008,191.383789 C64.7016602,191.383789 63.9462891,192.348633 63.9462891,193.941895 C63.9462891,195.541504 64.6953125,196.5 65.9458008,196.5 C67.1899414,196.5 67.9580078,195.522461 67.9580078,193.941895 C67.9580078,192.374023 67.1835938,191.383789 65.9458008,191.383789 Z M73.2519531,196.525391 C74.3754883,196.525391 75.2070312,195.789062 75.2070312,194.811523 L75.2070312,194.183105 L73.3662109,194.303711 C72.3251953,194.373535 71.8681641,194.735352 71.8681641,195.420898 C71.8681641,196.119141 72.4584961,196.525391 73.2519531,196.525391 Z M73.0488281,197.483887 C71.722168,197.483887 70.7382812,196.696777 70.7382812,195.446289 C70.7382812,194.221191 71.6396484,193.516602 73.2329102,193.421387 L75.2070312,193.300781 L75.2070312,192.678711 C75.2070312,191.834473 74.6801758,191.371094 73.6582031,191.371094 C72.8393555,191.371094 72.2680664,191.682129 72.1157227,192.22168 L71.0112305,192.22168 C71.1572266,191.123535 72.2363281,190.399902 73.6962891,190.399902 C75.3657227,190.399902 76.2988281,191.256836 76.2988281,192.678711 L76.2988281,197.363281 L75.2578125,197.363281 L75.2578125,196.354004 L75.15625,196.354004 C74.7119141,197.083984 73.9628906,197.483887 73.0488281,197.483887 Z M81.0849609,196.296875 C82.3544922,196.296875 83.1162109,195.332031 83.1162109,193.840332 C83.1162109,192.348633 82.3481445,191.383789 81.0849609,191.383789 C79.8154297,191.383789 79.1044922,192.348633 79.1044922,193.840332 C79.1044922,195.332031 79.8154297,196.296875 81.0849609,196.296875 Z M81.1357422,199.991211 C79.4853516,199.991211 78.4316406,199.248535 78.2666016,198.118652 L79.421875,198.118652 C79.5424805,198.677246 80.1518555,199.039062 81.1357422,199.039062 C82.3608398,199.039062 83.0908203,198.436035 83.0908203,197.426758 L83.0908203,196.081055 L82.9892578,196.081055 C82.5576172,196.836426 81.7832031,197.261719 80.84375,197.261719 C79.0727539,197.261719 77.9746094,195.890625 77.9746094,193.840332 C77.9746094,191.790039 79.0854492,190.399902 80.84375,190.399902 C81.8022461,190.399902 82.6464844,190.869629 83.0400391,191.605957 L83.1416016,191.605957 L83.1416016,190.520508 L84.1826172,190.520508 L84.1826172,197.483887 C84.1826172,199.013672 83.0019531,199.991211 81.1357422,199.991211 Z" id="Donderdag" fill="#FFFFFF"></path>
            <path d="M118.552246,188.203613 L122.373535,188.203613 C124.258789,188.203613 125.547363,189.466797 125.547363,191.371094 C125.547363,193.256348 124.208008,194.519531 122.27832,194.519531 L120.469238,194.519531 L120.469238,197.363281 L118.552246,197.363281 L118.552246,188.203613 Z M120.469238,189.777832 L120.469238,192.964355 L121.859375,192.964355 C122.95752,192.964355 123.598633,192.405762 123.598633,191.377441 C123.598633,190.336426 122.970215,189.777832 121.865723,189.777832 L120.469238,189.777832 Z M127.12793,197.363281 L127.12793,190.361816 L128.917969,190.361816 L128.917969,191.479004 L129.032227,191.479004 C129.216309,190.780762 129.939941,190.247559 130.828613,190.247559 C131.08252,190.247559 131.393555,190.279297 131.552246,190.336426 L131.552246,192.018555 C131.40625,191.961426 130.974609,191.904297 130.67627,191.904297 C129.666992,191.904297 128.975098,192.500977 128.975098,193.484863 L128.975098,197.363281 L127.12793,197.363281 Z M135.887695,197.515625 C133.73584,197.515625 132.440918,196.150879 132.440918,193.859375 C132.440918,191.593262 133.754883,190.209473 135.887695,190.209473 C138.020508,190.209473 139.334473,191.586914 139.334473,193.859375 C139.334473,196.150879 138.039551,197.515625 135.887695,197.515625 Z M135.887695,196.004883 C136.871582,196.004883 137.436523,195.217773 137.436523,193.859375 C137.436523,192.513672 136.865234,191.720215 135.887695,191.720215 C134.903809,191.720215 134.338867,192.513672 134.338867,193.859375 C134.338867,195.224121 134.897461,196.004883 135.887695,196.004883 Z M141.365723,188.69873 L143.212891,188.69873 L143.212891,190.431641 L144.666504,190.431641 L144.666504,191.885254 L143.212891,191.885254 L143.212891,195.033691 C143.212891,195.643066 143.492188,195.922363 144.120605,195.922363 C144.361816,195.922363 144.48877,195.916016 144.666504,195.896973 L144.666504,197.306152 C144.437988,197.350586 144.095215,197.388672 143.739746,197.388672 C142.038574,197.388672 141.365723,196.836426 141.365723,195.47168 L141.365723,191.885254 L140.273926,191.885254 L140.273926,190.431641 L141.365723,190.431641 L141.365723,188.69873 Z M149.306641,197.515625 C147.154785,197.515625 145.859863,196.150879 145.859863,193.859375 C145.859863,191.593262 147.173828,190.209473 149.306641,190.209473 C151.439453,190.209473 152.753418,191.586914 152.753418,193.859375 C152.753418,196.150879 151.458496,197.515625 149.306641,197.515625 Z M149.306641,196.004883 C150.290527,196.004883 150.855469,195.217773 150.855469,193.859375 C150.855469,192.513672 150.28418,191.720215 149.306641,191.720215 C148.322754,191.720215 147.757812,192.513672 147.757812,193.859375 C147.757812,195.224121 148.316406,196.004883 149.306641,196.004883 Z M154.784668,188.69873 L156.631836,188.69873 L156.631836,190.431641 L158.085449,190.431641 L158.085449,191.885254 L156.631836,191.885254 L156.631836,195.033691 C156.631836,195.643066 156.911133,195.922363 157.539551,195.922363 C157.780762,195.922363 157.907715,195.916016 158.085449,195.896973 L158.085449,197.306152 C157.856934,197.350586 157.51416,197.388672 157.158691,197.388672 C155.45752,197.388672 154.784668,196.836426 154.784668,195.47168 L154.784668,191.885254 L153.692871,191.885254 L153.692871,190.431641 L154.784668,190.431641 L154.784668,188.69873 Z M160.491211,199.908691 C160.421387,199.908691 159.862793,199.902344 159.786621,199.889648 L159.786621,198.404297 C159.850098,198.416992 160.129395,198.416992 160.205566,198.416992 C160.897461,198.416992 161.291016,198.194824 161.443359,197.661621 L161.506836,197.407715 L159.050293,190.361816 L161.087891,190.361816 L162.560547,195.668457 L162.674805,195.668457 L164.147461,190.361816 L166.102539,190.361816 L163.69043,197.471191 C163.09375,199.273926 162.236816,199.908691 160.491211,199.908691 Z M171.428223,190.247559 C173.199219,190.247559 174.284668,191.593262 174.284668,193.859375 C174.284668,196.119141 173.211914,197.471191 171.459961,197.471191 C170.457031,197.471191 169.688965,197.033203 169.346191,196.290527 L169.231934,196.290527 L169.231934,199.686523 L167.384766,199.686523 L167.384766,190.361816 L169.174805,190.361816 L169.174805,191.510742 L169.289062,191.510742 C169.669922,190.723633 170.463379,190.247559 171.428223,190.247559 Z M170.799805,195.928711 C171.796387,195.928711 172.386719,195.154297 172.386719,193.859375 C172.386719,192.577148 171.790039,191.796387 170.806152,191.796387 C169.822266,191.796387 169.212891,192.583496 169.212891,193.865723 C169.212891,195.147949 169.822266,195.928711 170.799805,195.928711 Z M178.816895,191.625 C177.959961,191.625 177.356934,192.22168 177.293457,193.129395 L180.276855,193.129395 C180.23877,192.202637 179.680176,191.625 178.816895,191.625 Z M180.314941,195.370117 L182.035156,195.370117 C181.755859,196.69043 180.549805,197.515625 178.835938,197.515625 C176.703125,197.515625 175.446289,196.169922 175.446289,193.897461 C175.446289,191.618652 176.728516,190.209473 178.810547,190.209473 C180.873535,190.209473 182.092285,191.523438 182.092285,193.745117 L182.092285,194.310059 L177.287109,194.310059 L177.287109,194.405273 C177.3125,195.446289 177.921875,196.09375 178.886719,196.09375 C179.616699,196.09375 180.118164,195.833496 180.314941,195.370117 Z M183.603027,197.363281 L183.603027,190.361816 L185.393066,190.361816 L185.393066,191.485352 L185.507324,191.485352 C185.831055,190.698242 186.541992,190.209473 187.57666,190.209473 C189.131836,190.209473 189.969727,191.161621 189.969727,192.837402 L189.969727,197.363281 L188.122559,197.363281 L188.122559,193.275391 C188.122559,192.310547 187.709961,191.802734 186.833984,191.802734 C185.977051,191.802734 185.450195,192.405762 185.450195,193.326172 L185.450195,197.363281 L183.603027,197.363281 Z" id="Prototypen" fill="#3366FF"></path>
            <path d="M243.392578,195.367188 C243.392578,183.769208 233.990558,174.367188 222.392578,174.367188" id="Oval" stroke="#FF3333" stroke-width="3" stroke-linecap="round" stroke-linejoin="round" transform="translate(232.892578, 184.867188) rotate(90.000000) translate(-232.892578, -184.867188) "></path>
            <path d="M221.392578,189.867188 L227.892578,194.367188" id="Path-2" stroke="#FF3333" stroke-width="3" stroke-linecap="round" stroke-linejoin="round" transform="translate(224.642578, 192.117188) rotate(90.000000) translate(-224.642578, -192.117188) "></path>
            <path d="M227.587891,195.304688 L222.455078,200.5625" id="Path-2" stroke="#FF3333" stroke-width="3" stroke-linecap="round" stroke-linejoin="round" transform="translate(225.021484, 197.933594) rotate(90.000000) translate(-225.021484, -197.933594) "></path>
        </g>
    </g>
</svg>