<svg xmlns="http://www.w3.org/2000/svg" width="440" height="410" viewBox="0 0 440 410">
  <g fill="none" fill-rule="evenodd" transform="translate(36 33)">
    <path fill="#850000" d="M188.990876,253.405525 L147.232399,230.602059 C146.350161,230.121777 145.478951,229.623512 144.618771,229.107263 C129.427687,219.871719 117.642155,205.933468 111.048819,189.405501 C106.149539,177.267612 103.673888,164.290479 103.762366,151.210582 C103.814639,149.866131 103.660385,148.521042 103.305006,147.222412 C103.015661,146.248343 102.578133,145.324442 102.007873,144.483336 C101.195441,143.27368 100.106801,142.27529 98.8326635,141.571355 L140.595286,164.374827 C141.869423,165.078762 142.958063,166.077153 143.770495,167.286808 C144.340813,168.127881 144.778345,169.051792 145.067629,170.025884 C145.423591,171.324403 145.577855,172.669583 145.524988,174.014055 C145.436403,187.093961 147.912057,200.071115 152.811441,212.208973 C159.405039,228.736783 171.190508,242.674958 186.381393,251.910735 C187.252624,252.424231 188.122451,252.922494 188.990876,253.405525 Z" transform="rotate(27.001 143.912 197.488)"/>
    <path fill="#850000" d="M94.1983415,205.976685 L52.4357192,183.173212 C39.9254964,175.865671 32.495978,162.198916 33.1647604,147.723878 C33.2447997,137.393244 34.709894,127.124076 37.5207152,117.192033 C40.2875521,107.387166 44.2714046,97.9720314 49.3790465,89.1669531 C59.2827664,71.8867097 73.4071324,57.4190019 90.4301387,47.1179717 C101.532949,40.4317273 113.857881,36.0280383 126.688027,34.1630549 C136.065964,32.8317976 145.604837,33.0893362 154.906365,34.9249175 C162.512749,36.4578477 169.848746,39.1284791 176.667891,42.847087 L218.430513,65.6505596 C211.611265,61.9321823 204.275303,59.2615638 196.668988,57.7283901 C187.367459,55.8928088 177.828587,55.6352702 168.450649,56.9665275 C155.620503,58.8315109 143.295571,63.2351999 132.192761,69.9214443 C115.169868,80.2226179 101.045534,94.6902928 91.1416687,111.970426 C86.0353548,120.776172 82.0515747,130.191136 79.2833375,139.995506 C76.4734004,149.927739 75.0083232,160.196787 74.9273827,170.527351 C74.25765,185.002606 81.6874201,198.669824 94.1983415,205.976685 Z" transform="rotate(27.001 125.777 119.651)"/>
    <path fill="#850000" d="M306.245229,159.880377 L333.102989,199.15856 C328.700258,192.817139 322.384332,188.062123 315.085516,185.593904 L288.227756,146.315721 C295.526848,148.783413 301.842924,153.538542 306.245229,159.880377 Z M230.834143,213.073773 C226.108143,206.162226 220.215438,194.78435 213.156027,178.940147 C214.207634,179.312328 215.310327,179.518897 216.424926,179.552514 C217.506144,179.579615 218.585984,179.458389 219.634501,179.192197 C221.847843,178.636604 223.890462,177.541826 225.581404,176.00485 C226.716957,174.971291 227.657038,173.740339 228.356336,172.371322 C239.708652,150.418207 266.461199,138.78822 288.220445,146.302652 L315.078205,185.580836 C293.324531,178.064587 266.568223,189.701981 255.214096,211.649506 C254.51449,213.018327 253.574449,214.249227 252.439164,215.283033 C250.748123,216.819869 248.705542,217.914626 246.492261,218.47038 C245.442481,218.736375 244.361363,218.85697 243.278995,218.82881 C242.16576,218.795221 241.064374,218.5893 240.013787,218.21833 C235.136416,216.605563 232.076535,214.890711 230.834143,213.073773 Z"/>
    <path fill="#DF0000" fill-rule="nonzero" d="M299.765438,131.970757 C322.937725,128.883466 341.39228,146.520671 341.248352,171.326272 C341.168027,181.663995 339.701546,191.940167 336.888281,201.87888 C334.118609,211.680106 330.134882,221.092147 325.029938,229.895653 C315.129233,247.180375 301.004362,261.651463 283.978857,271.952941 C272.875413,278.641007 260.548754,283.044808 247.716824,284.907852 C238.338877,286.238952 228.800031,285.981414 219.498485,284.14599 C210.905645,282.413533 202.665702,279.229079 195.131622,274.729036 C179.941134,265.492793 168.155792,251.554768 161.56167,235.027274 C156.662788,222.887818 154.187161,209.909407 154.275211,196.828202 C154.328702,195.483971 154.17585,194.138908 153.821997,192.840037 C153.53185,191.866274 153.094378,190.942493 152.524863,190.100961 C151.415118,188.447032 149.788794,187.208522 147.902091,186.580535 C146.590581,186.164999 145.203254,186.050913 143.843348,186.246767 C142.740503,186.39938 141.66756,186.718596 140.661042,187.193549 C139.685511,187.661065 138.777316,188.257726 137.960739,188.967582 C136.244069,190.470336 134.921717,192.372279 134.109098,194.50741 C133.567069,195.946884 133.288347,197.47309 133.286266,199.013017 C133.138066,223.727231 114.581533,246.23524 91.7824527,249.414429 C68.6101653,252.50172 50.151459,234.860355 50.2995383,210.058914 C50.3813788,199.72842 51.8464389,189.459491 54.6554931,179.527068 C57.423113,169.722479 61.4069249,160.30744 66.5138244,151.501988 C76.4158068,134.221807 90.5388299,119.754012 107.560771,109.453001 C118.663582,102.766757 130.988513,98.3630676 143.818659,96.4980842 C153.19795,95.166281 162.738276,95.4238229 172.041143,97.2599526 C180.635358,98.9899671 188.876838,102.173072 196.412146,106.672759 C211.602634,115.909001 223.387976,129.847026 229.982098,146.37452 C234.879753,158.512754 237.353985,171.489834 237.264406,184.569433 C237.210783,185.913669 237.363638,187.258752 237.71762,188.557598 C238.008438,189.531104 238.445863,190.454786 239.014754,191.296674 C240.123336,192.951702 241.750079,194.190532 243.637526,194.8171 C244.946029,195.23368 246.331215,195.346398 247.687973,195.146702 C248.794124,194.999439 249.870395,194.681471 250.878575,194.204086 C251.85422,193.737314 252.761317,193.139057 253.574727,192.425893 C255.29445,190.925885 256.617372,189.023121 257.426367,186.886065 C257.968735,185.449572 258.247489,183.926026 258.249212,182.388766 C258.409825,157.657955 276.966357,135.149946 299.765438,131.970757 Z" transform="rotate(27.001 195.774 190.703)"/>
  </g>
</svg>
