<?xml version="1.0" standalone="no"?>
<!DOCTYPE svg PUBLIC "-//W3C//DTD SVG 1.1//EN" "http://www.w3.org/Graphics/SVG/1.1/DTD/svg11.dtd">
<svg xmlns="http://www.w3.org/2000/svg" viewBox="0 0 887.15 572.43" width="887.1500244140625" height="572.4299926757812"><defs><style>.cls-1{fill:blue;stroke:blue;stroke-miterlimit:10;stroke-width:0.94px;}.cls-2{fill:red;}</style></defs><g id="Laag_2" data-name="Laag 2"><g id="Laag_1-2" data-name="Laag 1"><path class="cls-1" d="M357.11,291.18c-20.07,23.66-55.23,39.65-107.52,48.87-50.09,8.83-92.19,5.23-115.5-9.87C103.88,310.61,81,267.56,71.16,212.06c-10.53-59.73,65.48-81.23,112.26-89.48,53.38-9.41,100.1-12,133.44-5.14,38.51,7.94,60.43,25.55,66.61,60.58C386.67,196.18,395.45,246,357.11,291.18Z"/><path class="cls-2" d="M801.69,212.46c-16.74,22.17-55.07,39.95-105.17,48.78-52.28,9.22-90.79,6.23-117.74-9.15-51.49-29.38-60.27-79.16-63.47-97.32-6.18-35,8.4-59.08,41.87-79.71,29-17.86,71.63-31,125-40.42C729,26.39,809.89,20.21,820.42,80,830.21,135.45,823.38,183.75,801.69,212.46Z"/><path d="M863.79.77C815-1.92,740,2.57,685,12.27c-74.89,13.2-130.33,34.49-172.44,53.3-27.7,12.38-51.63,23.07-74.06,27l-2,.36-2,.36c-22.43,4-48.57,2.09-78.84-.06-46-3.28-100.22-5.23-175.11,8-55,9.7-132.21,32.05-177.13,51.26-6.25,3.14-2.16,20.86-.12,28.34,1.35,4.93,8.54,29.49,17.43,28.87,1.8-.12,4.16-.14,6.23-.13,13.17,0,20.27,10.15,34.51,49.36,16.36,45,36.88,75,61,89.11,28.64,16.74,76.43,20.81,131.11,11.17,56.57-10,97.32-28.54,121.11-55.17,29-32.4,33.63-69.93,37.37-100.09,3.84-30.88,6.61-53.19,31.78-57.63l2-.36,2-.35c25.17-4.44,35.4,15.58,49.57,43.28,13.83,27.06,31,60.73,69.35,81.28,31.47,16.88,76.11,20.38,132.68,10.41,54.68-9.64,98.19-29.81,119.38-55.34,17.85-21.5,26.89-56.69,26.86-104.6,0-41.71,3.16-53.68,15.54-58.19,1.95-.71,4.17-1.5,5.9-2,8.57-2.46,6.92-28,6.5-33.09C873,19.63,870.74,1.58,863.79.77ZM357.11,291.18c-20.07,23.66-55.23,39.65-107.52,48.87-50.09,8.83-92.19,5.23-115.5-9.87C103.88,310.61,81,267.56,71.16,212.06c-10.53-59.73,65.48-81.23,112.26-89.48,53.38-9.41,100.1-12,133.44-5.14,38.51,7.94,60.43,25.55,66.61,60.58C386.67,196.18,395.45,246,357.11,291.18Zm444.58-78.72c-16.74,22.17-55.07,39.95-105.17,48.78-52.28,9.22-90.79,6.23-117.74-9.15-51.49-29.38-60.27-79.16-63.47-97.32-6.18-35,8.4-59.08,41.87-79.71,29-17.86,71.63-31,125-40.42C729,26.39,809.89,20.21,820.42,80,830.21,135.45,823.38,183.75,801.69,212.46Z"/><path d="M272.46,450.25a60.47,60.47,0,0,0-.28,120.93V546.93a36.17,36.17,0,1,1,36.09-36.17H272.18v23.66h60.75v-23.7A60.47,60.47,0,0,0,272.46,450.25Z"/><path d="M342.48,571.18V484.56q0-16.12,9.14-25.27t25.27-9.13H407V474.6H381.87a10.78,10.78,0,0,0-7.95,3c-2,2-3,4.71-3,8.19v85.43Z"/><path d="M589.83,571.18q-14.24,0-24.8-6.41a45.24,45.24,0,0,1-16.49-17.2,49.15,49.15,0,0,1-5.94-24.09V405.07h29.67V527.28a17.58,17.58,0,0,0,5,12.58,16.94,16.94,0,0,0,12.82,5.22H633v26.1Z"/><path d="M497.78,405.07v30.26A14.83,14.83,0,0,1,483,450.16h-14c-33.32,0-61.9,26.06-62.51,59.38a60.52,60.52,0,0,0,60.5,61.64h0a60.51,60.51,0,0,0,60.51-60.51V405.07ZM466.93,546.74A36.07,36.07,0,1,1,503,510.67,36.07,36.07,0,0,1,466.93,546.74Z"/><path d="M691.92,450.16a60.5,60.5,0,0,0-60.5,59.36c-.64,33.91,28.17,61.66,62.08,61.66h44.1a14.83,14.83,0,0,0,14.83-14.83V465a14.83,14.83,0,0,0-14.83-14.83Zm0,96.58A36.07,36.07,0,1,1,728,510.67,36.07,36.07,0,0,1,691.92,546.74Z"/><path d="M147.86,572.43c-30.19,0-54.75-24.88-54.75-55.47v-57.4c0-14.27-11.28-25.89-25.15-25.89a25.6,25.6,0,0,0-25.37,25.89V571.18H13V459.56c0-30.59,24.56-55.47,54.74-55.47,30.4,0,55,24.88,55,55.47V517c0,14.27,11.29,25.89,25.16,25.89S173,531.23,173,517V405.07H202.6V517C202.6,547.55,178,572.43,147.86,572.43Z"/><path d="M766.13,405.07v105.6a60.51,60.51,0,0,0,60.51,60.51h0a60.51,60.51,0,0,0,60.5-61.64c-.61-33.32-29.19-59.38-62.51-59.38h-14a14.83,14.83,0,0,1-14.83-14.83V405.07Zm24.44,105.6a36.07,36.07,0,1,1,36.07,36.07A36.07,36.07,0,0,1,790.57,510.67Z"/></g></g></svg>