<svg xmlns="http://www.w3.org/2000/svg" width="198" height="85" viewBox="0 0 198 85">
  <g fill="none" fill-rule="evenodd">
    <polygon fill="#363635" points="77.482 22.288 71.102 40.806 67.31 40.806 60.93 22.288 64.362 22.288 69.206 36.349 74.05 22.288"/>
    <polygon fill="#363635" points="79.701 20.766 82.524 20.489 82.939 20.489 82.939 40.529 79.701 40.529"/>
    <path fill="#363635" d="M93.5415,34.7168 C92.0325,34.7168 90.8565,34.6888 90.0535,34.8828 C89.2505,35.0758 88.8085,35.4908 88.8085,36.3358 C88.8085,37.5128 89.6525,38.1628 90.8285,38.1628 C91.2295,38.1628 91.9085,38.0798 92.4895,37.7198 C93.0705,37.3608 93.5415,36.7378 93.5415,35.5888 L93.5415,34.7168 Z M97.4025,40.8058 C96.8625,40.8058 96.3365,40.7228 95.7975,40.4878 C95.2575,40.2668 94.7175,39.8928 94.1775,39.2978 C93.6105,39.7268 93.1125,40.1008 92.5175,40.3628 C91.9085,40.6398 91.2295,40.8058 90.3025,40.8058 C89.6385,40.8058 88.9045,40.7088 88.1995,40.4598 C87.4935,40.2108 86.8425,39.7958 86.3585,39.1168 C85.8745,38.4398 85.5695,37.4978 85.5695,36.2258 C85.5695,34.9658 85.8745,33.9548 86.6485,33.2778 C87.4245,32.5998 88.6835,32.2258 90.6075,32.2258 C91.3825,32.2258 92.2815,32.2258 93.5555,32.3358 L93.5555,31.6158 C93.5555,30.6198 93.2365,29.9278 92.7245,29.5128 C92.2125,29.0978 91.5205,28.9318 90.7455,28.9318 C90.1365,28.9318 89.4585,29.0428 88.7945,29.2218 C88.1295,29.4028 87.4655,29.6368 86.8985,29.9138 L86.1375,27.0908 C87.6455,26.3708 89.5695,25.8728 91.3825,25.8728 C92.8075,25.8728 94.1365,26.1778 95.1325,26.9248 C96.1155,27.6728 96.7385,28.8488 96.7385,30.6068 L96.7385,35.9478 C96.7385,36.6268 96.9595,37.1118 97.3475,37.4438 C97.7215,37.7758 98.2465,37.9688 98.8695,38.0938 L97.4025,40.8058 Z"/>
    <path fill="#363635" d="M107.6739,34.7168 C106.1659,34.7168 104.9899,34.6888 104.1869,34.8828 C103.3839,35.0758 102.9419,35.4908 102.9419,36.3358 C102.9419,37.5128 103.7859,38.1628 104.9629,38.1628 C105.3639,38.1628 106.0409,38.0798 106.6229,37.7198 C107.2029,37.3608 107.6739,36.7378 107.6739,35.5888 L107.6739,34.7168 Z M111.5349,40.8058 C110.9959,40.8058 110.4709,40.7228 109.9299,40.4878 C109.3909,40.2668 108.8519,39.8928 108.3109,39.2978 C107.7439,39.7268 107.2459,40.1008 106.6509,40.3628 C106.0409,40.6398 105.3639,40.8058 104.4359,40.8058 C103.7719,40.8058 103.0389,40.7088 102.3329,40.4598 C101.6269,40.2108 100.9759,39.7958 100.4919,39.1168 C100.0069,38.4398 99.7029,37.4978 99.7029,36.2258 C99.7029,34.9658 100.0069,33.9548 100.7829,33.2778 C101.5569,32.5998 102.8169,32.2258 104.7409,32.2258 C105.5159,32.2258 106.4159,32.2258 107.6879,32.3358 L107.6879,31.6158 C107.6879,30.6198 107.3709,29.9278 106.8579,29.5128 C106.3459,29.0978 105.6539,28.9318 104.8799,28.9318 C104.2699,28.9318 103.5919,29.0428 102.9269,29.2218 C102.2629,29.4028 101.5989,29.6368 101.0319,29.9138 L100.2699,27.0908 C101.7789,26.3708 103.7029,25.8728 105.5159,25.8728 C106.9419,25.8728 108.2699,26.1778 109.2659,26.9248 C110.2479,27.6728 110.8709,28.8488 110.8709,30.6068 L110.8709,35.9478 C110.8709,36.6268 111.0939,37.1118 111.4809,37.4438 C111.8539,37.7758 112.3809,37.9688 113.0019,38.0938 L111.5349,40.8058 Z"/>
    <path fill="#363635" d="M114.9434,26.1635 L117.6834,26.1635 L118.0024,27.2845 C119.3304,26.3985 120.9784,25.8865 122.5844,25.8865 C123.9534,25.8865 125.2674,26.2605 126.2224,27.0905 C127.1774,27.9215 127.8004,29.2085 127.8004,30.9945 L127.8004,40.5295 L124.5624,40.5295 L124.5624,31.9485 C124.5624,30.8825 124.1754,30.1355 123.5804,29.6645 C122.9844,29.1945 122.1544,29.0005 121.3104,29.0005 C120.2034,29.0005 119.0684,29.3325 118.1814,29.8865 L118.1814,40.5295 L114.9434,40.5295 L114.9434,26.1635 Z"/>
    <path fill="#363635" d="M140.0665,29.2085 C139.2505,29.0005 138.4205,28.9035 137.7695,28.9035 C136.5375,28.9035 135.5005,29.2635 134.7795,30.0115 C134.0605,30.7585 133.6445,31.8655 133.6445,33.3605 C133.6445,34.4545 133.9495,35.5195 134.5315,36.3355 C135.1135,37.1525 135.9705,37.6925 137.1195,37.6925 C138.1015,37.6925 139.1955,37.3455 140.0665,36.8065 L140.0665,29.2085 Z M143.3045,40.5295 L140.8555,40.5295 L140.2755,39.4505 C139.1685,40.2805 138.0035,40.8055 136.4145,40.8055 C134.3515,40.8055 132.8145,39.9755 131.8045,38.7025 C130.7955,37.4285 130.2965,35.7125 130.2965,33.9415 C130.2965,31.2295 131.1135,29.2085 132.4685,27.8655 C133.8265,26.5375 135.7345,25.8865 137.9495,25.8865 C138.5995,25.8865 139.3065,25.9285 140.0665,26.0255 L140.0665,20.7665 L142.8065,20.4895 L143.3045,20.4895 L143.3045,40.5295 Z"/>
    <path fill="#363635" d="M155.1973,31.9902 C155.0993,30.9382 154.7543,30.1912 154.2563,29.6932 C153.7583,29.2082 153.1213,29.0012 152.4983,29.0012 C151.8343,29.0012 151.1563,29.2222 150.6013,29.7062 C150.0353,30.2052 149.5783,30.9522 149.3983,31.9902 L155.1973,31.9902 Z M157.4243,36.8062 L157.4243,39.9482 C156.7733,40.2662 156.0823,40.4602 155.3773,40.5982 C154.6563,40.7372 153.9513,40.8052 153.3423,40.8052 C151.3493,40.8052 149.5083,40.1832 148.1523,38.9512 C146.7953,37.7192 145.9373,35.8382 145.9373,33.3462 C145.9373,30.9252 146.7403,29.0702 147.9593,27.7972 C149.1623,26.5372 150.7813,25.8862 152.4003,25.8862 C152.8573,25.8862 153.6743,25.9422 154.5173,26.2332 C155.3633,26.5232 156.2893,27.0772 156.9823,28.0322 C157.6743,28.9872 158.1583,30.3982 158.1583,32.3912 L158.1583,34.5512 L149.4393,34.5512 C149.7013,35.7132 150.2973,36.5022 151.0723,37.0002 C151.8343,37.4982 152.7593,37.7062 153.6873,37.7062 C154.9063,37.7062 156.1933,37.3602 157.3013,36.7642 L157.4243,36.8062 Z"/>
    <path fill="#363635" d="M169.0801,29.7343 C168.2641,29.2363 167.4611,29.0143 166.6441,29.0143 C165.5941,29.0143 164.6251,29.4023 163.7521,30.0663 L163.7521,40.5293 L160.5141,40.5293 L160.5141,26.1633 L163.2541,26.1633 L163.5861,27.3393 C164.5821,26.4953 165.8011,25.8863 167.2401,25.8863 C167.6271,25.8863 168.1681,25.9143 168.6931,26.0113 C169.2191,26.1083 169.7301,26.2463 170.1051,26.4543 L169.0801,29.7343 Z"/>
    <path fill="#363635" d="M179.2286,31.9902 C179.1306,30.9382 178.7856,30.1912 178.2876,29.6932 C177.7896,29.2082 177.1526,29.0012 176.5296,29.0012 C175.8656,29.0012 175.1876,29.2222 174.6326,29.7062 C174.0666,30.2052 173.6096,30.9522 173.4296,31.9902 L179.2286,31.9902 Z M181.4556,36.8062 L181.4556,39.9482 C180.8046,40.2662 180.1136,40.4602 179.4086,40.5982 C178.6876,40.7372 177.9826,40.8052 177.3736,40.8052 C175.3806,40.8052 173.5396,40.1832 172.1836,38.9512 C170.8266,37.7192 169.9686,35.8382 169.9686,33.3462 C169.9686,30.9252 170.7716,29.0702 171.9906,27.7972 C173.1936,26.5372 174.8126,25.8862 176.4316,25.8862 C176.8886,25.8862 177.7056,25.9422 178.5486,26.2332 C179.3946,26.5232 180.3206,27.0772 181.0136,28.0322 C181.7056,28.9872 182.1896,30.3982 182.1896,32.3912 L182.1896,34.5512 L173.4706,34.5512 C173.7326,35.7132 174.3286,36.5022 175.1036,37.0002 C175.8656,37.4982 176.7906,37.7062 177.7186,37.7062 C178.9376,37.7062 180.2246,37.3602 181.3326,36.7642 L181.4556,36.8062 Z"/>
    <path fill="#363635" d="M184.545,26.1635 L187.285,26.1635 L187.604,27.2845 C188.932,26.3985 190.58,25.8865 192.186,25.8865 C193.555,25.8865 194.869,26.2605 195.824,27.0905 C196.779,27.9215 197.402,29.2085 197.402,30.9945 L197.402,40.5295 L194.164,40.5295 L194.164,31.9485 C194.164,30.8825 193.777,30.1355 193.182,29.6645 C192.586,29.1945 191.756,29.0005 190.912,29.0005 C189.805,29.0005 188.67,29.3325 187.783,29.8865 L187.783,40.5295 L184.545,40.5295 L184.545,26.1635 Z"/>
    <polygon fill="#363635" points="72.567 53.175 69.762 61.332 68.135 61.332 65.338 53.175 66.595 53.175 68.952 60.035 71.31 53.175"/>
    <path fill="#363635" d="M78.5215,56.4599 C78.5135,55.8309 78.4275,55.2579 78.1835,54.8329 C77.9395,54.4089 77.5395,54.1489 76.9025,54.1489 C76.2825,54.1489 75.7875,54.3939 75.4095,54.8019 C75.0325,55.2099 74.7895,55.7919 74.6875,56.4599 L78.5215,56.4599 Z M79.7165,57.5609 L74.6315,57.5609 C74.6945,58.5029 75.0245,59.2019 75.5035,59.6659 C75.9835,60.1299 76.6275,60.3569 77.3275,60.3569 C78.0585,60.3569 78.7805,60.1529 79.5275,59.7759 L79.5515,59.7839 L79.5515,60.9069 C78.7025,61.3239 77.9635,61.4889 77.2095,61.4889 C76.1955,61.4889 75.2445,61.1509 74.5535,60.4439 C73.8615,59.7359 73.4215,58.6599 73.4215,57.1509 C73.4215,55.9879 73.6885,54.9429 74.2625,54.2039 C74.8285,53.4659 75.7005,53.0179 76.9265,53.0179 C77.7675,53.0179 78.3485,53.2309 78.7655,53.5679 C79.1735,53.9059 79.4175,54.3689 79.5515,54.8809 C79.6845,55.3919 79.7165,55.9489 79.7165,56.4599 L79.7165,57.5609 Z"/>
    <path fill="#363635" d="M81.8907,53.1748 L82.7077,53.1748 L82.9907,54.1028 C83.5957,53.4038 84.2407,53.0178 84.9947,53.0178 C85.1907,53.0178 85.4347,53.0418 85.6787,53.0888 C85.9217,53.1358 86.1577,53.2148 86.3467,53.3008 L85.9217,54.3938 C85.6157,54.2438 85.1367,54.1418 84.7987,54.1418 C84.0827,54.1418 83.5247,54.5978 83.1087,55.2348 L83.1087,61.3318 L81.8907,61.3318 L81.8907,53.1748 Z"/>
    <path fill="#363635" d="M89.0874,60.122 C89.6214,60.334 90.1484,60.373 90.6824,60.373 C91.4994,60.373 92.1994,60.066 92.7024,59.501 C93.1974,58.943 93.4874,58.126 93.4874,57.097 C93.4874,56.287 93.3074,55.557 92.9064,55.021 C92.5054,54.487 91.8924,54.149 91.0204,54.149 C90.2034,54.149 89.5044,54.44 89.0874,55.037 L89.0874,60.122 Z M87.8694,50.11 L89.0084,49.953 L89.0874,49.953 L89.0874,53.733 C89.6604,53.293 90.3364,53.018 91.1854,53.018 C92.2544,53.018 93.1344,53.474 93.7474,54.221 C94.3594,54.975 94.7064,56.019 94.7064,57.206 C94.7064,58.361 94.3834,59.431 93.7084,60.208 C93.0324,60.994 92.0024,61.489 90.5964,61.489 C89.5824,61.489 88.6234,61.222 87.8694,60.907 L87.8694,50.11 Z"/>
    <path fill="#363635" d="M101.0616,56.4599 C101.0536,55.8309 100.9666,55.2579 100.7236,54.8329 C100.4796,54.4089 100.0796,54.1489 99.4426,54.1489 C98.8216,54.1489 98.3266,54.3939 97.9496,54.8019 C97.5726,55.2099 97.3286,55.7919 97.2266,56.4599 L101.0616,56.4599 Z M102.2556,57.5609 L97.1706,57.5609 C97.2346,58.5029 97.5646,59.2019 98.0436,59.6659 C98.5236,60.1299 99.1666,60.3569 99.8676,60.3569 C100.5976,60.3569 101.3206,60.1529 102.0676,59.7759 L102.0906,59.7839 L102.0906,60.9069 C101.2426,61.3239 100.5026,61.4889 99.7496,61.4889 C98.7356,61.4889 97.7846,61.1509 97.0926,60.4439 C96.4016,59.7359 95.9606,58.6599 95.9606,57.1509 C95.9606,55.9879 96.2286,54.9429 96.8026,54.2039 C97.3686,53.4659 98.2406,53.0179 99.4656,53.0179 C100.3066,53.0179 100.8886,53.2309 101.3046,53.5679 C101.7136,53.9059 101.9576,54.3689 102.0906,54.8809 C102.2246,55.3919 102.2556,55.9489 102.2556,56.4599 L102.2556,57.5609 Z"/>
    <path fill="#363635" d="M108.4932,56.4599 C108.4852,55.8309 108.3992,55.2579 108.1552,54.8329 C107.9122,54.4089 107.5112,54.1489 106.8752,54.1489 C106.2542,54.1489 105.7592,54.3939 105.3822,54.8019 C105.0042,55.2099 104.7612,55.7919 104.6582,56.4599 L108.4932,56.4599 Z M109.6872,57.5609 L104.6032,57.5609 C104.6662,58.5029 104.9962,59.2019 105.4752,59.6659 C105.9552,60.1299 106.5992,60.3569 107.2992,60.3569 C108.0292,60.3569 108.7532,60.1529 109.4992,59.7759 L109.5222,59.7839 L109.5222,60.9069 C108.6742,61.3239 107.9352,61.4889 107.1812,61.4889 C106.1672,61.4889 105.2172,61.1509 104.5252,60.4439 C103.8332,59.7359 103.3932,58.6599 103.3932,57.1509 C103.3932,55.9879 103.6602,54.9429 104.2342,54.2039 C104.8002,53.4659 105.6722,53.0179 106.8982,53.0179 C107.7392,53.0179 108.3202,53.2309 108.7372,53.5679 C109.1452,53.9059 109.3892,54.3689 109.5222,54.8809 C109.6562,55.3919 109.6872,55.9489 109.6872,56.4599 L109.6872,57.5609 Z"/>
    <polygon fill="#363635" points="111.453 50.11 112.585 49.953 112.664 49.953 112.664 61.332 111.453 61.332"/>
    <path fill="#363635" d="M120.167,54.456 C119.617,54.244 119.083,54.134 118.572,54.134 C117.755,54.134 117.056,54.394 116.561,54.912 C116.058,55.431 115.767,56.208 115.767,57.238 C115.767,58.047 115.947,58.825 116.348,59.398 C116.749,59.973 117.362,60.35 118.234,60.35 C119.052,60.35 119.735,60.066 120.167,59.462 L120.167,54.456 Z M121.386,61.332 L120.615,61.332 L120.363,60.609 C119.743,61.143 119.012,61.481 118.069,61.481 C117,61.481 116.12,60.986 115.507,60.192 C114.895,59.407 114.549,58.322 114.549,57.136 C114.549,55.98 114.879,54.959 115.555,54.213 C116.23,53.466 117.252,53.018 118.658,53.018 C119.192,53.018 119.688,53.089 120.167,53.183 L120.167,50.11 L121.307,49.953 L121.386,49.953 L121.386,61.332 Z"/>
    <path fill="#363635" d="M124.134,61.3321 L125.344,61.3321 L125.344,53.1751 L124.134,53.1751 L124.134,61.3321 Z M123.898,50.9511 C123.898,50.7231 123.992,50.5111 124.149,50.3541 C124.299,50.2051 124.511,50.1101 124.739,50.1101 C124.967,50.1101 125.179,50.2051 125.336,50.3541 C125.493,50.5111 125.588,50.7231 125.588,50.9511 C125.588,51.1791 125.493,51.3841 125.336,51.5331 C125.179,51.6891 124.967,51.7841 124.739,51.7841 C124.511,51.7841 124.299,51.6891 124.149,51.5331 C123.992,51.3841 123.898,51.1791 123.898,50.9511 Z"/>
    <path fill="#363635" d="M128.1016,53.1748 L128.9176,53.1748 L129.1466,53.9298 C129.4846,53.7098 129.8926,53.4818 130.3256,53.3088 C130.7566,53.1358 131.2056,53.0178 131.5896,53.0178 C132.3686,53.0178 133.0826,53.2148 133.6176,53.7008 C134.1446,54.1888 134.4746,54.9588 134.4746,56.1138 L134.4746,61.3318 L133.2556,61.3318 L133.2556,56.1848 C133.2556,55.3998 133.0516,54.8888 132.7376,54.5738 C132.4146,54.2598 131.9676,54.1418 131.4726,54.1418 C131.0946,54.1418 130.7096,54.2438 130.3406,54.3938 C129.9716,54.5428 129.6336,54.7388 129.3196,54.9278 L129.3196,61.3318 L128.1016,61.3318 L128.1016,53.1748 Z"/>
    <path fill="#363635" d="M139.4063,54.1025 C138.8023,54.1025 138.3383,54.3305 138.0233,54.6525 C137.7093,54.9745 137.5523,55.3995 137.5523,55.8075 C137.5523,56.2155 137.7173,56.6405 138.0313,56.9625 C138.3453,57.2855 138.8093,57.5045 139.4303,57.5045 C140.0353,57.5045 140.4913,57.2855 140.7983,56.9625 C141.1043,56.6485 141.2533,56.2325 141.2533,55.8235 C141.2533,55.4145 141.0953,54.9825 140.7903,54.6525 C140.4753,54.3225 140.0113,54.1025 139.4063,54.1025 Z M138.1183,60.6715 C137.6773,61.1745 137.3943,61.8115 137.3943,62.3765 C137.3943,62.8565 137.5283,63.2735 137.8433,63.5635 C138.1573,63.8545 138.6523,64.0275 139.3753,64.0275 C140.1923,64.0275 140.8913,63.7595 141.3943,63.3745 C141.8893,62.9985 142.1733,62.4955 142.1733,61.9995 C142.1733,61.3945 141.8193,61.0645 141.2533,60.8755 C140.6793,60.6955 139.8933,60.6715 139.0373,60.6715 L138.1183,60.6715 Z M140.1223,59.6265 C141.2453,59.6265 142.0703,59.8855 142.6133,60.3105 C143.1473,60.7345 143.4143,61.3165 143.4143,61.9215 C143.4143,62.8095 142.8723,63.6035 142.0783,64.1685 C141.2853,64.7425 140.2313,65.0875 139.2183,65.0875 C138.2833,65.0875 137.5283,64.7975 137.0103,64.3265 C136.4913,63.8625 136.2003,63.2095 136.2003,62.4875 C136.2003,61.8275 136.5533,61.0405 137.1753,60.4135 C136.9553,60.2875 136.7903,60.0745 136.6793,59.8315 C136.5693,59.5875 136.5073,59.3285 136.5073,59.1005 C136.5073,58.6605 136.7113,58.1575 137.0963,57.6775 C136.8763,57.4505 136.7033,57.1355 136.5933,56.7905 C136.4833,56.4525 136.4213,56.0825 136.4213,55.7375 C136.4213,54.9585 136.7263,54.2835 137.2613,53.7955 C137.7963,53.3085 138.5503,53.0175 139.4383,53.0175 C140.0433,53.0175 140.5773,53.1515 141.0173,53.3955 C141.3633,53.1355 141.7563,52.9235 142.1183,52.7825 C142.4793,52.6405 142.8253,52.5705 143.0993,52.5705 L143.4623,53.5995 C143.0293,53.6695 142.4643,53.8505 141.9283,54.1885 C142.2353,54.6285 142.4003,55.1395 142.4003,55.7055 C142.4003,56.4835 142.0863,57.1985 141.5523,57.7245 C141.0103,58.2515 140.2473,58.5815 139.3593,58.5815 C138.7863,58.5815 138.2833,58.4405 137.8503,58.2275 C137.6703,58.4565 137.5753,58.6835 137.5753,58.8955 C137.5753,59.3045 137.9293,59.6265 138.5813,59.6265 L140.1223,59.6265 Z"/>
    <polygon fill="#363635" points="160.542 53.175 157.956 61.332 156.447 61.332 154.633 55.124 152.817 61.332 151.301 61.332 148.723 53.175 149.901 53.175 152.055 59.988 154.074 53.175 155.19 53.175 157.21 59.988 159.371 53.175"/>
    <path fill="#363635" d="M166.503,56.4599 C166.495,55.8309 166.409,55.2579 166.165,54.8329 C165.922,54.4089 165.521,54.1489 164.885,54.1489 C164.264,54.1489 163.769,54.3939 163.392,54.8019 C163.014,55.2099 162.771,55.7919 162.668,56.4599 L166.503,56.4599 Z M167.697,57.5609 L162.613,57.5609 C162.676,58.5029 163.006,59.2019 163.485,59.6659 C163.965,60.1299 164.609,60.3569 165.309,60.3569 C166.039,60.3569 166.763,60.1529 167.509,59.7759 L167.532,59.7839 L167.532,60.9069 C166.684,61.3239 165.945,61.4889 165.191,61.4889 C164.177,61.4889 163.227,61.1509 162.535,60.4439 C161.843,59.7359 161.403,58.6599 161.403,57.1509 C161.403,55.9879 161.67,54.9429 162.244,54.2039 C162.81,53.4659 163.682,53.0179 164.908,53.0179 C165.749,53.0179 166.33,53.2309 166.747,53.5679 C167.155,53.9059 167.399,54.3689 167.532,54.8809 C167.666,55.3919 167.697,55.9489 167.697,56.4599 L167.697,57.5609 Z"/>
    <path fill="#363635" d="M169.8731,53.1748 L170.6901,53.1748 L170.9731,54.1028 C171.5781,53.4038 172.2231,53.0178 172.9771,53.0178 C173.1741,53.0178 173.4171,53.0418 173.6611,53.0888 C173.9041,53.1358 174.1401,53.2148 174.3291,53.3008 L173.9041,54.3938 C173.5981,54.2438 173.1181,54.1418 172.7801,54.1418 C172.0651,54.1418 171.5081,54.5978 171.0911,55.2348 L171.0911,61.3318 L169.8731,61.3318 L169.8731,53.1748 Z"/>
    <path fill="#363635" d="M181.5245,61.4892 C181.1165,61.4662 180.6365,61.2062 180.1575,60.8292 C179.6775,60.4602 179.1745,59.9572 178.7355,59.4462 C178.2875,58.9432 177.8785,58.4252 177.5875,58.0082 C177.4385,57.8032 177.3205,57.6312 177.2345,57.4812 C177.1395,57.3322 177.0855,57.2382 177.0695,57.1902 L177.0695,61.3322 L175.8515,61.3322 L175.8515,50.1652 L176.9905,49.9532 L177.0695,49.9532 L177.0695,57.0412 L180.3065,53.1752 L181.8625,53.1752 L178.5465,57.1202 C178.5865,57.3012 178.8445,57.6772 179.2225,58.1182 C179.5995,58.5662 180.0875,59.0772 180.5895,59.5092 C181.0925,59.9412 181.6115,60.2872 182.0275,60.4132 L181.5245,61.4892 Z"/>
    <path fill="#363635" d="M182.5684,53.1748 L183.4714,53.1748 L183.4714,51.7138 L184.6114,51.5008 L184.6904,51.5008 L184.6904,53.1748 L186.9534,53.1748 L186.9534,54.3068 L184.6904,54.3068 L184.6904,58.3148 C184.6904,59.0608 184.8554,59.5638 185.1144,59.8938 C185.3744,60.2238 185.7434,60.3648 186.1594,60.3648 C186.6304,60.3648 187.1574,60.1848 187.6914,59.8778 L188.0214,60.9938 C187.3304,61.3088 186.6464,61.4888 186.0094,61.4888 C185.2954,61.4888 184.6734,61.2698 184.2114,60.7588 C183.7474,60.2558 183.4714,59.4538 183.4714,58.3148 L183.4714,54.3068 L182.5684,54.3068 L182.5684,53.1748 Z"/>
    <polygon fill="#363635" points="64.923 84.161 36.685 1.137 37.087 1 65.325 84.024"/>
    <path fill="#363635" d="M36.8628,42.4091 C34.8258,40.8541 33.8718,42.4211 32.5908,42.3171 C31.5068,42.2311 30.4908,40.4811 29.6518,40.8991 C28.0508,41.7141 30.2938,44.5951 31.2668,45.1821 C32.1338,45.7021 33.2248,46.1801 33.4868,46.3021 C34.7738,46.9031 35.2858,47.8131 35.4478,49.2351 C35.4888,49.5611 35.4478,50.3051 35.3678,50.6511 C34.7808,53.1431 30.4148,55.4071 27.9078,53.6941 C26.7268,52.8861 25.6488,51.8411 25.2758,49.9911 C24.6008,46.7161 22.2368,44.3071 21.4788,41.1021 C21.0178,39.1551 20.6768,37.1001 20.1688,35.1411 C19.6518,33.1161 19.1198,31.1101 18.6958,29.2701 C18.3088,27.5591 17.4958,25.0031 16.9068,23.4451 C14.5118,17.1931 13.4298,17.6471 13.4298,17.6471 C13.4298,17.6471 14.3018,19.3831 17.4728,34.7061 C17.6038,35.3331 18.7568,42.0831 19.5978,44.3051 C19.8988,45.1021 20.4248,46.8041 20.7698,47.5551 C21.7788,49.7511 24.4418,53.0791 24.6178,56.0791 C24.7188,57.8131 24.9168,59.2491 24.9578,60.5611 C24.9828,60.9461 25.1528,62.5111 25.4028,63.2061 C26.0528,65.0361 31.3028,70.9401 36.8768,70.9401 L36.8768,66.4661 C31.3388,66.4661 26.1218,63.3621 25.9928,63.0361 C25.9128,62.8891 26.2808,60.7721 26.6558,59.8311 C27.3818,58.0091 28.7498,56.3431 31.1558,56.1651 C33.8388,55.9721 35.4578,56.7511 36.8768,56.7511 L36.8628,42.4091 Z"/>
    <path fill="#363635" d="M12.813,26.1699 C12.61,29.5209 7.424,34.1029 5.799,37.0399 C5.003,38.4849 4.031,40.9659 3.78,42.4029 C3.09,46.4009 3.965,48.8859 4.94,51.2259 C6.656,55.3389 4.708,56.8509 6.049,56.0169 C7.71,54.6629 7.458,51.5069 7.335,49.5359 C7.239,47.9369 7.131,46.1179 7.374,44.2119 C7.834,40.6459 9.994,36.8169 11.837,34.1419 C14.026,30.9499 13.231,27.6489 12.813,26.1699"/>
    <path fill="#363635" d="M13.858,35.6865 C13.858,35.6865 14.411,38.3405 12.069,45.1665 C5.944,63.0205 17.644,64.7115 20.975,68.9095 C20.975,68.9095 22.264,67.0905 16.958,61.2705 C15.02,59.1435 13.272,54.4575 14.795,47.7645 C16.997,38.0735 13.858,35.6865 13.858,35.6865"/>
    <path fill="#363635" d="M2.2759,23.9814 C1.9959,22.9264 1.9109,21.9834 1.9719,21.1414 C2.2549,16.9464 6.0649,15.2484 7.0139,14.6234 C7.0139,14.6234 8.7269,13.4504 8.9479,12.2654 C8.9479,12.2654 10.7019,16.6804 6.6799,19.2104 C4.6389,20.4954 3.2529,22.0014 2.2759,23.9814"/>
    <path fill="#363635" d="M11.8833,19.9267 C12.1003,20.3527 13.6793,22.6637 7.2123,28.0007 C0.7583,33.3307 2.7743,37.1417 2.7743,37.1417 C2.7743,37.1417 -4.1157,33.3097 3.8203,26.6887 C11.7543,20.0727 10.1283,18.7317 10.1283,18.7317 C10.1283,18.7317 11.2643,18.6767 11.8833,19.9267"/>
    <path fill="#363635" d="M23.7583,23.5381 C23.8523,23.2881 23.9873,23.4891 24.2703,23.3111 C24.5713,23.0261 24.8813,22.5591 25.3713,22.4021 C25.7233,22.2941 26.2053,22.3451 26.5343,22.4721 C26.7533,22.5261 26.6203,23.0891 26.4563,23.2331 C26.1073,23.4911 25.0743,23.0661 25.0743,23.8401 C25.1173,25.1081 26.7893,23.8001 27.6633,23.8361 C28.0903,26.9311 22.9973,26.0791 23.7583,23.5381 M20.2783,21.9701 C21.3953,22.1161 22.1063,25.6011 24.6903,26.3581 C26.5903,26.9131 28.6103,26.6121 29.0583,27.7551 C28.1863,28.2181 28.8733,29.7511 29.7503,29.5001 C30.4743,27.4641 30.8383,19.5951 20.2783,21.9701"/>
  </g>
</svg>
